<svg width="400" height="401" viewBox="0 0 400 401" fill="none" xmlns="http://www.w3.org/2000/svg">
<g clip-path="url(#clip0_4765_3968)">
<path fill-rule="evenodd" clip-rule="evenodd" d="M270.933 352.924C225.832 365.906 175.704 368.466 135.806 343.752C92.6117 316.996 65.0197 270.391 56.7582 220.257C48.2314 168.513 58.956 114.265 91.1694 72.8837C123.179 31.7635 173.262 -2.43767 224.948 4.19822C272.141 10.2572 287.561 68.4704 320.935 102.383C346.084 127.938 386.075 140.805 393.836 175.809C401.991 212.591 381.613 248.225 360.134 279.179C337.269 312.128 309.473 341.83 270.933 352.924Z" fill="url(#paint0_linear_4765_3968)" fill-opacity="0.8"/>
<path fill-rule="evenodd" clip-rule="evenodd" d="M360.406 226.903C358.944 272.27 346.353 319.15 311.617 348.476C274.011 380.225 222.721 391.695 173.94 384.328C123.59 376.725 76.6716 350.663 48.0507 308.673C19.6106 266.949 2.95501 210.664 24.5061 165.096C44.1838 123.489 102.566 126.683 143.854 106.105C174.967 90.5973 198.785 57.6487 233.441 60.9592C269.856 64.4378 296.698 93.8238 318.887 122.825C342.507 153.696 361.655 188.135 360.406 226.903Z" fill="url(#paint1_linear_4765_3968)"/>
<circle opacity="0.4" cx="252.001" cy="18.7615" r="6.54082" fill="#FFAB00"/>
<circle opacity="0.4" cx="381.819" cy="252.003" r="12.0563" fill="#FFAB00"/>
<circle cx="369.763" cy="89.2316" r="3.21501" fill="#252541"/>
<circle cx="162.548" cy="393.809" r="4" fill="#252541"/>
<path d="M351.92 310.215C351.92 312.989 350.53 315.689 347.903 318.28C334.73 335.426 310.696 351.593 197.867 351.593C85.0376 351.593 63.7156 333.942 47.8302 318.28C45.2028 315.689 43.8135 312.989 43.8135 310.215C43.8135 290.667 112.785 274.82 197.867 274.82C282.948 274.82 351.92 290.667 351.92 310.215Z" fill="url(#paint2_linear_4765_3968)"/>
<path d="M197.019 291.755C233.53 291.755 266.577 294.654 290.491 299.337C302.45 301.679 312.113 304.464 318.779 307.551C322.113 309.094 324.684 310.708 326.418 312.367C328.152 314.026 329.027 315.711 329.027 317.406C329.027 319.101 328.152 320.786 326.418 322.445C324.684 324.105 322.113 325.718 318.779 327.262C312.113 330.348 302.45 333.134 290.491 335.476C266.577 340.159 233.53 343.058 197.019 343.058C160.507 343.058 127.459 340.159 103.545 335.476C91.5861 333.134 81.924 330.348 75.2578 327.262C71.924 325.718 69.3531 324.105 67.6191 322.445C65.8853 320.786 65.0088 319.101 65.0088 317.406C65.0088 315.711 65.8854 314.026 67.6191 312.367C69.3531 310.708 71.9241 309.094 75.2578 307.551C81.924 304.464 91.5861 301.679 103.545 299.337C127.459 294.654 160.507 291.755 197.019 291.755Z" fill="url(#paint3_linear_4765_3968)" stroke="url(#paint4_linear_4765_3968)" stroke-width="0.5"/>
<path d="M66.9687 238.062L68.591 241.121C70.6816 245.065 73.9069 248.29 77.85 250.381L80.91 252.003L77.85 253.625C73.9069 255.716 70.6816 258.941 68.591 262.884L66.9687 265.944L65.3463 262.884C63.2558 258.941 60.0304 255.716 56.0873 253.625L53.0273 252.003L56.0873 250.381C60.0304 248.29 63.2558 245.065 65.3463 241.121L66.9687 238.062Z" fill="url(#paint5_linear_4765_3968)"/>
<path fill-rule="evenodd" clip-rule="evenodd" d="M310.402 66.7293C308.462 69.8301 304.376 70.7712 301.275 68.8314C298.175 66.8916 297.233 62.8055 299.173 59.7047C301.113 56.6039 305.199 55.6628 308.3 57.6026C311.401 59.5424 312.342 63.6286 310.402 66.7293ZM306.864 76.8682C310.703 76.2826 314.273 74.0902 316.494 70.5401C320.538 64.0751 318.576 55.5554 312.111 51.511C305.646 47.4665 297.126 49.4288 293.082 55.8939C290.861 59.444 290.451 63.6136 291.604 67.3215C232.52 36.3725 155.016 60.0437 110.796 122.582L336.265 263.633C373.158 196.51 360.541 116.461 306.864 76.8682Z" fill="url(#paint6_linear_4765_3968)"/>
<path opacity="0.4" fill-rule="evenodd" clip-rule="evenodd" d="M152.46 129.454C141.347 124.341 135.349 121.662 126.511 118.377C162.887 66.9315 225.527 46.1559 275.295 67.9736C229.119 67.9259 184.156 87.9294 152.46 129.454Z" fill="#474785"/>
<ellipse cx="223.511" cy="193.077" rx="133.017" ry="13.2183" transform="rotate(32.0243 223.511 193.077)" fill="#1C1C31"/>
<path d="M275.598 193.231L277.7 197.195C280.408 202.302 284.585 206.48 289.693 209.188L293.656 211.289L289.693 213.39C284.585 216.098 280.408 220.276 277.7 225.383L275.598 229.346L273.497 225.383C270.789 220.276 266.612 216.098 261.504 213.39L257.541 211.289L261.504 209.188C266.612 206.48 270.789 202.302 273.497 197.195L275.598 193.231Z" fill="url(#paint7_linear_4765_3968)"/>
<path opacity="0.8" fill-rule="evenodd" clip-rule="evenodd" d="M47.7949 303.284C45.7005 305.107 44.9584 307.922 44.8101 309.964C43.8458 323.24 87.2837 343.509 194.391 344.857C114.268 341.654 38.3752 327.235 47.7949 303.284Z" fill="#474785"/>
<path opacity="0.8" fill-rule="evenodd" clip-rule="evenodd" d="M348.642 303.508C350.736 305.331 351.478 308.145 351.626 310.187C352.591 323.464 309.153 343.733 202.045 345.08C282.168 341.878 358.061 327.459 348.642 303.508Z" fill="#2D2D53"/>
<path d="M89.3081 265.711L92.2643 271.287C96.0737 278.472 101.951 284.349 109.136 288.159L114.712 291.115L109.136 294.071C101.951 297.88 96.0737 303.758 92.2643 310.943L89.3081 316.519L86.3519 310.943C82.5425 303.758 76.6653 297.88 69.4802 294.071L63.9043 291.115L69.4802 288.159C76.6653 284.349 82.5425 278.472 86.3519 271.287L89.3081 265.711Z" fill="url(#paint8_linear_4765_3968)"/>
</g>
<defs>
<linearGradient id="paint0_linear_4765_3968" x1="456.008" y1="241.787" x2="-44.3922" y2="97.5863" gradientUnits="userSpaceOnUse">
<stop stop-color="#FFF8D6"/>
<stop offset="1" stop-color="#FFF8D6" stop-opacity="0"/>
</linearGradient>
<linearGradient id="paint1_linear_4765_3968" x1="312.945" y1="23.4608" x2="31.6691" y2="441.595" gradientUnits="userSpaceOnUse">
<stop stop-color="#FFF8D6"/>
<stop offset="1" stop-color="#FFF8D6" stop-opacity="0"/>
</linearGradient>
<linearGradient id="paint2_linear_4765_3968" x1="286.678" y1="268.541" x2="46.7478" y2="349.772" gradientUnits="userSpaceOnUse">
<stop stop-color="#252541"/>
<stop offset="1" stop-color="#363663"/>
</linearGradient>
<linearGradient id="paint3_linear_4765_3968" x1="219.433" y1="343.308" x2="185.302" y2="287.038" gradientUnits="userSpaceOnUse">
<stop stop-color="#1C1C31"/>
<stop offset="0.997276" stop-color="#2D2D53"/>
</linearGradient>
<linearGradient id="paint4_linear_4765_3968" x1="258.953" y1="295.122" x2="109.856" y2="319.822" gradientUnits="userSpaceOnUse">
<stop stop-color="#1C1C31"/>
<stop offset="1" stop-color="#363663"/>
</linearGradient>
<linearGradient id="paint5_linear_4765_3968" x1="66.9687" y1="238.062" x2="66.9687" y2="276.205" gradientUnits="userSpaceOnUse">
<stop stop-color="#FFBF00"/>
<stop offset="1" stop-color="#FFEA80"/>
</linearGradient>
<linearGradient id="paint6_linear_4765_3968" x1="365.718" y1="227.644" x2="148.36" y2="75.8525" gradientUnits="userSpaceOnUse">
<stop stop-color="#252541"/>
<stop offset="1" stop-color="#363663"/>
</linearGradient>
<linearGradient id="paint7_linear_4765_3968" x1="275.598" y1="193.231" x2="275.598" y2="229.346" gradientUnits="userSpaceOnUse">
<stop stop-color="#FFBF00"/>
<stop offset="1" stop-color="#FFEA80"/>
</linearGradient>
<linearGradient id="paint8_linear_4765_3968" x1="89.3081" y1="265.711" x2="89.3081" y2="316.519" gradientUnits="userSpaceOnUse">
<stop stop-color="#FFBF00"/>
<stop offset="1" stop-color="#FFEA80"/>
</linearGradient>
<clipPath id="clip0_4765_3968">
<rect y="0.5" width="400" height="400" rx="52" fill="white"/>
</clipPath>
</defs>
</svg>
