<svg width="190" height="41" viewBox="0 0 190 41" fill="none" xmlns="http://www.w3.org/2000/svg">
<path fill-rule="evenodd" clip-rule="evenodd" d="M24.7812 16.7653C23.2798 16.7653 21.9035 16.2649 20.84 15.389C19.4011 16.6402 17.3992 17.4535 15.1471 17.4535C12.3319 17.4535 9.89214 16.2023 8.45328 14.3255C7.51489 15.0762 6.38883 15.5142 5.13765 15.5142C4.7623 15.5142 4.32438 15.4516 3.94903 15.389L4.69974 23.8345H4.19927C3.76135 23.8345 3.386 24.2099 3.44856 24.7103L3.94903 29.3397C4.01159 29.8402 4.4495 30.2155 4.88741 30.2155C4.88741 30.2155 12.3945 29.3397 14.8969 29.3397C17.3367 29.3397 24.6561 30.2155 24.6561 30.2155C25.094 30.2155 25.5319 29.8402 25.657 29.3397L26.3452 24.7103C26.4077 24.2099 26.0949 23.8345 25.5944 23.8345H24.9063L25.7196 16.7653C25.4693 16.7653 25.1565 16.7653 24.7812 16.7653Z" fill="#FFAB00"/>
<path fill-rule="evenodd" clip-rule="evenodd" d="M24.7186 5.50472C23.9679 5.50472 23.2172 5.6924 22.5916 6.00519C21.5907 2.81469 18.6504 0.5 15.1471 0.5C11.9566 0.5 9.20399 2.50189 8.01536 5.31704C7.2021 4.62889 6.13859 4.25354 5.01253 4.25354C2.25994 4.25354 0.0078125 6.50566 0.0078125 9.32081C0.0078125 12.136 2.25994 14.3881 5.01253 14.3881C6.45139 14.3881 7.76513 13.7625 8.70351 12.7616C10.0798 14.9511 12.5196 16.3274 15.2096 16.3274C17.4618 16.3274 19.4637 15.3265 20.9025 13.8251C21.8409 14.9511 23.2172 15.7018 24.7812 15.7018C27.5338 15.7018 29.7859 13.4497 29.7859 10.6346C29.7859 7.8194 27.4712 5.50472 24.7186 5.50472Z" fill="#FFAB00"/>
<path fill-rule="evenodd" clip-rule="evenodd" d="M19.2135 34.0315C17.5869 33.4685 15.7102 34.4069 14.7718 34.9699C14.0211 34.4694 12.2694 33.4685 10.4552 34.0315C8.20308 34.7822 7.95284 39.9746 3.07324 36.2211C5.45048 41.6637 8.82867 41.1633 11.0182 38.8486C12.7699 37.0344 14.1462 36.7216 14.6467 36.659H14.7092C15.2097 36.659 16.7737 36.9718 18.5879 38.8486C20.7774 41.1633 24.1556 41.6637 26.5329 36.2211C21.7158 39.9121 21.4656 34.7822 19.2135 34.0315Z" fill="black"/>
<g clip-path="url(#clip0_1189_59217)">
<path fill-rule="evenodd" clip-rule="evenodd" d="M37.293 25.7863L39.2323 23.4716C40.546 24.5976 41.9849 25.2858 43.674 25.2858C44.9877 25.2858 45.801 24.7228 45.801 23.8469V23.7844C45.801 22.9711 45.3005 22.5332 42.7982 21.845C39.7953 21.0943 37.9186 20.2185 37.9186 17.2782V17.2157C37.9186 14.4631 40.0456 12.7114 43.111 12.7114C45.238 12.7114 47.1147 13.3996 48.6161 14.6508L46.9271 17.1531C45.6133 16.2147 44.2996 15.6517 43.0484 15.6517C41.7972 15.6517 41.1716 16.2147 41.1716 16.9654V17.028C41.1716 18.0289 41.7972 18.3417 44.3621 19.0299C47.365 19.8432 49.0541 20.9067 49.0541 23.5341V23.5967C49.0541 26.5995 46.8019 28.2886 43.6114 28.2886C41.2967 28.1635 39.0446 27.3502 37.293 25.7863Z" fill="#FFAB00"/>
<path fill-rule="evenodd" clip-rule="evenodd" d="M51.8067 12.8991H55.31L59.1886 19.2801L63.0673 12.8991H66.5706V27.9133H63.3175V18.0915L59.1261 24.5351H59.0635L54.9346 18.1541V27.9133H51.8067V12.8991Z" fill="#FFAB00"/>
<path fill-rule="evenodd" clip-rule="evenodd" d="M78.6445 21.6574L76.7051 16.7778L74.7658 21.6574H78.6445ZM75.2037 12.774H78.2066L84.525 27.9133H81.1468L79.7705 24.5351H73.5146L72.1383 27.9133H68.8227L75.2037 12.774Z" fill="#FFAB00"/>
<path fill-rule="evenodd" clip-rule="evenodd" d="M93.4084 20.2185C94.9724 20.2185 95.9108 19.3427 95.9108 18.0915V18.0289C95.9108 16.5901 94.9098 15.9019 93.3458 15.9019H90.0928V20.2185H93.4084ZM86.8397 12.8991H93.5961C95.4728 12.8991 96.9117 13.4621 97.9126 14.4005C98.7259 15.2138 99.1638 16.4024 99.1638 17.8413V17.9038C99.1638 20.3436 97.8501 21.845 95.9733 22.5958L99.6017 27.9758H95.7856L92.5951 23.1588H90.0302V27.9758H86.8397V12.8991Z" fill="#FFAB00"/>
<path fill-rule="evenodd" clip-rule="evenodd" d="M105.607 15.9645H101.103V12.8991H113.365V15.9645H108.86V27.9758H105.607V15.9645Z" fill="#FFAB00"/>
<path fill-rule="evenodd" clip-rule="evenodd" d="M116.493 12.9617H118.182V26.4119H126.502V27.9758H116.493V12.9617Z" fill="black"/>
<path fill-rule="evenodd" clip-rule="evenodd" d="M128.942 21.7199V12.9617H130.631V21.5948C130.631 24.8479 132.32 26.6621 135.135 26.6621C137.888 26.6621 139.577 24.973 139.577 21.7199V12.9617H141.266V21.5948C141.266 25.9739 138.764 28.2261 135.073 28.2261C131.444 28.2261 128.942 25.9739 128.942 21.7199Z" fill="black"/>
<path fill-rule="evenodd" clip-rule="evenodd" d="M145.207 12.9617H146.771L156.093 25.0356V12.9617H157.719V27.9758H156.405L146.834 15.6517V27.9758H145.207V12.9617Z" fill="black"/>
<path fill-rule="evenodd" clip-rule="evenodd" d="M161.285 20.5313C161.285 16.2147 164.413 12.7114 168.792 12.7114C171.482 12.7114 173.109 13.6498 174.547 15.0887L173.421 16.3398C172.17 15.1512 170.794 14.2754 168.792 14.2754C165.539 14.2754 163.037 16.9654 163.037 20.4687V20.5313C163.037 24.0346 165.539 26.7246 168.792 26.7246C170.794 26.7246 172.17 25.9114 173.546 24.5351L174.673 25.6611C173.109 27.2251 171.419 28.2886 168.729 28.2886C164.413 28.2886 161.285 24.8479 161.285 20.5313Z" fill="black"/>
<path fill-rule="evenodd" clip-rule="evenodd" d="M177.55 12.9617H179.239V19.6555H187.81V12.9617H189.499V27.9758H187.81V21.2195H179.239V27.9758H177.55V12.9617Z" fill="black"/>
</g>
<defs>
<clipPath id="clip0_1189_59217">
<rect width="152.206" height="15.5772" fill="white" transform="translate(37.293 12.7114)"/>
</clipPath>
</defs>
</svg>
