<svg width="25" height="25" viewBox="0 0 25 25" fill="none" xmlns="http://www.w3.org/2000/svg">
    <path fill-rule="evenodd" clip-rule="evenodd" d="M16.9793 11.0177C17.3155 11.6828 16.8321 12.4688 16.0868 12.4688C15.7096 12.4688 15.3645 12.2565 15.1943 11.9198L13.4238 8.41681V4.5H11.5763L11.5763 8.41587L6.20225 19.0489C5.86608 19.7141 6.34947 20.5 7.09474 20.5H11.4688C12.021 20.5 12.4688 20.9477 12.4688 21.5C12.4688 22.0523 12.021 22.5 11.4688 22.5H7.09474C4.85893 22.5 3.40876 20.1422 4.41728 18.1468L9.57634 7.93917L9.57634 6.15011C9.00046 5.80827 8.61446 5.18015 8.61446 4.46187C8.61446 3.37836 9.49282 2.5 10.5763 2.5H14.4238C15.5074 2.5 16.3857 3.37836 16.3857 4.46187C16.3857 5.18015 15.9997 5.80827 15.4238 6.15011V7.9401L16.9793 11.0177ZM18.0312 13.5312C18.5835 13.5312 19.0312 13.979 19.0312 14.5312V17.0312H21.5312C22.0835 17.0312 22.5312 17.479 22.5312 18.0312C22.5312 18.5835 22.0835 19.0312 21.5312 19.0312H19.0312V21.5312C19.0312 22.0835 18.5835 22.5312 18.0312 22.5312C17.479 22.5312 17.0312 22.0835 17.0312 21.5312V19.0312H14.5312C13.979 19.0312 13.5312 18.5835 13.5312 18.0312C13.5312 17.479 13.979 17.0312 14.5312 17.0312H17.0312V14.5312C17.0312 13.979 17.479 13.5312 18.0312 13.5312Z" fill="#1C1C31"/>
</svg>
