<svg width="25" height="25" viewBox="0 0 25 25" fill="none" xmlns="http://www.w3.org/2000/svg">
    <path fill-rule="evenodd" clip-rule="evenodd" d="M12.6997 4.83325C10.578 4.83325 8.54314 5.67611 7.04285 7.1764C5.54256 8.67669 4.69971 10.7115 4.69971 12.8333C4.69971 13.8838 4.90663 14.9241 5.30867 15.8947C5.71071 16.8653 6.29998 17.7472 7.04285 18.4901C7.78572 19.233 8.66764 19.8223 9.63824 20.2243C10.6088 20.6263 11.6491 20.8333 12.6997 20.8333C13.7503 20.8333 14.7906 20.6263 15.7612 20.2243C16.7318 19.8223 17.6137 19.233 18.3566 18.4901C19.0994 17.7472 19.6887 16.8653 20.0907 15.8947C20.4928 14.9241 20.6997 13.8838 20.6997 12.8333C20.6997 10.7115 19.8569 8.67669 18.3566 7.1764C16.8563 5.67611 14.8214 4.83325 12.6997 4.83325ZM5.62864 5.76218C7.504 3.88682 10.0475 2.83325 12.6997 2.83325C15.3519 2.83325 17.8954 3.88682 19.7708 5.76218C21.6461 7.63755 22.6997 10.1811 22.6997 12.8333C22.6997 14.1465 22.441 15.4468 21.9385 16.6601C21.436 17.8733 20.6994 18.9757 19.7708 19.9043C18.8422 20.8329 17.7398 21.5695 16.5265 22.072C15.3133 22.5746 14.0129 22.8333 12.6997 22.8333C11.3865 22.8333 10.0861 22.5746 8.87287 22.072C7.65962 21.5695 6.55722 20.8329 5.62864 19.9043C4.70005 18.9757 3.96346 17.8733 3.46091 16.6601C2.95836 15.4468 2.69971 14.1465 2.69971 12.8333C2.69971 10.1811 3.75328 7.63755 5.62864 5.76218ZM17.6997 12.8333C17.6997 13.3855 17.252 13.8333 16.6997 13.8333H13.6997V16.8333C13.6997 17.3855 13.252 17.8333 12.6997 17.8333C12.1474 17.8333 11.6997 17.3855 11.6997 16.8333V13.8333H8.69971C8.14742 13.8333 7.69971 13.3855 7.69971 12.8333C7.69971 12.281 8.14742 11.8333 8.69971 11.8333H11.6997V8.83325C11.6997 8.28097 12.1474 7.83325 12.6997 7.83325C13.252 7.83325 13.6997 8.28097 13.6997 8.83325V11.8333H16.6997C17.252 11.8333 17.6997 12.281 17.6997 12.8333Z" fill="#1C1C31"/>
</svg>
