<svg width="25" height="25" viewBox="0 0 25 25" fill="none" xmlns="http://www.w3.org/2000/svg">
    <path fill-rule="evenodd" clip-rule="evenodd" d="M16.4062 3.75C16.4062 4.30228 15.9585 4.75 15.4062 4.75C14.854 4.75 14.4062 4.30228 14.4062 3.75C14.4062 3.19772 14.854 2.75 15.4062 2.75C15.9585 2.75 16.4062 3.19772 16.4062 3.75ZM5.5 6.75C6.05228 6.75 6.5 6.30228 6.5 5.75C6.5 5.19772 6.05228 4.75 5.5 4.75C4.94772 4.75 4.5 5.19772 4.5 5.75C4.5 6.30228 4.94772 6.75 5.5 6.75ZM9.53125 4.75C10.0835 4.75 10.5312 4.30228 10.5312 3.75C10.5312 3.19772 10.0835 2.75 9.53125 2.75C8.97896 2.75 8.53125 3.19772 8.53125 3.75C8.53125 4.30228 8.97896 4.75 9.53125 4.75ZM19.5 6.75C20.0523 6.75 20.5 6.30228 20.5 5.75C20.5 5.19772 20.0523 4.75 19.5 4.75C18.9477 4.75 18.5 5.19772 18.5 5.75C18.5 6.30228 18.9477 6.75 19.5 6.75ZM12.9746 8.02607C14.6528 8.93103 15.921 10.5032 16.422 12.3887C16.6775 12.2878 16.9414 12.2003 17.2132 12.1275C18.3737 11.8165 19.5469 11.808 20.6462 12.0548C21.0601 12.1477 21.3704 12.4918 21.4202 12.9131C21.8329 16.4051 19.6328 19.7615 16.1364 20.6984C15.2522 20.9353 14.3606 20.9967 13.5 20.9033V21.6562C13.5 22.2085 13.0523 22.6562 12.5 22.6562C11.9477 22.6562 11.5 22.2085 11.5 21.6562V20.9039C10.6411 20.9964 9.75136 20.9348 8.86898 20.6984C5.37255 19.7615 3.17249 16.4051 3.58521 12.9131C3.63501 12.4918 3.94526 12.1477 4.35922 12.0548C5.45846 11.808 6.63166 11.8165 7.79221 12.1275C8.06223 12.1999 8.32452 12.2867 8.57847 12.3868C9.07985 10.5021 10.3478 8.93072 12.0254 8.02607C12.3216 7.86631 12.6784 7.86631 12.9746 8.02607ZM8.34957 14.479C8.01466 14.3031 7.65523 14.1614 7.27457 14.0594C6.69117 13.903 6.10573 13.8525 5.53763 13.8956C5.59932 16.1324 7.1148 18.1578 9.38661 18.7665C9.65069 18.8373 9.91518 18.8864 10.1783 18.9149C9.09988 17.7363 8.41874 16.1868 8.34957 14.479ZM14.8211 18.9155C15.0862 18.8871 15.3527 18.8378 15.6188 18.7665C17.8906 18.1578 19.4061 16.1324 19.4678 13.8956C18.8997 13.8525 18.3142 13.903 17.7308 14.0594C17.3481 14.1619 16.9868 14.3047 16.6503 14.4819C16.5805 16.1889 15.8993 17.7376 14.8211 18.9155ZM12.5 10.0776C11.1956 10.9812 10.3437 12.4871 10.3437 14.1909C10.3437 15.8946 11.1956 17.4005 12.5 18.3041C13.8044 17.4005 14.6562 15.8946 14.6562 14.1909C14.6562 12.4871 13.8044 10.9812 12.5 10.0776ZM8.5 8.75C9.05228 8.75 9.5 8.30228 9.5 7.75C9.5 7.19772 9.05228 6.75 8.5 6.75C7.94771 6.75 7.5 7.19772 7.5 7.75C7.5 8.30228 7.94771 8.75 8.5 8.75ZM13.5 5.75C13.5 6.30228 13.0523 6.75 12.5 6.75C11.9477 6.75 11.5 6.30228 11.5 5.75C11.5 5.19772 11.9477 4.75 12.5 4.75C13.0523 4.75 13.5 5.19772 13.5 5.75ZM16.5 8.75C17.0523 8.75 17.5 8.30228 17.5 7.75C17.5 7.19772 17.0523 6.75 16.5 6.75C15.9477 6.75 15.5 7.19772 15.5 7.75C15.5 8.30228 15.9477 8.75 16.5 8.75Z" fill="#1C1C31"/>
</svg>
