<svg width="25" height="24" viewBox="0 0 25 24" fill="none" xmlns="http://www.w3.org/2000/svg">
    <path fill-rule="evenodd" clip-rule="evenodd" d="M4.02954 12C4.02954 14.1217 4.8724 16.1566 6.37269 17.6569C7.87298 19.1571 9.90781 20 12.0295 20C13.0801 20 14.1204 19.7931 15.091 19.391C16.0616 18.989 16.9435 18.3997 17.6864 17.6569C18.4293 16.914 19.0185 16.0321 19.4206 15.0615C19.8226 14.0909 20.0295 13.0506 20.0295 12C20.0295 10.9494 19.8226 9.90914 19.4206 8.93853C19.0185 7.96793 18.4293 7.08601 17.6864 6.34315C16.9435 5.60028 16.0616 5.011 15.091 4.60896C14.1204 4.20693 13.0801 4 12.0295 4C9.90781 4 7.87298 4.84286 6.37269 6.34315C4.8724 7.84344 4.02954 9.87827 4.02954 12ZM4.95847 19.0711C3.08311 17.1957 2.02954 14.6522 2.02954 12C2.02954 9.34783 3.08311 6.8043 4.95847 4.92893C6.83384 3.05357 9.37738 2 12.0295 2C13.3428 2 14.6431 2.25866 15.8564 2.7612C17.0696 3.26375 18.172 4.00035 19.1006 4.92893C20.0292 5.85752 20.7658 6.95991 21.2683 8.17316C21.7709 9.38642 22.0295 10.6868 22.0295 12C22.0295 13.3132 21.7709 14.6136 21.2683 15.8268C20.7658 17.0401 20.0292 18.1425 19.1006 19.0711C18.172 19.9997 17.0696 20.7362 15.8564 21.2388C14.6431 21.7413 13.3428 22 12.0295 22C9.37738 22 6.83384 20.9464 4.95847 19.0711ZM8.32243 11.7071C7.93191 11.3166 7.93191 10.6834 8.32243 10.2929L11.3217 7.29361C11.3241 7.29119 11.3266 7.28879 11.329 7.28639C11.4233 7.19374 11.5315 7.12357 11.6468 7.07588C11.7638 7.02735 11.892 7.0004 12.0265 7C12.0275 7 12.0285 7 12.0295 7C12.0305 7 12.0315 7 12.0325 7C12.167 7.0004 12.2953 7.02735 12.4123 7.07588C12.5317 7.12536 12.6393 7.19729 12.7301 7.28639C12.7325 7.28879 12.7349 7.29119 12.7374 7.29361L15.7366 10.2929C16.1272 10.6834 16.1272 11.3166 15.7366 11.7071C15.3461 12.0976 14.713 12.0976 14.3224 11.7071L13.0295 10.4142L13.0295 16C13.0295 16.5523 12.5818 17 12.0295 17C11.4773 17 11.0295 16.5523 11.0295 16L11.0295 10.4142L9.73665 11.7071C9.34612 12.0976 8.71296 12.0976 8.32243 11.7071Z" fill="#1C1C31"/>
</svg>
