<svg width="25" height="25" viewBox="0 0 25 25" fill="none" xmlns="http://www.w3.org/2000/svg">
    <path fill-rule="evenodd" clip-rule="evenodd" d="M4.80762 2.75C3.15076 2.75 1.80762 4.09315 1.80762 5.75V19.75C1.80762 21.4069 3.15076 22.75 4.80762 22.75H8.80762C10.4645 22.75 11.8076 21.4069 11.8076 19.75V5.75C11.8076 4.09315 10.4645 2.75 8.80762 2.75H4.80762ZM3.80762 5.75C3.80762 5.19772 4.25533 4.75 4.80762 4.75H8.80762C9.3599 4.75 9.80762 5.19772 9.80762 5.75V19.75C9.80762 20.3023 9.3599 20.75 8.80762 20.75H4.80762C4.25533 20.75 3.80762 20.3023 3.80762 19.75V5.75ZM16.8076 10.75C15.1508 10.75 13.8076 12.0931 13.8076 13.75V19.75C13.8076 21.4069 15.1508 22.75 16.8076 22.75H20.8076C22.4645 22.75 23.8076 21.4069 23.8076 19.75V13.75C23.8076 12.0931 22.4645 10.75 20.8076 10.75H16.8076ZM15.8076 13.75C15.8076 13.1977 16.2553 12.75 16.8076 12.75H20.8076C21.3599 12.75 21.8076 13.1977 21.8076 13.75V19.75C21.8076 20.3023 21.3599 20.75 20.8076 20.75H16.8076C16.2553 20.75 15.8076 20.3023 15.8076 19.75V13.75Z" fill="#1C1C31"/>
</svg>
