<svg width="25" height="25" viewBox="0 0 25 25" fill="none" xmlns="http://www.w3.org/2000/svg">
    <path fill-rule="evenodd" clip-rule="evenodd" d="M8.89256 8.98629C8.89256 9.82238 8.21477 10.5002 7.37869 10.5002C6.5426 10.5002 5.86482 9.82238 5.86482 8.98629C5.86482 8.1502 6.5426 7.47241 7.37869 7.47241C8.21477 7.47241 8.89256 8.1502 8.89256 8.98629ZM5.71908 11.0822C5.18818 11.0819 4.66556 11.2138 4.19837 11.466V7.94485H2.5V14.3013C2.4993 14.9387 2.68762 15.562 3.04114 16.0923C3.39466 16.6227 3.89751 17.0363 4.4861 17.2808C5.07469 17.5254 5.72259 17.5899 6.34785 17.4663C6.97312 17.3426 7.54767 17.0363 7.99886 16.5861C8.45005 16.1359 8.75761 15.562 8.88265 14.9371C9.00768 14.3121 8.94458 13.664 8.70131 13.0749C8.45805 12.4858 8.04555 11.982 7.51599 11.6273C6.98642 11.2726 6.36356 11.0829 5.72619 11.0822H5.71908ZM5.71908 15.8256C5.41792 15.8242 5.12392 15.7336 4.87419 15.5653C4.62446 15.3969 4.4302 15.1584 4.31592 14.8797C4.20164 14.6011 4.17247 14.2948 4.23208 13.9996C4.2917 13.7044 4.43743 13.4335 4.65088 13.221C4.86433 13.0085 5.13594 12.8641 5.43142 12.8058C5.7269 12.7476 6.03302 12.7782 6.31113 12.8938C6.58924 13.0093 6.82688 13.2047 6.99405 13.4552C7.16123 13.7057 7.25045 14.0001 7.25045 14.3013C7.25045 14.5021 7.21079 14.7009 7.13375 14.8863C7.0567 15.0717 6.94379 15.24 6.8015 15.3817C6.6592 15.5233 6.49033 15.6354 6.30457 15.7116C6.11882 15.7878 5.91985 15.8265 5.71908 15.8256ZM11.7451 7.94485H10.0468V17.4529H11.7451V7.94485ZM14.8933 11.1534H13.1949V17.453H14.8933V11.1534ZM19.9489 14.1201L22.5 17.4529H20.29L18.0409 14.2196V17.4529H16.3425V7.94485H18.0409V14.0313L20.29 11.1533H22.2939L19.9489 14.1201Z" fill="#1C1C31"/>
</svg>
