<svg width="24" height="24" viewBox="0 0 24 24" fill="none" xmlns="http://www.w3.org/2000/svg">
<path fill-rule="evenodd" clip-rule="evenodd" d="M7.07047 7C6.73612 7 6.42389 7.1671 6.23842 7.4453L5.86862 8H18.1316L17.7618 7.4453C17.5763 7.1671 17.2641 7 16.9297 7H7.07047ZM4.57432 6.3359L3.23684 8.34212C2.49685 8.77622 2 9.58009 2 10.5C2 11.3822 2.45691 12.1576 3.14699 12.6026L4.59569 16.9487C5.00403 18.1737 6.15044 19 7.44174 19L16.5587 19C17.85 19 18.9964 18.1737 19.4047 16.9487L20.8536 12.6022C21.5433 12.1572 22 11.3819 22 10.5C22 9.58023 21.5033 8.77648 20.7635 8.34233L19.4259 6.3359C18.8695 5.5013 17.9328 5 16.9297 5H7.07047C6.06741 5 5.13072 5.5013 4.57432 6.3359ZM9 13H5.38764L6.49305 16.3162C6.62917 16.7246 7.01131 17 7.44174 17L16.5587 17C16.9891 17 17.3713 16.7246 17.5074 16.3162L18.6128 13H15V13.5C15 14.6046 14.1046 15.5 13 15.5H11C9.89543 15.5 9 14.6046 9 13.5V13ZM10 11H4.5C4.22386 11 4 10.7761 4 10.5C4 10.2239 4.22386 10 4.5 10H19.5C19.7761 10 20 10.2239 20 10.5C20 10.7761 19.7761 11 19.5 11H14H10ZM11 13V13.5H13V13H11Z" fill="#1C1C31"/>
</svg>
