<svg width="25" height="25" viewBox="0 0 25 25" fill="none" xmlns="http://www.w3.org/2000/svg">
    <path fill-rule="evenodd" clip-rule="evenodd" d="M7.26337 7.51923C7.24141 7.50075 7.22006 7.48117 7.19939 7.4605L4.01741 4.27852C3.62688 3.88799 3.62688 3.25483 4.01741 2.8643C4.40793 2.47378 5.0411 2.47378 5.43162 2.8643L8.6136 6.04628C8.63428 6.06697 8.65387 6.08833 8.67236 6.1103C9.77128 5.30024 11.1294 4.82151 12.5994 4.82151C14.0694 4.82151 15.4276 5.30028 16.5265 6.11041C16.545 6.08843 16.5646 6.06707 16.5853 6.04638L19.7673 2.8644C20.1578 2.47388 20.7909 2.47388 21.1815 2.8644C21.572 3.25492 21.572 3.88809 21.1815 4.27861L17.9995 7.46059C17.9788 7.48128 17.9574 7.50087 17.9355 7.51937C18.336 8.06265 18.6555 8.6693 18.8762 9.32151H21.5994C22.1516 9.32151 22.5994 9.76922 22.5994 10.3215C22.5994 10.8738 22.1516 11.3215 21.5994 11.3215H19.2232C19.224 11.3631 19.2244 11.4047 19.2244 11.4465V13.8215H21.5994C22.1516 13.8215 22.5994 14.2692 22.5994 14.8215C22.5994 15.3738 22.1516 15.8215 21.5994 15.8215H19.2244V15.9465C19.2244 16.7835 19.0692 17.5842 18.7859 18.3215H21.5992C22.1515 18.3215 22.5992 18.7692 22.5992 19.3215C22.5992 19.8738 22.1515 20.3215 21.5992 20.3215H17.5744C16.3603 21.701 14.5815 22.5715 12.5994 22.5715C10.6172 22.5715 8.83841 21.701 7.62432 20.3215H3.59937C3.04708 20.3215 2.59937 19.8738 2.59937 19.3215C2.59937 18.7692 3.04708 18.3215 3.59937 18.3215H6.41279C6.12958 17.5842 5.97437 16.7835 5.97437 15.9465V15.8215H3.59937C3.04708 15.8215 2.59937 15.3738 2.59937 14.8215C2.59937 14.2692 3.04708 13.8215 3.59937 13.8215H5.97437V11.4465C5.97437 11.4047 5.97475 11.3631 5.97552 11.3215H3.59937C3.04708 11.3215 2.59937 10.8738 2.59937 10.3215C2.59937 9.76922 3.04708 9.32151 3.59937 9.32151H6.32251C6.54326 8.66925 6.86281 8.06255 7.26337 7.51923ZM17.2244 14.8215V11.4465C17.2244 8.89219 15.1537 6.82151 12.5994 6.82151C10.045 6.82151 7.97437 8.89219 7.97437 11.4465V14.8215V15.9465C7.97437 18.5008 10.045 20.5715 12.5994 20.5715C15.1537 20.5715 17.2244 18.5008 17.2244 15.9465V14.8215ZM15.8494 11.4023C15.8494 11.9546 15.4017 12.4023 14.8494 12.4023H10.2611C9.70885 12.4023 9.26114 11.9546 9.26114 11.4023C9.26114 10.85 9.70885 10.4023 10.2611 10.4023H14.8494C15.4017 10.4023 15.8494 10.85 15.8494 11.4023ZM14.8494 16.9907C15.4017 16.9907 15.8494 16.543 15.8494 15.9907C15.8494 15.4384 15.4017 14.9907 14.8494 14.9907H10.2611C9.70885 14.9907 9.26114 15.4384 9.26114 15.9907C9.26114 16.543 9.70885 16.9907 10.2611 16.9907H14.8494Z" fill="#1C1C31"/>
</svg>
