<svg width="24" height="25" viewBox="0 0 24 25" fill="none" xmlns="http://www.w3.org/2000/svg">
    <path fill-rule="evenodd" clip-rule="evenodd" d="M2.99951 6.125C2.99951 5.57272 3.44723 5.125 3.99951 5.125H19.9995C20.5518 5.125 20.9995 5.57272 20.9995 6.125C20.9995 6.67728 20.5518 7.125 19.9995 7.125H3.99951C3.44723 7.125 2.99951 6.67728 2.99951 6.125ZM2.99951 12.125C2.99951 11.5727 3.44723 11.125 3.99951 11.125H19.9995C20.5518 11.125 20.9995 11.5727 20.9995 12.125C20.9995 12.6773 20.5518 13.125 19.9995 13.125H3.99951C3.44723 13.125 2.99951 12.6773 2.99951 12.125ZM2.99951 18.125C2.99951 17.5727 3.44723 17.125 3.99951 17.125H19.9995C20.5518 17.125 20.9995 17.5727 20.9995 18.125C20.9995 18.6773 20.5518 19.125 19.9995 19.125H3.99951C3.44723 19.125 2.99951 18.6773 2.99951 18.125Z" fill="#1C1C31"/>
</svg>
