<svg width="24" height="25" viewBox="0 0 24 25" fill="none" xmlns="http://www.w3.org/2000/svg">
    <path fill-rule="evenodd" clip-rule="evenodd" d="M7.99951 2.125C8.5518 2.125 8.99951 2.57272 8.99951 3.125V4.125H14.9995V3.125C14.9995 2.57272 15.4472 2.125 15.9995 2.125C16.5518 2.125 16.9995 2.57272 16.9995 3.125V4.125H18.9995C19.7952 4.125 20.5582 4.44107 21.1208 5.00368C21.6834 5.56629 21.9995 6.32935 21.9995 7.125V19.125C21.9995 19.9207 21.6834 20.6837 21.1208 21.2463C20.5582 21.8089 19.7952 22.125 18.9995 22.125H4.99951C4.20386 22.125 3.4408 21.8089 2.87819 21.2463C2.31558 20.6837 1.99951 19.9207 1.99951 19.125V7.125C1.99951 6.32935 2.31558 5.56629 2.87819 5.00368C3.4408 4.44107 4.20386 4.125 4.99951 4.125H6.99951V3.125C6.99951 2.57272 7.44723 2.125 7.99951 2.125ZM6.99951 6.125H4.99951C4.7343 6.125 4.47994 6.23036 4.2924 6.41789C4.10487 6.60543 3.99951 6.85978 3.99951 7.125V19.125C3.99951 19.3902 4.10487 19.6446 4.2924 19.8321C4.47994 20.0196 4.7343 20.125 4.99951 20.125H18.9995C19.2647 20.125 19.5191 20.0196 19.7066 19.8321C19.8942 19.6446 19.9995 19.3902 19.9995 19.125V7.125C19.9995 6.85978 19.8942 6.60543 19.7066 6.41789C19.5191 6.23036 19.2647 6.125 18.9995 6.125H16.9995V7.125C16.9995 7.67728 16.5518 8.125 15.9995 8.125C15.4472 8.125 14.9995 7.67728 14.9995 7.125V6.125H8.99951V7.125C8.99951 7.67728 8.5518 8.125 7.99951 8.125C7.44723 8.125 6.99951 7.67728 6.99951 7.125V6.125ZM5.99951 11.125C5.99951 10.5727 6.44723 10.125 6.99951 10.125H16.9995C17.5518 10.125 17.9995 10.5727 17.9995 11.125C17.9995 11.6773 17.5518 12.125 16.9995 12.125H6.99951C6.44723 12.125 5.99951 11.6773 5.99951 11.125Z" fill="#1C1C31"/>
</svg>
