<svg width="25" height="25" viewBox="0 0 25 25" fill="none" xmlns="http://www.w3.org/2000/svg">
    <path fill-rule="evenodd" clip-rule="evenodd" d="M4.61518 5.14207C4.80845 4.93588 5.05623 4.83325 5.2998 4.83325H19.2998C19.5434 4.83325 19.7912 4.93588 19.9844 5.14207C20.1798 5.35045 20.2998 5.64614 20.2998 5.96693V14.5017C20.2998 14.8225 20.1798 15.1181 19.9844 15.3265C19.7912 15.5327 19.5434 15.6353 19.2998 15.6353H16.2998C16.0234 15.6353 15.7593 15.7498 15.5702 15.9515L12.2998 19.4405L9.0294 15.9515C8.84035 15.7498 8.57624 15.6353 8.2998 15.6353H5.2998C5.05623 15.6353 4.80846 15.5327 4.61518 15.3265C4.41986 15.1181 4.2998 14.8225 4.2998 14.5017V5.96693C4.2998 5.64613 4.41986 5.35045 4.61518 5.14207ZM5.2998 2.83325C4.48251 2.83325 3.71287 3.18021 3.156 3.77431C2.60118 4.36622 2.2998 5.15596 2.2998 5.96693V14.5017C2.2998 15.3126 2.60118 16.1024 3.156 16.6943C3.71287 17.2884 4.48251 17.6353 5.2998 17.6353H7.86652L11.5702 21.5866C11.7593 21.7883 12.0234 21.9027 12.2998 21.9027C12.5762 21.9027 12.8403 21.7883 13.0294 21.5866L16.7331 17.6353H19.2998C20.1171 17.6353 20.8867 17.2884 21.4436 16.6943C21.9984 16.1024 22.2998 15.3126 22.2998 14.5017V5.96693C22.2998 5.15596 21.9984 4.36622 21.4436 3.77431C20.8867 3.18021 20.1171 2.83325 19.2998 2.83325H5.2998ZM8.2998 11.8333C8.85209 11.8333 9.2998 11.3855 9.2998 10.8333C9.2998 10.281 8.85209 9.83325 8.2998 9.83325C7.74752 9.83325 7.2998 10.281 7.2998 10.8333C7.2998 11.3855 7.74752 11.8333 8.2998 11.8333ZM13.2998 10.8333C13.2998 11.3855 12.8521 11.8333 12.2998 11.8333C11.7475 11.8333 11.2998 11.3855 11.2998 10.8333C11.2998 10.281 11.7475 9.83325 12.2998 9.83325C12.8521 9.83325 13.2998 10.281 13.2998 10.8333ZM16.2998 11.8333C16.8521 11.8333 17.2998 11.3855 17.2998 10.8333C17.2998 10.281 16.8521 9.83325 16.2998 9.83325C15.7475 9.83325 15.2998 10.281 15.2998 10.8333C15.2998 11.3855 15.7475 11.8333 16.2998 11.8333Z" fill="#1C1C31"/>
</svg>
