<svg width="25" height="24" viewBox="0 0 25 24" fill="none" xmlns="http://www.w3.org/2000/svg">
    <path fill-rule="evenodd" clip-rule="evenodd" d="M12.7356 4C10.6139 4 8.57903 4.84285 7.07874 6.34315C5.57845 7.84344 4.7356 9.87827 4.7356 12C4.7356 13.0506 4.94252 14.0909 5.34456 15.0615C5.7466 16.0321 6.33587 16.914 7.07874 17.6569C7.82161 18.3997 8.70352 18.989 9.67413 19.391C10.6447 19.7931 11.685 20 12.7356 20C13.7862 20 14.8265 19.7931 15.7971 19.391C16.7677 18.989 17.6496 18.3997 18.3924 17.6569C19.1353 16.914 19.7246 16.0321 20.1266 15.0615C20.5287 14.0909 20.7356 13.0506 20.7356 12C20.7356 9.87827 19.8927 7.84344 18.3924 6.34315C16.8922 4.84285 14.8573 4 12.7356 4ZM5.66453 4.92893C7.53989 3.05357 10.0834 2 12.7356 2C15.3878 2 17.9313 3.05357 19.8067 4.92893C21.682 6.8043 22.7356 9.34784 22.7356 12C22.7356 13.3132 22.4769 14.6136 21.9744 15.8268C21.4718 17.0401 20.7352 18.1425 19.8067 19.0711C18.8781 19.9997 17.7757 20.7362 16.5624 21.2388C15.3492 21.7413 14.0488 22 12.7356 22C11.4224 22 10.122 21.7413 8.90876 21.2388C7.69551 20.7362 6.59311 19.9997 5.66453 19.0711C4.73594 18.1425 3.99935 17.0401 3.4968 15.8268C2.99425 14.6136 2.7356 13.3132 2.7356 12C2.7356 9.34784 3.78916 6.8043 5.66453 4.92893ZM12.7356 7C13.2879 7 13.7356 7.44772 13.7356 8V11.5858L16.4427 14.2929C16.8332 14.6834 16.8332 15.3166 16.4427 15.7071C16.0522 16.0976 15.419 16.0976 15.0285 15.7071L12.0285 12.7071C11.841 12.5196 11.7356 12.2652 11.7356 12V8C11.7356 7.44772 12.1833 7 12.7356 7Z" fill="#1C1C31"/>
</svg>
