<svg width="25" height="25" viewBox="0 0 25 25" fill="none" xmlns="http://www.w3.org/2000/svg">
    <path fill-rule="evenodd" clip-rule="evenodd" d="M6.26408 5.70964C6.65461 5.31912 7.28777 5.31912 7.6783 5.70964L12.9712 11.0025L18.2641 5.70964C18.6546 5.31912 19.2878 5.31912 19.6783 5.70964C20.0688 6.10017 20.0688 6.73333 19.6783 7.12385L14.3854 12.4167L19.6783 17.7096C20.0688 18.1002 20.0688 18.7333 19.6783 19.1239C19.2878 19.5144 18.6546 19.5144 18.2641 19.1239L12.9712 13.831L7.6783 19.1239C7.28777 19.5144 6.65461 19.5144 6.26408 19.1239C5.87356 18.7333 5.87356 18.1002 6.26408 17.7096L11.557 12.4167L6.26408 7.12385C5.87356 6.73333 5.87356 6.10017 6.26408 5.70964Z" fill="#1C1C31"/>
</svg>
