<svg width="25" height="24" viewBox="0 0 25 24" fill="none" xmlns="http://www.w3.org/2000/svg">
    <path fill-rule="evenodd" clip-rule="evenodd" d="M12.2513 10.3962C12.5599 10.3404 12.8143 10.2634 13.0231 10.1748L4.71344 6.73553C4.79854 6.94579 4.92408 7.17998 5.10296 7.43754C5.71234 8.31494 6.80927 9.22643 8.29459 9.84118C9.7799 10.4559 11.2001 10.5863 12.2513 10.3962ZM5.47838 4.8876L13.7878 8.32676C13.7027 8.11654 13.5772 7.8824 13.3983 7.62489C12.789 6.74749 11.692 5.836 10.2067 5.22125C8.7214 4.6065 7.30116 4.47616 6.24995 4.66627C5.94144 4.72207 5.68715 4.79901 5.47838 4.8876ZM7.52974 11.6892C11.1019 13.1676 14.7681 12.5046 15.7186 10.2082C16.669 7.91183 14.5437 4.85173 10.9716 3.37328C7.39944 1.89482 3.73318 2.55787 2.78275 4.85424C1.83231 7.1506 3.95761 10.2107 7.52974 11.6892ZM18.4395 4.00001C18.4395 4.55229 17.9917 5.00001 17.4395 5.00001C16.8872 5.00001 16.4395 4.55229 16.4395 4.00001C16.4395 3.44772 16.8872 3.00001 17.4395 3.00001C17.9917 3.00001 18.4395 3.44772 18.4395 4.00001ZM15.2402 19.6612C15.8708 19.9874 16.8439 20.1342 18.0941 19.6715C19.3444 19.2089 19.9876 18.4641 20.2539 17.806L15.2402 19.6612ZM19.5597 15.9304C18.9291 15.6042 17.9561 15.4576 16.706 15.9201C15.4559 16.3827 14.8127 17.1274 14.5463 17.7854L19.5597 15.9304ZM22.4395 9.00001C22.4395 9.55229 21.9917 10 21.4395 10C20.8872 10 20.4395 9.55229 20.4395 9.00001C20.4395 8.44772 20.8872 8.00001 21.4395 8.00001C21.9917 8.00001 22.4395 8.44772 22.4395 9.00001ZM17.4395 9.00001C17.9917 9.00001 18.4395 8.55229 18.4395 8.00001C18.4395 7.44772 17.9917 7.00001 17.4395 7.00001C16.8872 7.00001 16.4395 7.44772 16.4395 8.00001C16.4395 8.55229 16.8872 9.00001 17.4395 9.00001ZM3.43945 18C3.99174 18 4.43945 17.5523 4.43945 17C4.43945 16.4477 3.99174 16 3.43945 16C2.88717 16 2.43945 16.4477 2.43945 17C2.43945 17.5523 2.88717 18 3.43945 18ZM9.43945 16C9.43945 16.5523 8.99174 17 8.43945 17C7.88717 17 7.43945 16.5523 7.43945 16C7.43945 15.4477 7.88717 15 8.43945 15C8.99174 15 9.43945 15.4477 9.43945 16ZM8.43945 21C8.99174 21 9.43945 20.5523 9.43945 20C9.43945 19.4477 8.99174 19 8.43945 19C7.88717 19 7.43945 19.4477 7.43945 20C7.43945 20.5523 7.88717 21 8.43945 21ZM22.2243 16.0108C22.9909 18.0826 21.4525 20.5614 18.7882 21.5473C16.1238 22.5331 13.3425 21.6528 12.5759 19.5809C11.8092 17.509 13.3476 15.0303 16.012 14.0444C18.6763 13.0585 21.4577 13.9389 22.2243 16.0108Z" fill="#1C1C31"/>
</svg>
