<svg width="25" height="25" viewBox="0 0 25 25" fill="none" xmlns="http://www.w3.org/2000/svg">
    <path fill-rule="evenodd" clip-rule="evenodd" d="M8.71856 20.4295C9.04993 20.7609 9.58721 20.7609 9.91859 20.4295L12.5757 17.7723V21.4295C12.5757 21.9029 12.9595 22.2866 13.4329 22.2866C13.9062 22.2866 14.29 21.9029 14.29 21.4295V17.7723L16.9471 20.4295C17.2785 20.7609 17.8158 20.7609 18.1472 20.4295C18.4785 20.0981 18.4785 19.5608 18.1471 19.2295L14.29 15.3723V13.1438H16.5186L20.3757 17.0009C20.7071 17.3323 21.2444 17.3323 21.5757 17.0009C21.9071 16.6695 21.9071 16.1323 21.5757 15.8009L18.9186 13.1438H22.5757C23.0491 13.1438 23.4329 12.76 23.4329 12.2866C23.4329 11.8132 23.0491 11.4295 22.5757 11.4295H18.9186L21.5757 8.77236C21.9071 8.44099 21.9071 7.90373 21.5757 7.57235C21.2444 7.24096 20.7071 7.24095 20.3757 7.57234L16.5186 11.4295H14.29V9.20089L18.1471 5.34378C18.4785 5.01241 18.4785 4.47516 18.1472 4.14378C17.8158 3.81239 17.2785 3.81238 16.9471 4.14377L14.29 6.80092V3.14376C14.29 2.67038 13.9062 2.28662 13.4329 2.28662C12.9595 2.28662 12.5757 2.67038 12.5757 3.14376V6.80092L9.91859 4.14377C9.58721 3.81238 9.04993 3.81239 8.71856 4.14378C8.3872 4.47516 8.38721 5.01241 8.71858 5.34378L12.5757 9.20089V11.4295H10.3472L6.49002 7.57234C6.15864 7.24095 5.62136 7.24096 5.28999 7.57235C4.95863 7.90373 4.95864 8.44099 5.29001 8.77236L7.94714 11.4295H4.29C3.81662 11.4295 3.43286 11.8132 3.43286 12.2866C3.43286 12.76 3.81662 13.1438 4.29 13.1438H7.94714L5.29001 15.8009C4.95864 16.1323 4.95863 16.6695 5.28999 17.0009C5.62136 17.3323 6.15864 17.3323 6.49002 17.0009L10.3472 13.1438H12.5757V15.3723L8.71858 19.2295C8.38721 19.5608 8.3872 20.0981 8.71856 20.4295Z" fill="#1C1C31"/>
</svg>
