<svg width="48" height="48" viewBox="0 0 48 48" fill="none" xmlns="http://www.w3.org/2000/svg">
<circle cx="24" cy="24" r="18" fill="#FFFCEB"/>
<path d="M33.103 25.2379C32.693 25.2379 32.333 24.9529 32.233 24.5355C32.113 24.0469 32.413 23.5684 32.893 23.4361C35.773 22.7337 35.843 21.0438 35.843 21.0234C35.843 20.5144 36.243 20.1174 36.743 20.1174C37.243 20.1174 37.643 20.5144 37.643 21.0234C37.643 21.1558 37.593 24.1486 33.323 25.1972C33.243 25.2277 33.173 25.2379 33.103 25.2379Z" fill="#CC0C36"/>
<path d="M36.7027 9.70348C36.6727 9.15377 37.2627 8.81784 37.7127 9.12323C38.7027 9.7951 40.1227 10.9658 40.8927 12.452C42.1927 14.9766 41.9227 17.2264 40.8527 19.0689C40.1927 20.2193 38.5927 21.0438 36.7927 21.0438C32.6427 21.0438 31.2027 15.6383 31.9027 12.6251C32.0027 12.1772 32.5427 12.0041 32.9027 12.2688L36.9927 15.2922L36.6927 9.6933L36.7027 9.70348Z" fill="#CC0C36"/>
<path d="M41.1028 29.2489C40.8728 29.2489 40.6328 29.1572 40.4628 28.974L39.8628 28.353C38.9028 27.3452 37.4428 27.0195 36.1528 27.5386L34.2228 28.3021C33.7628 28.4854 33.2428 28.2512 33.0628 27.783C32.8828 27.3147 33.1128 26.7853 33.5728 26.6021L35.5128 25.8386C37.4828 25.0649 39.6928 25.5536 41.1528 27.0907L41.7528 27.7117C42.1028 28.0782 42.0828 28.6482 41.7228 28.9944C41.5428 29.1674 41.3228 29.2387 41.0928 29.2387L41.1028 29.2489Z" fill="#CC0C36"/>
<path d="M8.1031 34.0945C7.6931 33.8196 7.5631 33.2699 7.8331 32.8424C8.9831 31.0202 11.1531 30.0938 13.2531 30.5214L13.8431 30.6333C14.3331 30.7351 14.6531 31.2136 14.5431 31.7124C14.4331 32.2112 13.9631 32.5268 13.4831 32.425L12.8931 32.313C11.5231 32.028 10.0931 32.6388 9.3431 33.8298C9.1731 34.1047 8.8831 34.2472 8.5931 34.2472C8.4231 34.2472 8.2631 34.2065 8.1031 34.1047V34.0945Z" fill="#CC0C36"/>
<path d="M10.9828 38.8789C10.5528 38.6346 10.3928 38.0849 10.6328 37.6471L10.8928 37.1789C11.8128 35.5195 13.5528 34.4812 15.4328 34.4812H16.1728C16.6728 34.4812 17.0728 34.8782 17.0728 35.3872C17.0728 35.8962 16.6728 36.2932 16.1728 36.2932H15.4328C14.2028 36.2932 13.0528 36.9651 12.4528 38.0543L12.1928 38.5226C12.0228 38.8178 11.7228 38.9909 11.4128 38.9909C11.2728 38.9909 11.1228 38.9502 10.9828 38.8789Z" fill="#CC0C36"/>
<g style="mix-blend-mode:multiply" opacity="0.36">
<path d="M8.1031 34.0945C7.6931 33.8196 7.5631 33.2699 7.8331 32.8424C8.9831 31.0202 11.1531 30.0938 13.2531 30.5214L13.8431 30.6333C14.3331 30.7351 14.6531 31.2136 14.5431 31.7124C14.4331 32.2112 13.9631 32.5268 13.4831 32.425L12.8931 32.313C11.5231 32.028 10.0931 32.6388 9.3431 33.8298C9.1731 34.1047 8.8831 34.2472 8.5931 34.2472C8.4231 34.2472 8.2631 34.2065 8.1031 34.1047V34.0945Z" fill="#CC0C36"/>
</g>
<g style="mix-blend-mode:multiply" opacity="0.36">
<path d="M10.9828 38.8789C10.5528 38.6346 10.3928 38.0849 10.6328 37.6471L10.8928 37.1789C11.8128 35.5195 13.5528 34.4812 15.4328 34.4812H16.1728C16.6728 34.4812 17.0728 34.8782 17.0728 35.3872C17.0728 35.8962 16.6728 36.2932 16.1728 36.2932H15.4328C14.2028 36.2932 13.0528 36.9651 12.4528 38.0543L12.1928 38.5226C12.0228 38.8178 11.7228 38.9909 11.4128 38.9909C11.2728 38.9909 11.1228 38.9502 10.9828 38.8789Z" fill="#CC0C36"/>
</g>
<path d="M34.4327 25.5435L32.5927 23.5889C30.8427 21.726 28.4227 20.6775 25.8927 20.6775H22.2527C19.7227 20.6775 17.2927 21.726 15.5527 23.5889L13.7127 25.5435C12.6527 26.6734 12.3227 28.3124 12.8427 29.7783C13.8827 32.6693 15.9027 37.0772 18.6127 37.0772H29.5627C32.2827 37.0772 34.3027 32.6693 35.3327 29.7783C35.8427 28.3124 35.5127 26.6836 34.4527 25.5435H34.4327Z" fill="#CC0C36"/>
<g style="mix-blend-mode:multiply" opacity="0.36">
<path d="M29.5429 33.0866H18.5929C16.0729 33.0866 14.1529 29.2997 13.0729 26.4392C12.5329 27.447 12.4329 28.6686 12.8329 29.7782C13.8729 32.6693 15.8929 37.0771 18.6029 37.0771H29.5529C32.2729 37.0771 34.2929 32.6693 35.3229 29.7782C35.7229 28.6686 35.6129 27.447 35.0829 26.4392C33.9929 29.2997 32.0729 33.0866 29.5629 33.0866H29.5429Z" fill="#CC0C36"/>
</g>
<path d="M38.7829 33.8299C38.0329 32.6388 36.5929 32.028 35.2329 32.3131L34.6429 32.425C34.1529 32.5167 33.6729 32.2011 33.5829 31.7125C33.4929 31.2238 33.8029 30.7454 34.2829 30.6334L34.8729 30.5214C36.9529 30.0939 39.1429 31.0304 40.2929 32.8424C40.5629 33.27 40.4429 33.8299 40.0229 34.0945C39.8729 34.1862 39.7029 34.2371 39.5329 34.2371C39.2429 34.2371 38.9429 34.0945 38.7829 33.8197V33.8299Z" fill="#CC0C36"/>
<path d="M36.1427 38.5329L35.8827 38.0646C35.2827 36.9753 34.1327 36.3035 32.9027 36.3035H32.1627C31.6627 36.3035 31.2627 35.9065 31.2627 35.3975C31.2627 34.8885 31.6627 34.4915 32.1627 34.4915H32.9027C34.7827 34.4915 36.5227 35.5298 37.4427 37.1891L37.7027 37.6574C37.9427 38.0849 37.7927 38.6448 37.3527 38.8891C37.2127 38.9706 37.0727 39.0011 36.9227 39.0011C36.6027 39.0011 36.2927 38.8281 36.1427 38.5329Z" fill="#CC0C36"/>
<path d="M14.8627 25.2381C14.8027 25.2381 14.7227 25.2279 14.6427 25.2075C10.3727 24.159 10.2427 20.7996 10.2427 20.6775H12.0327L12.1127 21.0236C12.1127 21.0847 12.2327 22.7644 15.0627 23.4566C15.5527 23.5686 15.8427 24.0674 15.7227 24.556C15.6227 24.9428 15.2527 25.2279 14.8527 25.2279L14.8627 25.2381Z" fill="#CC0C36"/>
<path d="M6.90283 29.249C6.68283 29.249 6.45283 29.1574 6.27283 28.9945C5.91283 28.6484 5.90283 28.0783 6.24283 27.7118L6.84283 27.0908C8.31283 25.5537 10.5228 25.0549 12.4828 25.8387L14.4128 26.6022C14.8728 26.7855 15.1028 27.3148 14.9228 27.7831C14.7428 28.2513 14.2228 28.4855 13.7628 28.3022L11.8328 27.5388C10.5428 27.0298 9.08283 27.3453 8.12283 28.3531L7.52283 28.9741C7.35283 29.1675 7.12283 29.2592 6.89283 29.2592L6.90283 29.249Z" fill="#CC0C36"/>
<g style="mix-blend-mode:multiply" opacity="0.36">
<path d="M38.7829 33.8299C38.0329 32.6388 36.5929 32.028 35.2329 32.3131L34.6429 32.425C34.1529 32.5167 33.6729 32.2011 33.5829 31.7125C33.4929 31.2238 33.8029 30.7454 34.2829 30.6334L34.8729 30.5214C36.9529 30.0939 39.1429 31.0304 40.2929 32.8424C40.5629 33.27 40.4429 33.8299 40.0229 34.0945C39.8729 34.1862 39.7029 34.2371 39.5329 34.2371C39.2429 34.2371 38.9429 34.0945 38.7829 33.8197V33.8299Z" fill="#CC0C36"/>
</g>
<g style="mix-blend-mode:multiply" opacity="0.36">
<path d="M36.1427 38.5329L35.8827 38.0646C35.2827 36.9753 34.1327 36.3035 32.9027 36.3035H32.1627C31.6627 36.3035 31.2627 35.9065 31.2627 35.3975C31.2627 34.8885 31.6627 34.4915 32.1627 34.4915H32.9027C34.7827 34.4915 36.5227 35.5298 37.4427 37.1891L37.7027 37.6574C37.9427 38.0849 37.7927 38.6448 37.3527 38.8891C37.2127 38.9706 37.0727 39.0011 36.9227 39.0011C36.6027 39.0011 36.2927 38.8281 36.1427 38.5329Z" fill="#CC0C36"/>
</g>
<path d="M20.673 19.4661C21.423 19.4661 22.033 18.9062 22.033 18.2241C22.033 17.5421 21.423 16.9822 20.673 16.9822C19.923 16.9822 19.313 17.5421 19.313 18.2241C19.313 18.9062 19.923 19.4661 20.673 19.4661Z" fill="#363663"/>
<path d="M27.4728 19.4661C28.2228 19.4661 28.8328 18.9062 28.8328 18.2241C28.8328 17.5421 28.2228 16.9822 27.4728 16.9822C26.7228 16.9822 26.1128 17.5421 26.1128 18.2241C26.1128 18.9062 26.7228 19.4661 27.4728 19.4661Z" fill="#363663"/>
<g style="mix-blend-mode:multiply" opacity="0.36">
<path d="M40.8527 19.0589C41.9127 17.2163 42.1927 14.9666 40.8927 12.442C40.1227 10.9557 38.7027 9.79521 37.7127 9.11317C37.2727 8.80777 36.6727 9.15388 36.7027 9.69342L36.9227 13.745C38.8227 15.7402 39.2127 18.6415 38.8027 20.6673C39.7127 20.3212 40.4527 19.7511 40.8527 19.0589Z" fill="#CC0C36"/>
</g>
<path d="M11.6831 9.69342C11.7131 9.15388 11.1231 8.80777 10.6731 9.11317C9.68311 9.78503 8.24311 10.9557 7.47311 12.442C6.17311 14.9666 6.44311 17.2163 7.51311 19.0589C8.18311 20.2092 9.78311 21.0338 11.5931 21.0338C15.7631 21.0338 17.2031 15.6283 16.5031 12.615C16.4031 12.1671 15.8631 11.9941 15.5031 12.2587L11.3931 15.2923L11.6931 9.69342H11.6831Z" fill="#CC0C36"/>
<g style="mix-blend-mode:multiply" opacity="0.36">
<path d="M7.52288 19.0589C6.45288 17.2163 6.18288 14.9666 7.48288 12.442C8.25288 10.9557 9.68288 9.79521 10.6829 9.11317C11.1329 8.80777 11.7229 9.15388 11.6929 9.69342L11.4729 13.745C9.56288 15.7402 9.17288 18.6415 9.58288 20.6673C8.66288 20.3212 7.92288 19.7511 7.52288 19.0589Z" fill="#CC0C36"/>
</g>
</svg>
