<svg width="24" height="24" viewBox="0 0 24 24" fill="none" xmlns="http://www.w3.org/2000/svg">
    <path fill-rule="evenodd" clip-rule="evenodd" d="M5 3C5 2.44772 4.55228 2 4 2C3.44772 2 3 2.44772 3 3V8.55118C3 8.87699 3.15872 9.18237 3.42537 9.36959L6.11523 11.2582L6.11524 21C6.11524 21.5523 6.56295 22 7.11524 22C7.66752 22 8.11524 21.5523 8.11524 21L8.11523 11.2581L10.8049 9.36959C11.0715 9.18237 11.2302 8.87699 11.2302 8.55118V3C11.2302 2.44772 10.7825 2 10.2302 2C9.67794 2 9.23022 2.44772 9.23022 3V8.03143L8.11523 8.8143L8.11523 3C8.11523 2.44772 7.66752 2 7.11523 2C6.56295 2 6.11523 2.44772 6.11523 3L6.11523 8.81447L5 8.03143V3ZM15.7935 3V11.9594C13.9734 12.4165 12.6378 14.0858 12.6231 16.0525C12.6148 17.1609 13.0262 18.5478 13.6623 19.6596C13.9852 20.2238 14.3939 20.7676 14.8877 21.1821C15.3821 21.5972 16.0154 21.925 16.7558 21.9305C17.4962 21.936 18.1344 21.6178 18.6349 21.2101C19.1348 20.8029 19.5516 20.2654 19.8828 19.706C20.5355 18.6037 20.9675 17.2232 20.9757 16.1148C20.9906 14.1216 19.6444 12.4138 17.7935 11.956V3C17.7935 2.44771 17.3457 2 16.7935 2C16.2412 2 15.7935 2.44771 15.7935 3ZM18.1619 18.687C18.6735 17.8228 18.9707 16.7852 18.9758 16.0999C18.9852 14.8372 17.9973 13.8445 16.8162 13.8357C15.6351 13.8269 14.6325 14.8048 14.6231 16.0674C14.6179 16.7528 14.8996 17.7947 15.3983 18.6664C15.6429 19.094 15.9121 19.4307 16.1737 19.6504C16.4346 19.8694 16.634 19.9296 16.7707 19.9306C16.9074 19.9316 17.1078 19.8745 17.3719 19.6593C17.6368 19.4436 17.9109 19.1109 18.1619 18.687Z" fill="#1C1C31"/>
</svg>
