<svg width="25" height="25" viewBox="0 0 25 25" fill="none" xmlns="http://www.w3.org/2000/svg">
    <path fill-rule="evenodd" clip-rule="evenodd" d="M6.64843 8.85867C7.7161 7.53895 9.30429 6.48348 11.5758 5.91514L17.4629 8.85867H6.64843ZM5.69898 10.8587H20.699V13.0251C20.4204 13.1173 20.1337 13.2534 19.8647 13.4471C19.1905 13.9325 18.699 14.7328 18.699 15.8587C18.699 16.9846 19.1905 17.7848 19.8647 18.2702C20.1337 18.4639 20.4204 18.6 20.699 18.6922V19.8587H5.83586C4.86712 17.6245 4.43175 14.7034 5.07597 12.0971C5.18208 11.6679 5.31754 11.246 5.48557 10.8358C5.55433 10.8508 5.62574 10.8587 5.69898 10.8587ZM12.4637 4.12302C12.0523 3.91733 11.5688 3.85581 11.1069 3.97083C6.40328 5.14198 3.98305 8.18392 3.1344 11.6172C2.30396 14.9768 2.98217 18.6611 4.30455 21.3059C4.47394 21.6447 4.8202 21.8587 5.19898 21.8587H21.699C22.2513 21.8587 22.699 21.411 22.699 20.8587V17.8587C22.699 17.3064 22.2513 16.8587 21.699 16.8587C21.5257 16.8587 21.2434 16.7985 21.0333 16.6471C20.8741 16.5325 20.699 16.3328 20.699 15.8587C20.699 15.3846 20.8741 15.1848 21.0333 15.0702C21.2434 14.9189 21.5257 14.8587 21.699 14.8587C22.2513 14.8587 22.699 14.411 22.699 13.8587V9.85867C22.699 9.4799 22.485 9.13364 22.1462 8.96425L12.4637 4.12302ZM13.6678 14.8899C13.1155 14.8899 12.6678 14.4422 12.6678 13.8899C12.6678 13.3376 13.1155 12.8899 13.6678 12.8899H13.6688C14.2211 12.8899 14.6688 13.3376 14.6688 13.8899C14.6688 14.4422 14.2211 14.8899 13.6688 14.8899H13.6678ZM7.76158 14.8587C7.76158 15.411 8.20929 15.8587 8.76158 15.8587H8.76258C9.31486 15.8587 9.76258 15.411 9.76258 14.8587C9.76258 14.3064 9.31486 13.8587 8.76258 13.8587H8.76158C8.20929 13.8587 7.76158 14.3064 7.76158 14.8587ZM12.6981 18.8899C12.1458 18.8899 11.6981 18.4422 11.6981 17.8899C11.6981 17.3376 12.1458 16.8899 12.6981 16.8899H12.6991C13.2514 16.8899 13.6991 17.3376 13.6991 17.8899C13.6991 18.4422 13.2514 18.8899 12.6991 18.8899H12.6981Z" fill="#1C1C31"/>
</svg>
