<svg width="49" height="48" viewBox="0 0 49 48" fill="none" xmlns="http://www.w3.org/2000/svg">
<path d="M33.989 25.2379C33.579 25.2379 33.219 24.9529 33.119 24.5355C32.999 24.0469 33.299 23.5684 33.779 23.4361C36.659 22.7337 36.729 21.0438 36.729 21.0234C36.729 20.5144 37.129 20.1174 37.629 20.1174C38.129 20.1174 38.529 20.5144 38.529 21.0234C38.529 21.1558 38.479 24.1486 34.209 25.1972C34.129 25.2277 34.059 25.2379 33.989 25.2379Z" fill="#CC0C36"/>
<path d="M37.5889 9.70348C37.5589 9.15377 38.1489 8.81784 38.5989 9.12323C39.5889 9.7951 41.0089 10.9658 41.7789 12.452C43.0789 14.9766 42.8089 17.2264 41.7389 19.0689C41.0789 20.2193 39.4789 21.0438 37.6789 21.0438C33.5289 21.0438 32.0889 15.6383 32.7889 12.6251C32.8889 12.1772 33.4289 12.0041 33.7889 12.2688L37.8789 15.2922L37.5789 9.6933L37.5889 9.70348Z" fill="#CC0C36"/>
<path d="M37.0388 27.5386L35.1088 28.3021C34.6488 28.4853 34.1288 28.2512 33.9488 27.7829C33.7688 27.3147 33.9988 26.7853 34.4588 26.6021L36.3988 25.8386C37.8246 25.2786 42.6088 25.8386 42.6088 28.9943C42.1693 29.4169 39.5735 26.1875 37.0388 27.5386Z" fill="#CC0C36"/>
<path d="M12.4517 27.5386L14.3817 28.3021C14.8417 28.4853 15.3617 28.2512 15.5417 27.7829C15.7217 27.3147 15.4917 26.7853 15.0317 26.6021L13.0917 25.8386C11.6659 25.2786 6.8817 25.8386 6.8817 28.9943C7.32122 29.4169 9.91699 26.1875 12.4517 27.5386Z" fill="#CC0C36"/>
<path d="M35.6159 31.9898L33.5541 32.2278C33.0623 32.2857 32.6206 31.9249 32.568 31.426C32.5153 30.9271 32.8745 30.4754 33.3662 30.4174L35.4377 30.1821C37.3596 29.6875 41.4361 31.7893 40.6194 34.8375C40.0855 35.132 37.9848 31.426 35.6159 31.9898Z" fill="#BD0827"/>
<path d="M13.67 31.9898L15.7318 32.2278C16.2236 32.2857 16.6652 31.9249 16.7179 31.426C16.7706 30.9271 16.4114 30.4754 15.9197 30.4174L13.8482 30.1821C11.9263 29.6875 7.84975 31.7893 8.66652 34.8375C9.20044 35.132 11.3011 31.426 13.67 31.9898Z" fill="#BD0827"/>
<path d="M33.5785 36.2611L31.5114 36.075C31.0181 36.0317 30.659 35.5887 30.7088 35.0895C30.7587 34.5903 31.2022 34.221 31.6955 34.2642L33.7716 34.4549C35.6721 34.2642 39.318 37.248 37.8986 40.0665C37.316 40.2463 36.4501 36.1944 33.5785 36.2611Z" fill="#BD0827"/>
<path d="M15.7073 36.2611L17.7745 36.075C18.2678 36.0317 18.6269 35.5887 18.577 35.0895C18.5272 34.5903 18.0837 34.221 17.5904 34.2642L15.5143 34.4549C13.6138 34.2642 9.96789 37.248 11.3873 40.0665C11.9699 40.2463 12.8358 36.1944 15.7073 36.2611Z" fill="#BD0827"/>
<path d="M35.319 25.5435L33.479 23.5889C31.729 21.726 29.309 20.6775 26.779 20.6775H23.139C20.609 20.6775 18.179 21.726 16.439 23.5889L14.599 25.5435C13.539 26.6734 13.209 28.3124 13.729 29.7783C14.769 32.6693 16.789 37.0772 19.499 37.0772H30.449C33.169 37.0772 35.189 32.6693 36.219 29.7783C36.729 28.3124 36.399 26.6836 35.339 25.5435H35.319Z" fill="#CC0C36"/>
<g style="mix-blend-mode:multiply" opacity="0.36">
<path d="M30.4291 33.0866H19.4791C16.9591 33.0866 15.0391 29.2997 13.9591 26.4392C13.4191 27.447 13.3191 28.6686 13.7191 29.7782C14.7591 32.6693 16.7791 37.0771 19.4891 37.0771H30.4391C33.1591 37.0771 35.1791 32.6693 36.2091 29.7782C36.6091 28.6686 36.4991 27.447 35.9691 26.4392C34.8791 29.2997 32.9591 33.0866 30.4491 33.0866H30.4291Z" fill="#CC0C36"/>
</g>
<path d="M15.7489 25.2381C15.6889 25.2381 15.6089 25.2279 15.5289 25.2075C11.2589 24.159 11.1289 20.7996 11.1289 20.6775H12.9189L12.9989 21.0236C12.9989 21.0847 13.1189 22.7644 15.9489 23.4566C16.4389 23.5686 16.7289 24.0674 16.6089 24.556C16.5089 24.9428 16.1389 25.2279 15.7389 25.2279L15.7489 25.2381Z" fill="#CC0C36"/>
<path d="M21.5592 19.4661C22.3092 19.4661 22.9192 18.9062 22.9192 18.2241C22.9192 17.5421 22.3092 16.9822 21.5592 16.9822C20.8092 16.9822 20.1992 17.5421 20.1992 18.2241C20.1992 18.9062 20.8092 19.4661 21.5592 19.4661Z" fill="#8B8BC1"/>
<path d="M28.359 19.4661C29.109 19.4661 29.719 18.9062 29.719 18.2241C29.719 17.5421 29.109 16.9822 28.359 16.9822C27.609 16.9822 26.999 17.5421 26.999 18.2241C26.999 18.9062 27.609 19.4661 28.359 19.4661Z" fill="#8B8BC1"/>
<g style="mix-blend-mode:multiply" opacity="0.36">
<path d="M41.739 19.0589C42.799 17.2163 43.079 14.9666 41.779 12.442C41.009 10.9557 39.589 9.79521 38.599 9.11317C38.159 8.80777 37.559 9.15388 37.589 9.69342L37.809 13.745C39.709 15.7402 40.099 18.6415 39.689 20.6673C40.599 20.3212 41.339 19.7511 41.739 19.0589Z" fill="#CC0C36"/>
</g>
<path d="M12.5689 9.69342C12.5989 9.15388 12.0089 8.80777 11.5589 9.11317C10.5689 9.78503 9.12885 10.9557 8.35885 12.442C7.05885 14.9666 7.32885 17.2163 8.39885 19.0589C9.06885 20.2092 10.6689 21.0338 12.4789 21.0338C16.6489 21.0338 18.0889 15.6283 17.3889 12.615C17.2889 12.1671 16.7489 11.9941 16.3889 12.2587L12.2789 15.2923L12.5789 9.69342H12.5689Z" fill="#CC0C36"/>
<g style="mix-blend-mode:multiply" opacity="0.36">
<path d="M8.40911 19.0589C7.33911 17.2163 7.06911 14.9666 8.36911 12.442C9.13911 10.9557 10.5691 9.79521 11.5691 9.11317C12.0191 8.80777 12.6091 9.15388 12.5791 9.69342L12.3591 13.745C10.4491 15.7402 10.0591 18.6415 10.4691 20.6673C9.54911 20.3212 8.80911 19.7511 8.40911 19.0589Z" fill="#CC0C36"/>
</g>
</svg>
