<svg width="49" height="48" viewBox="0 0 49 48" fill="none" xmlns="http://www.w3.org/2000/svg">
<path d="M37.0258 36.7203C37.0558 36.3101 37.3958 35.9599 37.8157 35.9299C38.5156 35.8799 39.2055 35.5897 39.7454 35.0494C40.9252 33.8688 40.9252 31.9477 39.7454 30.7571C38.7855 29.7966 37.3458 29.6165 36.206 30.2068C35.696 30.4769 35.0661 30.3569 34.6662 29.9467L31.0068 26.2847C30.7369 26.7649 30.1969 27.0451 29.607 26.935C28.7072 26.7649 27.9573 27.5454 27.9573 28.4558V28.4759C28.0573 29.0262 27.7973 29.5464 27.3574 29.8266L31.0668 33.5386C31.4667 33.9388 31.6067 34.5591 31.3368 35.0594C30.6469 36.3501 30.9568 38.041 32.2766 38.9715C33.2664 39.6719 34.6362 39.7019 35.646 39.0316C36.5059 38.4713 36.9658 37.5908 37.0358 36.7003L37.0258 36.7203Z" fill="#FFD633"/>
<g style="mix-blend-mode:multiply" opacity="0.36">
<path d="M37.0355 36.7102C37.0655 36.3 37.4154 35.9498 37.8253 35.9198C38.5252 35.8698 39.2151 35.5796 39.755 35.0393C40.9348 33.8587 40.9348 31.9376 39.755 30.747C39.3751 30.3668 38.9351 30.1166 38.4652 29.9766C38.7652 31.0071 38.5152 32.1577 37.6954 32.9782C36.9355 33.7386 35.8956 33.9987 34.9258 33.7986C35.1258 34.7692 34.8458 35.8197 34.1059 36.5701C33.2961 37.3806 32.1363 37.6407 31.1064 37.3405C31.2464 37.8108 31.4964 38.261 31.8763 38.6312C33.0561 39.8119 34.9758 39.8119 36.1556 38.6312C36.6855 38.091 36.9755 37.4006 37.0255 36.7002L37.0355 36.7102Z" fill="#FFD633"/>
</g>
<path fill-rule="evenodd" clip-rule="evenodd" d="M30.4615 28.2372C31.0849 28.0677 31.6902 28.3017 32.2968 27.9498C32.852 27.6265 33.2404 27.0004 33.4144 26.4182C33.6327 25.6544 33.5778 24.8202 33.3676 24.1337C32.5187 21.2863 29.7684 20.0212 28.3104 17.6494C27.5913 16.4773 26.8814 15.3552 26.4506 13.9942C26.0198 12.6331 25.6844 11.0721 25.0393 9.75486C24.0033 7.63555 22.0833 6.01436 19.6808 5.68146C14.9878 4.99809 10.1667 7.22266 7.76283 12.1519C5.49714 16.7717 6.20696 23.0941 10.4477 25.0713C10.9815 25.3268 11.5674 25.5126 12.1435 25.6793C13.4173 26.0348 14.7552 26.2364 16.0822 26.4705C17.7027 26.7717 18.8475 27.4866 19.9855 28.5519C20.9141 29.4034 21.5733 30.5231 22.6267 31.2318C23.5998 31.8913 24.8131 32.2254 26.0624 32.2764C26.9662 32.3199 28.0018 32.3838 28.9149 31.9531C29.233 31.8005 29.5427 31.5567 29.7115 31.2426C30.1756 30.3785 29.1022 28.6145 30.4715 28.2459L30.4615 28.2372Z" fill="#AA591F"/>
<g style="mix-blend-mode:multiply" opacity="0.4">
<path fill-rule="evenodd" clip-rule="evenodd" d="M25.2772 28.7613C23.9467 26.6264 20.413 22.2775 14.9955 21.7384C9.7809 21.219 8.38709 17.6449 8.35284 11.0832C8.14286 11.4244 7.94288 11.7743 7.76269 12.1519C5.497 16.7718 6.20682 23.0941 10.4476 25.0713C10.9813 25.3269 11.5672 25.5126 12.1434 25.6793C13.4172 26.0348 14.755 26.2364 16.0821 26.4705C17.7026 26.7717 18.8474 27.4866 19.9853 28.5519C20.914 29.4034 21.5731 30.5232 22.6266 31.2318C23.5997 31.8913 24.8129 32.2255 26.0622 32.2765C26.8747 32.3137 27.7889 32.3452 28.6282 32.0494C27.596 31.2963 26.0952 30.072 25.2874 28.7597L25.2772 28.7613Z" fill="#994000"/>
</g>
<g style="mix-blend-mode:multiply" opacity="0.4">
<circle cx="18.1359" cy="9.539" r="1.60028" fill="#994000"/>
</g>
<g style="mix-blend-mode:multiply" opacity="0.4">
<circle cx="19.1458" cy="13.8311" r="0.590614" fill="#994000"/>
</g>
</svg>
