<svg width="39" height="42" viewBox="0 0 39 42" fill="none" xmlns="http://www.w3.org/2000/svg">
<path d="M11.0491 3.09422C13.2226 4.67883 13.3371 7.49066 12.9818 9.33918C12.9427 9.54264 13.1965 9.68064 13.3285 9.52096C16.2144 6.03003 13.4845 2.30199 11.5536 0.712656C11.4807 0.652666 11.3769 0.655082 11.3042 0.715342L10.8233 1.11417C10.2141 1.61948 10.4095 2.62791 11.0491 3.09422Z" fill="#1C5500"/>
<path d="M32.2942 32.1632C32.8735 32.249 33.2883 32.8132 33.0071 33.3269C31.3084 36.4307 25.3557 36.2222 23.4755 36.0742C10.8572 35.1213 4.47164 15.6057 9.26385 9.97225C14.0561 4.33884 19.0919 8.29223 19.1205 10.9379C19.248 22.7294 19.3333 30.243 32.2942 32.1632Z" fill="#87B659"/>
<path opacity="0.3" fill-rule="evenodd" clip-rule="evenodd" d="M13.2447 7.20355C13.2698 7.35748 13.2834 7.5094 13.285 7.65818C13.4536 23.2557 15.6202 31.0322 32.8215 33.5447C30.9404 36.3764 25.2731 36.1756 23.4471 36.0319C10.8288 35.079 4.44321 15.5635 9.23542 9.93012C10.592 8.33537 11.9682 7.5089 13.2447 7.20355Z" fill="#34800E"/>
</svg>
