<svg width="49" height="48" viewBox="0 0 49 48" fill="none" xmlns="http://www.w3.org/2000/svg">
<path fill-rule="evenodd" clip-rule="evenodd" d="M28.7872 8.80665C27.7592 6.89272 22.4938 4.02024 21.4158 5.15742C21.2508 5.33154 21.232 6.02747 21.2091 6.87624C21.1796 7.969 21.1433 9.31512 20.7792 10.1273C20.3385 11.1102 19.6466 11.5697 18.731 12.1778C17.8302 12.7761 16.7127 13.5182 15.405 15.0443C15.0943 15.4469 14.8212 15.834 14.5822 16.2062C10.5348 21.6715 13.2336 31.515 18.4461 34.963C20.8911 36.5744 23.8047 37.1493 26.6834 36.5886C29.5621 36.0278 32.2251 34.3666 34.2122 31.8918C36.1994 29.4171 37.3858 26.2845 37.5666 23.0351C37.7084 20.4866 35.6903 13.2703 33.6899 13.2388C32.9008 13.2263 33.0908 15.4383 31.9986 15.0247C30.9063 14.6111 30.3142 11.6497 28.7872 8.80665Z" fill="#FF991F"/>
<g style="mix-blend-mode:multiply" opacity="0.4">
<path fill-rule="evenodd" clip-rule="evenodd" d="M13.4377 19.5742C13.8962 22.7135 15.304 25.5291 17.4329 27.5551C19.6164 29.633 22.4212 30.7498 25.3629 30.7125C28.3045 30.6752 31.198 29.4861 33.5435 27.3507C35.1263 25.9054 36.6079 24.0113 37.3133 22.053C37.7412 25.6364 36.0811 30.5474 32.9101 33.443C30.5977 35.5483 27.7449 36.7207 24.8447 36.7575C21.9446 36.7943 19.1793 35.6932 17.0266 33.6445C14.8738 31.5959 13.3247 28.7487 12.9104 25.5577C12.6526 23.5716 12.9329 21.5175 13.4377 19.5742Z" fill="#FF991F"/>
</g>
<g style="mix-blend-mode:multiply">
<path d="M29.5966 25.2741C29.6953 25.199 29.8517 25.228 29.9147 25.3412C30.7456 26.8334 30.9282 26.717 31.5127 28.7289C31.714 31.1366 31.3082 32.7087 30.3198 34.0143C29.3315 35.3198 27.3922 36.2301 25.7705 36.5563C22.0747 36.7069 19.2426 35.4447 18.3179 30.8874C17.3931 26.3301 21.8399 18.5685 23.5265 18.8649C25.1913 19.1575 24.651 29.0394 29.5966 25.2741Z" fill="#FF8000"/>
</g>
</svg>
