<svg width="48" height="48" viewBox="0 0 48 48" fill="none" xmlns="http://www.w3.org/2000/svg">
<path d="M16.0491 6.09422C18.2226 7.67883 18.3371 10.4907 17.9818 12.3392C17.9427 12.5426 18.1965 12.6806 18.3285 12.521C21.2144 9.03003 18.4845 5.30199 16.5536 3.71266C16.4807 3.65267 16.3769 3.65508 16.3042 3.71534L15.8233 4.11417C15.2141 4.61948 15.4095 5.62791 16.0491 6.09422Z" fill="#34800E"/>
<path d="M37.2942 35.1632C37.8735 35.249 38.2883 35.8132 38.0071 36.3269C36.3084 39.4307 30.3557 39.2222 28.4755 39.0742C15.8572 38.1213 9.47164 18.6057 14.2639 12.9722C19.0561 7.33884 24.0919 11.2922 24.1205 13.9379C24.248 25.7294 24.3333 33.243 37.2942 35.1632Z" fill="#CC0C36"/>
<path fill-rule="evenodd" clip-rule="evenodd" d="M18.2447 10.2035C18.2698 10.3575 18.2834 10.5094 18.285 10.6582C18.4536 26.2557 20.6202 34.0322 37.8215 36.5447C35.9404 39.3764 30.2731 39.1756 28.4471 39.0319C15.8288 38.079 9.44321 18.5635 14.2354 12.9301C15.592 11.3354 16.9682 10.5089 18.2447 10.2035Z" fill="#6D1013" fill-opacity="0.3"/>
</svg>
