<svg width="48" height="48" viewBox="0 0 48 48" fill="none" xmlns="http://www.w3.org/2000/svg">
<path d="M28.8355 4.97148L27.6711 4.58943C27.4334 4.51146 27.1775 4.64091 27.0995 4.87858L23.9334 14.5288L25.9585 15.1932L29.1246 5.543C29.2026 5.30533 29.0732 5.04945 28.8355 4.97148Z" fill="#FFBF00"/>
<path opacity="0.4" d="M28.2927 4.79337L27.6711 4.58943C27.4334 4.51146 27.1775 4.64091 27.0995 4.87858L23.9334 14.5288L27.7548 5.46429L28.2927 4.79337Z" fill="#FF991F"/>
<path d="M33.9006 17.2435H13.845L17.177 41.4101C17.2614 42.0229 17.7695 42.4783 18.3692 42.4783H29.3764C29.976 42.4783 30.4842 42.0229 30.5686 41.4101L33.9006 17.2435Z" fill="#FFC400"/>
<path d="M14.1094 19.125L14.4062 21.2032C25.2171 20.9133 29.3761 20.9561 29.3761 24.1446L27.127 42.4783H29.3761C29.9757 42.4783 30.4841 42.0229 30.5685 41.4101L33.9005 17.2435L14.1094 19.125Z" fill="url(#paint0_linear_27860_19967)"/>
<path d="M31.822 13.4922H15.9234C15.6972 13.4922 15.502 13.6563 15.4562 13.8852L14.7261 17.5385H33.0194L32.2893 13.8852C32.2434 13.6563 32.0483 13.4922 31.822 13.4922V13.4922Z" fill="url(#paint1_linear_27860_19967)"/>
<g style="mix-blend-mode:multiply" opacity="0.3">
<path fill-rule="evenodd" clip-rule="evenodd" d="M32.8846 16.8641L32.2893 13.8852C32.2434 13.6563 32.0483 13.4922 31.822 13.4922H29.0646V13.5888C29.0646 14.7359 28.5151 15.3741 27.4039 15.3741H15.1586L14.8608 16.8641H32.8846Z" fill="#8B8BC1"/>
</g>
<path d="M34.5017 19.5617H13.2438C12.8558 19.5617 12.5415 19.2373 12.5415 18.8368V16.9146C12.5415 16.5143 12.856 16.1897 13.2438 16.1897H34.5017C34.8894 16.1897 35.2039 16.5143 35.2039 16.9146V18.8368C35.2039 19.2373 34.8894 19.5617 34.5017 19.5617Z" fill="url(#paint2_linear_27860_19967)"/>
<g style="mix-blend-mode:multiply" opacity="0.3">
<path fill-rule="evenodd" clip-rule="evenodd" d="M12.5415 18.386V18.8368C12.5415 19.2373 12.8558 19.5617 13.2438 19.5617H34.5017C34.8894 19.5617 35.2039 19.2373 35.2039 18.8368V16.9146C35.2039 16.5143 34.8894 16.1897 34.5017 16.1897H31.8666C31.804 17.2753 31.2558 18.386 30.2119 18.386H12.5415Z" fill="#8B8BC1"/>
</g>
<defs>
<linearGradient id="paint0_linear_27860_19967" x1="32.3519" y1="21.3185" x2="29.811" y2="41.6619" gradientUnits="userSpaceOnUse">
<stop stop-color="#FFAB00"/>
<stop offset="1" stop-color="#FFC400"/>
</linearGradient>
<linearGradient id="paint1_linear_27860_19967" x1="23.8727" y1="13.4922" x2="4.75" y2="23" gradientUnits="userSpaceOnUse">
<stop stop-color="#BDBDDB"/>
<stop offset="1" stop-color="#8B8BC1"/>
</linearGradient>
<linearGradient id="paint2_linear_27860_19967" x1="23.8727" y1="16.1897" x2="-5" y2="26.25" gradientUnits="userSpaceOnUse">
<stop stop-color="#BDBDDB"/>
<stop offset="1" stop-color="#8B8BC1"/>
</linearGradient>
</defs>
</svg>
