<svg width="49" height="48" viewBox="0 0 49 48" fill="none" xmlns="http://www.w3.org/2000/svg">
<path fill-rule="evenodd" clip-rule="evenodd" d="M12.9512 39.3918C13.4367 39.655 14.0437 39.4748 14.3069 38.9892L16.4645 35.0089L17.7219 39.2433C17.8791 39.7727 18.4358 40.0744 18.9652 39.9172L19.02 39.901C19.5494 39.7438 19.8512 39.1871 19.6939 38.6577L18.4365 34.4233L22.4169 36.581C22.9024 36.8442 23.5094 36.6639 23.7726 36.1784L23.79 36.1463C24.0532 35.6608 23.8729 35.0538 23.3874 34.7906L17.6167 31.6625L16.8555 29.0988L19.4191 28.3376L25.1897 31.4657C25.6753 31.729 26.2823 31.5487 26.5455 31.0631L26.5628 31.0311C26.826 30.5455 26.6458 29.9386 26.1603 29.6754L22.1799 27.5177L26.4143 26.2604C26.9437 26.1031 27.2455 25.5465 27.0882 25.0171L27.072 24.9623C26.9148 24.4329 26.3581 24.1311 25.8287 24.2883L21.5943 25.5457L23.752 21.5654C24.0152 21.0799 23.835 20.4729 23.3494 20.2097L23.3174 20.1923C22.8318 19.9291 22.2248 20.1093 21.9616 20.5949L18.8335 26.3656L16.2699 27.1268L15.5086 24.5632L18.6368 18.7925C18.9 18.307 18.7197 17.7001 18.2342 17.4369L18.2021 17.4195C17.7166 17.1562 17.1096 17.3365 16.8464 17.822L14.6888 21.8024L13.4314 17.568C13.2742 17.0386 12.7175 16.7368 12.1881 16.894L12.1333 16.9103C11.6039 17.0675 11.3021 17.6242 11.4593 18.1536L12.7167 22.388L8.73642 20.2303C8.25088 19.9671 7.64389 20.1473 7.3807 20.6329L7.36332 20.665C7.10014 21.1505 7.28038 21.7574 7.76591 22.0206L13.5366 25.1488L14.2978 27.7124L11.7342 28.4737L5.96356 25.3455C5.47801 25.0823 4.87103 25.2626 4.60784 25.7481L4.59045 25.7802C4.32727 26.2657 4.50752 26.8727 4.99304 27.1359L8.97337 29.2935L4.73901 30.5509C4.20958 30.7081 3.90783 31.2648 4.06505 31.7942L4.08131 31.849C4.23853 32.3784 4.79517 32.6801 5.3246 32.5229L9.55897 31.2655L7.4013 35.2459C7.13811 35.7314 7.31833 36.3383 7.80385 36.6015L7.83593 36.6189C8.32147 36.8822 8.92846 36.7019 9.19166 36.2164L12.3198 30.4457L14.8834 29.6844L15.6447 32.2481L12.5165 38.0187C12.2533 38.5042 12.4336 39.1112 12.9191 39.3744L12.9512 39.3918Z" fill="#6A8EE8"/>
<path fill-rule="evenodd" clip-rule="evenodd" d="M27.6334 17.4731C27.8114 17.7516 28.1815 17.833 28.46 17.655L30.6931 16.2277L30.1386 18.7467C30.0668 19.0728 30.2729 19.3953 30.599 19.4671C30.9251 19.5388 31.2476 19.3327 31.3194 19.0066L31.8739 16.4876L33.3012 18.7207C33.4792 18.9992 33.8493 19.0807 34.1278 18.9027C34.4062 18.7247 34.4877 18.3546 34.3097 18.0761L32.2378 14.8346L32.5757 13.2995L34.1107 13.6375L36.1826 16.8791C36.3606 17.1576 36.7307 17.239 37.0092 17.061C37.2877 16.883 37.3691 16.5129 37.1911 16.2344L35.7638 14.0014L38.2828 14.5559C38.6089 14.6277 38.9314 14.4215 39.0031 14.0955C39.0749 13.7694 38.8688 13.4469 38.5427 13.3751L36.0237 12.8206L38.2568 11.3933C38.5353 11.2153 38.6168 10.8452 38.4388 10.5667C38.2608 10.2882 37.8907 10.2068 37.6122 10.3848L34.3706 12.4567L32.8356 12.1188L33.1735 10.5837L36.4151 8.51186C36.6936 8.33386 36.7751 7.96381 36.5971 7.68532C36.4191 7.40681 36.049 7.32534 35.7705 7.50335L33.5374 8.93067L34.092 6.41167C34.1637 6.08561 33.9576 5.76309 33.6315 5.69131C33.3055 5.61954 32.983 5.82567 32.9112 6.15174L32.3567 8.67074L30.9294 6.43764C30.7513 6.15914 30.3813 6.07768 30.1028 6.25569C29.8243 6.4337 29.7428 6.80375 29.9208 7.08224L31.9928 10.3238L31.6548 11.8588L30.1198 11.5209L28.0479 8.27933C27.8699 8.00083 27.4999 7.91937 27.2214 8.09739C26.9429 8.27539 26.8614 8.64545 27.0394 8.92394L28.4667 11.157L25.9477 10.6025C25.6217 10.5307 25.2992 10.7369 25.2274 11.0629C25.1556 11.389 25.3617 11.7115 25.6878 11.7833L28.2068 12.3378L25.9737 13.7651C25.6952 13.9431 25.6138 14.3132 25.7917 14.5916C25.9697 14.8702 26.3398 14.9516 26.6183 14.7736L29.8599 12.7017L31.3949 13.0396L31.057 14.5746L27.8154 16.6465C27.5369 16.8245 27.4555 17.1946 27.6334 17.4731Z" fill="#4970D6"/>
<path fill-rule="evenodd" clip-rule="evenodd" d="M35.9504 31.7114C36.1146 31.8129 36.33 31.7621 36.4315 31.5979L37.2451 30.2814L37.5911 31.7473C37.6359 31.9371 37.8261 32.0546 38.0158 32.0098C38.2056 31.965 38.3231 31.7749 38.2783 31.5851L37.9323 30.1192L39.2488 30.9329C39.4129 31.0344 39.6283 30.9835 39.7298 30.8194C39.8312 30.6552 39.7804 30.4398 39.6162 30.3384L37.7052 29.1572L37.4944 28.2639L38.3877 28.0531L40.2987 29.2342C40.4628 29.3357 40.6782 29.2849 40.7797 29.1207C40.8811 28.9565 40.8303 28.7412 40.6661 28.6397L39.3497 27.826L40.8156 27.48C41.0053 27.4352 41.1228 27.2451 41.0781 27.0553C41.0333 26.8656 40.8431 26.7481 40.6534 26.7929L39.1875 27.1389L40.0012 25.8224C40.1026 25.6582 40.0518 25.4429 39.8876 25.3414C39.7235 25.2399 39.5081 25.2907 39.4066 25.4549L38.2255 27.3659L37.3322 27.5768L37.1213 26.6835L38.3025 24.7725C38.404 24.6083 38.3531 24.393 38.189 24.2915C38.0248 24.19 37.8094 24.2408 37.7079 24.405L36.8943 25.7215L36.5483 24.2556C36.5035 24.0658 36.3133 23.9483 36.1236 23.9931C35.9338 24.0379 35.8163 24.228 35.8611 24.4178L36.2071 25.8837L34.8907 25.07C34.7265 24.9685 34.5111 25.0194 34.4096 25.1835C34.3082 25.3477 34.359 25.5631 34.5232 25.6645L36.4342 26.8457L36.645 27.739L35.7517 27.9498L33.8407 26.7687C33.6766 26.6672 33.4612 26.718 33.3597 26.8822C33.2583 27.0464 33.3091 27.2617 33.4733 27.3632L34.7897 28.1769L33.3238 28.5229C33.1341 28.5677 33.0166 28.7578 33.0613 28.9476C33.1061 29.1373 33.2963 29.2548 33.486 29.21L34.9519 28.864L34.1382 30.1805C34.0368 30.3447 34.0876 30.56 34.2518 30.6615C34.416 30.763 34.6313 30.7122 34.7328 30.548L35.9139 28.637L36.8072 28.4261L37.0181 29.3194L35.8369 31.2304C35.7354 31.3946 35.7863 31.6099 35.9504 31.7114Z" fill="#295CE1"/>
</svg>
