<svg width="48" height="48" viewBox="0 0 48 48" fill="none" xmlns="http://www.w3.org/2000/svg">
<path d="M38.2633 32.2341C38.2633 33.1632 37.6235 33.97 36.7188 34.1815L13.216 39.6782C12.5886 39.8249 11.9883 39.3488 11.9883 38.7045V23.9028L38.2633 17.7578V32.2341Z" fill="#FFEA80"/>
<path opacity="0.4" d="M38.2633 22.524L37.4636 20.7462L13.0851 24.6598L12.0195 37.7153V23.8728L38.2633 17.7578V22.524Z" fill="#FFD633"/>
<path opacity="0.4" d="M38.2636 31.9128L37.0191 30.0795L12.7695 35.0591L38.2636 28.3018V31.9128Z" fill="#FFD633"/>
<path d="M38.2633 28.3952L12.0195 35.2528V29.8403L38.2633 22.9827V28.3952Z" fill="#CC0C36"/>
<path opacity="0.5" d="M38.2633 28.3952L37.4636 24.746L12.0195 29.8403L38.2633 22.9827V28.3952Z" fill="#730217" fill-opacity="0.3"/>
<path d="M12.0508 23.8713L21.715 11.99C22.2033 11.3896 22.8509 10.9403 23.611 10.7947C26.4995 10.2415 34.1334 9.66766 38.2633 17.7575L12.0508 23.8713Z" fill="#994000"/>
<path opacity="0.3" fill-rule="evenodd" clip-rule="evenodd" d="M30.7508 12.6641V15.2516C30.7508 15.2516 24.1276 18.0751 17.2495 17.4572L21.6963 11.9903C22.1847 11.3899 22.8322 10.9405 23.5923 10.7949C24.9876 10.5277 27.49 10.2557 30.1699 10.9576L30.7508 12.6641Z" fill="#4D1A00"/>
<path d="M27.2289 9.21106C27.2153 9.23488 27.2017 9.25871 27.1757 9.28604C26.9644 9.56563 26.5628 9.62049 26.2912 9.41238C26.2074 9.34331 24.2217 7.76447 24.4118 5.31188C24.4391 4.95861 24.7461 4.69157 25.0867 4.70726C25.4273 4.72294 25.6922 5.03262 25.6694 5.37795C25.5313 7.16462 27.059 8.376 27.0699 8.3928C27.3183 8.58762 27.3834 8.94107 27.2289 9.21106Z" fill="#994000"/>
<path d="M32.6539 10.3156C31.9048 7.96763 29.3942 6.67143 27.0462 7.42047C24.6982 8.16951 23.402 10.6801 24.1511 13.0281C24.9001 15.3761 27.4107 16.6723 29.7587 15.9233C32.1067 15.1742 33.4029 12.6636 32.6539 10.3156Z" fill="#CC0C36"/>
<path opacity="0.4" d="M30.4475 11.1421C29.6281 12.5743 27.803 13.0709 26.3708 12.2515C25.134 11.5438 24.5999 10.0861 24.9975 8.78709C24.8238 8.9901 24.6655 9.21637 24.5289 9.45506C23.306 11.5924 24.0487 14.3216 26.186 15.5445C28.3234 16.7675 31.0526 16.0248 32.2755 13.8874C33.4985 11.75 32.7558 9.02086 30.6184 7.79793C30.3797 7.66136 30.1286 7.54648 29.8759 7.45952C30.8878 8.38414 31.1552 9.90526 30.4475 11.1421Z" fill="#730217" fill-opacity="0.3"/>
</svg>
