<svg width="48" height="48" viewBox="0 0 48 48" fill="none" xmlns="http://www.w3.org/2000/svg">
<path d="M25.726 28.313V30.1492C25.7266 31.3475 25.4271 32.5269 24.8547 33.5797C24.2824 34.6325 23.4554 35.5252 22.4494 36.1762C21.2891 36.9342 19.9324 37.3361 18.5465 37.3325H11.8702C10.9272 37.3322 9.99336 37.1462 9.12216 36.7851C8.25096 36.424 7.45942 35.8948 6.79274 35.2278C6.12605 34.5607 5.59728 33.7689 5.2366 32.8975C4.87593 32.0261 4.69042 31.0923 4.69067 30.1492V28.313L25.726 28.313Z" fill="#8585BC"/>
<g style="mix-blend-mode:multiply" opacity="0.15">
<path d="M24.125 36.2499L11.8702 37.3324C10.9272 37.3322 9.99336 37.1462 9.12216 36.785C8.25096 36.4239 7.45942 35.8947 6.79274 35.2277C6.12605 34.5606 5.59728 33.7688 5.2366 32.8974C4.87593 32.0261 4.69042 31.0922 4.69067 30.1491V28.3129C18.375 25.1249 4.375 33.8125 24.125 36.2499Z" fill="#8B8BC1"/>
</g>
<path d="M26.199 28.5846H4.30581C4.10222 28.5806 3.90802 28.4935 3.76404 28.3416C3.62005 28.1896 3.53748 27.9847 3.53369 27.7699C3.53369 27.5538 3.61504 27.3465 3.75984 27.1937C3.90464 27.0409 4.10103 26.9551 4.30581 26.9551H26.199C26.4026 26.9591 26.5968 27.0462 26.7407 27.1981C26.8847 27.3501 26.9673 27.555 26.9711 27.7699C26.9711 27.9859 26.8897 28.1932 26.7449 28.346C26.6001 28.4988 26.4037 28.5846 26.199 28.5846Z" fill="#7878B9"/>
<g style="mix-blend-mode:multiply" opacity="0.36">
<path d="M15.706 24.7889C15.5561 24.7889 15.4063 24.729 15.298 24.6091C14.8318 24.1294 14.5737 23.4871 14.5737 22.8104C14.5737 22.1852 14.7902 21.5942 15.1898 21.1317C15.2148 21.0717 15.2564 21.0203 15.298 20.9775C15.5478 20.7206 15.681 20.3865 15.681 20.0268C15.681 19.6671 15.5478 19.333 15.298 19.0761C15.0732 18.8448 15.0732 18.4594 15.298 18.2281C15.5228 17.9969 15.8975 17.9969 16.1222 18.2281C16.5885 18.7078 16.8465 19.3501 16.8465 20.0268C16.8465 20.652 16.6301 21.243 16.2305 21.7055C16.2055 21.7655 16.1639 21.8169 16.1222 21.8597C15.8725 22.1167 15.7393 22.4507 15.7393 22.8104C15.7393 23.1702 15.8725 23.5042 16.1222 23.7611C16.347 23.9924 16.347 24.3778 16.1222 24.6091C16.0057 24.729 15.8558 24.7889 15.706 24.7889Z" fill="#FF991F"/>
</g>
<path d="M11.1592 25.6301C10.9774 25.6301 10.7956 25.5628 10.6643 25.4377C9.85626 24.6681 9.81586 23.4463 10.5532 22.6382C10.5835 22.5901 10.6239 22.542 10.6643 22.4939C10.9572 22.2149 10.9572 21.7627 10.6643 21.4741C10.3916 21.2144 10.3916 20.7815 10.6643 20.5217C10.937 20.262 11.3915 20.262 11.6642 20.5217C12.4722 21.2913 12.5126 22.5131 11.7753 23.3212C11.745 23.3693 11.7046 23.4174 11.6642 23.4655C11.3713 23.7445 11.3713 24.1967 11.6642 24.4853C11.9369 24.7451 11.9369 25.178 11.6642 25.4377C11.5228 25.5628 11.341 25.6301 11.1592 25.6301Z" fill="#FFBF00"/>
<path d="M20.251 25.6301C20.0692 25.6301 19.8874 25.5628 19.7561 25.4377C18.9481 24.6681 18.9077 23.4463 19.645 22.6382C19.6753 22.5901 19.7157 22.542 19.7561 22.4939C20.049 22.2149 20.049 21.7627 19.7561 21.4741C19.4834 21.2144 19.4834 20.7815 19.7561 20.5217C20.0288 20.262 20.4833 20.262 20.756 20.5217C21.564 21.2913 21.6044 22.5131 20.8671 23.3212C20.8368 23.3693 20.7964 23.4174 20.756 23.4655C20.4631 23.7445 20.4631 24.1967 20.756 24.4853C21.0287 24.7451 21.0287 25.178 20.756 25.4377C20.6146 25.5628 20.4328 25.6301 20.251 25.6301Z" fill="#FFBF00"/>
<path d="M36.1385 38.6111C36.175 38.212 36.5001 37.8842 36.8992 37.8486C37.456 37.7989 37.8578 37.6154 38.0381 37.2823C38.1978 36.9919 38.1698 36.6184 37.9837 36.1959C37.8152 35.8133 37.9419 35.3427 38.2932 35.1159C38.7846 34.7985 39.064 34.4334 39.064 34.0436C39.064 33.5915 38.6842 33.1716 38.0323 32.8207C37.6842 32.6333 37.5251 32.2027 37.6898 31.8434C38.238 30.6472 38.3212 29.6343 37.8052 29.1136C37.2889 28.5973 36.276 28.6769 35.0759 29.2279C34.7164 29.393 34.2852 29.234 34.0976 28.8857C33.7468 28.2343 33.327 27.8547 32.8751 27.8547C32.4844 27.8547 32.1185 28.1355 31.8006 28.6292C31.5749 28.9796 31.1066 29.1073 30.725 28.9397C30.3016 28.7539 29.9273 28.7243 29.6365 28.8807C29.3064 29.0614 29.1211 29.4649 29.0707 30.024C29.0349 30.4217 28.7098 30.7468 28.312 30.7817C27.7529 30.8308 27.3494 31.0145 27.1687 31.3485C27.0186 31.6224 27.0335 31.9674 27.1877 32.356C27.3216 32.6935 27.2295 33.0856 26.9845 33.3536C26.7875 33.5691 26.6807 33.7997 26.6807 34.0381C26.6807 34.6077 27.2879 35.131 28.2827 35.5238C28.6221 35.6579 28.8088 36.0275 28.7448 36.3868C28.632 37.0198 28.7202 37.5361 29.0431 37.859C29.366 38.1819 29.8823 38.2702 30.5153 38.1573C30.8746 38.0933 31.2443 38.28 31.378 38.6196C31.7697 39.6143 32.2898 40.2215 32.864 40.2215C33.1032 40.2215 33.3344 40.114 33.5505 39.9158C33.8173 39.6711 34.2079 39.5783 34.5443 39.7122C34.9365 39.8685 35.2822 39.8842 35.5537 39.7335C35.8982 39.5612 36.088 39.1649 36.1385 38.6111Z" fill="#34800E"/>
<path d="M39.3713 23.5285C39.521 24.0997 39.1883 24.7042 39.0663 24.8983C39.0441 24.9371 38.9942 24.9482 38.9554 24.926C38.7502 24.8151 38.1623 24.4546 38.0126 23.8834C37.8629 23.3122 38.1956 22.7077 38.3176 22.5136C38.3398 22.4748 38.3897 22.4637 38.4285 22.4859C38.6337 22.5968 39.2216 22.9573 39.3713 23.5285Z" fill="#87B659"/>
<g style="mix-blend-mode:multiply">
<path d="M34.0731 26.1965C33.9122 26.5626 33.4852 26.7345 33.3355 26.7899C33.3078 26.801 33.2745 26.7844 33.2634 26.7567C33.2024 26.6125 33.0471 26.1744 33.2079 25.8139C33.3688 25.4534 33.7958 25.276 33.9455 25.2205C33.9732 25.2094 34.0065 25.2261 34.0176 25.2538C34.0786 25.398 34.2339 25.8361 34.0731 26.1965Z" fill="#C3DFA8"/>
</g>
<path d="M43.5976 31.0641C43.1706 31.7906 42.2279 32.0679 41.9062 32.14C41.8452 32.1566 41.7842 32.1178 41.762 32.0568C41.6678 31.7407 41.4404 30.7813 41.8674 30.0548C42.2944 29.3283 43.2372 29.0511 43.5588 28.979C43.6198 28.9623 43.6808 29.0011 43.703 29.0621C43.7973 29.3782 44.0246 30.3376 43.5976 31.0641Z" fill="#34800E"/>
<path d="M37.0525 39.7927C38.6814 39.8472 40.0487 38.5686 40.1033 36.9396C40.1578 35.3107 38.8791 33.9435 37.2502 33.8889C35.6213 33.8343 34.254 35.113 34.1995 36.7419C34.1449 38.3708 35.4236 39.7381 37.0525 39.7927Z" fill="#CC0C36"/>
<g style="mix-blend-mode:multiply" opacity="0.36">
<path d="M37.0525 39.7927C38.6814 39.8472 40.0487 38.5686 40.1033 36.9396C40.1578 35.3107 38.8791 33.9435 37.2502 33.8889C35.6213 33.8343 34.254 35.113 34.1995 36.7419C34.1449 38.3708 35.4236 39.7381 37.0525 39.7927Z" fill="#CC0C36"/>
</g>
<path d="M18.2104 38.367C20.3271 38.4379 22.096 36.7836 22.1669 34.6668C22.2378 32.5501 20.5835 30.7811 18.4668 30.7102C16.35 30.6394 14.5811 32.2936 14.5102 34.4104C14.4393 36.5271 16.0936 38.2961 18.2104 38.367Z" fill="#CC0C36"/>
<path d="M27.8444 41.6194C31.6397 41.7465 34.8252 38.8235 34.9504 35.0861C35.0756 31.3487 32.101 28.2193 28.2974 28.092C24.4939 27.9646 21.3166 30.8879 21.1915 34.6253C21.0663 38.3627 24.0409 41.492 27.8444 41.6194Z" fill="#FFC34F"/>
<g style="mix-blend-mode:multiply" opacity="0.4">
<path d="M27.9147 39.279C30.3953 39.3621 32.479 37.4535 32.561 35.006C32.6429 32.5585 30.6999 30.515 28.211 30.4316C25.7222 30.3483 23.6467 32.2572 23.5647 34.7047C23.4828 37.1522 25.4259 39.1957 27.9147 39.279Z" fill="#FFC34F"/>
</g>
<path d="M28.0085 36.7242C29.0587 36.7594 29.9383 35.9528 29.9729 34.9192C30.0075 33.8856 29.1838 33.022 28.1337 32.9868C27.0836 32.9516 26.204 33.7582 26.1694 34.7918C26.1347 35.8254 26.9584 36.689 28.0085 36.7242Z" fill="#FFC34F"/>
<path d="M41.0396 37.6765L38.6107 41.153C38.3715 41.4948 38.0532 41.7738 37.6831 41.9663C37.3129 42.1588 36.9017 42.2592 36.4845 42.2588H18.1632C17.5806 42.2602 17.0145 42.0646 16.557 41.7039C16.3564 41.5468 16.1799 41.3612 16.0331 41.153L13.6042 37.6765H41.0396Z" fill="#8B8BC1"/>
<g style="mix-blend-mode:multiply" opacity="0.1">
<path d="M36.4845 42.2588H18.1632C17.5806 42.2602 17.0145 42.0646 16.557 41.7039C16.3564 41.5468 16.1799 41.3612 16.0331 41.153L13.6042 37.6765C27.75 35.3125 18.1632 41.153 36.4845 42.2588Z" fill="#8B8BC1"/>
</g>
<path d="M13.1712 36.2205C12.4058 36.4888 12.5884 37.6832 13.3949 37.6832H41.2667C42.0731 37.6832 42.2558 36.4887 41.4904 36.2205C41.3329 36.1653 13.3679 36.1516 13.1712 36.2205Z" fill="#7676B5"/>
</svg>
