<svg width="49" height="48" viewBox="0 0 49 48" fill="none" xmlns="http://www.w3.org/2000/svg">
<path d="M16.9631 6.09422C19.1367 7.67883 19.2512 10.4907 18.8959 12.3392C18.8568 12.5426 19.1105 12.6806 19.2425 12.521C22.1285 9.03003 19.3986 5.30199 17.4677 3.71266C17.3948 3.65267 17.2909 3.65508 17.2183 3.71534L16.7374 4.11417C16.1281 4.61948 16.3235 5.62791 16.9631 6.09422Z" fill="#34800E"/>
<path d="M26.3554 15.3692C24.8274 16.3449 23.1963 17.5499 22.6281 19.2818C22.0599 21.0137 22.7726 25.0144 23.4258 26.7052C24.0791 28.396 25.298 29.7981 26.872 30.6694C30.2344 32.5237 32.9835 33.2938 34.347 29.6499C34.8511 28.3082 34.8866 26.8362 34.4476 25.479C34.0086 24.1219 32.5794 22.1985 31.5949 21.1818C28.5127 17.9989 33.7056 15.0463 33.0675 14.5291C32.1037 13.7478 27.6695 14.5301 26.3554 15.3692Z" fill="#FF991F"/>
<path d="M30.9108 20.4447C29.0735 21.8552 27.37 22.4802 25.6985 24.4802C24.7795 26.2866 24.3277 28.7959 24.7579 30.7649C25.188 32.7338 26.2888 34.4819 27.87 35.707C31.249 38.3165 36.2339 37.4895 38.3521 33.7176C39.1342 32.3291 39.4236 30.7177 39.1721 29.1518C38.9207 27.5859 38.1434 26.16 36.9699 25.1118C34.0651 22.5169 37.2969 20.4668 36.7536 20.188C33.7475 18.6452 32.939 22.837 30.9108 20.4447Z" fill="#FF991F"/>
<g style="mix-blend-mode:multiply">
<path d="M29.1007 24.5453C27.8154 25.1559 26.7772 26.1979 26.1656 27.4912C25.554 28.7845 25.4074 30.2478 25.751 31.6283C26.0946 33.0089 26.907 34.2199 28.0477 35.0521C30.4851 36.8245 32.5509 37.6927 33.9686 34.9881C34.4922 33.9924 34.6635 32.8495 34.4542 31.7497C34.2448 30.65 33.6673 29.6597 32.8179 28.944C30.9808 27.3959 33.9221 24.6161 33.5902 24.3411C32.5041 23.4409 30.206 24.0201 29.1007 24.5453Z" fill="#FF8000"/>
</g>
<g style="mix-blend-mode:multiply" opacity="0.4">
<path fill-rule="evenodd" clip-rule="evenodd" d="M39.2379 30C39.1992 30.0815 39.1592 30.1624 39.1178 30.2429C38.2042 32.0186 36.6966 33.4284 34.8555 34.2289C33.0143 35.0294 30.9553 35.1701 29.0342 34.6268C27.1131 34.0836 25.4506 32.8904 24.3339 31.2535C23.5293 30.07 23.1248 28.7284 23.0911 27.3987C21.8947 29.6325 21.9653 32.4865 23.5095 34.7578C24.6262 36.3947 26.2887 37.5879 28.2098 38.1312C30.1309 38.6744 32.1899 38.5337 34.031 37.7332C35.8722 36.9328 37.3798 35.5229 38.2933 33.7472C38.8963 32.5753 39.2155 31.2926 39.2379 30Z" fill="#FF8000"/>
</g>
<path d="M38.2083 35.1632C38.7875 35.249 39.2023 35.8132 38.9212 36.3269C37.2225 39.4307 31.2698 39.2222 29.3896 39.0742C16.7713 38.1213 10.3857 18.6057 15.1779 12.9722C19.9701 7.33884 25.006 11.2922 25.0346 13.9379C25.162 25.7294 25.2474 33.243 38.2083 35.1632Z" fill="#CC0C36"/>
<path fill-rule="evenodd" clip-rule="evenodd" d="M19.1588 10.2035C19.1839 10.3575 19.1974 10.5094 19.1991 10.6582C19.3677 26.2557 21.5343 34.0322 38.7355 36.5447C36.8545 39.3764 31.1872 39.1756 29.3612 39.0319C16.7428 38.079 10.3573 18.5635 15.1495 12.9301C16.5061 11.3354 17.8823 10.5089 19.1588 10.2035Z" fill="#6D1013" fill-opacity="0.3"/>
</svg>
