<svg width="49" height="48" viewBox="0 0 49 48" fill="none" xmlns="http://www.w3.org/2000/svg">
<path d="M7.56908 19.187C7.56908 17.6479 8.81681 16.4001 10.356 16.4001H39.3014C40.8405 16.4001 42.0883 17.6479 42.0883 19.187V37.0662C42.0883 38.6053 40.8405 39.853 39.3014 39.853H10.356C8.81681 39.853 7.56908 38.6053 7.56908 37.0662V19.187Z" fill="#8B8BC1" stroke="#DEDEED" stroke-width="0.426241"/>
<rect x="9.35254" y="18.2495" width="25.9178" height="19.875" rx="1.5" fill="#474785"/>
<rect x="36.9111" y="24.5234" width="3.39044" height="3.47975" rx="1.69522" fill="#DEDEED"/>
<rect x="36.9111" y="18.2495" width="3.39044" height="3.47975" rx="1.69522" fill="#DEDEED"/>
<path opacity="0.3" fill-rule="evenodd" clip-rule="evenodd" d="M21.0391 16.187L7.35625 32.6171L7.35595 19.187C7.35595 17.5302 8.6991 16.187 10.356 16.187H21.0391Z" fill="#8B8BC1"/>
<path opacity="0.3" fill-rule="evenodd" clip-rule="evenodd" d="M31.7389 16.187L11.3867 40.0662H10.3491C8.95961 40.0662 7.79073 39.1215 7.44971 37.8393L25.9136 16.187H31.7389Z" fill="#8B8BC1"/>
<path opacity="0.4" fill-rule="evenodd" clip-rule="evenodd" d="M39.8256 18.7669L37.7347 21.4883C37.2413 21.1919 36.9111 20.6515 36.9111 20.034V19.9447C36.9111 19.0085 37.6701 18.2495 38.6064 18.2495C39.085 18.2495 39.5173 18.4479 39.8256 18.7669Z" fill="#8B8BC1"/>
<path opacity="0.4" fill-rule="evenodd" clip-rule="evenodd" d="M39.8256 25.0408L37.7347 27.7622C37.2413 27.4659 36.9111 26.9255 36.9111 26.308V26.2187C36.9111 25.2824 37.6701 24.5234 38.6064 24.5234C39.085 24.5234 39.5173 24.7218 39.8256 25.0408Z" fill="#8B8BC1"/>
<g opacity="0.5">
<path d="M31.6761 31.4954C31.6817 31.4283 31.6817 31.3667 31.6817 31.3052C31.6817 30.035 30.6913 29.0054 29.4659 29.0054C28.2404 29.0054 27.25 30.035 27.25 31.3052C27.25 31.3723 27.25 31.4339 27.2556 31.4954H31.6761Z" fill="#FFEA80"/>
<path d="M18.2484 31.2409C18.3375 31.0159 18.392 30.7687 18.392 30.5128C18.392 29.3698 17.3868 28.4431 16.1538 28.4431C14.9208 28.4431 13.9155 29.3698 13.9155 30.5128C13.9155 30.7731 13.965 31.0159 14.0591 31.2409H18.2484Z" fill="#2D2D53"/>
<path d="M15.7959 31.4955C15.7959 27.6402 18.8063 24.5234 22.5162 24.5234C26.2261 24.5234 29.2365 27.6458 29.2365 31.4955H15.7959Z" fill="#FFAB00"/>
<path d="M24.3012 24.7696C23.736 24.6074 23.1317 24.5234 22.5162 24.5234C18.8007 24.5234 15.7959 27.6458 15.7959 31.4955H19.3659C19.3659 28.2781 21.4586 25.581 24.3012 24.7696Z" fill="#FFAB00"/>
<g style="mix-blend-mode:multiply" opacity="0.4">
<path d="M24.3012 24.7696C23.736 24.6074 23.1317 24.5234 22.5162 24.5234C18.8007 24.5234 15.7959 27.6458 15.7959 31.4955H19.3659C19.3659 28.2781 21.4586 25.581 24.3012 24.7696Z" fill="#FFAB00"/>
</g>
<g style="mix-blend-mode:multiply" opacity="0.6">
<path d="M22.052 26.6889L21.1791 26.9518C20.9889 27.0134 20.7874 26.8959 20.7371 26.7C20.6811 26.5042 20.7874 26.2916 20.9777 26.2412L21.8506 25.9782C22.0408 25.9167 22.2423 26.0342 22.2926 26.23C22.3486 26.4259 22.2423 26.6385 22.052 26.6889Z" fill="#FFAB00"/>
</g>
<g style="mix-blend-mode:multiply" opacity="0.6">
<path d="M22.2421 28.5521L21.6154 27.8694C21.4811 27.7184 21.4867 27.4833 21.6266 27.3435C21.7721 27.2036 22.0015 27.2092 22.1358 27.3546L22.7625 28.0373C22.9024 28.1884 22.8912 28.4234 22.7513 28.5633C22.6002 28.7032 22.382 28.6976 22.2421 28.5521Z" fill="#FFAB00"/>
</g>
<g style="mix-blend-mode:multiply" opacity="0.6">
<path d="M22.8632 30.9641L23.2773 30.1247C23.3668 29.9401 23.585 29.8673 23.7585 29.9625C23.9376 30.0576 24.0047 30.2814 23.9152 30.4661L23.5011 31.3054C23.4116 31.4901 23.1934 31.5628 23.0199 31.4677C22.8408 31.3781 22.7737 31.1487 22.8632 30.9641Z" fill="#FFAB00"/>
</g>
<g style="mix-blend-mode:multiply" opacity="0.6">
<path d="M24.7376 28.888L23.8311 28.9216C23.6353 28.9272 23.4674 28.7649 23.4562 28.5635C23.4506 28.362 23.6073 28.183 23.8031 28.1774L24.7096 28.1438C24.9055 28.1382 25.0733 28.3005 25.0845 28.5019C25.0901 28.7034 24.9334 28.8768 24.7376 28.888Z" fill="#FFAB00"/>
</g>
<g style="mix-blend-mode:multiply" opacity="0.6">
<path d="M21.8227 29.9344L20.933 30.1246C20.7372 30.1638 20.5469 30.0351 20.5077 29.8337C20.4686 29.6322 20.5917 29.4364 20.7875 29.3916L21.6772 29.2013C21.8731 29.1622 22.0633 29.2909 22.1025 29.4923C22.1417 29.6938 22.0186 29.8896 21.8227 29.9344Z" fill="#FFAB00"/>
</g>
<g style="mix-blend-mode:multiply" opacity="0.6">
<path d="M25.9574 30.2924L25.0845 30.0462C24.8943 29.9902 24.7767 29.7888 24.8271 29.593C24.8775 29.3971 25.0733 29.274 25.2636 29.33L26.1365 29.5762C26.3267 29.6321 26.4442 29.8336 26.3939 30.0294C26.3435 30.2308 26.1477 30.3484 25.9574 30.2924Z" fill="#FFAB00"/>
</g>
<g style="mix-blend-mode:multiply" opacity="0.6">
<path d="M19.9254 30.6617L19.2596 31.3052C19.1141 31.4451 18.8846 31.4339 18.7504 31.2828C18.6161 31.1317 18.6273 30.8967 18.7727 30.7568L19.4386 30.1133C19.5841 29.9734 19.8079 29.9846 19.9478 30.1357C20.0877 30.2868 20.0765 30.5218 19.931 30.6617H19.9254Z" fill="#FFAB00"/>
</g>
<g style="mix-blend-mode:multiply" opacity="0.6">
<path d="M18.728 29.8112L17.8271 29.7105C17.6312 29.6881 17.4858 29.5091 17.5081 29.2965C17.5305 29.095 17.704 28.9439 17.9054 28.9663L18.8063 29.067C19.0022 29.0894 19.1476 29.2685 19.1253 29.4811C19.1029 29.6825 18.9294 29.8336 18.728 29.8112Z" fill="#FFAB00"/>
</g>
<g style="mix-blend-mode:multiply" opacity="0.6">
<path d="M24.0102 27.3547L23.1093 27.254C22.9135 27.2316 22.768 27.0525 22.7904 26.8399C22.8071 26.6385 22.9862 26.4874 23.1876 26.5098L24.0885 26.6105C24.2844 26.6329 24.4299 26.8119 24.4075 27.0246C24.3795 27.226 24.206 27.3771 24.0102 27.3547Z" fill="#FFAB00"/>
</g>
<g style="mix-blend-mode:multiply" opacity="0.6">
<path d="M27.7596 29.1677L26.8531 29.1957C26.6572 29.2012 26.4894 29.039 26.4782 28.8319C26.4726 28.6305 26.6293 28.4514 26.8307 28.4458L27.7372 28.4179C27.933 28.4123 28.1009 28.5745 28.1065 28.7816C28.1065 28.9942 27.9498 29.1621 27.754 29.1677H27.7596Z" fill="#FFAB00"/>
</g>
<g style="mix-blend-mode:multiply" opacity="0.6">
<path d="M19.6008 28.278L20.1604 27.5338C20.2835 27.3715 20.5073 27.3436 20.664 27.4667C20.8207 27.5954 20.8486 27.8248 20.7311 27.9871L20.1716 28.7313C20.0485 28.8935 19.8246 28.9215 19.668 28.7984C19.5057 28.6753 19.4777 28.4403 19.6008 28.278Z" fill="#FFAB00"/>
</g>
<g style="mix-blend-mode:multiply" opacity="0.6">
<path d="M18.1067 26.9518L18.974 27.2204C19.1643 27.282 19.2762 27.4834 19.2146 27.6905C19.1587 27.8863 18.9572 28.0038 18.767 27.9423L17.8997 27.6737C17.7094 27.6121 17.5975 27.4107 17.659 27.2036C17.7206 27.0078 17.922 26.8903 18.1123 26.9518H18.1067Z" fill="#FFAB00"/>
</g>
<g style="mix-blend-mode:multiply" opacity="0.6">
<path d="M25.5265 27.254L26.3826 26.9295C26.5728 26.8567 26.7743 26.9575 26.847 27.1477C26.9198 27.3436 26.819 27.5562 26.64 27.6289L25.7839 27.9535C25.5936 28.0262 25.3922 27.9255 25.3194 27.7352C25.2467 27.5394 25.3418 27.3268 25.5265 27.254Z" fill="#FFAB00"/>
</g>
<path d="M27.6766 35.1495H16.989C13.9226 35.2726 12.3222 32.9616 11.7291 31.8369C11.5836 31.5627 11.7907 31.2382 12.104 31.2382H32.5223C32.8469 31.2382 33.0483 31.5795 32.8861 31.8537C32.209 32.9784 30.4855 35.2502 27.6766 35.1495Z" fill="#363663"/>
<g style="mix-blend-mode:multiply" opacity="0.26">
<path d="M19.0926 31.6299L18.9191 31.2382H12.1149C11.7904 31.2382 11.5777 31.5739 11.7288 31.8593C12.294 32.9616 13.816 35.1495 16.9887 35.1495H24.4588C22.1422 35.1495 20.0383 33.7674 19.0982 31.6299H19.0926Z" fill="#363663"/>
</g>
</g>
</svg>
