<svg width="25" height="25" viewBox="0 0 25 25" fill="none" xmlns="http://www.w3.org/2000/svg">
    <path fill-rule="evenodd" clip-rule="evenodd" d="M5.69971 6.70825C5.43449 6.70825 5.18014 6.81361 4.9926 7.00115C4.80506 7.18868 4.69971 7.44304 4.69971 7.70825L4.69971 17.7083C4.69971 17.9735 4.80506 18.2278 4.9926 18.4154C5.18014 18.6029 5.43449 18.7083 5.69971 18.7083L13.6997 18.7083C14.252 18.7083 14.6997 19.156 14.6997 19.7083C14.6997 20.2605 14.252 20.7083 13.6997 20.7083H5.69971C4.90406 20.7083 4.141 20.3922 3.57839 19.8296C3.01578 19.267 2.69971 18.5039 2.69971 17.7083V7.70825C2.69971 6.9126 3.01578 6.14954 3.57839 5.58693C4.141 5.02432 4.90406 4.70825 5.69971 4.70825L19.6997 4.70825C20.4954 4.70825 21.2584 5.02432 21.821 5.58693C22.3836 6.14954 22.6997 6.9126 22.6997 7.70825V12.7083C22.6997 13.2605 22.252 13.7083 21.6997 13.7083C21.1474 13.7083 20.6997 13.2605 20.6997 12.7083V7.70825C20.6997 7.44304 20.5944 7.18868 20.4068 7.00115C20.2193 6.81361 19.9649 6.70825 19.6997 6.70825L5.69971 6.70825ZM16.9926 20.4154C17.3831 20.8059 18.0163 20.8059 18.4068 20.4154L19.6997 19.1225L20.9926 20.4154C21.3831 20.8059 22.0163 20.8059 22.4068 20.4154C22.7973 20.0248 22.7973 19.3917 22.4068 19.0011L21.1139 17.7083L22.4068 16.4154C22.7973 16.0248 22.7973 15.3917 22.4068 15.0011C22.0163 14.6106 21.3831 14.6106 20.9926 15.0011L19.6997 16.294L18.4068 15.0011C18.0163 14.6106 17.3831 14.6106 16.9926 15.0011C16.6021 15.3917 16.6021 16.0248 16.9926 16.4154L18.2855 17.7083L16.9926 19.0011C16.6021 19.3917 16.6021 20.0248 16.9926 20.4154ZM13.731 8.89575C14.2832 8.89575 14.731 9.34347 14.731 9.89575C14.731 10.448 14.2832 10.8958 13.731 10.8958L7.73096 10.8958C7.17867 10.8958 6.73096 10.448 6.73096 9.89575C6.73096 9.34347 7.17867 8.89575 7.73096 8.89575L13.731 8.89575Z" fill="#1C1C31"/>
</svg>
