<svg width="25" height="25" viewBox="0 0 25 25" fill="none" xmlns="http://www.w3.org/2000/svg">
    <path fill-rule="evenodd" clip-rule="evenodd" d="M4.77665 7.81317C4.77665 6.71093 5.67019 5.81738 6.77244 5.81738H15.4976C16.5999 5.81738 17.4934 6.71093 17.4934 7.81317V8.6095L17.5215 8.6093H19.8381C20.4154 8.6093 20.9413 8.94134 21.1895 9.4626L22.6323 12.4924C22.7599 12.7605 22.8262 13.0536 22.8262 13.3505V15.6972C22.8262 16.5239 22.156 17.194 21.3293 17.194H20.5221C20.5225 17.215 20.5228 17.2361 20.5228 17.2572C20.5228 18.7643 19.301 19.986 17.7939 19.986C16.2868 19.986 15.065 18.7643 15.065 17.2572L15.065 17.2499H11.7425L11.7425 17.2572C11.7425 18.7643 10.5207 19.986 9.01359 19.986C7.50646 19.986 6.2847 18.7643 6.2847 17.2572C6.2847 17.2347 6.28497 17.2124 6.28551 17.1901C5.41862 16.9727 4.77665 16.1884 4.77665 15.2541V13.3383H3.82407C3.27295 13.3383 2.82617 12.8915 2.82617 12.3404C2.82617 11.7892 3.27295 11.3425 3.82407 11.3425H4.77665V7.81317ZM6.77244 15.2541V13.3383H9.81144C10.3626 13.3383 10.8093 12.8915 10.8093 12.3404C10.8093 11.7892 10.3626 11.3425 9.81144 11.3425H6.77244V7.81317H15.4976V15.2541L10.8669 15.2541C10.3802 14.8036 9.72904 14.5283 9.01359 14.5283C8.29813 14.5283 7.64698 14.8036 7.16032 15.2541H6.77244ZM19.5231 10.6051H17.5215V13.0971H20.7097L19.5231 10.6051ZM9.01359 16.5241C8.60871 16.5241 8.28049 16.8523 8.28049 17.2572C8.28049 17.662 8.60871 17.9902 9.01359 17.9902C9.41847 17.9902 9.74668 17.662 9.74668 17.2572C9.74668 16.8523 9.41847 16.5241 9.01359 16.5241ZM17.7939 16.5241C17.389 16.5241 17.0608 16.8523 17.0608 17.2572C17.0608 17.662 17.389 17.9902 17.7939 17.9902C18.1988 17.9902 18.527 17.662 18.527 17.2572C18.527 16.8523 18.1988 16.5241 17.7939 16.5241ZM8.78236 8.94129C8.23124 8.94129 7.78447 9.38806 7.78447 9.93918C7.78447 10.4903 8.23124 10.9371 8.78236 10.9371H12.7739C13.3251 10.9371 13.7718 10.4903 13.7718 9.93918C13.7718 9.38806 13.3251 8.94129 12.7739 8.94129H8.78236Z" fill="#1C1C31"/>
</svg>
