<svg width="25" height="25" viewBox="0 0 25 25" fill="none" xmlns="http://www.w3.org/2000/svg">
    <path d="M17.8989 15.9283C17.8989 16.9083 17.0989 17.7083 16.1189 17.7083C15.1389 17.7083 14.3489 16.9083 14.3489 15.9283C14.3489 14.9483 15.1389 14.1583 16.1189 14.1583C17.0989 14.1583 17.8989 14.9483 17.8989 15.9283ZM9.72893 11.3083C10.7089 11.3083 11.4989 10.5183 11.4989 9.53825C11.4989 8.54825 10.7089 7.75825 9.72893 7.75825C8.73893 7.75825 7.94893 8.54825 7.94893 9.53825C7.94893 10.5183 8.73893 11.3083 9.72893 11.3083ZM8.64893 15.4883C8.23471 15.9025 8.23471 16.574 8.64893 16.9883C9.06314 17.4025 9.73471 17.4025 10.1489 16.9883L17.1789 9.95825C17.5931 9.54404 17.5931 8.87247 17.1789 8.45825C16.7647 8.04404 16.0931 8.04404 15.6789 8.45825L8.64893 15.4883ZM22.8989 12.7083C22.8989 18.2083 18.3989 22.7083 12.8989 22.7083C7.39893 22.7083 2.89893 18.2083 2.89893 12.7083C2.89893 7.20825 7.39893 2.70825 12.8989 2.70825C18.3989 2.70825 22.8989 7.20825 22.8989 12.7083ZM20.8989 12.7083C20.8989 8.29825 17.3089 4.70825 12.8989 4.70825C8.48893 4.70825 4.89893 8.29825 4.89893 12.7083C4.89893 17.1183 8.48893 20.7083 12.8989 20.7083C17.3089 20.7083 20.8989 17.1183 20.8989 12.7083Z" fill="#1C1C31"/>
</svg>
