<svg width="24" height="24" viewBox="0 0 24 24" fill="none" xmlns="http://www.w3.org/2000/svg">
    <path fill-rule="evenodd" clip-rule="evenodd" d="M3.29289 18.2929C2.90237 18.6834 2.90237 19.3166 3.29289 19.7071C3.68342 20.0976 4.31658 20.0976 4.70711 19.7071L11.7071 12.7071C12.0976 12.3166 12.0976 11.6834 11.7071 11.2929L4.70711 4.29289C4.31658 3.90237 3.68342 3.90237 3.29289 4.29289C2.90237 4.68342 2.90237 5.31658 3.29289 5.70711L9.58579 12L3.29289 18.2929ZM12.2929 18.2929C11.9024 18.6834 11.9024 19.3166 12.2929 19.7071C12.6834 20.0976 13.3166 20.0976 13.7071 19.7071L20.7071 12.7071C21.0976 12.3166 21.0976 11.6834 20.7071 11.2929L13.7071 4.29289C13.3166 3.90237 12.6834 3.90237 12.2929 4.29289C11.9024 4.68342 11.9024 5.31658 12.2929 5.70711L18.5858 12L12.2929 18.2929Z" fill="#1C1C31"/>
</svg>
