<svg width="16" height="16" viewBox="0 0 16 16" fill="none" xmlns="http://www.w3.org/2000/svg">
<path d="M5.99984 13.3332C5.63317 13.3332 5.31939 13.2027 5.0585 12.9418C4.79717 12.6805 4.6665 12.3665 4.6665 11.9998C4.6665 11.6332 4.79717 11.3192 5.0585 11.0578C5.31939 10.7969 5.63317 10.6665 5.99984 10.6665C6.3665 10.6665 6.6805 10.7969 6.94184 11.0578C7.20273 11.3192 7.33317 11.6332 7.33317 11.9998C7.33317 12.3665 7.20273 12.6805 6.94184 12.9418C6.6805 13.2027 6.3665 13.3332 5.99984 13.3332ZM9.99984 13.3332C9.63317 13.3332 9.31939 13.2027 9.0585 12.9418C8.79717 12.6805 8.6665 12.3665 8.6665 11.9998C8.6665 11.6332 8.79717 11.3192 9.0585 11.0578C9.31939 10.7969 9.63317 10.6665 9.99984 10.6665C10.3665 10.6665 10.6805 10.7969 10.9418 11.0578C11.2027 11.3192 11.3332 11.6332 11.3332 11.9998C11.3332 12.3665 11.2027 12.6805 10.9418 12.9418C10.6805 13.2027 10.3665 13.3332 9.99984 13.3332ZM5.99984 9.33317C5.63317 9.33317 5.31939 9.2025 5.0585 8.94117C4.79717 8.68028 4.6665 8.3665 4.6665 7.99984C4.6665 7.63317 4.79717 7.31917 5.0585 7.05784C5.31939 6.79695 5.63317 6.6665 5.99984 6.6665C6.3665 6.6665 6.6805 6.79695 6.94184 7.05784C7.20273 7.31917 7.33317 7.63317 7.33317 7.99984C7.33317 8.3665 7.20273 8.68028 6.94184 8.94117C6.6805 9.2025 6.3665 9.33317 5.99984 9.33317ZM9.99984 9.33317C9.63317 9.33317 9.31939 9.2025 9.0585 8.94117C8.79717 8.68028 8.6665 8.3665 8.6665 7.99984C8.6665 7.63317 8.79717 7.31917 9.0585 7.05784C9.31939 6.79695 9.63317 6.6665 9.99984 6.6665C10.3665 6.6665 10.6805 6.79695 10.9418 7.05784C11.2027 7.31917 11.3332 7.63317 11.3332 7.99984C11.3332 8.3665 11.2027 8.68028 10.9418 8.94117C10.6805 9.2025 10.3665 9.33317 9.99984 9.33317ZM5.99984 5.33317C5.63317 5.33317 5.31939 5.2025 5.0585 4.94117C4.79717 4.68028 4.6665 4.3665 4.6665 3.99984C4.6665 3.63317 4.79717 3.31939 5.0585 3.0585C5.31939 2.79717 5.63317 2.6665 5.99984 2.6665C6.3665 2.6665 6.6805 2.79717 6.94184 3.0585C7.20273 3.31939 7.33317 3.63317 7.33317 3.99984C7.33317 4.3665 7.20273 4.68028 6.94184 4.94117C6.6805 5.2025 6.3665 5.33317 5.99984 5.33317ZM9.99984 5.33317C9.63317 5.33317 9.31939 5.2025 9.0585 4.94117C8.79717 4.68028 8.6665 4.3665 8.6665 3.99984C8.6665 3.63317 8.79717 3.31939 9.0585 3.0585C9.31939 2.79717 9.63317 2.6665 9.99984 2.6665C10.3665 2.6665 10.6805 2.79717 10.9418 3.0585C11.2027 3.31939 11.3332 3.63317 11.3332 3.99984C11.3332 4.3665 11.2027 4.68028 10.9418 4.94117C10.6805 5.2025 10.3665 5.33317 9.99984 5.33317Z" fill="#474785"/>
</svg>
