<svg width="25" height="25" viewBox="0 0 25 25" fill="none" xmlns="http://www.w3.org/2000/svg">
    <path fill-rule="evenodd" clip-rule="evenodd" d="M12.2071 6.22859C12.5976 5.83807 12.5976 5.2049 12.2071 4.81438C11.8166 4.42385 11.1834 4.42385 10.7929 4.81438L3.79289 11.8144C3.40237 12.2049 3.40237 12.8381 3.79289 13.2286L10.7929 20.2286C11.1834 20.6191 11.8166 20.6191 12.2071 20.2286C12.5976 19.8381 12.5976 19.2049 12.2071 18.8144L5.91421 12.5215L12.2071 6.22859ZM21.2071 6.22859C21.5976 5.83807 21.5976 5.2049 21.2071 4.81438C20.8166 4.42385 20.1834 4.42385 19.7929 4.81438L12.7929 11.8144C12.4024 12.2049 12.4024 12.8381 12.7929 13.2286L19.7929 20.2286C20.1834 20.6191 20.8166 20.6191 21.2071 20.2286C21.5976 19.8381 21.5976 19.2049 21.2071 18.8144L14.9142 12.5215L21.2071 6.22859Z" fill="#1C1C31"/>
</svg>
