<svg width="25" height="25" viewBox="0 0 25 25" fill="none" xmlns="http://www.w3.org/2000/svg">
    <path fill-rule="evenodd" clip-rule="evenodd" d="M12.0386 3.25C12.5909 3.25 13.0386 3.69772 13.0386 4.25V13.8358L15.3315 11.5429C15.722 11.1524 16.3552 11.1524 16.7457 11.5429C17.1362 11.9334 17.1362 12.5666 16.7457 12.9571L12.7457 16.9571C12.3552 17.3476 11.722 17.3476 11.3315 16.9571L7.33147 12.9571C6.94094 12.5666 6.94094 11.9334 7.33147 11.5429C7.72199 11.1524 8.35516 11.1524 8.74568 11.5429L11.0386 13.8358V4.25C11.0386 3.69772 11.4863 3.25 12.0386 3.25ZM4.03857 15.25C4.59086 15.25 5.03857 15.6977 5.03857 16.25V17.25C5.03857 17.7804 5.24929 18.2891 5.62436 18.6642C5.99943 19.0393 6.50814 19.25 7.03857 19.25H17.0386C17.569 19.25 18.0777 19.0393 18.4528 18.6642C18.8279 18.2891 19.0386 17.7804 19.0386 17.25V16.25C19.0386 15.6977 19.4863 15.25 20.0386 15.25C20.5909 15.25 21.0386 15.6977 21.0386 16.25V17.25C21.0386 18.3109 20.6171 19.3283 19.867 20.0784C19.1169 20.8286 18.0994 21.25 17.0386 21.25H7.03857C5.97771 21.25 4.96029 20.8286 4.21015 20.0784C3.46 19.3283 3.03857 18.3109 3.03857 17.25V16.25C3.03857 15.6977 3.48629 15.25 4.03857 15.25Z" fill="#1C1C31"/>
</svg>
