<svg width="25" height="25" viewBox="0 0 25 25" fill="none" xmlns="http://www.w3.org/2000/svg">
    <path fill-rule="evenodd" clip-rule="evenodd" d="M20.5 12.5C20.5 16.9183 16.9183 20.5 12.5 20.5C8.08172 20.5 4.5 16.9183 4.5 12.5C4.5 8.08172 8.08172 4.5 12.5 4.5C16.9183 4.5 20.5 8.08172 20.5 12.5ZM22.5 12.5C22.5 18.0228 18.0228 22.5 12.5 22.5C6.97715 22.5 2.5 18.0228 2.5 12.5C2.5 6.97715 6.97715 2.5 12.5 2.5C18.0228 2.5 22.5 6.97715 22.5 12.5ZM9.05327 9.05315C8.93474 9.17167 8.93467 9.36396 9.05334 9.48264L9.06224 9.49165L9.23447 9.66388L9.66389 9.23446L9.48525 9.05582L9.48277 9.05322C9.36409 8.93454 9.17179 8.93462 9.05327 9.05315ZM15.2243 15.6537L10.6487 11.0781L11.0781 10.6487L15.6541 15.2246L15.6541 15.6538L15.2243 15.6537ZM14.8272 17.6537C14.5657 17.6581 14.3027 17.5606 14.1031 17.361L7.63907 10.8969L14.8272 17.6537ZM16.6541 17.6538L14.8272 17.6537L7.62725 10.8849C6.73953 9.98435 6.74335 8.53464 7.63906 7.63893C8.53874 6.73925 9.99737 6.73939 10.897 7.63901L10.9072 7.6493L17.3461 14.0882C17.5359 14.2702 17.654 14.5263 17.654 14.81L17.6541 16.6538C17.6541 16.919 17.5488 17.1734 17.3612 17.3609C17.1737 17.5485 16.9193 17.6538 16.6541 17.6538Z" fill="#1C1C31"/>
</svg>
