<svg width="25" height="25" viewBox="0 0 25 25" fill="none" xmlns="http://www.w3.org/2000/svg">
    <path fill-rule="evenodd" clip-rule="evenodd" d="M19.5187 4.29981C19.3958 4.24953 19.2641 4.22423 19.1314 4.22538C18.9986 4.22653 18.8674 4.25412 18.7454 4.30653C18.6234 4.35894 18.513 4.43512 18.4208 4.53063L18.4086 4.54303L10.1155 12.8361V14.2499H11.5293L19.8224 5.95681L19.8348 5.94463C19.9303 5.85238 20.0065 5.74204 20.0589 5.62003C20.1113 5.49803 20.1389 5.36681 20.14 5.23403C20.1412 5.10126 20.1159 4.96958 20.0656 4.84668C20.0153 4.72378 19.9411 4.61213 19.8472 4.51823C19.7533 4.42434 19.6416 4.35009 19.5187 4.29981ZM19.114 2.22546C19.5123 2.22199 19.9074 2.2979 20.2761 2.44874C20.6447 2.59958 20.9797 2.82234 21.2614 3.10402C21.5431 3.3857 21.7658 3.72066 21.9167 4.08934C22.0675 4.45803 22.1434 4.85307 22.1399 5.25141C22.1365 5.64975 22.0537 6.04341 21.8965 6.40942C21.7405 6.77249 21.5144 7.10114 21.2311 7.37651L12.6506 15.957C12.463 16.1446 12.2087 16.2499 11.9435 16.2499H9.11548C8.56319 16.2499 8.11548 15.8022 8.11548 15.2499V12.4219C8.11548 12.1567 8.22084 11.9023 8.40837 11.7148L16.9889 3.13433C17.2642 2.85102 17.5929 2.62487 17.956 2.4689C18.322 2.31167 18.7156 2.22892 19.114 2.22546ZM3.99416 5.1286C4.55677 4.56599 5.31983 4.24992 6.11548 4.24992H11.1155C11.6678 4.24992 12.1155 4.69763 12.1155 5.24992C12.1155 5.8022 11.6678 6.24992 11.1155 6.24992H6.11548C5.85026 6.24992 5.59591 6.35528 5.40837 6.54281C5.22084 6.73035 5.11548 6.9847 5.11548 7.24992V18.2499C5.11548 18.5151 5.22084 18.7695 5.40837 18.957C5.59591 19.1446 5.85026 19.2499 6.11548 19.2499H17.1155C17.3807 19.2499 17.635 19.1446 17.8226 18.957C18.0101 18.7695 18.1155 18.5151 18.1155 18.2499V13.2499C18.1155 12.6976 18.5632 12.2499 19.1155 12.2499C19.6678 12.2499 20.1155 12.6976 20.1155 13.2499V18.2499C20.1155 19.0456 19.7994 19.8086 19.2368 20.3712C18.6742 20.9338 17.9111 21.2499 17.1155 21.2499H6.11548C5.31983 21.2499 4.55677 20.9338 3.99416 20.3712C3.43155 19.8086 3.11548 19.0456 3.11548 18.2499V7.24992C3.11548 6.45427 3.43155 5.69121 3.99416 5.1286Z" fill="#1C1C31"/>
</svg>
