<svg width="25" height="25" viewBox="0 0 25 25" fill="none" xmlns="http://www.w3.org/2000/svg">
    <path fill-rule="evenodd" clip-rule="evenodd" d="M18.699 14.8586C18.699 18.1724 16.0127 20.8586 12.699 20.8586C9.38527 20.8586 6.69897 18.1724 6.69897 14.8586C6.69897 13.0811 7.45683 10.4293 8.76356 8.21994C9.40657 7.13279 10.1256 6.25163 10.8483 5.66283C11.5691 5.07559 12.1892 4.85864 12.699 4.85864C13.2088 4.85864 13.8289 5.07559 14.5496 5.66283C15.2723 6.25163 15.9914 7.13279 16.6344 8.21994C17.9411 10.4293 18.699 13.0811 18.699 14.8586ZM20.699 14.8586C20.699 19.2769 17.1173 22.8586 12.699 22.8586C8.2807 22.8586 4.69897 19.2769 4.69897 14.8586C4.69897 10.4404 8.2807 2.85864 12.699 2.85864C17.1173 2.85864 20.699 10.4404 20.699 14.8586ZM12.6696 8.24095C13.1569 7.98105 13.3412 7.37532 13.0813 6.88801C12.8214 6.4007 12.2157 6.21634 11.7284 6.47624C10.7114 7.01862 9.96794 8.0596 9.49205 9.01138C9.01385 9.96777 8.69897 11.0498 8.69897 11.8586C8.69897 12.4109 9.14669 12.8586 9.69897 12.8586C10.2513 12.8586 10.699 12.4109 10.699 11.8586C10.699 11.4674 10.8841 10.6994 11.2809 9.90581C11.68 9.10759 12.1865 8.49857 12.6696 8.24095Z" fill="#1C1C31"/>
</svg>
