<svg width="49" height="48" viewBox="0 0 49 48" fill="none" xmlns="http://www.w3.org/2000/svg">
    <path fill-rule="evenodd" clip-rule="evenodd" d="M20.4165 7.4375C22.2525 4.1735 26.9493 4.1735 28.7829 7.4375L42.1749 31.2455C43.9749 34.4471 41.6637 38.3975 37.9941 38.3975H11.2077C7.53573 38.3975 5.22453 34.4471 7.02453 31.2455L20.4165 7.4375ZM26.9997 31.1999C26.9997 31.8364 26.7469 32.4469 26.2968 32.897C25.8467 33.347 25.2363 33.5999 24.5997 33.5999C23.9632 33.5999 23.3528 33.347 22.9027 32.897C22.4526 32.4469 22.1997 31.8364 22.1997 31.1999C22.1997 30.5634 22.4526 29.9529 22.9027 29.5028C23.3528 29.0528 23.9632 28.7999 24.5997 28.7999C25.2363 28.7999 25.8467 29.0528 26.2968 29.5028C26.7469 29.9529 26.9997 30.5634 26.9997 31.1999ZM24.5997 11.9999C23.9632 11.9999 23.3528 12.2528 22.9027 12.7028C22.4526 13.1529 22.1997 13.7634 22.1997 14.3999V21.5999C22.1997 22.2364 22.4526 22.8469 22.9027 23.297C23.3528 23.747 23.9632 23.9999 24.5997 23.9999C25.2363 23.9999 25.8467 23.747 26.2968 23.297C26.7469 22.8469 26.9997 22.2364 26.9997 21.5999V14.3999C26.9997 13.7634 26.7469 13.1529 26.2968 12.7028C25.8467 12.2528 25.2363 11.9999 24.5997 11.9999Z" fill="#1C1C31"/>
</svg>
