<svg width="25" height="25" viewBox="0 0 25 25" fill="none" xmlns="http://www.w3.org/2000/svg">
    <path fill-rule="evenodd" clip-rule="evenodd" d="M9.72577 4.91655C10.8807 2.91714 13.7667 2.91714 14.9216 4.91655L21.8496 16.9166C23.0047 18.9163 21.5615 21.4167 19.2517 21.4167H5.39569C3.08595 21.4167 1.64273 18.9165 2.79766 16.9168C2.79762 16.9168 2.7977 16.9167 2.79766 16.9168L9.72577 4.91655ZM11.4576 5.91693L4.52972 17.9167C4.14486 18.583 4.6255 19.4167 5.39569 19.4167H19.2517C20.0219 19.4167 20.5026 18.5832 20.1178 17.9169L13.1898 5.91693C12.8047 5.25035 11.8427 5.25035 11.4576 5.91693ZM12.3237 9.41674C12.876 9.41674 13.3237 9.86446 13.3237 10.4167V12.4167C13.3237 12.969 12.876 13.4167 12.3237 13.4167C11.7714 13.4167 11.3237 12.969 11.3237 12.4167V10.4167C11.3237 9.86446 11.7714 9.41674 12.3237 9.41674ZM11.3237 16.4167C11.3237 15.8645 11.7714 15.4167 12.3237 15.4167H12.3337C12.886 15.4167 13.3337 15.8645 13.3337 16.4167C13.3337 16.969 12.886 17.4167 12.3337 17.4167H12.3237C11.7714 17.4167 11.3237 16.969 11.3237 16.4167Z" fill="#1C1C31"/>
</svg>
