<svg width="25" height="25" viewBox="0 0 25 25" fill="none" xmlns="http://www.w3.org/2000/svg">
    <path fill-rule="evenodd" clip-rule="evenodd" d="M8.83293 4.85864L9.5416 4.1531C9.54149 4.15299 9.5416 4.1531 8.83293 4.85864ZM14.6124 4.1531L14.6103 4.15529L14.606 4.15955L14.5916 4.17422C14.5793 4.18671 14.5618 4.20458 14.5395 4.22764C14.4948 4.27375 14.4306 4.34063 14.3498 4.42662C14.1881 4.59855 13.9594 4.84731 13.6859 5.15978C13.221 5.69085 12.6233 6.41006 12.0045 7.25233C11.5626 6.56451 11.097 5.94973 10.6968 5.45816C10.3752 5.06316 10.0902 4.74074 9.88425 4.51573C9.78117 4.4031 9.69759 4.31454 9.63879 4.25314C9.60938 4.22243 9.58614 4.19848 9.56973 4.18169L9.55031 4.1619L9.54459 4.15611L9.5416 4.1531M14.6124 4.1531L15.3211 4.85864C16.0298 4.1531 16.0304 4.15375 16.0306 4.15393L16.0319 4.15529L16.0362 4.15955L16.0506 4.17422C16.0629 4.18671 16.0804 4.20458 16.1027 4.22764C16.1474 4.27375 16.2115 4.34063 16.2924 4.42662C16.4541 4.59855 16.6828 4.84731 16.9563 5.15978C17.5024 5.78361 18.2318 6.66706 18.9633 7.70461C20.3888 9.72669 21.9708 12.5377 21.9708 15.2116C21.9708 17.8661 20.8789 19.5876 19.4271 20.6077C18.032 21.5879 16.398 21.8587 15.3211 21.8587C14.2442 21.8587 12.6102 21.5879 11.2151 20.6077C10.0639 19.7988 9.13898 18.5489 8.80532 16.7425C8.02924 16.738 6.86275 16.5408 5.85604 15.8335C4.78057 15.0778 3.98975 13.8077 3.98975 11.9012C3.98975 9.97524 5.12011 7.99182 6.09403 6.61035C6.59968 5.89312 7.10329 5.28323 7.47998 4.85289C7.66881 4.63716 7.82699 4.46512 7.93925 4.34573C7.99541 4.28601 8.04016 4.23936 8.07161 4.2069L8.10859 4.16897L8.11918 4.15823L8.12242 4.15496L8.12426 4.1531L8.83293 4.85864C8.4785 4.50578 8.30138 4.32935 8.21284 4.24116C8.12521 4.15387 8.12436 4.15302 8.12427 4.1531L8.12426 4.1531C8.31192 3.96461 8.56695 3.85864 8.83293 3.85864C9.09892 3.85864 9.35394 3.96461 9.5416 4.1531M12.3649 18.9712C11.5393 18.3912 10.8066 17.4191 10.6881 15.7076C10.6901 15.6689 10.6898 15.6296 10.6872 15.59C10.6781 15.4522 10.6728 15.3093 10.6716 15.1612C10.6922 13.1677 11.926 10.8252 13.3136 8.857C13.9945 7.89108 14.6775 7.06345 15.1908 6.47706C15.2356 6.42587 15.2791 6.37657 15.3211 6.32921C15.3631 6.37657 15.4066 6.42587 15.4514 6.47706C15.9647 7.06345 16.6477 7.89108 17.3286 8.857C18.7279 10.8419 19.9708 13.2073 19.9708 15.2116C19.9708 17.2353 19.1795 18.3373 18.2773 18.9712C17.3183 19.645 16.1274 19.8587 15.3211 19.8587C14.5148 19.8587 13.3239 19.645 12.3649 18.9712ZM14.6124 4.1531C14.6126 4.15292 14.6124 4.1531 15.3211 4.85864L16.0298 4.1531C15.8421 3.96461 15.5871 3.85864 15.3211 3.85864C15.0551 3.85864 14.8001 3.96461 14.6124 4.1531ZM8.83293 6.34584C8.51205 6.72119 8.1196 7.2082 7.72865 7.76275C6.78098 9.10698 5.98975 10.6448 5.98975 11.9012C5.98975 13.177 6.47998 13.8276 7.00584 14.197C7.53217 14.5668 8.18634 14.7137 8.68031 14.7386C8.77934 12.7338 9.68814 10.6833 10.7047 8.9653C10.2238 8.11837 9.64374 7.33254 9.14575 6.72081C9.036 6.58599 8.93102 6.46058 8.83293 6.34584ZM15.046 16.6336C14.4902 16.5653 13.9696 16.9456 13.8834 17.4832C13.7971 18.0207 14.1778 18.5119 14.7337 18.5802C15.301 18.65 15.8777 18.5978 16.4206 18.4276C16.9636 18.2574 17.4588 17.9736 17.8692 17.5974C18.2796 17.2211 18.5947 16.7622 18.7909 16.2549C18.9871 15.7476 19.0593 15.205 19.0022 14.6677C18.945 14.1303 18.4451 13.7513 17.8855 13.8212C17.3259 13.891 16.9185 14.3832 16.9757 14.9206C17.0012 15.1602 16.9686 15.3969 16.8844 15.6147C16.8002 15.8323 16.6649 16.03 16.4865 16.1936C16.3078 16.3573 16.0876 16.4852 15.8388 16.5632C15.5897 16.6413 15.3186 16.6671 15.046 16.6336Z" fill="#1C1C31"/>
</svg>
