<svg width="25" height="25" viewBox="0 0 25 25" fill="none" xmlns="http://www.w3.org/2000/svg">
<path d="M4.7011 6.73479C4.28323 7.15265 3.95175 7.64873 3.7256 8.1947C3.49945 8.74067 3.38306 9.32583 3.38306 9.91679C3.38306 10.5077 3.49945 11.0929 3.7256 11.6389C3.95175 12.1848 4.28323 12.6809 4.7011 13.0988L12.3831 20.7808L20.0651 13.0988C20.909 12.2549 21.3831 11.1103 21.3831 9.91679C21.3831 8.72331 20.909 7.57871 20.0651 6.73479C19.2212 5.89087 18.0766 5.41676 16.8831 5.41676C15.6896 5.41676 14.545 5.89087 13.7011 6.73479L12.3831 8.05279L11.0651 6.73479C10.6472 6.31692 10.1512 5.98545 9.60518 5.7593C9.05921 5.53315 8.47405 5.41675 7.8831 5.41675C7.29214 5.41675 6.70698 5.53315 6.16101 5.7593C5.61504 5.98545 5.11896 6.31692 4.7011 6.73479V6.73479Z" stroke="#1C1C31" stroke-width="2" stroke-linecap="round" stroke-linejoin="round"/>
</svg>
