<svg width="25" height="25" viewBox="0 0 25 25" fill="none" xmlns="http://www.w3.org/2000/svg">
    <path fill-rule="evenodd" clip-rule="evenodd" d="M6.83301 3.125C7.38529 3.125 7.83301 3.57272 7.83301 4.125V13.2966C8.25091 13.4443 8.63492 13.6843 8.95433 14.0037C9.51694 14.5663 9.83301 15.3294 9.83301 16.125C9.83301 16.9206 9.51694 17.6837 8.95433 18.2463C8.63492 18.5657 8.25091 18.8057 7.83301 18.9534V20.125C7.83301 20.6773 7.38529 21.125 6.83301 21.125C6.28072 21.125 5.83301 20.6773 5.83301 20.125V18.9534C5.4151 18.8057 5.03109 18.5657 4.71169 18.2463C4.14908 17.6837 3.83301 16.9206 3.83301 16.125C3.83301 15.3294 4.14908 14.5663 4.71169 14.0037C5.03109 13.6843 5.4151 13.4443 5.83301 13.2966V4.125C5.83301 3.57272 6.28072 3.125 6.83301 3.125ZM12.833 3.125C13.3853 3.125 13.833 3.57272 13.833 4.125V5.29657C14.2509 5.44433 14.6349 5.68427 14.9543 6.00368C15.5169 6.56629 15.833 7.32935 15.833 8.125C15.833 8.92065 15.5169 9.68371 14.9543 10.2463C14.6349 10.5657 14.2509 10.8057 13.833 10.9534V20.125C13.833 20.6773 13.3853 21.125 12.833 21.125C12.2807 21.125 11.833 20.6773 11.833 20.125V10.9534C11.4151 10.8057 11.0311 10.5657 10.7117 10.2463C10.1491 9.68371 9.83301 8.92065 9.83301 8.125C9.83301 7.32935 10.1491 6.56629 10.7117 6.00368C11.0311 5.68427 11.4151 5.44433 11.833 5.29657V4.125C11.833 3.57272 12.2807 3.125 12.833 3.125ZM18.833 3.125C19.3853 3.125 19.833 3.57272 19.833 4.125V13.2966C20.2509 13.4443 20.6349 13.6843 20.9543 14.0037C21.5169 14.5663 21.833 15.3293 21.833 16.125C21.833 16.9207 21.5169 17.6837 20.9543 18.2463C20.6349 18.5657 20.2509 18.8057 19.833 18.9534V20.125C19.833 20.6773 19.3853 21.125 18.833 21.125C18.2807 21.125 17.833 20.6773 17.833 20.125V18.9534C17.4151 18.8057 17.0311 18.5657 16.7117 18.2463C16.1491 17.6837 15.833 16.9207 15.833 16.125C15.833 15.3293 16.1491 14.5663 16.7117 14.0037C17.0311 13.6843 17.4151 13.4443 17.833 13.2966V4.125C17.833 3.57272 18.2807 3.125 18.833 3.125ZM12.833 7.125C12.5678 7.125 12.3134 7.23036 12.1259 7.41789C11.9384 7.60543 11.833 7.85978 11.833 8.125C11.833 8.39022 11.9384 8.64457 12.1259 8.83211C12.3134 9.01964 12.5678 9.125 12.833 9.125C13.0982 9.125 13.3526 9.01964 13.5401 8.83211C13.7277 8.64457 13.833 8.39022 13.833 8.125C13.833 7.85978 13.7277 7.60543 13.5401 7.41789C13.3526 7.23036 13.0982 7.125 12.833 7.125ZM6.83301 15.125C6.56779 15.125 6.31344 15.2304 6.1259 15.4179C5.93836 15.6054 5.83301 15.8598 5.83301 16.125C5.83301 16.3902 5.93836 16.6446 6.1259 16.8321C6.31344 17.0196 6.56779 17.125 6.83301 17.125C7.09822 17.125 7.35258 17.0196 7.54011 16.8321C7.72765 16.6446 7.83301 16.3902 7.83301 16.125C7.83301 15.8598 7.72765 15.6054 7.54011 15.4179C7.35258 15.2304 7.09822 15.125 6.83301 15.125ZM18.833 15.125C18.5678 15.125 18.3134 15.2304 18.1259 15.4179C17.9384 15.6054 17.833 15.8598 17.833 16.125C17.833 16.3902 17.9384 16.6446 18.1259 16.8321C18.3134 17.0196 18.5678 17.125 18.833 17.125C19.0982 17.125 19.3526 17.0196 19.5401 16.8321C19.7277 16.6446 19.833 16.3902 19.833 16.125C19.833 15.8598 19.7277 15.6054 19.5401 15.4179C19.3526 15.2304 19.0982 15.125 18.833 15.125Z" fill="#1C1C31"/>
</svg>
