<svg width="25" height="25" viewBox="0 0 25 25" fill="none" xmlns="http://www.w3.org/2000/svg">
    <path fill-rule="evenodd" clip-rule="evenodd" d="M10.0851 10.2346C9.21229 12.2615 8.86654 14.6555 8.75392 16.9478C11.0463 16.8352 13.4403 16.4894 15.4673 15.6166C16.834 15.0281 17.9972 14.2143 18.8499 13.0931C17.4487 12.6512 16.1576 11.8968 15.0783 10.8781C13.9136 9.77873 13.0418 8.41531 12.531 6.91194C11.4498 7.75886 10.66 8.89963 10.0851 10.2346ZM14.31 5.90154C14.6929 7.24245 15.4306 8.46044 16.4511 9.42364C17.4078 10.3266 18.5737 10.9686 19.837 11.2965C20.3869 9.83557 20.5931 7.93984 20.2341 5.46787C17.7079 5.10098 15.7836 5.32429 14.31 5.90154ZM6.77283 21.8502C6.74061 21.0121 6.7072 20.0426 6.70622 18.9955C5.6592 18.9945 4.68973 18.9611 3.85173 18.9289C3.29986 18.9077 2.86967 18.4431 2.89089 17.8912C2.9121 17.3393 3.37669 16.9091 3.92857 16.9304C4.78748 16.9634 5.74269 16.9941 6.74876 16.9941C6.86314 14.4998 7.23976 11.7854 8.24819 9.44361C9.13295 7.389 10.527 5.56263 12.6956 4.43985C14.8586 3.31997 17.6671 2.96492 21.2609 3.6087C21.4746 3.64698 21.6602 3.75051 21.8008 3.8951C21.9485 4.03643 22.0544 4.22419 22.0932 4.44085C22.737 8.03461 22.382 10.8431 21.2621 13.0061C20.1393 15.1747 18.3129 16.5688 16.2583 17.4535C13.9165 18.462 11.202 18.8386 8.70756 18.953C8.70757 19.9591 8.73833 20.9144 8.77135 21.7734C8.79257 22.3252 8.36238 22.7898 7.81051 22.811C7.25863 22.8323 6.79404 22.4021 6.77283 21.8502ZM11.83 10.3609C12.3821 10.3481 12.8401 10.7853 12.8529 11.3374C12.857 11.5154 12.8961 11.6908 12.9681 11.8537C13.04 12.0165 13.1433 12.1636 13.272 12.2865C13.4008 12.4095 13.5525 12.5058 13.7185 12.5701C13.8845 12.6344 14.0616 12.6654 14.2395 12.6613C14.7917 12.6485 15.2497 13.0857 15.2625 13.6378C15.2752 14.19 14.838 14.6479 14.2859 14.6607C13.8453 14.6709 13.4071 14.5943 12.9962 14.4351C12.5853 14.276 12.2097 14.0374 11.891 13.7331C11.5722 13.4288 11.3166 13.0647 11.1385 12.6616C10.9605 12.2585 10.8636 11.8243 10.8534 11.3838C10.8406 10.8316 11.2778 10.3737 11.83 10.3609ZM17.0846 7.83936C17.6369 7.83936 18.0846 7.39164 18.0846 6.83936C18.0846 6.28707 17.6369 5.83936 17.0846 5.83936C16.5323 5.83936 16.0846 6.28707 16.0846 6.83936C16.0846 7.39164 16.5323 7.83936 17.0846 7.83936Z" fill="#1C1C31"/>
</svg>
