<svg width="25" height="24" viewBox="0 0 25 24" fill="none" xmlns="http://www.w3.org/2000/svg">
    <path d="M2.56958 4H22.5696V20H2.56958V4Z" fill="#012169"/>
    <path d="M4.91333 4L12.5383 10.0333L20.1321 4H22.5696V6.06667L15.0696 12.0333L22.5696 17.9667V20H20.0696L12.5696 14.0333L5.10083 20H2.56958V18L10.0383 12.0667L2.56958 6.13333V4H4.91333Z" fill="white"/>
    <path d="M15.8196 13.3667L22.5696 18.6667V20L14.1008 13.3667H15.8196ZM10.0696 14.0333L10.2571 15.2L4.25708 20H2.56958L10.0696 14.0333ZM22.5696 4V4.1L14.7883 10.3667L14.8508 8.9L21.0071 4H22.5696ZM2.56958 4L10.0383 9.86667H8.16333L2.56958 5.4V4Z" fill="#C8102E"/>
    <path d="M10.1008 4V20H15.1008V4H10.1008ZM2.56958 9.33333V14.6667H22.5696V9.33333H2.56958Z" fill="white"/>
    <path d="M2.56958 10.4333V13.6333H22.5696V10.4333H2.56958ZM11.1008 4V20H14.1008V4H11.1008Z" fill="#C8102E"/>
</svg>
