<svg width="24" height="24" viewBox="0 0 24 24" fill="none" xmlns="http://www.w3.org/2000/svg">
<path fill-rule="evenodd" clip-rule="evenodd" d="M3.01562 2.07031C3.56791 2.07031 4.01562 2.51803 4.01562 3.07031V3.27758L5.52125 2.9009C7.88096 2.31114 10.3363 2.63609 12.4778 3.70681C14.1346 4.53517 16.0292 4.75729 17.8326 4.33473L20.1167 3.76497C21.0629 3.52893 21.9793 4.24442 21.9797 5.21966L21.9842 14.6059C21.9845 15.2949 21.5154 15.8955 20.8468 16.0621L18.2981 16.697C15.9775 17.2433 13.5755 16.9096 11.4762 15.8599C9.78319 15.0132 7.84308 14.8 6.00665 15.259C6.00658 15.259 6.00673 15.2589 6.00665 15.259L4.01562 15.7571V20.9295C4.01562 21.4818 3.56791 21.9295 3.01562 21.9295C2.46334 21.9295 2.01562 21.4818 2.01562 20.9295V3.07031C2.01562 2.51803 2.46334 2.07031 3.01562 2.07031ZM4.01562 13.6954L5.52125 13.3187C7.82091 12.744 10.2505 13.0108 12.3706 14.0711C14.0751 14.9234 15.9976 15.1823 17.8337 14.7516L19.984 14.2159L19.98 5.86035L18.2969 6.28021C16.0362 6.81187 13.6606 6.53421 11.5834 5.49568C9.84271 4.62536 7.87546 4.37409 6.00665 4.8411C6.00658 4.84112 6.00673 4.84108 6.00665 4.8411L4.01562 5.33922V13.6954Z" fill="#1C1C31"/>
</svg>
