<svg width="49" height="48" viewBox="0 0 49 48" fill="none" xmlns="http://www.w3.org/2000/svg">
    <g clip-path="url(#clip0_11335_34776)">
        <path d="M43.4443 24C43.4443 26.4951 42.9529 28.9658 41.9981 31.271C41.0432 33.5762 39.6437 35.6707 37.8794 37.435C36.1151 39.1993 34.0205 40.5989 31.7153 41.5537C29.4101 42.5086 26.9395 43 24.4443 43C21.9492 43 19.4785 42.5086 17.1734 41.5537C14.8682 40.5989 12.7736 39.1993 11.0093 37.435C9.24499 35.6707 7.84546 33.5762 6.89062 31.271C5.93579 28.9658 5.44434 26.4951 5.44434 24C5.44434 18.9609 7.44612 14.1282 11.0093 10.565C14.5725 7.00178 19.4052 5 24.4443 5C29.4834 5 34.3162 7.00178 37.8794 10.565C41.4426 14.1282 43.4443 18.9609 43.4443 24Z" fill="#994000"/>
        <path d="M24.4346 16.1909V23.9997M24.4346 31.8085H24.454" stroke="#FFD9B3" stroke-width="4" stroke-linecap="round" stroke-linejoin="round"/>
        <ellipse cx="38.2651" cy="38.2117" rx="4.25" ry="4.26667" fill="#FFD9B3"/>
        <ellipse cx="11.4443" cy="2.72464" rx="2" ry="2.00784" fill="#FFD9B3"/>
        <ellipse cx="4.69434" cy="44.2393" rx="2.75" ry="2.76078" fill="#994000"/>
    </g>
    <defs>
        <clipPath id="clip0_11335_34776">
            <rect width="48" height="48" fill="white" transform="translate(0.444336)"/>
        </clipPath>
    </defs>
</svg>
