<svg width="48" height="48" viewBox="0 0 48 48" fill="none" xmlns="http://www.w3.org/2000/svg">
    <path fill-rule="evenodd" clip-rule="evenodd" d="M24 43C29.0391 43 33.8718 40.9982 37.435 37.435C40.9982 33.8718 43 29.0391 43 24C43 18.9609 40.9982 14.1282 37.435 10.565C33.8718 7.00178 29.0391 5 24 5C18.9609 5 14.1282 7.00178 10.565 10.565C7.00178 14.1282 5 18.9609 5 24C5 29.0391 7.00178 33.8718 10.565 37.435C14.1282 40.9982 18.9609 43 24 43Z" fill="#339955"/>
    <path fill-rule="evenodd" clip-rule="evenodd" d="M33.5706 19.1753C33.5761 19.8071 33.3342 20.4157 32.897 20.8701L23.297 30.5078C22.8469 30.9595 22.2366 31.2132 21.6002 31.2132C20.9638 31.2132 20.3535 30.9595 19.9034 30.5078L15.1034 25.6889C14.6662 25.2345 14.4243 24.6259 14.4298 23.9942C14.4352 23.3624 14.6877 22.7581 15.1326 22.3114C15.5776 21.8647 16.1796 21.6113 16.8088 21.6058C17.4381 21.6003 18.0444 21.8431 18.497 22.282L21.6002 25.3974L29.5034 17.4632C29.956 17.0243 30.5623 16.7815 31.1916 16.787C31.8208 16.7924 32.4228 17.0458 32.8678 17.4926C33.3127 17.9393 33.5651 18.5436 33.5706 19.1753Z" fill="#E0FFEB"/>
    <ellipse cx="37.8208" cy="38.2117" rx="4.25" ry="4.26667" fill="#E0FFEB"/>
    <ellipse cx="11" cy="2.72464" rx="2" ry="2.00784" fill="#E0FFEB"/>
    <ellipse cx="4.25" cy="44.2393" rx="2.75" ry="2.76078" fill="#339955"/>
</svg>
