<svg width="49" height="48" viewBox="0 0 49 48" fill="none" xmlns="http://www.w3.org/2000/svg">
    <g clip-path="url(#clip0_11335_34756)">
        <path d="M43.2222 24C43.2222 26.4951 42.7307 28.9658 41.7759 31.271C40.821 33.5762 39.4215 35.6707 37.6572 37.435C35.8929 39.1993 33.7983 40.5989 31.4932 41.5537C29.188 42.5086 26.7173 43 24.2222 43C21.7271 43 19.2564 42.5086 16.9512 41.5537C14.646 40.5989 12.5515 39.1993 10.7871 37.435C9.02283 35.6707 7.6233 33.5762 6.66846 31.271C5.71362 28.9658 5.22217 26.4951 5.22217 24C5.22217 18.9609 7.22395 14.1282 10.7871 10.565C14.3503 7.00178 19.1831 5 24.2222 5C29.2613 5 34.094 7.00178 37.6572 10.565C41.2204 14.1282 43.2222 18.9609 43.2222 24Z" fill="#7B0404"/>
        <path d="M20.2222 28.0157L24.2222 24.0001M24.2222 24.0001L28.2222 19.9844M24.2222 24.0001L20.2222 19.9844M24.2222 24.0001L28.2222 28.0157" stroke="#FFE2E0" stroke-width="4" stroke-linecap="round" stroke-linejoin="round"/>
        <ellipse cx="38.043" cy="38.2117" rx="4.25" ry="4.26667" fill="#FFE2E0"/>
        <ellipse cx="11.2222" cy="2.72464" rx="2" ry="2.00784" fill="#FFE2E0"/>
        <ellipse cx="4.47217" cy="44.2393" rx="2.75" ry="2.76078" fill="#7B0404"/>
    </g>
    <defs>
        <clipPath id="clip0_11335_34756">
            <rect width="48" height="48" fill="white" transform="translate(0.222168)"/>
        </clipPath>
    </defs>
</svg>
