<svg width="49" height="48" viewBox="0 0 49 48" fill="none" xmlns="http://www.w3.org/2000/svg">
    <g clip-path="url(#clip0_11335_34815)">
        <path d="M43.6665 24C43.6665 26.4951 43.1751 28.9658 42.2202 31.271C41.2654 33.5762 39.8658 35.6707 38.1015 37.435C36.3372 39.1993 34.2427 40.5989 31.9375 41.5537C29.6323 42.5086 27.1616 43 24.6665 43C22.1714 43 19.7007 42.5086 17.3955 41.5537C15.0903 40.5989 12.9958 39.1993 11.2315 37.435C9.46716 35.6707 8.06763 33.5762 7.11279 31.271C6.15795 28.9658 5.6665 26.4951 5.6665 24C5.6665 18.9609 7.66828 14.1282 11.2315 10.565C14.7947 7.00178 19.6274 5 24.6665 5C29.7056 5 34.5383 7.00178 38.1015 10.565C41.6647 14.1282 43.6665 18.9609 43.6665 24Z" fill="#002B80"/>
        <path fill-rule="evenodd" clip-rule="evenodd" d="M24.2753 18.9128C25.3558 18.9128 26.2318 18.0368 26.2318 16.9563C26.2318 15.8757 25.3558 14.9998 24.2753 14.9998C23.1947 14.9998 22.3187 15.8757 22.3187 16.9563C22.3187 18.0368 23.1947 18.9128 24.2753 18.9128ZM23.1013 20.478C22.2369 20.478 21.5361 21.1788 21.5361 22.0432C21.5361 22.8768 22.1877 23.5581 23.0093 23.6058V31.4345C23.0093 32.299 23.71 32.9998 24.5745 32.9998H26.2318C27.0962 32.9998 27.797 32.299 27.797 31.4345C27.797 30.5701 27.0962 29.8693 26.2318 29.8693H26.1397V22.0432C26.1397 21.1788 25.4389 20.478 24.5745 20.478H23.1013Z" fill="#E0EBFF"/>
        <ellipse cx="38.4873" cy="38.2117" rx="4.25" ry="4.26667" fill="#E0EBFF"/>
        <ellipse cx="11.6665" cy="2.72464" rx="2" ry="2.00784" fill="#E0EBFF"/>
        <ellipse cx="4.9165" cy="44.2393" rx="2.75" ry="2.76078" fill="#002B80"/>
    </g>
    <defs>
        <clipPath id="clip0_11335_34815">
            <rect width="48" height="48" fill="white" transform="translate(0.666504)"/>
        </clipPath>
    </defs>
</svg>
