<svg width="49" height="48" viewBox="0 0 49 48" fill="none" xmlns="http://www.w3.org/2000/svg">
    <g clip-path="url(#clip0_11335_34851)">
        <path fill-rule="evenodd" clip-rule="evenodd" d="M42.4424 31.271C43.3972 28.9658 43.8887 26.4951 43.8887 24C43.8887 18.9609 41.8869 14.1282 38.3237 10.565C34.7605 7.00178 29.9278 5 24.8887 5C19.8496 5 15.0168 7.00178 11.4536 10.565C7.89045 14.1282 5.88867 18.9609 5.88867 24C5.88867 26.4951 6.38012 28.9658 7.33496 31.271C8.2898 33.5762 9.68933 35.6707 11.4536 37.435C13.218 39.1993 15.3125 40.5989 17.6177 41.5537C19.9229 42.5086 22.3936 43 24.8887 43C27.3838 43 29.8545 42.5086 32.1597 41.5537C34.4648 40.5989 36.5594 39.1993 38.3237 37.435C40.088 35.6707 41.4875 33.5762 42.4424 31.271ZM24.6374 17.9998C24.2873 17.9994 23.9434 18.0917 23.6402 18.2673C23.3369 18.4428 23.0851 18.6955 22.9101 18.9998C22.7837 19.2356 22.6115 19.4434 22.4036 19.6111C22.1957 19.7788 21.9564 19.9029 21.6999 19.976C21.4433 20.0491 21.1748 20.0698 20.9101 20.0368C20.6455 20.0038 20.3901 19.9178 20.1592 19.7838C19.9283 19.6499 19.7265 19.4708 19.5658 19.2571C19.4052 19.0435 19.2888 18.7996 19.2238 18.54C19.1587 18.2803 19.1462 18.0102 19.1871 17.7457C19.2279 17.4811 19.3213 17.2275 19.4616 16.9998C20.1195 15.856 21.1349 14.9621 22.3503 14.4567C23.5658 13.9513 24.9135 13.8626 26.1842 14.2045C27.455 14.5463 28.578 15.2995 29.3789 16.3474C30.1798 17.3952 30.6139 18.679 30.614 19.9998C30.6144 21.2411 30.2314 22.4519 29.5178 23.4656C28.8042 24.4792 27.7952 25.2459 26.6296 25.6599V25.9999C26.6296 26.5303 26.4197 27.039 26.0461 27.4141C25.6725 27.7892 25.1657 27.9999 24.6374 27.9999C24.109 27.9999 23.6023 27.7892 23.2286 27.4141C22.855 27.039 22.6451 26.5303 22.6451 25.9999V23.9999C22.6451 23.4694 22.855 22.9607 23.2286 22.5856C23.6023 22.2106 24.109 21.9998 24.6374 21.9998C25.1657 21.9998 25.6725 21.7891 26.0461 21.414C26.4197 21.039 26.6296 20.5303 26.6296 19.9998C26.6296 19.4694 26.4197 18.9607 26.0461 18.5856C25.6725 18.2105 25.1657 17.9998 24.6374 17.9998ZM24.6374 34C25.1657 34 25.6725 33.7893 26.0461 33.4142C26.4197 33.0391 26.6296 32.5304 26.6296 32C26.6296 31.4695 26.4197 30.9608 26.0461 30.5857C25.6725 30.2107 25.1657 29.9999 24.6374 29.9999C24.109 29.9999 23.6023 30.2107 23.2286 30.5857C22.855 30.9608 22.6451 31.4695 22.6451 32C22.6451 32.5304 22.855 33.0391 23.2286 33.4142C23.6023 33.7893 24.109 34 24.6374 34Z" fill="#1C1C31"/>
        <ellipse cx="38.7095" cy="38.2117" rx="4.25" ry="4.26667" fill="#8B8BC1"/>
        <ellipse cx="11.8887" cy="2.72464" rx="2" ry="2.00784" fill="#8B8BC1"/>
        <ellipse cx="5.13867" cy="44.2393" rx="2.75" ry="2.76078" fill="#1C1C31"/>
    </g>
    <defs>
        <clipPath id="clip0_11335_34851">
            <rect width="48" height="48" fill="white" transform="translate(0.888672)"/>
        </clipPath>
    </defs>
</svg>
