<svg width="25" height="25" viewBox="0 0 25 25" fill="none" xmlns="http://www.w3.org/2000/svg">
    <path fill-rule="evenodd" clip-rule="evenodd" d="M5.63062 3.63403C3.97376 3.63403 2.63062 4.97718 2.63062 6.63403V14.2082C1.96337 15.194 1.59937 16.364 1.59937 17.5715C1.59937 18.3595 1.75456 19.1397 2.05609 19.8676C2.35762 20.5956 2.79957 21.257 3.35672 21.8142C3.91388 22.3713 4.57531 22.8133 5.30326 23.1148C6.03122 23.4163 6.81143 23.5715 7.59937 23.5715C8.3873 23.5715 9.16751 23.4163 9.89547 23.1148C10.2532 22.9666 10.5949 22.7845 10.916 22.5715H19.6619C21.3187 22.5715 22.6619 21.2284 22.6619 19.5715V6.63403C22.6619 4.97718 21.3187 3.63403 19.6619 3.63403H5.63062ZM12.7955 20.5715H19.6619C20.2141 20.5715 20.6619 20.1238 20.6619 19.5715V6.63403C20.6619 6.08175 20.2141 5.63403 19.6619 5.63403H5.63062C5.07833 5.63403 4.63062 6.08175 4.63062 6.63403V12.3574C5.52749 11.8468 6.54924 11.5715 7.59937 11.5715C9.19066 11.5715 10.7168 12.2037 11.842 13.3289C12.9672 14.4541 13.5994 15.9802 13.5994 17.5715C13.5994 18.3595 13.4442 19.1397 13.1426 19.8676C13.0422 20.1101 12.9262 20.3452 12.7955 20.5715ZM8.59937 8.63403C8.59937 8.08175 9.04708 7.63403 9.59937 7.63403L15.5369 7.63403C16.0891 7.63403 16.5369 8.08175 16.5369 8.63403C16.5369 9.18632 16.0892 9.63403 15.5369 9.63403L9.59937 9.63403C9.04708 9.63403 8.59937 9.18632 8.59937 8.63403ZM4.77094 14.7431C5.52108 13.993 6.5385 13.5715 7.59937 13.5715C8.66023 13.5715 9.67765 13.993 10.4278 14.7431C11.1779 15.4933 11.5994 16.5107 11.5994 17.5715C11.5994 18.0968 11.4959 18.617 11.2949 19.1023C11.0939 19.5876 10.7992 20.0285 10.4278 20.4C10.0564 20.7714 9.6154 21.066 9.1301 21.2671C8.6448 21.4681 8.12465 21.5715 7.59937 21.5715C7.07408 21.5715 6.55393 21.4681 6.06863 21.2671C5.58333 21.066 5.14237 20.7714 4.77094 20.4C4.3995 20.0285 4.10487 19.5876 3.90385 19.1023C3.70283 18.617 3.59937 18.0968 3.59937 17.5715C3.59937 16.5107 4.02079 15.4933 4.77094 14.7431ZM7.76306 16.634C8.13439 16.2422 8.12803 15.6235 7.74397 15.2394C7.35345 14.8489 6.72028 14.8489 6.32976 15.2394L4.6423 16.9269C4.25178 17.3174 4.25177 17.9506 4.64228 18.3411L6.32966 20.0285C6.72018 20.4191 7.35334 20.4191 7.74387 20.0286C8.12792 19.6446 8.13431 19.0259 7.76306 18.634H9.84937C10.4016 18.634 10.8494 18.1863 10.8494 17.634C10.8494 17.0817 10.4016 16.634 9.84937 16.634H7.76306Z" fill="#1C1C31"/>
</svg>
