<svg width="25" height="25" viewBox="0 0 25 25" fill="none" xmlns="http://www.w3.org/2000/svg">
    <path fill-rule="evenodd" clip-rule="evenodd" d="M8.98578 5.66626C8.80064 5.43914 8.72093 5.15959 8.74239 4.88737C9.11083 4.83467 9.49732 4.97125 9.74918 5.28022C9.93432 5.50735 10.014 5.7869 9.99257 6.05912C9.62413 6.11182 9.23764 5.97523 8.98578 5.66626ZM11.2994 4.01655C10.3503 2.85222 8.73195 2.55827 7.45356 3.23426C7.25573 3.33887 7.09871 3.5068 7.00761 3.7112C6.54813 4.74218 6.67092 5.9919 7.43558 6.92994C7.59876 7.13012 7.78173 7.30458 7.97935 7.4528C5.30746 8.14926 3.16675 10.6228 3.16675 13.7336C3.16675 18.428 7.23816 22.8586 12.2605 22.8586C17.2828 22.8586 21.3542 18.428 21.3542 13.7336C21.3542 9.47679 17.1403 6.36196 13.3955 7.44917C13.4829 6.39691 13.7888 5.36929 14.2992 4.43388C14.5638 3.94907 14.3852 3.34161 13.9004 3.07707C13.4156 2.81253 12.8081 2.99108 12.5436 3.47589C12.2668 3.98317 12.0376 4.51192 11.8575 5.05539C11.7434 4.68712 11.5581 4.33399 11.2994 4.01655ZM13.2259 9.67263C12.648 9.99118 11.9501 10.0041 11.3608 9.70727C8.57617 8.30464 5.16675 10.4104 5.16675 13.7336C5.16675 17.3789 8.39742 20.8586 12.2605 20.8586C16.1236 20.8586 19.3542 17.3789 19.3542 13.7336C19.3542 10.3667 15.6951 8.31166 13.2259 9.67263Z" fill="#1C1C31"/>
</svg>
