<svg width="25" height="25" viewBox="0 0 25 25" fill="none" xmlns="http://www.w3.org/2000/svg">
    <path fill-rule="evenodd" clip-rule="evenodd" d="M12.699 2.85864C13.2513 2.85864 13.699 3.30636 13.699 3.85864V7.44443L16.1383 5.00509C17.0833 4.06014 18.699 4.7294 18.699 6.06575V12.8577C18.699 15.8305 16.5368 18.2994 13.699 18.7757V21.8586C13.699 22.4109 13.2513 22.8586 12.699 22.8586C12.1467 22.8586 11.699 22.4109 11.699 21.8586V18.7757C8.86126 18.2996 6.69897 15.8316 6.69897 12.8586L6.69897 9.85924C6.69897 9.85884 6.69897 9.85844 6.69897 9.85805L6.69897 6.06575C6.69897 4.72939 8.31469 4.06014 9.25963 5.00509L11.699 7.44443V3.85864C11.699 3.30636 12.1467 2.85864 12.699 2.85864ZM11.699 10.2729L8.69897 7.27286V9.44443L11.699 12.4444V10.2729ZM11.699 15.2729L8.69897 12.2729V12.8586C8.69897 14.7225 9.97375 16.2886 11.699 16.7326V15.2729ZM13.699 16.7326V15.2729L16.699 12.2729V12.8577C16.699 14.7217 15.4241 16.2883 13.699 16.7326ZM16.699 9.44443L13.699 12.4444V10.2729L16.699 7.27286V9.44443Z" fill="#1C1C31"/>
</svg>
