<svg width="25" height="25" viewBox="0 0 25 25" fill="none" xmlns="http://www.w3.org/2000/svg">
    <path fill-rule="evenodd" clip-rule="evenodd" d="M4.5 12.5C4.5 10.7123 5.08639 9.06151 6.07733 7.72955L7.512 9.16422C6.87282 10.1181 6.5 11.2655 6.5 12.5C6.5 13.8142 6.92252 15.0297 7.63912 16.0181L6.2115 17.4457C5.13954 16.0846 4.5 14.367 4.5 12.5ZM7.63467 18.851L9.06535 17.4203C10.0384 18.1008 11.2226 18.5 12.5 18.5C13.7958 18.5 14.9957 18.0892 15.9766 17.3907L17.4057 18.8198C16.051 19.8729 14.3487 20.5 12.5 20.5C10.6696 20.5 8.98274 19.8853 7.63467 18.851ZM18.8199 17.4056C19.8729 16.0509 20.5 14.3487 20.5 12.5C20.5 10.5714 19.8175 8.80217 18.6809 7.42067L17.2578 8.84386C18.0368 9.8561 18.5 11.124 18.5 12.5C18.5 13.7958 18.0892 14.9957 17.3908 15.9765L18.8199 17.4056ZM17.2276 6.04563C15.9031 5.0739 14.2686 4.5 12.5 4.5C10.5904 4.5 8.83713 5.16904 7.46172 6.28551L8.88618 7.70997C9.89133 6.95045 11.1431 6.5 12.5 6.5C13.7152 6.5 14.846 6.86126 15.7909 7.48225L17.2276 6.04563ZM12.5 2.5C6.97715 2.5 2.5 6.97715 2.5 12.5C2.5 18.0228 6.97715 22.5 12.5 22.5C18.0228 22.5 22.5 18.0228 22.5 12.5C22.5 6.97715 18.0228 2.5 12.5 2.5ZM8.5 12.5C8.5 10.2909 10.2909 8.5 12.5 8.5C14.7091 8.5 16.5 10.2909 16.5 12.5C16.5 14.7091 14.7091 16.5 12.5 16.5C10.2909 16.5 8.5 14.7091 8.5 12.5Z" fill="#1C1C31"/>
</svg>
