<svg width="48" height="48" viewBox="0 0 48 48" fill="none" xmlns="http://www.w3.org/2000/svg">
    <path fill-rule="evenodd" clip-rule="evenodd" d="M43.1998 24C43.1998 29.0922 41.177 33.9758 37.5763 37.5765C33.9756 41.1772 29.092 43.2001 23.9998 43.2001C18.9076 43.2001 14.0241 41.1772 10.4234 37.5765C6.82266 33.9758 4.7998 29.0922 4.7998 24C4.7998 18.9079 6.82266 14.0243 10.4234 10.4236C14.0241 6.8229 18.9076 4.80005 23.9998 4.80005C29.092 4.80005 33.9756 6.8229 37.5763 10.4236C41.177 14.0243 43.1998 18.9079 43.1998 24ZM23.9998 16.8C23.5781 16.7996 23.1638 16.9103 22.7985 17.121C22.4332 17.3317 22.1298 17.6349 21.919 18C21.7668 18.283 21.5593 18.5324 21.3088 18.7336C21.0584 18.9349 20.7701 19.0838 20.461 19.1715C20.152 19.2592 19.8285 19.284 19.5097 19.2444C19.1908 19.2048 18.8832 19.1016 18.605 18.9409C18.3269 18.7802 18.0838 18.5652 17.8902 18.3089C17.6966 18.0525 17.5565 17.7598 17.4781 17.4482C17.3997 17.1367 17.3847 16.8126 17.4339 16.4951C17.4831 16.1776 17.5956 15.8733 17.7646 15.6C18.5571 14.2275 19.7804 13.1548 21.2447 12.5484C22.7089 11.9419 24.3324 11.8355 25.8633 12.2457C27.3942 12.6559 28.747 13.5598 29.7119 14.8172C30.6767 16.0745 31.1997 17.6151 31.1998 19.2C31.2002 20.6895 30.7389 22.1425 29.8792 23.3589C29.0196 24.5753 27.804 25.4952 26.3998 25.9921V26.4C26.3998 27.0366 26.1469 27.647 25.6969 28.0971C25.2468 28.5472 24.6363 28.8 23.9998 28.8C23.3633 28.8 22.7528 28.5472 22.3027 28.0971C21.8527 27.647 21.5998 27.0366 21.5998 26.4V24C21.5998 23.3635 21.8527 22.7531 22.3027 22.303C22.7528 21.8529 23.3633 21.6 23.9998 21.6C24.6363 21.6 25.2468 21.3472 25.6969 20.8971C26.1469 20.447 26.3998 19.8366 26.3998 19.2C26.3998 18.5635 26.1469 17.9531 25.6969 17.503C25.2468 17.0529 24.6363 16.8 23.9998 16.8ZM23.9998 36C24.6363 36 25.2468 35.7472 25.6969 35.2971C26.1469 34.847 26.3998 34.2366 26.3998 33.6C26.3998 32.9635 26.1469 32.3531 25.6969 31.903C25.2468 31.4529 24.6363 31.2001 23.9998 31.2001C23.3633 31.2001 22.7528 31.4529 22.3027 31.903C21.8527 32.3531 21.5998 32.9635 21.5998 33.6C21.5998 34.2366 21.8527 34.847 22.3027 35.2971C22.7528 35.7472 23.3633 36 23.9998 36Z" fill="#1C1C31"/>
</svg>
