<svg width="25" height="25" viewBox="0 0 25 25" fill="none" xmlns="http://www.w3.org/2000/svg">
    <path fill-rule="evenodd" clip-rule="evenodd" d="M6.84266 6.46815C8.34295 4.96785 10.3778 4.125 12.4995 4.125C14.6212 4.125 16.6561 4.96785 18.1564 6.46815C19.6567 7.96844 20.4995 10.0033 20.4995 12.125C20.4995 13.1756 20.2926 14.2159 19.8905 15.1865C19.4885 16.1571 18.8992 17.039 18.1564 17.7819C17.4135 18.5247 16.5316 19.114 15.561 19.516C14.5904 19.9181 13.5501 20.125 12.4995 20.125C11.4489 20.125 10.4086 19.9181 9.43804 19.516C8.46744 19.114 7.58553 18.5247 6.84266 17.7819C6.09979 17.039 5.51051 16.1571 5.10848 15.1865C4.70644 14.2159 4.49951 13.1756 4.49951 12.125C4.49951 10.0033 5.34237 7.96844 6.84266 6.46815ZM12.4995 2.125C9.84735 2.125 7.30381 3.17857 5.42844 5.05393C3.55308 6.9293 2.49951 9.47284 2.49951 12.125C2.49951 13.4382 2.75817 14.7386 3.26072 15.9518C3.76326 17.1651 4.49986 18.2675 5.42844 19.1961C6.35703 20.1247 7.45942 20.8612 8.67268 21.3638C9.88593 21.8663 11.1863 22.125 12.4995 22.125C13.8127 22.125 15.1131 21.8663 16.3263 21.3638C17.5396 20.8612 18.642 20.1247 19.5706 19.1961C20.4992 18.2675 21.2358 17.1651 21.7383 15.9518C22.2409 14.7386 22.4995 13.4382 22.4995 12.125C22.4995 9.47284 21.4459 6.9293 19.5706 5.05393C17.6952 3.17857 15.1517 2.125 12.4995 2.125ZM11.822 9.02675C11.9865 8.93187 12.1731 8.88201 12.363 8.88219C12.6497 8.88219 12.9247 8.99608 13.1274 9.19879C13.3301 9.40151 13.444 9.67645 13.444 9.96313C13.444 10.2498 13.3301 10.5248 13.1274 10.7275C12.9247 10.9302 12.6497 11.0441 12.363 11.0441C12.0764 11.0441 11.8014 11.158 11.5987 11.3607C11.396 11.5634 11.2821 11.8383 11.2821 12.125V13.2059C11.2821 13.4926 11.396 13.7676 11.5987 13.9703C11.8014 14.173 12.0764 14.2869 12.363 14.2869C12.6497 14.2869 12.9247 14.173 13.1274 13.9703C13.3301 13.7676 13.444 13.4926 13.444 13.2059V13.0222C14.0764 12.7984 14.6239 12.3841 15.0111 11.8362C15.3982 11.2884 15.606 10.634 15.6058 9.96313C15.6058 9.2493 15.3703 8.55543 14.9357 7.98912C14.5011 7.42281 13.8919 7.01571 13.2023 6.83096C12.5128 6.6462 11.7816 6.69412 11.1221 6.96727C10.4626 7.24042 9.91171 7.72355 9.55476 8.34172C9.47863 8.46477 9.42799 8.60186 9.40582 8.74484C9.38366 8.88783 9.39043 9.03381 9.42573 9.17413C9.46103 9.31446 9.52414 9.44627 9.61133 9.56174C9.69851 9.67722 9.808 9.77402 9.93329 9.8464C10.0586 9.91878 10.1971 9.96527 10.3407 9.98311C10.4843 10.001 10.63 9.98978 10.7692 9.95027C10.9084 9.91075 11.0383 9.84369 11.151 9.75306C11.2638 9.66243 11.3573 9.55008 11.4259 9.42266C11.5208 9.25818 11.6574 9.12163 11.822 9.02675ZM13.1274 17.2131C12.9247 17.4158 12.6497 17.5297 12.363 17.5297C12.0764 17.5297 11.8014 17.4158 11.5987 17.2131C11.396 17.0104 11.2821 16.7354 11.2821 16.4488C11.2821 16.1621 11.396 15.8871 11.5987 15.6844C11.8014 15.4817 12.0764 15.3678 12.363 15.3678C12.6497 15.3678 12.9247 15.4817 13.1274 15.6844C13.3301 15.8871 13.444 16.1621 13.444 16.4488C13.444 16.7354 13.3301 17.0104 13.1274 17.2131Z" fill="#1C1C31"/>
</svg>
