<svg width="24" height="24" viewBox="0 0 24 24" fill="none" xmlns="http://www.w3.org/2000/svg">
    <path fill-rule="evenodd" clip-rule="evenodd" d="M6.68561 17.9796C8.10938 19.245 9.93794 19.9609 11.8424 19.9984C13.7469 20.036 15.6022 19.3928 17.0748 18.1845C18.5473 16.9762 19.5404 15.2822 19.8754 13.407C20.2104 11.5319 19.8654 9.59875 18.9023 7.95531C17.9393 6.31187 16.4214 5.06599 14.6218 4.44177C12.8221 3.81754 10.8588 3.85593 9.08497 4.55004C7.3923 5.21238 5.97815 6.43029 5.07194 7.99996H5.68701C6.2393 7.99996 6.68701 8.44768 6.68701 8.99996C6.68701 9.55225 6.2393 9.99996 5.68701 9.99996L2.68701 9.99996C2.13473 9.99996 1.68701 9.55225 1.68701 8.99996V5.99996C1.68701 5.44768 2.13473 4.99996 2.68701 4.99996C3.2393 4.99996 3.68701 5.44768 3.68701 5.99996V6.44189C4.8187 4.74919 6.44549 3.4352 8.35618 2.68755C10.5735 1.81992 13.0277 1.77193 15.2772 2.55221C17.5267 3.33249 19.4241 4.88984 20.6279 6.94414C21.8317 8.99843 22.263 11.4149 21.8442 13.7588C21.4255 16.1027 20.1841 18.2203 18.3434 19.7306C16.5027 21.241 14.1835 22.045 11.803 21.9981C9.42239 21.9511 7.13669 21.0563 5.35698 19.4745C3.57727 17.8928 2.42035 15.7279 2.09432 13.3693C2.01869 12.8222 2.40088 12.3174 2.94797 12.2418C3.49505 12.1662 3.99985 12.5484 4.07548 13.0954C4.33631 14.9823 5.26184 16.7142 6.68561 17.9796ZM13 7.99996C13 7.44768 12.5523 6.99996 12 6.99996C11.4477 6.99996 11 7.44768 11 7.99996V12C11 12.2652 11.1054 12.5195 11.2929 12.7071L14.2929 15.7071C14.6834 16.0976 15.3166 16.0976 15.7071 15.7071C16.0976 15.3165 16.0976 14.6834 15.7071 14.2929L13 11.5857V7.99996Z" fill="#1C1C31"/>
</svg>
