<svg width="25" height="25" viewBox="0 0 25 25" fill="none" xmlns="http://www.w3.org/2000/svg">
    <path fill-rule="evenodd" clip-rule="evenodd" d="M12.499 9.95825C13.1894 9.95825 13.749 9.39861 13.749 8.70825C13.749 8.0179 13.1894 7.45825 12.499 7.45825C11.8087 7.45825 11.249 8.0179 11.249 8.70825C11.249 9.39861 11.8087 9.95825 12.499 9.95825ZM11.749 10.9583C11.1967 10.9583 10.749 11.406 10.749 11.9583C10.749 12.4908 11.1653 12.9261 11.6902 12.9566V17.9583C11.6902 18.5105 12.1379 18.9583 12.6902 18.9583H13.749C14.3013 18.9583 14.749 18.5105 14.749 17.9583C14.749 17.406 14.3013 16.9583 13.749 16.9583H13.6902V11.9583C13.6902 11.406 13.2425 10.9583 12.6902 10.9583H11.749Z" fill="#1C1C31"/>
</svg>
