<svg width="48" height="48" viewBox="0 0 48 48" fill="none" xmlns="http://www.w3.org/2000/svg">
    <path fill-rule="evenodd" clip-rule="evenodd" d="M23.9988 43.2001C34.6027 43.2001 43.1988 34.6039 43.1988 24C43.1988 13.3962 34.6027 4.80005 23.9988 4.80005C13.395 4.80005 4.79883 13.3962 4.79883 24C4.79883 34.6039 13.395 43.2001 23.9988 43.2001ZM25.999 15C25.999 16.3807 24.8797 17.5 23.499 17.5C22.1183 17.5 20.999 16.3807 20.999 15C20.999 13.6193 22.1183 12.5 23.499 12.5C24.8797 12.5 25.999 13.6193 25.999 15ZM19.999 21.5C19.999 20.3954 20.8945 19.5 21.999 19.5H23.8814C24.9859 19.5 25.8814 20.3954 25.8814 21.5V31.5H25.999C27.1036 31.5 27.999 32.3954 27.999 33.5C27.999 34.6046 27.1036 35.5 25.999 35.5H23.8814C22.7768 35.5 21.8814 34.6046 21.8814 33.5V23.4966C20.8316 23.4357 19.999 22.5651 19.999 21.5Z" fill="#1C1C31"/>
</svg>
