<svg width="25" height="25" viewBox="0 0 25 25" fill="none" xmlns="http://www.w3.org/2000/svg">
    <path fill-rule="evenodd" clip-rule="evenodd" d="M5.5356 2.41675C3.98698 2.41675 2.7449 3.68069 2.7446 5.21619L2.7446 5.21636V5.21675L2.7356 21.4162C2.73537 21.8208 2.97893 22.1856 3.35266 22.3405C3.72638 22.4954 4.15663 22.4099 4.4427 22.1239L7.74981 18.8167H19.9356C21.4779 18.8167 22.7356 17.559 22.7356 16.0167V5.21675C22.7356 3.67446 21.4779 2.41675 19.9356 2.41675H5.5356ZM4.7446 5.21675C4.7446 4.7725 5.10439 4.41675 5.5356 4.41675H19.9356C20.3733 4.41675 20.7356 4.77903 20.7356 5.21675V16.0167C20.7356 16.4545 20.3733 16.8167 19.9356 16.8167H7.3356C7.07038 16.8167 6.81603 16.9221 6.62849 17.1096L4.73694 19.0012L4.7446 5.2173V5.21675ZM13.7312 7.41675C13.7312 6.86446 13.2835 6.41675 12.7312 6.41675C12.1789 6.41675 11.7312 6.86446 11.7312 7.41675V10.9167C11.7312 11.469 12.1789 11.9167 12.7312 11.9167C13.2835 11.9167 13.7312 11.469 13.7312 10.9167V7.41675ZM12.7312 13.4167C12.1789 13.4167 11.7312 13.8645 11.7312 14.4167C11.7312 14.969 12.1789 15.4167 12.7312 15.4167H12.74C13.2922 15.4167 13.74 14.969 13.74 14.4167C13.74 13.8645 13.2922 13.4167 12.74 13.4167H12.7312Z" fill="#1C1C31"/>
</svg>
