<svg width="25" height="25" viewBox="0 0 25 25" fill="none" xmlns="http://www.w3.org/2000/svg">
    <path fill-rule="evenodd" clip-rule="evenodd" d="M12.166 4.125C10.0443 4.125 8.00945 4.96785 6.50916 6.46815C5.00887 7.96844 4.16602 10.0033 4.16602 12.125C4.16602 13.1756 4.37294 14.2159 4.77498 15.1865C5.17702 16.1571 5.76629 17.039 6.50916 17.7819C7.25203 18.5247 8.13394 19.114 9.10455 19.516C10.0752 19.9181 11.1154 20.125 12.166 20.125C13.2166 20.125 14.2569 19.9181 15.2275 19.516C16.1981 19.114 17.08 18.5247 17.8229 17.7819C18.5657 17.039 19.155 16.1571 19.5571 15.1865C19.9591 14.2159 20.166 13.1756 20.166 12.125C20.166 10.0033 19.3232 7.96844 17.8229 6.46815C16.3226 4.96785 14.2877 4.125 12.166 4.125ZM5.09495 5.05393C6.97031 3.17857 9.51385 2.125 12.166 2.125C14.8182 2.125 17.3617 3.17857 19.2371 5.05393C21.1124 6.9293 22.166 9.47284 22.166 12.125C22.166 13.4382 21.9074 14.7386 21.4048 15.9518C20.9023 17.1651 20.1657 18.2675 19.2371 19.1961C18.3085 20.1247 17.2061 20.8612 15.9929 21.3638C14.7796 21.8663 13.4792 22.125 12.166 22.125C10.8528 22.125 9.55244 21.8663 8.33918 21.3638C7.12593 20.8612 6.02353 20.1247 5.09495 19.1961C4.16636 18.2675 3.42977 17.1651 2.92722 15.9518C2.42467 14.7386 2.16602 13.4382 2.16602 12.125C2.16602 9.47284 3.21958 6.9293 5.09495 5.05393ZM11.166 8.125C11.166 7.57272 11.6137 7.125 12.166 7.125H12.176C12.7283 7.125 13.176 7.57272 13.176 8.125C13.176 8.67728 12.7283 9.125 12.176 9.125H12.166C11.6137 9.125 11.166 8.67728 11.166 8.125ZM10.166 12.125C10.166 11.5727 10.6137 11.125 11.166 11.125H12.166C12.7183 11.125 13.166 11.5727 13.166 12.125V15.125C13.7183 15.125 14.166 15.5727 14.166 16.125C14.166 16.6773 13.7183 17.125 13.166 17.125H12.166C11.6137 17.125 11.166 16.6773 11.166 16.125V13.125C10.6137 13.125 10.166 12.6773 10.166 12.125Z" fill="#1C1C31"/>
</svg>
