<svg width="24" height="24" viewBox="0 0 24 24" fill="none" xmlns="http://www.w3.org/2000/svg">
<path fill-rule="evenodd" clip-rule="evenodd" d="M12.0565 2C12.6078 2 13.0547 2.44689 13.0547 2.99816V3.8165C13.0547 4.36777 12.6078 4.81466 12.0565 4.81466C11.5052 4.81466 11.0583 4.36777 11.0583 3.8165V2.99816C11.0583 2.44689 11.5052 2 12.0565 2ZM12.0562 6.09182C8.79316 6.09182 6.14798 8.737 6.14798 12C6.14798 15.263 8.79316 17.9082 12.0562 17.9082C15.3192 17.9082 17.9643 15.263 17.9643 12C17.9643 8.737 15.3192 6.09182 12.0562 6.09182ZM12 8.08853C9.86541 8.11859 8.1443 9.8583 8.1443 12C8.1443 14.1417 9.86542 15.8814 12 15.9115L12 8.08853ZM13.0547 20.1833C13.0547 19.632 12.6078 19.1851 12.0565 19.1851C11.5052 19.1851 11.0583 19.632 11.0583 20.1833V21.0016C11.0583 21.5529 11.5052 21.9998 12.0565 21.9998C12.6078 21.9998 13.0547 21.5529 13.0547 21.0016V20.1833ZM7.03365 17.0223C7.42346 17.4121 7.42346 18.0441 7.03365 18.4339L6.21532 19.2522C5.82551 19.642 5.19351 19.642 4.8037 19.2522C4.4139 18.8624 4.4139 18.2304 4.8037 17.8406L5.62204 17.0223C6.01185 16.6325 6.64385 16.6325 7.03365 17.0223ZM6.21532 4.74754C5.82551 4.35773 5.19351 4.35773 4.8037 4.74754C4.4139 5.13735 4.4139 5.76935 4.8037 6.15915L5.62204 6.97749C6.01185 7.3673 6.64385 7.3673 7.03365 6.97749C7.42346 6.58768 7.42346 5.95568 7.03365 5.56588L6.21532 4.74754ZM2.05664 11.9999C2.05664 11.4486 2.50353 11.0017 3.0548 11.0017H3.87314C4.42441 11.0017 4.8713 11.4486 4.8713 11.9999C4.8713 12.5511 4.42441 12.998 3.87314 12.998H3.0548C2.50353 12.998 2.05664 12.5511 2.05664 11.9999Z" fill="#1C1C31"/>
</svg>
