<svg width="25" height="25" viewBox="0 0 25 25" fill="none" xmlns="http://www.w3.org/2000/svg">
    <path fill-rule="evenodd" clip-rule="evenodd" d="M4.87471 5.1909C5.06798 4.98471 5.31575 4.88208 5.55933 4.88208H19.5593C19.8029 4.88208 20.0507 4.98471 20.2439 5.1909C20.4393 5.39928 20.5593 5.69496 20.5593 6.01576V14.5505C20.5593 14.8713 20.4393 15.167 20.2439 15.3753C20.0507 15.5815 19.8029 15.6842 19.5593 15.6842H16.5593C16.2829 15.6842 16.0188 15.7986 15.8297 16.0003L12.5593 19.4893L9.28892 16.0003C9.09987 15.7986 8.83576 15.6842 8.55933 15.6842H5.55933C5.31576 15.6842 5.06798 15.5815 4.87471 15.3753C4.67938 15.167 4.55933 14.8713 4.55933 14.5505V6.01576C4.55933 5.69496 4.67938 5.39928 4.87471 5.1909ZM5.55933 2.88208C4.74203 2.88208 3.97239 3.22904 3.41552 3.82314C2.8607 4.41504 2.55933 5.20478 2.55933 6.01576V14.5505C2.55933 15.3615 2.8607 16.1512 3.41552 16.7431C3.97239 17.3372 4.74203 17.6842 5.55933 17.6842H8.12605L11.8297 21.6354C12.0188 21.8371 12.2829 21.9515 12.5593 21.9515C12.8358 21.9515 13.0999 21.8371 13.2889 21.6354L16.9926 17.6842H19.5593C20.3766 17.6842 21.1463 17.3372 21.7031 16.7431C22.258 16.1512 22.5593 15.3615 22.5593 14.5505V6.01576C22.5593 5.20478 22.258 4.41504 21.7031 3.82314C21.1463 3.22904 20.3766 2.88208 19.5593 2.88208H5.55933ZM11.9443 8.34047C12.1088 8.24559 12.2954 8.19573 12.4854 8.19591C12.772 8.19591 13.047 8.3098 13.2497 8.51251C13.4524 8.71523 13.5663 8.99017 13.5663 9.27685C13.5663 9.56353 13.4524 9.83847 13.2497 10.0412C13.047 10.2439 12.772 10.3578 12.4854 10.3578C12.1987 10.3578 11.9237 10.4717 11.721 10.6744C11.5183 10.8771 11.4044 11.152 11.4044 11.4387V12.5197C11.4044 12.8063 11.5183 13.0813 11.721 13.284C11.9237 13.4867 12.1987 13.6006 12.4854 13.6006C12.772 13.6006 13.047 13.4867 13.2497 13.284C13.4524 13.0813 13.5663 12.8063 13.5663 12.5197V12.3359C14.1987 12.1121 14.7462 11.6978 15.1334 11.15C15.5206 10.6021 15.7284 9.9477 15.7282 9.27685C15.7281 8.56302 15.4926 7.86915 15.058 7.30284C14.6234 6.73653 14.0142 6.32943 13.3247 6.14468C12.6352 5.95993 11.904 6.00784 11.2445 6.28099C10.585 6.55414 10.034 7.03727 9.67708 7.65544C9.60095 7.77849 9.5503 7.91558 9.52814 8.05856C9.50597 8.20155 9.51274 8.34753 9.54804 8.48786C9.58334 8.62818 9.64646 8.75999 9.73364 8.87546C9.82083 8.99094 9.93031 9.08774 10.0556 9.16012C10.1809 9.2325 10.3194 9.27899 10.463 9.29683C10.6066 9.31467 10.7523 9.3035 10.8915 9.26399C11.0307 9.22447 11.1606 9.15741 11.2734 9.06678C11.3862 8.97615 11.4796 8.8638 11.5482 8.73638C11.6431 8.5719 11.7798 8.43535 11.9443 8.34047ZM13.2497 16.5268C13.047 16.7295 12.772 16.8434 12.4854 16.8434C12.1987 16.8434 11.9237 16.7295 11.721 16.5268C11.5183 16.3241 11.4044 16.0492 11.4044 15.7625C11.4044 15.4758 11.5183 15.2009 11.721 14.9981C11.9237 14.7954 12.1987 14.6815 12.4854 14.6815C12.772 14.6815 13.047 14.7954 13.2497 14.9981C13.4524 15.2009 13.5663 15.4758 13.5663 15.7625C13.5663 16.0492 13.4524 16.3241 13.2497 16.5268Z" fill="#1C1C31"/>
</svg>
