<svg width="25" height="25" viewBox="0 0 25 25" fill="none" xmlns="http://www.w3.org/2000/svg">
    <path fill-rule="evenodd" clip-rule="evenodd" d="M14.4113 4.73168C12.5995 4.28591 10.6889 4.48745 9.00996 5.30143C7.33104 6.11541 5.98944 7.49063 5.21726 9.18918C4.44508 10.8877 4.29088 12.8028 4.78136 14.603C5.07056 15.6644 5.57316 16.6466 6.25 17.4938V14.9426C5.79583 14.4057 5.54395 13.7232 5.54395 13.0146V12.3529C5.54395 12.1976 5.58009 12.0445 5.64952 11.9057L6.69665 9.81138C7.03544 9.13381 7.72796 8.70581 8.48551 8.70581H16.5141C17.2717 8.70581 17.9642 9.13382 18.303 9.81138L19.3501 11.9057C19.4196 12.0445 19.4557 12.1976 19.4557 12.3529V13.0146C19.4557 13.7227 19.2041 14.4049 18.7505 14.9416V17.4932C19.7 16.3046 20.2954 14.8639 20.4561 13.3375C20.5139 12.7882 21.006 12.3899 21.5552 12.4477C22.1045 12.5055 22.5029 12.9976 22.4451 13.5469C22.2009 15.8663 21.1537 18.0275 19.4846 19.6565C17.8155 21.2855 15.6295 22.2799 13.3047 22.4676C10.98 22.6553 8.66279 22.0245 6.75397 20.6843C4.84515 19.3442 3.46479 17.379 2.8517 15.1287C2.2386 12.8785 2.43134 10.4847 3.39657 8.36147C4.3618 6.23829 6.0388 4.51926 8.13745 3.50178C10.2361 2.48431 12.6244 2.23239 14.8891 2.7896C16.6377 3.21981 18.2277 4.11146 19.5 5.35855V4.5C19.5 3.94772 19.9477 3.5 20.5 3.5C21.0523 3.5 21.5 3.94772 21.5 4.5V7.5C21.5 8.05228 21.0523 8.5 20.5 8.5H17.5C16.9477 8.5 16.5 8.05228 16.5 7.5C16.5 6.94772 16.9477 6.5 17.5 6.5H17.7915C16.83 5.65204 15.6722 5.04191 14.4113 4.73168ZM16.4704 15.9999C16.5643 15.9999 16.6578 15.9955 16.7505 15.9868V19.2774C16.4297 19.4786 16.0953 19.6566 15.75 19.8101V19.25C15.75 18.587 15.4866 17.9511 15.0178 17.4822C14.5489 17.0134 13.913 16.75 13.25 16.75H11.75C11.087 16.75 10.4511 17.0134 9.98223 17.4822C9.51339 17.9511 9.25 18.587 9.25 19.25V19.8101C8.90585 19.6571 8.5716 19.4794 8.25 19.2777V15.9868C8.34244 15.9955 8.43561 15.9999 8.52924 15.9999C9.26324 15.9999 9.96937 15.7296 10.5145 15.2441C11.0597 15.7296 11.7658 15.9999 12.4998 15.9999C13.2338 15.9999 13.94 15.7296 14.4851 15.2441C15.0303 15.7296 15.7364 15.9999 16.4704 15.9999ZM11.25 20.4018C11.872 20.5002 12.5075 20.5254 13.1438 20.4741C13.3473 20.4576 13.5495 20.4335 13.75 20.4018V19.25C13.75 19.1174 13.6973 18.9902 13.6036 18.8964C13.5098 18.8027 13.3826 18.75 13.25 18.75H11.75C11.6174 18.75 11.4902 18.8027 11.3964 18.8964C11.3027 18.9902 11.25 19.1174 11.25 19.25V20.4018ZM11.5744 13.3529C11.6232 13.4863 11.7007 13.6089 11.8031 13.7113C11.9879 13.8961 12.2385 13.9999 12.4998 13.9999C12.7611 13.9999 13.0118 13.8961 13.1965 13.7113C13.2989 13.6089 13.3765 13.4863 13.4252 13.3529H11.5744ZM15.545 13.3529C15.5938 13.4863 15.6713 13.6089 15.7737 13.7113C15.9585 13.8961 16.2091 13.9999 16.4704 13.9999C16.7317 13.9999 16.9823 13.8961 17.1671 13.7113C17.2695 13.6089 17.3471 13.4863 17.3958 13.3529H15.545ZM16.8377 11.3529H8.16198L8.48551 10.7058H16.5141L16.8377 11.3529ZM7.60382 13.3529H9.45466C9.40588 13.4863 9.32835 13.6089 9.22595 13.7113C9.04117 13.8961 8.79056 13.9999 8.52924 13.9999C8.26792 13.9999 8.01731 13.8961 7.83253 13.7113C7.73013 13.6089 7.6526 13.4863 7.60382 13.3529Z" fill="#1C1C31"/>
</svg>
