<svg width="25" height="24" viewBox="0 0 25 24" fill="none" xmlns="http://www.w3.org/2000/svg">
    <path fill-rule="evenodd" clip-rule="evenodd" d="M18.4304 9.7592C17.5296 9.7592 16.7038 9.45892 16.0657 8.93342C15.2024 9.68413 14.0012 10.1721 12.65 10.1721C10.9609 10.1721 9.497 9.42138 8.63368 8.29532C8.07065 8.74574 7.39502 9.00849 6.64431 9.00849C6.4191 9.00849 6.15635 8.97096 5.93114 8.93342L6.38156 14.0007H6.08128C5.81853 14.0007 5.59332 14.2259 5.63085 14.5262L5.93114 17.3038C5.96867 17.6041 6.23142 17.8293 6.49417 17.8293C6.49417 17.8293 10.9984 17.3038 12.4998 17.3038C13.9637 17.3038 18.3554 17.8293 18.3554 17.8293C18.6181 17.8293 18.8808 17.6041 18.9559 17.3038L19.3688 14.5262C19.4063 14.2259 19.2187 14.0007 18.9184 14.0007H18.5055L18.9935 9.7592C18.8433 9.7592 18.6556 9.7592 18.4304 9.7592Z" fill="#FFAB00"/>
    <path fill-rule="evenodd" clip-rule="evenodd" d="M18.3929 3.00283C17.9425 3.00283 17.492 3.11544 17.1167 3.30312C16.5161 1.38881 14.752 0 12.65 0C10.7357 0 9.08411 1.20113 8.37094 2.89022C7.88298 2.47733 7.24487 2.25212 6.56924 2.25212C4.91768 2.25212 3.56641 3.60339 3.56641 5.29249C3.56641 6.98158 4.91768 8.33286 6.56924 8.33286C7.43255 8.33286 8.22079 7.9575 8.78383 7.35693C9.6096 8.67067 11.0735 9.49646 12.6875 9.49646C14.0388 9.49646 15.2399 8.89589 16.1032 7.99504C16.6663 8.67068 17.492 9.1211 18.4304 9.1211C20.082 9.1211 21.4333 7.76983 21.4333 6.08073C21.4333 4.39164 20.0444 3.00283 18.3929 3.00283Z" fill="#FFAB00"/>
    <path fill-rule="evenodd" clip-rule="evenodd" d="M15.0894 20.1198C14.1135 19.782 12.9874 20.345 12.4244 20.6828C11.974 20.3825 10.923 19.782 9.83445 20.1198C8.48318 20.5702 8.33303 23.6857 5.40527 21.4335C6.83162 24.6991 8.85853 24.3988 10.1723 23.01C11.2233 21.9215 12.049 21.7338 12.3493 21.6963H12.3869C12.6871 21.6963 13.6255 21.884 14.7141 23.01C16.0278 24.3988 18.0547 24.6991 19.481 21.4335C16.5908 23.6481 16.4407 20.5702 15.0894 20.1198Z" fill="white"/>
</svg>
