<svg width="25" height="25" viewBox="0 0 25 25" fill="none" xmlns="http://www.w3.org/2000/svg">
    <path fill-rule="evenodd" clip-rule="evenodd" d="M18.2625 10.3139C17.3616 10.3139 16.5358 10.0136 15.8977 9.48811C15.0344 10.2388 13.8333 10.7268 12.482 10.7268C10.7929 10.7268 9.32903 9.97607 8.46572 8.85001C7.90268 9.30043 7.22705 9.56318 6.47634 9.56318C6.25113 9.56318 5.98838 9.52565 5.76317 9.48811L6.21359 14.5554H5.91331C5.65056 14.5554 5.42535 14.7806 5.46288 15.0809L5.76317 17.8585C5.8007 18.1588 6.06345 18.384 6.3262 18.384C6.3262 18.384 10.8304 17.8585 12.3319 17.8585C13.7957 17.8585 18.1874 18.384 18.1874 18.384C18.4501 18.384 18.7129 18.1588 18.7879 17.8585L19.2008 15.0809C19.2384 14.7806 19.0507 14.5554 18.7504 14.5554H18.3375L18.8255 10.3139C18.6753 10.3139 18.4877 10.3139 18.2625 10.3139Z" fill="#FFAB00"/>
    <path fill-rule="evenodd" clip-rule="evenodd" d="M18.2249 3.55752C17.7745 3.55752 17.3241 3.67013 16.9487 3.8578C16.3481 1.9435 14.584 0.554688 12.482 0.554688C10.5677 0.554688 8.91614 1.75582 8.20297 3.44491C7.71501 3.03202 7.07691 2.80681 6.40127 2.80681C4.74971 2.80681 3.39844 4.15808 3.39844 5.84717C3.39844 7.53627 4.74971 8.88754 6.40127 8.88754C7.26458 8.88754 8.05283 8.51219 8.61586 7.91162C9.44164 9.22536 10.9055 10.0511 12.5195 10.0511C13.8708 10.0511 15.0719 9.45058 15.9353 8.54973C16.4983 9.22536 17.3241 9.67579 18.2625 9.67579C19.914 9.67579 21.2653 8.32451 21.2653 6.63542C21.2653 4.94633 19.8765 3.55752 18.2249 3.55752Z" fill="#FFAB00"/>
    <path fill-rule="evenodd" clip-rule="evenodd" d="M14.9224 20.6745C13.9465 20.3367 12.8204 20.8997 12.2574 21.2375C11.807 20.9372 10.756 20.3367 9.66746 20.6745C8.31618 21.1249 8.16604 24.2403 5.23828 21.9882C6.66463 25.2538 8.69154 24.9535 10.0053 23.5647C11.0563 22.4762 11.882 22.2885 12.1823 22.251H12.2199C12.5201 22.251 13.4585 22.4386 14.5471 23.5647C15.8608 24.9535 17.8877 25.2538 19.3141 21.9882C16.4238 24.2028 16.2737 21.1249 14.9224 20.6745Z" fill="black"/>
</svg>
