<svg width="25" height="25" viewBox="0 0 25 25" fill="none" xmlns="http://www.w3.org/2000/svg">
    <path fill-rule="evenodd" clip-rule="evenodd" d="M13.4538 3.77075C13.4538 3.21847 13.0061 2.77075 12.4538 2.77075C11.9015 2.77075 11.4538 3.21847 11.4538 3.77075V9.77075C11.4538 10.323 11.9015 10.7708 12.4538 10.7708C13.0061 10.7708 13.4538 10.323 13.4538 9.77075V3.77075ZM5.93898 10.6493C6.40024 9.26376 7.28827 8.05984 8.47581 7.21007C8.92495 6.88867 9.02851 6.26403 8.70712 5.8149C8.38572 5.36576 7.76108 5.2622 7.31195 5.58359C5.78093 6.67916 4.63604 8.23129 4.04138 10.0175C3.44671 11.8038 3.4328 13.7324 4.00163 15.5271C4.57047 17.3217 5.69284 18.8902 7.20789 20.0077C8.72295 21.1252 10.5529 21.7345 12.4355 21.748C14.3181 21.7616 16.1566 21.1789 17.6876 20.0833C19.2186 18.9877 20.3635 17.4356 20.9582 15.6494C21.5529 13.8631 21.5668 11.9345 20.9979 10.1398C20.4291 8.34521 19.3067 6.77673 17.7917 5.65919C17.3472 5.33135 16.7212 5.42589 16.3933 5.87034C16.0655 6.31479 16.16 6.94086 16.6045 7.2687C17.7796 8.13553 18.6502 9.35213 19.0914 10.7441C19.5326 12.1362 19.5218 13.6321 19.0606 15.0176C18.5993 16.4031 17.7113 17.6071 16.5238 18.4568C15.3362 19.3066 13.9101 19.7586 12.4499 19.7481C10.9897 19.7376 9.57027 19.265 8.39511 18.3982C7.21995 17.5314 6.34937 16.3148 5.90815 14.9228C5.46694 13.5307 5.47773 12.0348 5.93898 10.6493Z" fill="#1C1C31"/>
</svg>
