<svg width="25" height="25" viewBox="0 0 25 25" fill="none" xmlns="http://www.w3.org/2000/svg">
    <path fill-rule="evenodd" clip-rule="evenodd" d="M15.9521 7.79313C16.119 7.4047 16.2156 6.98781 16.2356 6.5619C16.2662 5.90969 16.1158 5.26172 15.8011 4.68964C15.4865 4.11755 15.0197 3.64363 14.4525 3.32026C13.8852 2.9969 13.2396 2.8367 12.587 2.85737C11.9344 2.87803 11.3003 3.07876 10.7546 3.43736C10.209 3.79597 9.77315 4.29847 9.49529 4.88932C9.21743 5.48017 9.10838 6.13636 9.18018 6.78532C9.2188 7.13432 9.30891 7.47392 9.44622 7.79353C9.26255 8.03511 9.11029 8.29983 8.99365 8.58143C8.81573 9.01097 8.72416 9.47134 8.72416 9.93627C8.72416 10.4012 8.81573 10.8616 8.99365 11.2911C9.17157 11.7207 9.43236 12.1109 9.76111 12.4397C10.0899 12.7685 10.4802 13.0292 10.9097 13.2072C11.1639 13.3124 11.4288 13.3875 11.6991 13.4312V17.8583C11.5329 17.5426 11.3426 17.2312 11.1256 16.9298C9.89669 15.223 7.85734 13.9053 4.74878 13.9053C4.19649 13.9053 3.74878 14.353 3.74878 14.9053C3.74878 16.2246 4.13639 18.1815 5.32855 19.8373C6.55741 21.5441 8.59676 22.8618 11.7053 22.8618H12.6991H13.6929C16.8015 22.8618 18.8408 21.5441 20.0697 19.8373C21.2618 18.1815 21.6495 16.2246 21.6495 14.9053C21.6495 14.353 21.2017 13.9053 20.6495 13.9053C17.5409 13.9053 15.5015 15.223 14.2727 16.9298C14.0557 17.2312 13.8653 17.5426 13.6991 17.8583V13.4313C13.9696 13.3876 14.2347 13.3125 14.489 13.2072C14.9185 13.0292 15.3088 12.7685 15.6375 12.4397C15.9663 12.1109 16.2271 11.7207 16.405 11.2911C16.5829 10.8616 16.6745 10.4012 16.6745 9.93627C16.6745 9.47134 16.5829 9.01097 16.405 8.58143C16.2883 8.29968 16.1359 8.03482 15.9521 7.79313ZM14.2297 6.56966C14.2335 6.53599 14.2362 6.50215 14.2378 6.46817C14.2511 6.1844 14.1857 5.90247 14.0488 5.65356C13.9587 5.48985 13.84 5.34461 13.6991 5.22434V6.44126C13.8789 6.47032 14.0562 6.51323 14.2297 6.56966ZM11.6991 5.22429C11.5332 5.36592 11.3986 5.5417 11.3052 5.74045C11.1843 5.99752 11.1368 6.28302 11.168 6.56538C11.1682 6.56685 11.1684 6.56833 11.1685 6.5698C11.342 6.51334 11.5194 6.47041 11.6991 6.44133V5.22429ZM13.7236 11.3594L13.6991 11.3693V8.50325L13.7236 8.51314C13.9105 8.59056 14.0803 8.70402 14.2233 8.84706C14.3664 8.9901 14.4798 9.15991 14.5572 9.34679C14.6347 9.53368 14.6745 9.73399 14.6745 9.93627C14.6745 10.1386 14.6347 10.3389 14.5572 10.5258C14.4798 10.7126 14.3664 10.8825 14.2233 11.0255C14.0803 11.1685 13.9105 11.282 13.7236 11.3594ZM11.6991 8.50342L11.6751 8.51314C11.4882 8.59056 11.3184 8.70402 11.1753 8.84706C11.0323 8.99009 10.9188 9.15991 10.8414 9.34679C10.764 9.53368 10.7242 9.73399 10.7242 9.93627C10.7242 10.1386 10.764 10.3389 10.8414 10.5258C10.9188 10.7126 11.0323 10.8825 11.1753 11.0255C11.3184 11.1685 11.4882 11.282 11.6751 11.3594L11.6991 11.3691V8.50342ZM9.50247 18.0984C10.1158 18.9502 10.4534 19.9329 10.6052 20.7886C8.80419 20.5374 7.67279 19.6703 6.95163 18.6687C6.33834 17.8169 6.00069 16.8342 5.84893 15.9785C7.64991 16.2297 8.78131 17.0967 9.50247 18.0984ZM18.4466 18.6687C17.7254 19.6703 16.594 20.5374 14.7931 20.7886C14.9448 19.9329 15.2825 18.9502 15.8958 18.0984C16.6169 17.0967 17.7483 16.2297 19.5493 15.9785C19.3975 16.8342 19.0599 17.8169 18.4466 18.6687Z" fill="#1C1C31"/>
</svg>
