<svg width="24" height="24" viewBox="0 0 24 24" fill="none" xmlns="http://www.w3.org/2000/svg">
    <path d="M21.81 14.2322V13.9922H21.75L21.68 14.1522L21.61 13.9922H21.55V14.2322H21.59V14.0522L21.66 14.2122H21.71L21.78 14.0522V14.2322H21.81ZM21.41 14.2322V14.0322H21.49V13.9922H21.29V14.0322H21.37V14.2322H21.41Z" fill="white"/>
    <path d="M16.5198 18.0091C16.5898 18.0091 16.6998 18.0191 16.7698 18.0491L16.6598 18.3891C16.5798 18.3591 16.5098 18.3491 16.4398 18.3491C16.2098 18.3491 16.0898 18.4991 16.0898 18.7691V19.6891H15.7298V18.0491H16.0798V18.2491C16.1798 18.0991 16.3198 18.0091 16.5198 18.0091ZM15.1998 18.3691H14.6198V19.1091C14.6198 19.2691 14.6798 19.3791 14.8598 19.3791C14.9498 19.3791 15.0698 19.3491 15.1798 19.2891L15.2798 19.5991C15.1698 19.6791 14.9898 19.7291 14.8298 19.7291C14.4098 19.7291 14.2598 19.4991 14.2598 19.1191V18.3691H13.9298V18.0391H14.2598V17.5391H14.6198V18.0391H15.1998V18.3691ZM10.6298 18.7191C10.6698 18.4791 10.8098 18.3191 11.0698 18.3191C11.2998 18.3191 11.4498 18.4591 11.4898 18.7191H10.6298ZM11.8598 18.8691C11.8598 18.3591 11.5398 18.0091 11.0798 18.0091C10.5998 18.0091 10.2598 18.3591 10.2598 18.8691C10.2598 19.3891 10.6098 19.7291 11.0998 19.7291C11.3498 19.7291 11.5698 19.6691 11.7698 19.4991L11.5898 19.2391C11.4498 19.3491 11.2798 19.4091 11.1098 19.4091C10.8798 19.4091 10.6698 19.2991 10.6198 19.0091H11.8398C11.8498 18.9591 11.8598 18.9191 11.8598 18.8691ZM13.4298 18.4691C13.3298 18.4091 13.1298 18.3291 12.9198 18.3291C12.7198 18.3291 12.6098 18.3991 12.6098 18.5191C12.6098 18.6291 12.7298 18.6591 12.8898 18.6791L13.0598 18.6991C13.4198 18.7491 13.6298 18.8991 13.6298 19.1891C13.6298 19.4991 13.3598 19.7291 12.8798 19.7291C12.6098 19.7291 12.3598 19.6591 12.1698 19.5191L12.3398 19.2391C12.4598 19.3291 12.6398 19.4091 12.8898 19.4091C13.1298 19.4091 13.2598 19.3391 13.2598 19.2091C13.2598 19.1191 13.1698 19.0691 12.9698 19.0391L12.7998 19.0191C12.4298 18.9691 12.2298 18.7991 12.2298 18.5391C12.2298 18.2091 12.4998 18.0091 12.9098 18.0091C13.1698 18.0091 13.4098 18.0691 13.5798 18.1791L13.4298 18.4691ZM17.8298 18.3391C17.7598 18.3391 17.6898 18.3491 17.6298 18.3791C17.5698 18.4091 17.5098 18.4391 17.4698 18.4891C17.4298 18.5391 17.3898 18.5891 17.3598 18.6591C17.3298 18.7191 17.3198 18.7991 17.3198 18.8691C17.3198 18.9491 17.3298 19.0191 17.3598 19.0791C17.3898 19.1391 17.4198 19.1991 17.4698 19.2491C17.5198 19.2991 17.5698 19.3291 17.6298 19.3591C17.6898 19.3891 17.7598 19.3991 17.8298 19.3991C17.8998 19.3991 17.9698 19.3891 18.0298 19.3591C18.0898 19.3291 18.1498 19.2991 18.1898 19.2491C18.2398 19.1991 18.2698 19.1491 18.2998 19.0791C18.3298 19.0191 18.3398 18.9391 18.3398 18.8691C18.3398 18.7891 18.3298 18.7191 18.2998 18.6591C18.2698 18.5991 18.2398 18.5391 18.1898 18.4891C18.1398 18.4391 18.0898 18.4091 18.0298 18.3791C17.9698 18.3591 17.8998 18.3391 17.8298 18.3391ZM17.8298 18.0091C17.9598 18.0091 18.0798 18.0291 18.1798 18.0791C18.2898 18.1191 18.3798 18.1791 18.4598 18.2591C18.5398 18.3391 18.5998 18.4291 18.6498 18.5291C18.6898 18.6391 18.7198 18.7491 18.7198 18.8691C18.7198 18.9891 18.6998 19.1091 18.6498 19.2091C18.6098 19.3191 18.5398 19.4091 18.4598 19.4791C18.3798 19.5591 18.2898 19.6191 18.1798 19.6591C18.0698 19.6991 17.9498 19.7291 17.8298 19.7291C17.6998 19.7291 17.5798 19.7091 17.4798 19.6591C17.3698 19.6191 17.2798 19.5591 17.1998 19.4791C17.1198 19.3991 17.0598 19.3091 17.0098 19.2091C16.9698 19.0991 16.9398 18.9891 16.9398 18.8691C16.9398 18.7491 16.9598 18.6291 17.0098 18.5291C17.0498 18.4191 17.1198 18.3291 17.1998 18.2591C17.2798 18.1791 17.3698 18.1191 17.4798 18.0791C17.5798 18.0291 17.6998 18.0091 17.8298 18.0091ZM8.54977 18.8691C8.54977 18.5791 8.73977 18.3391 9.04977 18.3391C9.34977 18.3391 9.53977 18.5691 9.53977 18.8691C9.53977 19.1691 9.33977 19.3891 9.04977 19.3891C8.73977 19.3891 8.54977 19.1591 8.54977 18.8691ZM9.87977 18.8691V18.0491H9.51977V18.2491C9.40977 18.0991 9.23977 18.0091 8.99977 18.0091C8.53977 18.0091 8.17977 18.3691 8.17977 18.8691C8.17977 19.3691 8.53977 19.7291 8.99977 19.7291C9.22977 19.7291 9.39977 19.6391 9.51977 19.4891V19.6891H9.87977V18.8691ZM7.86977 19.6891V18.6591C7.86977 18.2691 7.61977 18.0091 7.21977 18.0091C7.00977 18.0091 6.78977 18.0691 6.63977 18.2991C6.52977 18.1191 6.34977 18.0091 6.09977 18.0091C5.92977 18.0091 5.74977 18.0591 5.61977 18.2491V18.0491H5.25977V19.6891H5.61977V18.7791C5.61977 18.4991 5.77977 18.3391 6.01977 18.3391C6.25977 18.3391 6.37977 18.4891 6.37977 18.7691V19.6791H6.73977V18.7691C6.73977 18.4891 6.90977 18.3291 7.13977 18.3291C7.37977 18.3291 7.49977 18.4791 7.49977 18.7591V19.6691H7.86977V19.6891Z" fill="white"/>
    <path d="M19.1 19.5631V19.6031H19.14C19.15 19.6031 19.16 19.6031 19.16 19.5931C19.17 19.5931 19.17 19.5831 19.17 19.5731C19.17 19.5631 19.17 19.5631 19.16 19.5631C19.16 19.5631 19.15 19.5531 19.14 19.5531H19.1V19.5631ZM19.14 19.5431C19.16 19.5431 19.17 19.5431 19.18 19.5531C19.19 19.5631 19.2 19.5731 19.2 19.5931C19.2 19.6031 19.2 19.6131 19.19 19.6231C19.18 19.6331 19.17 19.6331 19.15 19.6331L19.2 19.6931H19.16L19.11 19.6331H19.1V19.6931H19.07V19.5431H19.14ZM19.13 19.7431C19.15 19.7431 19.16 19.7431 19.18 19.7331C19.2 19.7231 19.21 19.7131 19.22 19.7031C19.23 19.6931 19.24 19.6831 19.25 19.6631C19.26 19.6431 19.26 19.6331 19.26 19.6131C19.26 19.5931 19.26 19.5831 19.25 19.5631C19.24 19.5431 19.23 19.5331 19.22 19.5231C19.21 19.5131 19.2 19.5031 19.18 19.4931C19.17 19.4831 19.15 19.4831 19.13 19.4831C19.11 19.4831 19.1 19.4831 19.08 19.4931C19.06 19.5031 19.05 19.5131 19.04 19.5231C19.03 19.5331 19.02 19.5531 19.01 19.5631C19 19.5831 19 19.5931 19 19.6131C19 19.6331 19 19.6431 19.01 19.6631C19.02 19.6831 19.03 19.6931 19.04 19.7031C19.05 19.7131 19.07 19.7231 19.08 19.7331C19.1 19.7431 19.11 19.7431 19.13 19.7431ZM19.13 19.4531C19.15 19.4531 19.17 19.4531 19.19 19.4631C19.21 19.4731 19.23 19.4831 19.24 19.4931C19.25 19.5031 19.27 19.5231 19.28 19.5431C19.29 19.5631 19.29 19.5831 19.29 19.6031C19.29 19.6231 19.29 19.6431 19.28 19.6631C19.27 19.6831 19.26 19.7031 19.24 19.7131C19.22 19.7231 19.21 19.7431 19.19 19.7531C19.17 19.7631 19.15 19.7631 19.13 19.7631C19.11 19.7631 19.08 19.7631 19.06 19.7531C19.04 19.7431 19.02 19.7331 19.01 19.7131C19 19.7031 18.98 19.6831 18.97 19.6631C18.96 19.6431 18.96 19.6231 18.96 19.6031C18.96 19.5831 18.96 19.5631 18.97 19.5431C18.98 19.5231 18.99 19.5031 19.01 19.4931C19.02 19.4831 19.04 19.4631 19.06 19.4631C19.08 19.4531 19.11 19.4531 19.13 19.4531Z" fill="#1C1C31"/>
    <path d="M9.66151 10.462C9.66151 8.51751 10.5768 6.79287 11.9835 5.67693C10.9496 4.86534 9.64457 4.375 8.22084 4.375C4.84795 4.375 2.11914 7.09722 2.11914 10.462C2.11914 13.8267 4.84795 16.5489 8.22084 16.5489C9.64457 16.5489 10.9496 16.0586 11.9835 15.247C10.5768 14.1479 9.66151 12.4064 9.66151 10.462Z" fill="white"/>
    <path d="M21.8644 10.462C21.8644 13.8267 19.1356 16.5489 15.7627 16.5489C14.339 16.5489 13.0339 16.0586 12 15.247C13.4237 14.131 14.322 12.4064 14.322 10.462C14.322 8.51751 13.4068 6.79287 12 5.67693C13.0339 4.86534 14.339 4.375 15.7627 4.375C19.1356 4.375 21.8644 7.11413 21.8644 10.462Z" fill="#F5F5FA"/>
    <path fill-rule="evenodd" clip-rule="evenodd" d="M13.2891 10.4633C13.2891 11.7669 12.7994 12.9556 11.9917 13.8563C11.1841 12.9556 10.6943 11.7669 10.6943 10.4633C10.6943 9.15976 11.1841 7.97101 11.9917 7.07031C12.7994 7.97101 13.2891 9.15976 13.2891 10.4633Z" fill="white"/>
</svg>
