<svg width="25" height="24" viewBox="0 0 25 24" fill="none" xmlns="http://www.w3.org/2000/svg">
    <path d="M22.6763 14.23V13.99H22.6163L22.5463 14.15L22.4763 13.99H22.4163V14.23H22.4563V14.05L22.5263 14.21H22.5763L22.6463 14.05V14.23H22.6763ZM22.2763 14.23V14.03H22.3563V13.99H22.1562V14.03H22.2363V14.23H22.2763Z" fill="#00A2E5"/>
    <path d="M15.5662 15.2599H10.1562V5.53992H15.5662V15.2599Z" fill="#7375CF"/>
    <path d="M10.5062 10.4C10.5062 8.42997 11.4262 6.66997 12.8662 5.53997C11.8162 4.70997 10.4862 4.21997 9.04621 4.21997C5.63621 4.21997 2.86621 6.98997 2.86621 10.4C2.86621 13.81 5.63621 16.58 9.04621 16.58C10.4862 16.58 11.8162 16.09 12.8662 15.26C11.4262 14.13 10.5062 12.37 10.5062 10.4Z" fill="#EB001B"/>
    <path d="M22.8662 10.4C22.8662 13.81 20.0962 16.58 16.6862 16.58C15.2462 16.58 13.9162 16.09 12.8662 15.26C14.3062 14.13 15.2262 12.37 15.2262 10.4C15.2262 8.42997 14.3062 6.66997 12.8662 5.53997C13.9162 4.70997 15.2462 4.21997 16.6862 4.21997C20.0962 4.21997 22.8662 6.98997 22.8662 10.4Z" fill="#00A2E5"/>
    <path d="M17.386 18.0099C17.456 18.0099 17.566 18.0199 17.636 18.0499L17.526 18.3899C17.446 18.3599 17.376 18.3499 17.306 18.3499C17.076 18.3499 16.956 18.4999 16.956 18.7699V19.6899H16.596V18.0499H16.946V18.2499C17.046 18.0999 17.186 18.0099 17.386 18.0099ZM16.066 18.3699H15.486V19.1099C15.486 19.2699 15.546 19.3799 15.726 19.3799C15.816 19.3799 15.936 19.3499 16.046 19.2899L16.146 19.5999C16.036 19.6799 15.856 19.7299 15.696 19.7299C15.276 19.7299 15.126 19.4999 15.126 19.1199V18.3699H14.796V18.0399H15.126V17.5399H15.486V18.0399H16.066V18.3699ZM11.496 18.7199C11.536 18.4799 11.676 18.3199 11.936 18.3199C12.166 18.3199 12.316 18.4599 12.356 18.7199H11.496ZM12.726 18.8699C12.726 18.3599 12.406 18.0099 11.946 18.0099C11.466 18.0099 11.126 18.3599 11.126 18.8699C11.126 19.3899 11.476 19.7299 11.966 19.7299C12.216 19.7299 12.436 19.6699 12.636 19.4999L12.456 19.2399C12.316 19.3499 12.146 19.4099 11.976 19.4099C11.746 19.4099 11.536 19.2999 11.486 19.0099H12.706C12.716 18.9599 12.726 18.9199 12.726 18.8699ZM14.296 18.4699C14.196 18.4099 13.996 18.3299 13.786 18.3299C13.586 18.3299 13.476 18.3999 13.476 18.5199C13.476 18.6299 13.596 18.6599 13.756 18.6799L13.926 18.6999C14.286 18.7499 14.496 18.8999 14.496 19.1899C14.496 19.4999 14.226 19.7299 13.746 19.7299C13.476 19.7299 13.226 19.6599 13.036 19.5199L13.206 19.2399C13.326 19.3299 13.506 19.4099 13.756 19.4099C13.996 19.4099 14.126 19.3399 14.126 19.2099C14.126 19.1199 14.036 19.0699 13.836 19.0399L13.666 19.0199C13.296 18.9699 13.096 18.7999 13.096 18.5399C13.096 18.2099 13.366 18.0099 13.776 18.0099C14.036 18.0099 14.276 18.0699 14.446 18.1799L14.296 18.4699ZM18.696 18.3399C18.626 18.3399 18.556 18.3499 18.496 18.3799C18.436 18.4099 18.376 18.4399 18.336 18.4899C18.296 18.5399 18.256 18.5899 18.226 18.6599C18.196 18.7199 18.186 18.7999 18.186 18.8699C18.186 18.9499 18.196 19.0199 18.226 19.0799C18.256 19.1399 18.286 19.1999 18.336 19.2499C18.386 19.2999 18.436 19.3299 18.496 19.3599C18.556 19.3899 18.626 19.3999 18.696 19.3999C18.766 19.3999 18.836 19.3899 18.896 19.3599C18.956 19.3299 19.016 19.2999 19.056 19.2499C19.106 19.1999 19.136 19.1499 19.166 19.0799C19.196 19.0199 19.206 18.9399 19.206 18.8699C19.206 18.7899 19.196 18.7199 19.166 18.6599C19.136 18.5999 19.106 18.5399 19.056 18.4899C19.006 18.4399 18.956 18.4099 18.896 18.3799C18.836 18.3599 18.766 18.3399 18.696 18.3399ZM18.696 18.0099C18.826 18.0099 18.946 18.0299 19.046 18.0799C19.156 18.1199 19.246 18.1799 19.326 18.2599C19.406 18.3399 19.466 18.4299 19.516 18.5299C19.556 18.6399 19.586 18.7499 19.586 18.8699C19.586 18.9899 19.566 19.1099 19.516 19.2099C19.476 19.3199 19.406 19.4099 19.326 19.4799C19.246 19.5599 19.156 19.6199 19.046 19.6599C18.936 19.6999 18.816 19.7299 18.696 19.7299C18.566 19.7299 18.446 19.7099 18.346 19.6599C18.236 19.6199 18.146 19.5599 18.066 19.4799C17.986 19.3999 17.926 19.3099 17.876 19.2099C17.836 19.0999 17.806 18.9899 17.806 18.8699C17.806 18.7499 17.826 18.6299 17.876 18.5299C17.916 18.4199 17.986 18.3299 18.066 18.2599C18.146 18.1799 18.236 18.1199 18.346 18.0799C18.446 18.0299 18.566 18.0099 18.696 18.0099ZM9.41598 18.8699C9.41598 18.5799 9.60598 18.3399 9.91598 18.3399C10.216 18.3399 10.406 18.5699 10.406 18.8699C10.406 19.1699 10.206 19.3899 9.91598 19.3899C9.60598 19.3899 9.41598 19.1599 9.41598 18.8699ZM10.746 18.8699V18.0499H10.386V18.2499C10.276 18.0999 10.106 18.0099 9.86598 18.0099C9.40598 18.0099 9.04598 18.3699 9.04598 18.8699C9.04598 19.3699 9.40598 19.7299 9.86598 19.7299C10.096 19.7299 10.266 19.6399 10.386 19.4899V19.6899H10.746V18.8699ZM8.73598 19.6899V18.6599C8.73598 18.2699 8.48598 18.0099 8.08598 18.0099C7.87598 18.0099 7.65598 18.0699 7.50598 18.2999C7.39598 18.1199 7.21598 18.0099 6.96598 18.0099C6.79598 18.0099 6.61598 18.0599 6.48598 18.2499V18.0499H6.12598V19.6899H6.48598V18.7799C6.48598 18.4999 6.64598 18.3399 6.88598 18.3399C7.12598 18.3399 7.24598 18.4899 7.24598 18.7699V19.6799H7.60598V18.7699C7.60598 18.4899 7.77598 18.3299 8.00598 18.3299C8.24598 18.3299 8.36598 18.4799 8.36598 18.7599V19.6699H8.73598V19.6899Z" fill="black"/>
    <path d="M19.9662 19.56V19.6H20.0062C20.0162 19.6 20.0262 19.6 20.0262 19.59C20.0362 19.59 20.0362 19.58 20.0362 19.57C20.0362 19.56 20.0362 19.56 20.0262 19.56C20.0262 19.56 20.0162 19.55 20.0062 19.55H19.9662V19.56ZM20.0062 19.54C20.0262 19.54 20.0362 19.54 20.0462 19.55C20.0562 19.56 20.0662 19.57 20.0662 19.59C20.0662 19.6 20.0662 19.61 20.0562 19.62C20.0462 19.63 20.0362 19.63 20.0162 19.63L20.0662 19.69H20.0262L19.9762 19.63H19.9662V19.69H19.9362V19.54H20.0062ZM19.9962 19.74C20.0162 19.74 20.0262 19.74 20.0462 19.73C20.0662 19.72 20.0762 19.71 20.0862 19.7C20.0962 19.69 20.1062 19.68 20.1162 19.66C20.1262 19.64 20.1262 19.63 20.1262 19.61C20.1262 19.59 20.1262 19.58 20.1162 19.56C20.1062 19.54 20.0962 19.53 20.0862 19.52C20.0762 19.51 20.0662 19.5 20.0462 19.49C20.0362 19.48 20.0162 19.48 19.9962 19.48C19.9762 19.48 19.9662 19.48 19.9462 19.49C19.9262 19.5 19.9162 19.51 19.9062 19.52C19.8962 19.53 19.8862 19.55 19.8762 19.56C19.8662 19.58 19.8662 19.59 19.8662 19.61C19.8662 19.63 19.8662 19.64 19.8762 19.66C19.8862 19.68 19.8962 19.69 19.9062 19.7C19.9162 19.71 19.9362 19.72 19.9462 19.73C19.9662 19.74 19.9762 19.74 19.9962 19.74ZM19.9962 19.45C20.0162 19.45 20.0362 19.45 20.0562 19.46C20.0762 19.47 20.0962 19.48 20.1062 19.49C20.1162 19.5 20.1362 19.52 20.1462 19.54C20.1562 19.56 20.1562 19.58 20.1562 19.6C20.1562 19.62 20.1562 19.64 20.1462 19.66C20.1362 19.68 20.1262 19.7 20.1062 19.71C20.0862 19.72 20.0762 19.74 20.0562 19.75C20.0362 19.76 20.0162 19.76 19.9962 19.76C19.9762 19.76 19.9462 19.76 19.9262 19.75C19.9062 19.74 19.8862 19.73 19.8762 19.71C19.8662 19.7 19.8462 19.68 19.8362 19.66C19.8262 19.64 19.8262 19.62 19.8262 19.6C19.8262 19.58 19.8262 19.56 19.8362 19.54C19.8462 19.52 19.8562 19.5 19.8762 19.49C19.8862 19.48 19.9062 19.46 19.9262 19.46C19.9462 19.45 19.9762 19.45 19.9962 19.45Z" fill="black"/>
</svg>
