<svg width="24" height="24" viewBox="0 0 24 24" fill="none" xmlns="http://www.w3.org/2000/svg">
<path fill-rule="evenodd" clip-rule="evenodd" d="M19.0708 3.51474C18.2898 2.73369 17.0235 2.73369 16.2424 3.51474L3.5145 16.2427C2.73345 17.0237 2.73345 18.29 3.5145 19.0711L4.92871 20.4853C5.70976 21.2664 6.97609 21.2664 7.75714 20.4853L20.4851 7.75738C21.2661 6.97633 21.2661 5.71 20.4851 4.92895L19.0708 3.51474ZM17.6566 4.92895L19.0708 6.34317L17.0216 8.39246L15.6073 6.97824L17.6566 4.92895ZM14.1931 8.39246L15.6073 9.80667L6.34292 19.0711L4.92871 17.6569L14.1931 8.39246ZM6.99989 4.99994C6.99989 4.44766 6.55218 3.99994 5.99989 3.99994C5.44761 3.99994 4.99989 4.44766 4.99989 4.99994V5.99994H3.99989C3.44761 5.99994 2.99989 6.44766 2.99989 6.99994C2.99989 7.55223 3.44761 7.99994 3.99989 7.99994H4.99989V8.99994C4.99989 9.55223 5.44761 9.99994 5.99989 9.99994C6.55218 9.99994 6.99989 9.55223 6.99989 8.99994V7.99994H7.99989C8.55218 7.99994 8.99989 7.55223 8.99989 6.99994C8.99989 6.44766 8.55218 5.99994 7.99989 5.99994H6.99989V4.99994ZM14.4999 16.9999C15.0522 16.9999 15.4999 17.4477 15.4999 17.9999V18.4999H15.9999C16.5522 18.4999 16.9999 18.9477 16.9999 19.4999C16.9999 20.0522 16.5522 20.4999 15.9999 20.4999H15.4999V20.9999C15.4999 21.5522 15.0522 21.9999 14.4999 21.9999C13.9476 21.9999 13.4999 21.5522 13.4999 20.9999V20.4999H12.9999C12.4476 20.4999 11.9999 20.0522 11.9999 19.4999C11.9999 18.9477 12.4476 18.4999 12.9999 18.4999H13.4999V17.9999C13.4999 17.4477 13.9476 16.9999 14.4999 16.9999ZM21.9999 13.9999C21.9999 14.5522 21.5522 14.9999 20.9999 14.9999H19.9999V15.9999C19.9999 16.5522 19.5522 16.9999 18.9999 16.9999C18.4476 16.9999 17.9999 16.5522 17.9999 15.9999V14.9999H16.9999C16.4476 14.9999 15.9999 14.5522 15.9999 13.9999C15.9999 13.4477 16.4476 12.9999 16.9999 12.9999H17.9999V11.9999C17.9999 11.4477 18.4476 10.9999 18.9999 10.9999C19.5522 10.9999 19.9999 11.4477 19.9999 11.9999V12.9999H20.9999C21.5522 12.9999 21.9999 13.4477 21.9999 13.9999Z" fill="#1C1C31"/>
</svg>
