<svg width="25" height="25" viewBox="0 0 25 25" fill="none" xmlns="http://www.w3.org/2000/svg">
    <path fill-rule="evenodd" clip-rule="evenodd" d="M7 10.5881C7 7.164 9.53823 4.53125 12.5 4.53125C15.4618 4.53125 18 7.164 18 10.5881C18 11.3224 17.6813 12.3159 17.0928 13.4747C16.5169 14.6085 15.7381 15.7949 14.9424 16.8845C14.1493 17.9706 13.3538 18.9408 12.7556 19.6405C12.6656 19.7457 12.5802 19.8447 12.5 19.9369C12.4198 19.8447 12.3344 19.7457 12.2444 19.6405C11.6462 18.9408 10.8507 17.9706 10.0576 16.8845C9.26187 15.7949 8.48309 14.6085 7.90722 13.4747C7.31871 12.3159 7 11.3224 7 10.5881ZM11.7693 22.1202C12.5 22.8164 13.2311 22.1197 13.2311 22.1197C13.042 22.322 12.7769 22.4375 12.5 22.4375C12.2231 22.4375 11.9584 22.3224 11.7693 22.1202ZM11.7693 22.1202C12.5 22.8164 13.2311 22.1197 13.2311 22.1197C13.3294 22.014 13.4265 21.9071 13.523 21.7997C13.7055 21.5966 13.9649 21.3036 14.2757 20.9402C14.8962 20.2146 15.7257 19.2031 16.5576 18.064C17.3869 16.9285 18.2331 15.6461 18.876 14.3803C19.5062 13.1394 20 11.8024 20 10.5881C20 6.21737 16.7179 2.53125 12.5 2.53125C8.28207 2.53125 5 6.21737 5 10.5881C5 11.8024 5.49379 13.1394 6.12403 14.3803C6.76691 15.6461 7.61313 16.9285 8.44242 18.064C9.27426 19.2031 10.1038 20.2146 10.7243 20.9402C11.0351 21.3036 11.2945 21.5966 11.477 21.7997C11.5667 21.8994 11.657 21.9985 11.7478 22.0971L11.7633 22.1138L11.7693 22.1202ZM13.5 9.5C13.5 10.0523 13.0523 10.5 12.5 10.5C11.9477 10.5 11.5 10.0523 11.5 9.5C11.5 8.94772 11.9477 8.5 12.5 8.5C13.0523 8.5 13.5 8.94772 13.5 9.5ZM15.5 9.5C15.5 11.1569 14.1569 12.5 12.5 12.5C10.8431 12.5 9.5 11.1569 9.5 9.5C9.5 7.84315 10.8431 6.5 12.5 6.5C14.1569 6.5 15.5 7.84315 15.5 9.5Z" fill="black"/>
</svg>
