<svg width="24" height="25" viewBox="0 0 24 25" fill="none" xmlns="http://www.w3.org/2000/svg">
    <path d="M5.71187 20.197V19.1825C5.71187 18.7936 5.47458 18.54 5.0678 18.54C4.86442 18.54 4.64408 18.6076 4.49153 18.8274C4.37289 18.6414 4.2034 18.54 3.94916 18.54C3.77967 18.54 3.61018 18.5907 3.47458 18.7767V18.5738H3.11865V20.197H3.47458V19.3008C3.47458 19.0134 3.62713 18.8781 3.86442 18.8781C4.1017 18.8781 4.22035 19.0303 4.22035 19.3008V20.197H4.57628V19.3008C4.57628 19.0134 4.74577 18.8781 4.96611 18.8781C5.2034 18.8781 5.32204 19.0303 5.32204 19.3008V20.197H5.71187ZM10.9831 18.5738H10.4068V18.0834H10.0509V18.5738H9.72882V18.895H10.0509V19.639C10.0509 20.011 10.2034 20.2308 10.6102 20.2308C10.7627 20.2308 10.9322 20.1801 11.0509 20.1124L10.9492 19.8081C10.8475 19.8757 10.7288 19.8926 10.6441 19.8926C10.4746 19.8926 10.4068 19.7912 10.4068 19.6221V18.895H10.9831V18.5738ZM14 18.54C13.7966 18.54 13.661 18.6414 13.5763 18.7767V18.5738H13.2203V20.197H13.5763V19.2839C13.5763 19.0134 13.6949 18.8612 13.9153 18.8612C13.9831 18.8612 14.0678 18.8781 14.1356 18.895L14.2373 18.5569C14.1695 18.54 14.0678 18.54 14 18.54ZM9.44069 18.7091C9.27119 18.5907 9.03391 18.54 8.77967 18.54C8.37289 18.54 8.1017 18.7429 8.1017 19.0641C8.1017 19.3347 8.30509 19.4868 8.66103 19.5376L8.83052 19.5545C9.01696 19.5883 9.11865 19.639 9.11865 19.7235C9.11865 19.8419 8.98306 19.9264 8.74577 19.9264C8.50848 19.9264 8.32204 19.8419 8.2034 19.7574L8.03391 20.0279C8.22035 20.1632 8.47458 20.2308 8.72882 20.2308C9.2034 20.2308 9.47458 20.011 9.47458 19.7066C9.47458 19.4192 9.25425 19.267 8.91526 19.2163L8.74577 19.1994C8.59323 19.1825 8.47459 19.1487 8.47459 19.0472C8.47459 18.9289 8.59323 18.8612 8.77967 18.8612C8.98306 18.8612 9.18645 18.9458 9.28814 18.9965L9.44069 18.7091ZM18.8983 18.54C18.6949 18.54 18.5593 18.6414 18.4746 18.7767V18.5738H18.1187V20.197H18.4746V19.2839C18.4746 19.0134 18.5932 18.8612 18.8136 18.8612C18.8814 18.8612 18.9661 18.8781 19.0339 18.895L19.1356 18.5569C19.0678 18.54 18.9661 18.54 18.8983 18.54ZM14.3559 19.3854C14.3559 19.8757 14.6949 20.2308 15.2203 20.2308C15.4576 20.2308 15.6271 20.1801 15.7966 20.0448L15.6271 19.7574C15.4915 19.8588 15.3559 19.9095 15.2034 19.9095C14.9153 19.9095 14.7119 19.7066 14.7119 19.3854C14.7119 19.081 14.9153 18.8781 15.2034 18.8612C15.3559 18.8612 15.4915 18.912 15.6271 19.0134L15.7966 18.726C15.6271 18.5907 15.4576 18.54 15.2203 18.54C14.6949 18.54 14.3559 18.895 14.3559 19.3854ZM17.6441 19.3854V18.5738H17.2881V18.7767C17.1695 18.6245 17 18.54 16.7797 18.54C16.322 18.54 15.9661 18.895 15.9661 19.3854C15.9661 19.8757 16.322 20.2308 16.7797 20.2308C17.017 20.2308 17.1865 20.1463 17.2881 19.9941V20.197H17.6441V19.3854ZM16.339 19.3854C16.339 19.0979 16.5254 18.8612 16.8305 18.8612C17.1187 18.8612 17.322 19.081 17.322 19.3854C17.322 19.6728 17.1187 19.9095 16.8305 19.9095C16.5254 19.8926 16.339 19.6728 16.339 19.3854ZM12.0848 18.54C11.6102 18.54 11.2712 18.8781 11.2712 19.3854C11.2712 19.8926 11.6102 20.2308 12.1017 20.2308C12.339 20.2308 12.5763 20.1632 12.7627 20.011L12.5932 19.7574C12.4576 19.8588 12.2881 19.9264 12.1187 19.9264C11.8983 19.9264 11.678 19.825 11.6271 19.5376H12.8305C12.8305 19.4868 12.8305 19.453 12.8305 19.4023C12.8475 18.8781 12.5424 18.54 12.0848 18.54ZM12.0848 18.8443C12.3051 18.8443 12.4576 18.9796 12.4915 19.2332H11.6441C11.678 19.0134 11.8305 18.8443 12.0848 18.8443ZM20.9153 19.3854V17.9313H20.5593V18.7767C20.4407 18.6245 20.2712 18.54 20.0509 18.54C19.5932 18.54 19.2373 18.895 19.2373 19.3854C19.2373 19.8757 19.5932 20.2308 20.0509 20.2308C20.2881 20.2308 20.4576 20.1463 20.5593 19.9941V20.197H20.9153V19.3854ZM19.6102 19.3854C19.6102 19.0979 19.7966 18.8612 20.1017 18.8612C20.3898 18.8612 20.5932 19.081 20.5932 19.3854C20.5932 19.6728 20.3898 19.9095 20.1017 19.9095C19.7966 19.8926 19.6102 19.6728 19.6102 19.3854ZM7.71187 19.3854V18.5738H7.35594V18.7767C7.2373 18.6245 7.06781 18.54 6.84747 18.54C6.38984 18.54 6.03391 18.895 6.03391 19.3854C6.03391 19.8757 6.38984 20.2308 6.84747 20.2308C7.08475 20.2308 7.25425 20.1463 7.35594 19.9941V20.197H7.71187V19.3854ZM6.38984 19.3854C6.38984 19.0979 6.57628 18.8612 6.88136 18.8612C7.1695 18.8612 7.37289 19.081 7.37289 19.3854C7.37289 19.6728 7.1695 19.9095 6.88136 19.9095C6.57628 19.8926 6.38984 19.6728 6.38984 19.3854Z" fill="black"/>
    <path d="M14.661 6.24768H9.32202V15.8177H14.661V6.24768Z" fill="#FF5F00"/>
    <path d="M9.66103 11.0328C9.66103 9.08831 10.5763 7.36367 11.9831 6.24773C10.9492 5.43614 9.64408 4.9458 8.22035 4.9458C4.84747 4.9458 2.11865 7.66802 2.11865 11.0328C2.11865 14.3975 4.84747 17.1197 8.22035 17.1197C9.64408 17.1197 10.9492 16.6294 11.9831 15.8178C10.5763 14.7187 9.66103 12.9772 9.66103 11.0328Z" fill="#EB001B"/>
    <path d="M21.8644 11.0328C21.8644 14.3975 19.1356 17.1197 15.7627 17.1197C14.339 17.1197 13.0339 16.6294 12 15.8178C13.4237 14.7018 14.322 12.9772 14.322 11.0328C14.322 9.08831 13.4068 7.36367 12 6.24773C13.0339 5.43614 14.339 4.9458 15.7627 4.9458C19.1356 4.9458 21.8644 7.68493 21.8644 11.0328Z" fill="#F79E1B"/>
</svg>
