<svg width="24" height="24" viewBox="0 0 24 24" fill="none" xmlns="http://www.w3.org/2000/svg">
    <path d="M5.71236 19.6251V18.6106C5.71236 18.2217 5.47507 17.9681 5.06829 17.9681C4.8649 17.9681 4.64456 18.0357 4.49202 18.2555C4.37338 18.0695 4.20389 17.9681 3.94965 17.9681C3.78016 17.9681 3.61067 18.0188 3.47507 18.2048V18.0019H3.11914V19.6251H3.47507V18.7289C3.47507 18.4415 3.62762 18.3062 3.8649 18.3062C4.10219 18.3062 4.22084 18.4584 4.22084 18.7289V19.6251H4.57677V18.7289C4.57677 18.4415 4.74626 18.3062 4.9666 18.3062C5.20389 18.3062 5.32253 18.4584 5.32253 18.7289V19.6251H5.71236ZM10.9835 18.0019H10.4073V17.5115H10.0513V18.0019H9.72931V18.3231H10.0513V19.0671C10.0513 19.4391 10.2039 19.6589 10.6107 19.6589C10.7632 19.6589 10.9327 19.6082 11.0513 19.5405L10.9496 19.2362C10.848 19.3038 10.7293 19.3207 10.6446 19.3207C10.4751 19.3207 10.4073 19.2193 10.4073 19.0502V18.3231H10.9835V18.0019ZM14.0005 17.9681C13.7971 17.9681 13.6615 18.0695 13.5768 18.2048V18.0019H13.2208V19.6251H13.5768V18.712C13.5768 18.4415 13.6954 18.2893 13.9158 18.2893C13.9835 18.2893 14.0683 18.3062 14.1361 18.3231L14.2378 17.985C14.17 17.9681 14.0683 17.9681 14.0005 17.9681ZM9.44117 18.1372C9.27168 18.0188 9.0344 17.9681 8.78016 17.9681C8.37338 17.9681 8.10219 18.171 8.10219 18.4922C8.10219 18.7628 8.30558 18.9149 8.66151 18.9657L8.83101 18.9826C9.01745 19.0164 9.11914 19.0671 9.11914 19.1516C9.11914 19.27 8.98355 19.3545 8.74626 19.3545C8.50897 19.3545 8.32253 19.27 8.20389 19.1855L8.0344 19.456C8.22084 19.5913 8.47507 19.6589 8.72931 19.6589C9.20389 19.6589 9.47507 19.4391 9.47507 19.1347C9.47507 18.8473 9.25473 18.6951 8.91575 18.6444L8.74626 18.6275C8.59372 18.6106 8.47507 18.5768 8.47507 18.4753C8.47507 18.357 8.59372 18.2893 8.78016 18.2893C8.98355 18.2893 9.18694 18.3739 9.28863 18.4246L9.44117 18.1372ZM18.8988 17.9681C18.6954 17.9681 18.5598 18.0695 18.4751 18.2048V18.0019H18.1191V19.6251H18.4751V18.712C18.4751 18.4415 18.5937 18.2893 18.8141 18.2893C18.8819 18.2893 18.9666 18.3062 19.0344 18.3231L19.1361 17.985C19.0683 17.9681 18.9666 17.9681 18.8988 17.9681ZM14.3564 18.8135C14.3564 19.3038 14.6954 19.6589 15.2208 19.6589C15.4581 19.6589 15.6276 19.6082 15.7971 19.4729L15.6276 19.1855C15.492 19.2869 15.3564 19.3376 15.2039 19.3376C14.9158 19.3376 14.7124 19.1347 14.7124 18.8135C14.7124 18.5091 14.9158 18.3062 15.2039 18.2893C15.3564 18.2893 15.492 18.3401 15.6276 18.4415L15.7971 18.1541C15.6276 18.0188 15.4581 17.9681 15.2208 17.9681C14.6954 17.9681 14.3564 18.3231 14.3564 18.8135ZM17.6446 18.8135V18.0019H17.2886V18.2048C17.17 18.0526 17.0005 17.9681 16.7802 17.9681C16.3225 17.9681 15.9666 18.3231 15.9666 18.8135C15.9666 19.3038 16.3225 19.6589 16.7802 19.6589C17.0174 19.6589 17.1869 19.5744 17.2886 19.4222V19.6251H17.6446V18.8135ZM16.3395 18.8135C16.3395 18.526 16.5259 18.2893 16.831 18.2893C17.1191 18.2893 17.3225 18.5091 17.3225 18.8135C17.3225 19.1009 17.1191 19.3376 16.831 19.3376C16.5259 19.3207 16.3395 19.1009 16.3395 18.8135ZM12.0852 17.9681C11.6107 17.9681 11.2717 18.3062 11.2717 18.8135C11.2717 19.3207 11.6107 19.6589 12.1022 19.6589C12.3395 19.6589 12.5768 19.5913 12.7632 19.4391L12.5937 19.1855C12.4581 19.2869 12.2886 19.3545 12.1191 19.3545C11.8988 19.3545 11.6785 19.2531 11.6276 18.9657H12.831C12.831 18.9149 12.831 18.8811 12.831 18.8304C12.848 18.3062 12.5429 17.9681 12.0852 17.9681ZM12.0852 18.2724C12.3056 18.2724 12.4581 18.4077 12.492 18.6613H11.6446C11.6785 18.4415 11.831 18.2724 12.0852 18.2724ZM20.9158 18.8135V17.3594H20.5598V18.2048C20.4412 18.0526 20.2717 17.9681 20.0513 17.9681C19.5937 17.9681 19.2378 18.3231 19.2378 18.8135C19.2378 19.3038 19.5937 19.6589 20.0513 19.6589C20.2886 19.6589 20.4581 19.5744 20.5598 19.4222V19.6251H20.9158V18.8135ZM19.6107 18.8135C19.6107 18.526 19.7971 18.2893 20.1022 18.2893C20.3903 18.2893 20.5937 18.5091 20.5937 18.8135C20.5937 19.1009 20.3903 19.3376 20.1022 19.3376C19.7971 19.3207 19.6107 19.1009 19.6107 18.8135ZM7.71236 18.8135V18.0019H7.35643V18.2048C7.23779 18.0526 7.06829 17.9681 6.84795 17.9681C6.39033 17.9681 6.03439 18.3231 6.03439 18.8135C6.03439 19.3038 6.39033 19.6589 6.84795 19.6589C7.08524 19.6589 7.25473 19.5744 7.35643 19.4222V19.6251H7.71236V18.8135ZM6.39033 18.8135C6.39033 18.526 6.57677 18.2893 6.88185 18.2893C7.16999 18.2893 7.37338 18.5091 7.37338 18.8135C7.37338 19.1009 7.16999 19.3376 6.88185 19.3376C6.57677 19.3207 6.39033 19.1009 6.39033 18.8135Z" fill="#F5F5FA"/>
    <path d="M9.66151 10.462C9.66151 8.51751 10.5768 6.79287 11.9835 5.67693C10.9496 4.86534 9.64457 4.375 8.22084 4.375C4.84795 4.375 2.11914 7.09722 2.11914 10.462C2.11914 13.8267 4.84795 16.5489 8.22084 16.5489C9.64457 16.5489 10.9496 16.0586 11.9835 15.247C10.5768 14.1479 9.66151 12.4064 9.66151 10.462Z" fill="white"/>
    <path d="M21.8644 10.462C21.8644 13.8267 19.1356 16.5489 15.7627 16.5489C14.339 16.5489 13.0339 16.0586 12 15.247C13.4237 14.131 14.322 12.4064 14.322 10.462C14.322 8.51751 13.4068 6.79287 12 5.67693C13.0339 4.86534 14.339 4.375 15.7627 4.375C19.1356 4.375 21.8644 7.11413 21.8644 10.462Z" fill="#F5F5FA"/>
    <path fill-rule="evenodd" clip-rule="evenodd" d="M13.2891 10.4633C13.2891 11.7669 12.7994 12.9556 11.9917 13.8563C11.1841 12.9556 10.6943 11.7669 10.6943 10.4633C10.6943 9.15976 11.1841 7.97101 11.9917 7.07031C12.7994 7.97101 13.2891 9.15976 13.2891 10.4633Z" fill="white"/>
</svg>
