<svg width="25" height="25" viewBox="0 0 25 25" fill="none" xmlns="http://www.w3.org/2000/svg">
    <path fill-rule="evenodd" clip-rule="evenodd" d="M16.303 2.99674C15.4218 3.87799 15.2025 5.16982 15.645 6.25587L14.8378 7.06313C11.6087 6.39037 7.07252 8.14291 4.96473 10.2507C2.26459 12.9508 2.35971 17.4237 5.17717 20.2412C7.99464 23.0587 12.4675 23.1538 15.1677 20.4537C17.3464 18.2749 19.1456 13.5015 18.279 10.2591L18.9636 9.5745C20.0497 10.0171 21.3416 9.79792 22.2229 8.91661C23.3962 7.74338 23.3962 5.8412 22.2229 4.66797C21.9268 4.37184 21.5831 4.15003 21.2164 4.0032C21.0696 3.63649 20.8478 3.29285 20.5516 2.99674C19.3784 1.82351 17.4762 1.82351 16.303 2.99674ZM17.6604 5.76954C17.326 5.37577 17.3451 4.78311 17.7172 4.41096C18.1094 4.01878 18.7453 4.01878 19.1374 4.41096C19.2949 4.56838 19.388 4.76236 19.4196 4.96534L19.5318 5.68788L20.2543 5.80006C20.4573 5.83157 20.6513 5.92475 20.8087 6.08219C21.2009 6.47437 21.2009 7.11021 20.8087 7.50239C20.4365 7.87458 19.8438 7.89367 19.4501 7.55915L18.7474 6.96222L18.0955 7.61415L17.4346 8.27509L16.9444 7.78493L17.6053 7.124L18.2572 6.47216L17.6604 5.76954ZM13.7535 19.0394C11.8905 20.9024 8.6851 20.9207 6.59139 18.827C4.49767 16.7333 4.51595 13.5279 6.37894 11.6649C7.40292 10.6409 9.37706 9.58722 11.4481 9.13581C13.6127 8.66398 15.088 8.99981 15.7533 9.66509C16.4186 10.3304 16.7544 11.8057 16.2826 13.9703C15.8312 16.0413 14.7774 18.0155 13.7535 19.0394Z" fill="#1C1C31"/>
</svg>
