<svg width="25" height="25" viewBox="0 0 25 25" fill="none" xmlns="http://www.w3.org/2000/svg">
    <path fill-rule="evenodd" clip-rule="evenodd" d="M5.5 4.16675C3.84315 4.16675 2.5 5.50989 2.5 7.16675V17.1667C2.5 18.8236 3.84315 20.1667 5.5 20.1667H19.5C21.1569 20.1667 22.5 18.8236 22.5 17.1667V7.16675C22.5 5.50989 21.1569 4.16675 19.5 4.16675H5.5ZM4.5 7.16675C4.5 6.61446 4.94772 6.16675 5.5 6.16675H14.4722V18.1667H5.5C4.94772 18.1667 4.5 17.719 4.5 17.1667V7.16675ZM16.4722 18.1667V6.16675H19.5C20.0523 6.16675 20.5 6.61446 20.5 7.16675V17.1667C20.5 17.719 20.0523 18.1667 19.5 18.1667H16.4722ZM7.90893 10.1763C7.76839 10.1763 7.50773 10.2422 7.11647 10.6334C6.7259 11.0239 6.09274 11.0238 5.70226 10.6332C5.31177 10.2427 5.31184 9.60949 5.70241 9.219C6.31133 8.61022 7.05078 8.17614 7.90926 8.17628C8.76833 8.17642 9.50708 8.61128 10.1143 9.22156C10.5013 9.6104 10.7623 9.67697 10.9051 9.67692C11.0484 9.67686 11.31 9.60969 11.6976 9.22092C12.0875 8.82979 12.7207 8.8288 13.1118 9.21872C13.5029 9.60864 13.5039 10.2418 13.114 10.6329C12.5054 11.2434 11.7648 11.6766 10.9059 11.6769C10.0466 11.6772 9.30554 11.2442 8.69663 10.6323C8.30807 10.2418 8.04889 10.1763 7.90893 10.1763ZM7.90893 14.662C7.76839 14.662 7.50773 14.7279 7.11647 15.1191C6.7259 15.5096 6.09274 15.5095 5.70226 15.1189C5.31177 14.7284 5.31184 14.0952 5.70241 13.7047C6.31133 13.0959 7.05078 12.6619 7.90926 12.662C8.76833 12.6621 9.50708 13.097 10.1143 13.7073C10.5013 14.0961 10.7623 14.1627 10.9051 14.1626C11.0484 14.1626 11.31 14.0954 11.6976 13.7066C12.0875 13.3155 12.7207 13.3145 13.1118 13.7044C13.5029 14.0944 13.5039 14.7275 13.114 15.1186C12.5054 15.7291 11.7648 16.1623 10.9059 16.1626C10.0466 16.163 9.30554 15.7299 8.69663 15.118C8.30807 14.7275 8.04889 14.662 7.90893 14.662ZM18.4253 13.1667C18.9776 13.1667 19.4253 12.719 19.4253 12.1667C19.4253 11.6145 18.9776 11.1667 18.4253 11.1667C17.873 11.1667 17.4253 11.6145 17.4253 12.1667C17.4253 12.719 17.873 13.1667 18.4253 13.1667ZM19.4253 16.1718C19.4253 16.724 18.9776 17.1718 18.4253 17.1718C17.873 17.1718 17.4253 16.724 17.4253 16.1718C17.4253 15.6195 17.873 15.1718 18.4253 15.1718C18.9776 15.1718 19.4253 15.6195 19.4253 16.1718ZM18.0312 7.16675C17.7551 7.16675 17.5312 7.39061 17.5312 7.66675V8.66675C17.5312 8.94289 17.7551 9.16675 18.0312 9.16675H19.0312C19.3074 9.16675 19.5312 8.94289 19.5312 8.66675V7.66675C19.5312 7.39061 19.3074 7.16675 19.0312 7.16675H18.0312Z" fill="#1C1C31"/>
</svg>
