<svg width="25" height="25" viewBox="0 0 25 25" fill="none" xmlns="http://www.w3.org/2000/svg">
    <path fill-rule="evenodd" clip-rule="evenodd" d="M11.1162 2.73945C11.4122 2.27314 12.0301 2.13502 12.4964 2.43095C12.9364 2.71017 13.2987 3.09601 13.5498 3.55266C13.7496 3.91619 13.8738 4.31522 13.9161 4.72575C14.8287 5.09005 15.8966 5.86402 16.2705 6.87415C16.3483 7.08444 16.233 7.30772 16.0319 7.40692L15.0609 7.88594C14.7547 8.03699 14.3931 8.02099 14.0974 7.85032C13.8548 7.71032 13.5565 7.54271 13.297 7.41034C13.0662 7.29265 12.7959 7.29143 12.5725 7.42256C12.3904 7.52946 12.1991 7.65741 12.0321 7.77485C11.7321 7.98577 11.344 8.03791 11.0073 7.89259L9.8601 7.3975C9.64553 7.30489 9.51887 7.07352 9.60183 6.85505C9.97403 5.8748 10.9983 5.11938 11.8921 4.74862C11.8695 4.66806 11.8378 4.59004 11.7971 4.51617C11.7084 4.35473 11.5803 4.21832 11.4247 4.1196C10.9584 3.82367 10.8203 3.20576 11.1162 2.73945ZM13.729 8.85281C13.2433 8.65648 12.7 8.65853 12.2159 8.85851L11.5156 9.14774L10.9276 8.93289C9.95419 8.57722 8.89419 9.29999 8.92243 10.3695C8.99317 13.0491 9.4606 15.3698 10.5388 17.228C11.6349 19.1172 13.3146 20.4458 15.6339 21.2025C15.9384 21.3018 16.2721 21.2493 16.5314 21.0611C16.7906 20.873 16.9441 20.5721 16.9441 20.2518V10.3624C16.9441 9.30354 15.8766 8.57799 14.892 8.96772L14.448 9.14348L13.729 8.85281ZM12.2687 16.2243C11.5101 14.9169 11.0812 13.2146 10.9536 11.0672C11.3894 11.1948 11.8571 11.1706 12.2791 10.9963L12.9794 10.707L13.6984 10.9977C14.0961 11.1585 14.5327 11.1863 14.9441 11.081V18.7578C13.7523 18.1396 12.8881 17.2919 12.2687 16.2243Z" fill="#1C1C31"/>
</svg>
