<svg width="25" height="25" viewBox="0 0 25 25" fill="none" xmlns="http://www.w3.org/2000/svg">
    <path fill-rule="evenodd" clip-rule="evenodd" d="M14.1142 5.69549C14.6369 6.21895 15.4059 6.41115 16.1134 6.19518C16.2962 6.13938 16.4922 6.10864 16.699 6.10864C17.7206 6.10864 18.5659 6.87646 18.6845 7.86548C18.7602 8.4961 19.1308 9.05331 19.6832 9.36678C20.2941 9.71346 20.699 10.365 20.699 11.1086C20.699 13.6315 19.9072 15.598 18.6172 16.9235C17.5902 17.9788 16.1329 18.746 14.2128 19.0091L18.4062 14.8157C18.7967 14.4252 18.7967 13.7921 18.4062 13.4015C18.0156 13.011 17.3825 13.011 16.992 13.4015L14.7225 15.671L15.6672 11.4718C15.7884 10.933 15.4499 10.3979 14.9111 10.2767C14.3723 10.1555 13.8372 10.494 13.716 11.0328L12.699 15.5532L11.682 11.0328C11.5607 10.494 11.0257 10.1555 10.4868 10.2767C9.94803 10.3979 9.6095 10.933 9.73073 11.4718L10.6755 15.671L8.40599 13.4015C8.01546 13.011 7.3823 13.011 6.99177 13.4015C6.60125 13.7921 6.60125 14.4252 6.99177 14.8157L11.1852 19.0091C9.26507 18.746 7.80772 17.9788 6.78076 16.9235C5.49078 15.598 4.69897 13.6315 4.69897 11.1086C4.69897 10.365 5.10384 9.71346 5.71474 9.36678C6.26712 9.05331 6.63778 8.4961 6.71341 7.86549C6.83201 6.87646 7.6773 6.10864 8.69897 6.10864C8.90579 6.10864 9.10177 6.13938 9.28454 6.19517C9.99206 6.41115 10.761 6.21895 11.2837 5.69548C11.6479 5.33074 12.1456 5.10864 12.699 5.10864C13.2523 5.10864 13.75 5.33074 14.1142 5.69549ZM12.699 3.10864C13.8046 3.10864 14.8055 3.55722 15.5295 4.28232C15.8994 4.16939 16.2921 4.10864 16.699 4.10864C18.7452 4.10864 20.4326 5.64514 20.6703 7.62735C21.8817 8.3148 22.699 9.61628 22.699 11.1086C22.699 14.7538 21.2719 17.7158 18.699 19.445V21.3367C18.699 22.6323 17.486 23.586 16.227 23.2802L12.935 22.4807C12.7799 22.4431 12.6181 22.4431 12.463 22.4807L9.17097 23.2802C7.91198 23.586 6.69897 22.6323 6.69897 21.3367V19.445C4.12605 17.7158 2.69897 14.7538 2.69897 11.1086C2.69897 9.61628 3.51624 8.3148 4.72763 7.62735C4.96534 5.64515 6.65272 4.10864 8.69897 4.10864C9.10585 4.10864 9.49853 4.16939 9.86845 4.28231C10.5925 3.55722 11.5933 3.10864 12.699 3.10864ZM8.69897 20.4527V21.3367L10.4362 20.9148C9.82456 20.8051 9.24497 20.6501 8.69897 20.4527ZM14.9618 20.9148L16.699 21.3367V20.4527C16.153 20.6501 15.5734 20.8051 14.9618 20.9148Z" fill="#1C1C31"/>
</svg>
