<svg width="25" height="24" viewBox="0 0 25 24" fill="none" xmlns="http://www.w3.org/2000/svg">
    <path d="M14.343 9.655C14.4284 9.75631 14.5331 9.83965 14.6509 9.90016C14.7688 9.96067 14.8975 9.99716 15.0296 10.0075C15.1617 10.0178 15.2945 10.0018 15.4204 9.96038C15.5462 9.91895 15.6626 9.85291 15.7627 9.76612C15.8628 9.67932 15.9447 9.5735 16.0035 9.4548C16.0624 9.33609 16.0971 9.20688 16.1056 9.07465C16.1141 8.94243 16.0962 8.80984 16.053 8.68458C16.0098 8.55932 15.9422 8.44389 15.854 8.345L14.344 9.655H14.343ZM10.657 14.345C10.4807 14.154 10.237 14.0392 9.97756 14.0248C9.71808 14.0104 9.46319 14.0976 9.26689 14.2679C9.07058 14.4382 8.94829 14.6783 8.92591 14.9372C8.90353 15.1961 8.98283 15.4535 9.147 15.655L10.657 14.345ZM13.5 7C13.5 6.73478 13.3946 6.48043 13.2071 6.29289C13.0196 6.10536 12.7652 6 12.5 6C12.2348 6 11.9804 6.10536 11.7929 6.29289C11.6054 6.48043 11.5 6.73478 11.5 7H13.5ZM11.5 17C11.5 17.2652 11.6054 17.5196 11.7929 17.7071C11.9804 17.8946 12.2348 18 12.5 18C12.7652 18 13.0196 17.8946 13.2071 17.7071C13.3946 17.5196 13.5 17.2652 13.5 17H11.5ZM20.5 12C20.5 14.1217 19.6571 16.1566 18.1569 17.6569C16.6566 19.1571 14.6217 20 12.5 20V22C18.023 22 22.5 17.523 22.5 12H20.5ZM12.5 20C10.3783 20 8.34344 19.1571 6.84315 17.6569C5.34285 16.1566 4.5 14.1217 4.5 12H2.5C2.5 17.523 6.977 22 12.5 22V20ZM4.5 12C4.5 9.87827 5.34285 7.84344 6.84315 6.34315C8.34344 4.84285 10.3783 4 12.5 4V2C6.977 2 2.5 6.477 2.5 12H4.5ZM12.5 4C14.6217 4 16.6566 4.84285 18.1569 6.34315C19.6571 7.84344 20.5 9.87827 20.5 12H22.5C22.5 6.477 18.023 2 12.5 2V4ZM12.5 11C11.841 11 11.29 10.82 10.933 10.582C10.57 10.34 10.5 10.114 10.5 10H8.5C8.5 10.99 9.102 11.765 9.824 12.246C10.553 12.732 11.502 13 12.5 13V11ZM10.5 10C10.5 9.886 10.57 9.66 10.933 9.418C11.29 9.18 11.842 9 12.5 9V7C11.502 7 10.553 7.268 9.824 7.754C9.102 8.234 8.5 9.009 8.5 10H10.5ZM12.5 9C13.404 9 14.063 9.332 14.343 9.655L15.854 8.345C15.097 7.472 13.817 7 12.5 7V9ZM12.5 13C13.159 13 13.71 13.18 14.067 13.418C14.431 13.661 14.5 13.886 14.5 14H16.5C16.5 13.01 15.898 12.235 15.176 11.754C14.447 11.268 13.498 11 12.5 11V13ZM11.5 7V8H13.5V7H11.5ZM11.5 16V17H13.5V16H11.5ZM12.5 15C11.596 15 10.937 14.668 10.657 14.345L9.147 15.655C9.902 16.528 11.182 17 12.5 17V15ZM14.5 14C14.5 14.114 14.43 14.34 14.067 14.582C13.71 14.82 13.159 15 12.5 15V17C13.498 17 14.447 16.732 15.176 16.246C15.898 15.766 16.5 14.991 16.5 14H14.5ZM11.5 8V16H13.5V8H11.5Z" fill="black"/>
</svg>
