<svg width="25" height="25" viewBox="0 0 25 25" fill="none" xmlns="http://www.w3.org/2000/svg">
    <path fill-rule="evenodd" clip-rule="evenodd" d="M4.72384 10.5814C5.93784 7.2265 8.93591 4.5448 12.2501 4.5448C15.5643 4.5448 18.5623 7.22651 19.7763 10.5814C19.8517 10.7896 19.8103 10.9728 19.6816 11.1301C19.5415 11.3012 19.2926 11.4375 18.9852 11.4375H5.51498C5.20759 11.4375 4.95866 11.3012 4.81861 11.1301C4.6899 10.9728 4.64849 10.7896 4.72384 10.5814ZM12.2501 2.5448C7.84405 2.5448 4.2483 6.01782 2.84319 9.90081C2.14108 11.8411 3.79516 13.4375 5.51498 13.4375H8.74267C8.70703 13.5385 8.67651 13.6422 8.65146 13.7483L7.85766 17.1112C7.21572 19.8308 9.27879 22.4375 12.0731 22.4375C14.8673 22.4375 16.9304 19.8308 16.2885 17.1112L15.4947 13.7483C15.4696 13.6422 15.4391 13.5385 15.4034 13.4375H18.9852C20.705 13.4375 22.3591 11.8411 21.657 9.90081C20.2519 6.01783 16.6561 2.5448 12.2501 2.5448ZM10.598 14.2078C10.7045 13.7564 11.1074 13.4375 11.5712 13.4375H12.5749C13.0387 13.4375 13.4416 13.7564 13.5482 14.2078L14.342 17.5707C14.6875 19.0345 13.577 20.4375 12.0731 20.4375C10.5691 20.4375 9.45865 19.0345 9.80416 17.5707L10.598 14.2078Z" fill="#1C1C31"/>
</svg>
