<svg width="25" height="25" viewBox="0 0 25 25" fill="none" xmlns="http://www.w3.org/2000/svg">
    <path fill-rule="evenodd" clip-rule="evenodd" d="M14.2065 5.41675C13.6543 5.41675 13.2065 4.96903 13.2065 4.41675C13.2065 3.86446 13.6543 3.41675 14.2065 3.41675H20.2065C20.7588 3.41675 21.2065 3.86446 21.2065 4.41675V10.4167C21.2065 10.969 20.7588 11.4167 20.2065 11.4167C19.6543 11.4167 19.2065 10.969 19.2065 10.4167V6.83096L10.9136 15.1239C10.5231 15.5144 9.88996 15.5144 9.49944 15.1239C9.10891 14.7333 9.10891 14.1002 9.49944 13.7096L17.7923 5.41675H14.2065ZM4.08522 6.29543C4.64783 5.73282 5.41089 5.41675 6.20654 5.41675H10.2065C10.7588 5.41675 11.2065 5.86446 11.2065 6.41675C11.2065 6.96903 10.7588 7.41675 10.2065 7.41675H6.20654C5.94133 7.41675 5.68697 7.52211 5.49944 7.70964C5.3119 7.89718 5.20654 8.15153 5.20654 8.41675V18.4167C5.20654 18.682 5.3119 18.9363 5.49944 19.1239C5.68697 19.3114 5.94133 19.4167 6.20654 19.4167H16.2065C16.4718 19.4167 16.7261 19.3114 16.9136 19.1239C17.1012 18.9363 17.2065 18.682 17.2065 18.4167V14.4167C17.2065 13.8645 17.6543 13.4167 18.2065 13.4167C18.7588 13.4167 19.2065 13.8645 19.2065 14.4167V18.4167C19.2065 19.2124 18.8905 19.9755 18.3279 20.5381C17.7653 21.1007 17.0022 21.4167 16.2065 21.4167H6.20654C5.41089 21.4167 4.64783 21.1007 4.08522 20.5381C3.52261 19.9755 3.20654 19.2124 3.20654 18.4167V8.41675C3.20654 7.6211 3.52261 6.85804 4.08522 6.29543Z" fill="#1C1C31"/>
</svg>
