<svg width="24" height="24" viewBox="0 0 24 24" fill="none" xmlns="http://www.w3.org/2000/svg">
<path fill-rule="evenodd" clip-rule="evenodd" d="M3.74617 3.12883C3.35565 2.73831 2.72248 2.73831 2.33196 3.12883C1.94143 3.51935 1.94143 4.15252 2.33196 4.54304L3.30992 5.52101C2.51908 6.06122 2 6.96999 2 8V18C2 19.6569 3.34315 21 5 21H18.7889L19.5038 21.7149C19.8944 22.1054 20.5275 22.1054 20.918 21.7149C21.3086 21.3244 21.3086 20.6912 20.918 20.3007L3.74617 3.12883ZM16.7889 19L14.878 17.0891C14.0642 17.663 13.0715 18 12 18C9.23858 18 7 15.7614 7 13C7 11.9285 7.33703 10.9358 7.91087 10.122L4.80744 7.01852C4.34729 7.10828 4 7.51359 4 8V18C4 18.5523 4.44772 19 5 19H16.7889ZM9.36098 11.5721C9.13075 11.9967 9 12.4831 9 13C9 14.6569 10.3431 16 12 16C12.5169 16 13.0033 15.8693 13.4279 15.639L9.36098 11.5721ZM11.4447 8.03049L16.9695 13.5553C16.9897 13.373 17 13.1877 17 13C17 10.2386 14.7614 8 12 8C11.8123 8 11.627 8.01034 11.4447 8.03049ZM20 8V16.5858L21.9519 18.5377C21.9835 18.3633 22 18.1836 22 18V8C22 6.34315 20.6569 5 19 5H16.618L16.4472 4.65836C15.939 3.64201 14.9002 3 13.7639 3H10.2361C9.22767 3 8.29607 3.5056 7.74396 4.32974L9.21676 5.80255L9.34164 5.55279C9.51103 5.214 9.8573 5 10.2361 5H13.7639C14.1427 5 14.489 5.214 14.6584 5.55279L15.1056 6.44721C15.275 6.786 15.6212 7 16 7H19C19.5523 7 20 7.44772 20 8Z" fill="#1C1C31"/>
</svg>
