<svg width="49" height="48" viewBox="0 0 49 48" fill="none" xmlns="http://www.w3.org/2000/svg">
    <path fill-rule="evenodd" clip-rule="evenodd" d="M42.6377 31.3473C43.6026 29.0179 44.0992 26.5212 44.0992 23.9998C44.0992 18.9076 42.0764 14.0241 38.4757 10.4234C34.875 6.82266 29.9914 4.7998 24.8992 4.7998C19.8071 4.7998 14.9235 6.82266 11.3228 10.4234C7.72207 14.0241 5.69922 18.9076 5.69922 23.9998C5.69922 26.5212 6.19584 29.0179 7.16073 31.3473C8.12562 33.6768 9.53988 35.7934 11.3228 37.5763C13.1057 39.3591 15.2222 40.7734 17.5517 41.7383C19.8811 42.7032 22.3778 43.1998 24.8992 43.1998C27.4206 43.1998 29.9173 42.7032 32.2467 41.7383C34.5762 40.7734 36.6928 39.3591 38.4757 37.5763C40.2586 35.7934 41.6728 33.6768 42.6377 31.3473ZM22.3136 18.5858C21.5326 17.8047 20.2662 17.8047 19.4852 18.5858C18.7042 19.3668 18.7042 20.6332 19.4852 21.4142L22.071 24L19.4852 26.5858C18.7042 27.3668 18.7042 28.6332 19.4852 29.4142C20.2662 30.1953 21.5326 30.1953 22.3136 29.4142L24.8994 26.8284L27.4852 29.4142C28.2662 30.1953 29.5326 30.1953 30.3136 29.4142C31.0947 28.6332 31.0947 27.3668 30.3136 26.5858L27.7278 24L30.3136 21.4142C31.0947 20.6332 31.0947 19.3668 30.3136 18.5858C29.5326 17.8047 28.2663 17.8047 27.4852 18.5858L24.8994 21.1716L22.3136 18.5858Z" fill="#1C1C31"/>
</svg>
