<svg width="25" height="25" viewBox="0 0 25 25" fill="none" xmlns="http://www.w3.org/2000/svg">
    <path fill-rule="evenodd" clip-rule="evenodd" d="M11.4315 2.7712C11.8115 2.43027 12.3872 2.43027 12.7672 2.7712C14.9268 4.70893 17.7669 5.71078 20.6643 5.55691C21.1395 5.53168 21.5666 5.84472 21.6856 6.30541C21.9554 7.35 22.0994 8.44401 22.0994 9.5715C22.0994 15.6308 17.9557 20.719 12.3486 22.1619C12.1851 22.204 12.0136 22.204 11.8501 22.1619C6.24295 20.719 2.09937 15.6298 2.09937 9.5715H3.09937L2.09937 9.57232C2.09937 9.57204 2.09937 9.57177 2.09937 9.5715C2.09854 8.46968 2.23758 7.37221 2.51315 6.3054C2.63215 5.84472 3.05927 5.53168 3.5344 5.55691C6.43181 5.71078 9.27193 4.70893 11.4315 2.7712ZM4.28061 7.5713C4.15959 8.23032 4.09882 8.89955 4.09937 9.57069L4.09937 9.5715C4.09937 14.6051 7.48159 18.8522 12.0994 20.1578C16.7172 18.8522 20.0994 14.6061 20.0994 9.5715C20.0994 8.8877 20.037 8.2195 19.9181 7.57129C17.0811 7.5352 14.3334 6.5681 12.0994 4.81969C9.86533 6.56811 7.11761 7.53522 4.28061 7.5713ZM15.8065 9.8644C16.197 10.2549 16.197 10.8881 15.8065 11.2786L11.8065 15.2786C11.416 15.6691 10.7828 15.6691 10.3923 15.2786L8.39226 13.2786C8.00174 12.8881 8.00174 12.2549 8.39226 11.8644C8.78279 11.4739 9.41595 11.4739 9.80648 11.8644L11.0994 13.1573L14.3923 9.8644C14.7828 9.47387 15.416 9.47387 15.8065 9.8644Z" fill="#1C1C31"/>
</svg>
