<svg width="25" height="25" viewBox="0 0 25 25" fill="none" xmlns="http://www.w3.org/2000/svg">
    <path fill-rule="evenodd" clip-rule="evenodd" d="M12.2993 5.77075C9.93253 5.77075 7.76171 6.34041 6.25724 7.2431C5.4017 7.75642 4.88932 8.28902 4.60465 8.77075H19.994C19.7093 8.28902 19.1969 7.75642 18.3414 7.2431C16.8369 6.34041 14.6661 5.77075 12.2993 5.77075ZM22.2993 9.77075C22.2993 10.323 21.8516 10.7708 21.2993 10.7708H3.29932C2.74703 10.7708 2.29932 10.323 2.29932 9.77075C2.29932 8.18201 3.34988 6.65513 5.22825 5.52811C7.10356 4.40292 9.64708 3.77075 12.2993 3.77075C14.9516 3.77075 17.4951 4.40292 19.3704 5.52811C21.2488 6.65513 22.2993 8.18201 22.2993 9.77075ZM17.2993 13.7083C16.2385 13.7083 15.221 14.1297 14.4709 14.8798C13.7207 15.63 13.2993 16.6474 13.2993 17.7083C13.2993 18.2335 13.4028 18.7537 13.6038 19.239C13.8048 19.7243 14.0995 20.1652 14.4709 20.5367C14.8423 20.9081 15.2833 21.2028 15.7686 21.4038C16.2539 21.6048 16.774 21.7083 17.2993 21.7083C17.8246 21.7083 18.3447 21.6048 18.8301 21.4038C19.3154 21.2028 19.7563 20.9081 20.1277 20.5367C20.4992 20.1652 20.7938 19.7243 20.9948 19.239C21.1959 18.7537 21.2993 18.2335 21.2993 17.7083C21.2993 16.6474 20.8779 15.63 20.1277 14.8798C19.3776 14.1297 18.3602 13.7083 17.2993 13.7083ZM11.7447 13.9387C12.0314 13.7476 12.3921 13.7196 12.7004 13.8546C12.0003 14.6901 11.5425 15.699 11.373 16.7708H4.29932C3.19475 16.7708 2.29932 17.6662 2.29932 18.7708V19.7708C2.29932 21.4276 3.64246 22.7708 5.29932 22.7708H14.0789C14.3718 22.9571 14.681 23.1181 15.0032 23.2515C15.7312 23.5531 16.5114 23.7083 17.2993 23.7083C18.0872 23.7083 18.8675 23.5531 19.5954 23.2515C20.3234 22.95 20.9848 22.508 21.542 21.9509C22.0991 21.3937 22.5411 20.7323 22.8426 20.0044C23.1441 19.2764 23.2993 18.4962 23.2993 17.7083C23.2993 16.117 22.6672 14.5908 21.542 13.4656C20.4167 12.3404 18.8906 11.7083 17.2993 11.7083C16.2413 11.7083 15.212 11.9877 14.3103 12.5058L13.9635 12.2746C12.9558 11.6028 11.643 11.6028 10.6353 12.2746L9.85412 12.7954C9.51822 13.0193 9.08062 13.0193 8.74472 12.7954L7.96352 12.2746C6.95582 11.6028 5.64302 11.6028 4.63532 12.2746L2.74472 13.535C2.28519 13.8414 2.16102 14.4622 2.46737 14.9218C2.77372 15.3813 3.39459 15.5055 3.85412 15.1991L5.74472 13.9387C6.08062 13.7148 6.51822 13.7148 6.85412 13.9387L7.63532 14.4595C8.64302 15.1313 9.95583 15.1313 10.9635 14.4595L11.7447 13.9387ZM12.1398 20.7708C11.9941 20.5253 11.8658 20.2692 11.756 20.0044C11.5912 19.6063 11.4701 19.1927 11.3941 18.7708H4.29932V19.7708C4.29932 20.323 4.74703 20.7708 5.29932 20.7708H12.1398ZM16.7061 15.1715C16.4752 15.2034 16.2677 15.2616 16.0835 15.346C15.7907 15.4785 15.5688 15.6573 15.4177 15.8823C15.2667 16.1072 15.1912 16.3461 15.1912 16.5988C15.1912 16.8824 15.2729 17.1212 15.4362 17.3154C15.5996 17.5096 15.8169 17.6667 16.0881 17.7869C16.2095 17.8388 16.3465 17.8897 16.4993 17.9397V19.1953C16.3746 19.0908 16.2637 18.9542 16.1667 18.7855C16.102 18.6684 16.0341 18.5775 15.9633 18.5128C15.8924 18.448 15.7907 18.4157 15.6581 18.4157C15.5071 18.4157 15.3823 18.465 15.2837 18.5636C15.1851 18.6622 15.1357 18.7809 15.1357 18.9196C15.1357 19.1292 15.2128 19.3387 15.3669 19.5483C15.521 19.7548 15.7599 19.9274 16.0835 20.0661C16.2672 20.1449 16.4719 20.2013 16.6974 20.2353C16.8441 20.4026 17.0594 20.5083 17.2993 20.5083C17.5435 20.5083 17.7622 20.3988 17.909 20.2263C18.1089 20.1947 18.291 20.1475 18.4551 20.0846C18.7879 19.9551 19.0391 19.7671 19.2086 19.5206C19.3781 19.2709 19.4629 18.972 19.4629 18.6237C19.4629 18.3926 19.3982 18.1876 19.2687 18.0089C19.1424 17.827 18.9544 17.6698 18.7047 17.5373C18.5366 17.4469 18.3348 17.3652 18.0993 17.292V16.4557C18.1827 16.5538 18.2581 16.6308 18.3256 16.6867C18.4181 16.7606 18.529 16.7976 18.6585 16.7976C18.8372 16.7976 18.9744 16.7514 19.0699 16.6589C19.1686 16.5665 19.2179 16.4478 19.2179 16.303C19.2179 16.1704 19.1716 16.0348 19.0792 15.8961C18.9898 15.7574 18.8573 15.6311 18.6816 15.517C18.509 15.403 18.2917 15.3121 18.0298 15.2443C17.9983 15.236 17.9664 15.2283 17.9339 15.2211C17.7877 15.0309 17.5578 14.9083 17.2993 14.9083C17.064 14.9083 16.8524 15.0098 16.7061 15.1715ZM18.0993 18.513V19.197C18.1885 19.1068 18.2332 19.0082 18.2332 18.9011C18.2332 18.7401 18.1885 18.6107 18.0993 18.513ZM16.4993 16.7646V16.1569C16.4039 16.2408 16.3562 16.3404 16.3562 16.4555C16.3562 16.5784 16.4039 16.6814 16.4993 16.7646Z" fill="#1C1C31"/>
</svg>
