<svg width="24" height="25" viewBox="0 0 24 25" fill="none" xmlns="http://www.w3.org/2000/svg">
<path fill-rule="evenodd" clip-rule="evenodd" d="M12 4.5C10.8954 4.5 10 5.39543 10 6.5H14C14 5.39543 13.1046 4.5 12 4.5ZM8 9.5V8.5H6V20.5H18V8.5H16V9.5C16 10.0523 15.5523 10.5 15 10.5C14.4477 10.5 14 10.0523 14 9.5V8.5H10V9.5C10 10.0523 9.55228 10.5 9 10.5C8.44772 10.5 8 10.0523 8 9.5ZM12 2.5C9.79086 2.5 8 4.29086 8 6.5H6C4.89543 6.5 4 7.39543 4 8.5V20.5C4 21.6046 4.89543 22.5 6 22.5H18C19.1046 22.5 20 21.6046 20 20.5V8.5C20 7.39543 19.1046 6.5 18 6.5H16C16 4.29086 14.2091 2.5 12 2.5ZM15.7071 14.2071C16.0976 13.8166 16.0976 13.1834 15.7071 12.7929C15.3166 12.4024 14.6834 12.4024 14.2929 12.7929L11 16.0858L9.70711 14.7929C9.31658 14.4024 8.68342 14.4024 8.29289 14.7929C7.90237 15.1834 7.90237 15.8166 8.29289 16.2071L10.2929 18.2071C10.6834 18.5976 11.3166 18.5976 11.7071 18.2071L15.7071 14.2071Z" fill="#1C1C31"/>
</svg>
