<svg width="24" height="24" viewBox="0 0 24 24" fill="none" xmlns="http://www.w3.org/2000/svg">
<path fill-rule="evenodd" clip-rule="evenodd" d="M21 11C21.5523 11 22 11.4477 22 12C22 13.9778 21.4135 15.9112 20.3147 17.5557C19.2159 19.2002 17.6541 20.4819 15.8268 21.2388C13.9996 21.9957 11.9889 22.1937 10.0491 21.8078C8.10929 21.422 6.32746 20.4696 4.92893 19.0711C3.53041 17.6725 2.578 15.8907 2.19215 13.9509C1.8063 12.0111 2.00433 10.0004 2.76121 8.17316C3.51809 6.3459 4.79982 4.78411 6.44431 3.6853C8.0888 2.58649 10.0222 2 12 2C12.5523 2 13 2.44772 13 3C13 3.55229 12.5523 4 12 4C10.4178 4 8.87104 4.46919 7.55545 5.34824C6.23985 6.22729 5.21447 7.47672 4.60897 8.93853C4.00347 10.4003 3.84504 12.0089 4.15372 13.5607C4.4624 15.1126 5.22433 16.538 6.34315 17.6568C7.46197 18.7757 8.88743 19.5376 10.4393 19.8463C11.9911 20.155 13.5997 19.9965 15.0615 19.391C16.5233 18.7855 17.7727 17.7602 18.6518 16.4446C19.5308 15.129 20 13.5822 20 12C20 11.4477 20.4477 11 21 11ZM13.843 9.655C13.9284 9.75631 14.0331 9.83965 14.1509 9.90016C14.2688 9.96067 14.3975 9.99716 14.5296 10.0075C14.6617 10.0178 14.7945 10.0018 14.9204 9.96038C15.0462 9.91895 15.1626 9.85291 15.2627 9.76612C15.3628 9.67932 15.4447 9.5735 15.5035 9.4548C15.5624 9.33609 15.5971 9.20688 15.6056 9.07465C15.6141 8.94243 15.5962 8.80984 15.553 8.68458C15.5098 8.55932 15.4422 8.44389 15.354 8.345C14.7916 7.6964 13.9405 7.26915 13 7.09235V7C13 6.73478 12.8946 6.48043 12.7071 6.29289C12.5196 6.10536 12.2652 6 12 6C11.7348 6 11.4804 6.10536 11.2929 6.29289C11.1054 6.48043 11 6.73478 11 7V7.09206C10.3786 7.20883 9.80366 7.43423 9.324 7.754C8.602 8.234 8 9.009 8 10C8 10.99 8.602 11.765 9.324 12.246C9.80366 12.5658 10.3786 12.7912 11 12.9079V14.8494C10.609 14.7225 10.3193 14.5323 10.157 14.345C9.98073 14.154 9.73704 14.0392 9.47756 14.0248C9.21808 14.0104 8.96319 14.0976 8.76689 14.2679C8.57058 14.4382 8.44829 14.6783 8.42591 14.9372C8.40354 15.1961 8.48283 15.4535 8.647 15.655C9.20804 16.3037 10.059 16.731 11 16.9078V17C11 17.2652 11.1054 17.5196 11.2929 17.7071C11.4804 17.8946 11.7348 18 12 18C12.2652 18 12.5196 17.8946 12.7071 17.7071C12.8946 17.5196 13 17.2652 13 17V16.9079C13.6214 16.7912 14.1963 16.5658 14.676 16.246C15.398 15.766 16 14.991 16 14C16 13.01 15.398 12.235 14.676 11.754C14.1963 11.4342 13.6214 11.2088 13 11.0921V9.15061C13.391 9.27747 13.6807 9.46775 13.843 9.655ZM10.433 9.418C10.5878 9.31482 10.7792 9.22254 11 9.15111V10.849C10.7792 10.7775 10.5878 10.6852 10.433 10.582C10.07 10.34 10 10.114 10 10C10 9.886 10.07 9.66 10.433 9.418ZM13 14.849V13.151C13.2208 13.2225 13.4122 13.3148 13.567 13.418C13.931 13.661 14 13.886 14 14C14 14.114 13.93 14.34 13.567 14.582C13.4122 14.6852 13.2208 14.7775 13 14.849ZM16.8957 3.5739C16.5052 3.18337 15.872 3.18337 15.4815 3.5739C15.091 3.96442 15.091 4.59759 15.4815 4.98811L17.2493 6.75588C17.6398 7.1464 18.273 7.1464 18.6635 6.75588L21.7114 3.70801C22.1019 3.31748 22.1019 2.68432 21.7114 2.29379C21.3209 1.90327 20.6877 1.90327 20.2972 2.29379L17.9564 4.63456L16.8957 3.5739Z" fill="#1C1C31"/>
</svg>
