<svg width="25" height="25" viewBox="0 0 25 25" fill="none" xmlns="http://www.w3.org/2000/svg">
    <path fill-rule="evenodd" clip-rule="evenodd" d="M20.5457 7.5H21.1459C21.2116 7.5 21.2649 7.55325 21.2649 7.61894V8.22678C21.2649 8.29247 21.2116 8.34572 21.1459 8.34572H20.5457C20.48 8.34572 20.4268 8.29247 20.4268 8.22678V7.61894C20.4268 7.55325 20.48 7.5 20.5457 7.5ZM22.325 8.3457H21.4406C21.344 8.3457 21.2656 8.42403 21.2656 8.52066V9.41617C21.2656 9.51279 21.344 9.59112 21.4406 9.59112H22.325C22.4216 9.59112 22.5 9.51279 22.5 9.41617V8.52066C22.5 8.42403 22.4216 8.3457 22.325 8.3457ZM19.8383 11.2667C19.7083 11.2667 19.6032 11.1616 19.6032 11.0316V9.99227H19.5167C18.9787 9.99227 18.7789 10.0808 18.7789 10.5711V11.7176V11.7252V11.9762C18.7789 11.9823 18.7786 11.9877 18.7784 11.9933L18.7782 12.0018V13.6034C18.7782 13.7991 18.7402 13.9546 18.6627 14.0757C18.5161 14.3018 18.2257 14.4041 17.761 14.4048C17.2963 14.4048 17.0065 14.3018 16.8599 14.0757C16.7818 13.9546 16.7444 13.7991 16.7444 13.6027V12.0011V12.001C16.7444 11.9921 16.7444 11.9838 16.7437 11.9755V11.7245V11.7169V10.5704C16.7437 10.0808 16.5439 9.99158 16.0059 9.99158H15.8365C15.2985 9.99158 15.0986 10.0801 15.0986 10.5704V13.6034C15.0986 14.0909 15.2086 14.5044 15.4216 14.837C15.8323 15.4822 16.6276 15.8259 17.7582 15.8259H17.7665C18.8971 15.8259 19.6924 15.4822 20.1031 14.837C20.3154 14.5044 20.4261 14.0909 20.4261 13.6034V11.2667H19.8403H19.8383ZM4.78062 9.99011H3.4944C2.80703 9.99011 2.5 10.2965 2.5 10.9845V15.4012C2.5 15.6668 2.58506 15.7518 2.8506 15.7518H2.93773C3.20327 15.7518 3.28833 15.6668 3.28833 15.4012V13.6828H4.78062C6.10556 13.6828 6.72239 13.0964 6.72239 11.8365C6.72239 10.5765 6.10556 9.99011 4.78062 9.99011ZM5.93476 11.8365C5.93476 12.5563 5.75081 12.9463 4.78131 12.9463H3.28902V11.0889C3.28902 10.8317 3.38445 10.7356 3.64238 10.7356H4.78131C5.51155 10.7356 5.93476 10.9161 5.93476 11.8365ZM7.42987 11.3455C7.5508 11.3206 7.8706 11.257 8.37962 11.257C9.64442 11.2572 10.2595 11.7219 10.2595 12.6773V14.3985C10.2595 15.3867 9.68213 15.8272 8.38761 15.8272C7.29848 15.8272 6.69824 15.3708 6.69824 14.4677C6.69824 13.5645 7.27981 13.1434 8.5273 13.1434H9.49819V12.6773C9.49819 12.1545 9.18424 11.9416 8.41458 11.9416C7.98654 11.9416 7.59445 12.0052 7.47205 12.0356C7.42018 12.0487 7.37662 12.055 7.33928 12.055C7.26252 12.055 7.20512 12.028 7.16986 11.9734C7.13943 11.927 7.1256 11.8607 7.1256 11.7652V11.6954C7.1256 11.4513 7.2155 11.3918 7.42987 11.3455ZM9.49888 14.3729V13.7672H8.53698C7.76387 13.7672 7.46237 13.9635 7.46237 14.4684C7.46237 14.9289 7.76248 15.1523 8.3807 15.1523C9.31563 15.1523 9.49888 14.8667 9.49888 14.3729ZM14.529 11.4623C14.4744 11.3932 14.37 11.3835 14.2662 11.3835H14.1881C13.9288 11.3835 13.8264 11.4637 13.769 11.7127L13.0478 14.7118C12.9579 15.0803 12.8314 15.1474 12.6149 15.1474C12.3501 15.1474 12.2436 15.0838 12.1378 14.7097L11.3204 11.7106C11.2526 11.4596 11.153 11.3828 10.893 11.3828H10.8232C10.7181 11.3828 10.6137 11.3925 10.5604 11.4623C10.5065 11.5322 10.5252 11.6366 10.5528 11.7396L11.3785 14.765C11.5334 15.3438 11.7173 15.823 12.4054 15.823C12.534 15.823 12.6529 15.8051 12.7511 15.7719C12.5423 16.4281 12.33 16.7179 11.7042 16.7822C11.5769 16.7925 11.4947 16.8112 11.4483 16.8728C11.4006 16.9371 11.4117 17.0283 11.4283 17.1099L11.4456 17.1874C11.4829 17.3665 11.5465 17.4778 11.7478 17.4778C11.7692 17.4778 11.7913 17.4764 11.8162 17.4744C12.7511 17.4135 13.2518 16.9101 13.545 15.7373L14.5449 11.7376C14.5684 11.6352 14.583 11.5301 14.5283 11.4616L14.529 11.4623ZM19.8381 9.59041H21.0296V9.58972C21.1589 9.58972 21.264 9.69483 21.264 9.82484V11.0308C21.264 11.1608 21.1589 11.266 21.0289 11.266H20.4232V10.5696C20.4232 10.0793 20.2233 9.9908 19.6853 9.9908H19.603V9.82484C19.603 9.69552 19.7081 9.59041 19.8381 9.59041Z" fill="#1C1C31"/>
</svg>
