<svg width="24" height="24" viewBox="0 0 24 24" fill="none" xmlns="http://www.w3.org/2000/svg">
<path fill-rule="evenodd" clip-rule="evenodd" d="M19 2H5C3.34315 2 2 3.34315 2 5V19C2 20.6569 3.34315 22 5 22H19C20.6569 22 22 20.6569 22 19V5C22 3.34315 20.6569 2 19 2ZM4 5C4 4.44772 4.44772 4 5 4H19C19.5523 4 20 4.44772 20 5V19C20 19.5523 19.5523 20 19 20H5C4.44772 20 4 19.5523 4 19V5ZM9.5 11.5C9.5 12.3 8.8 13 8 13H7V14.9C7 14.9552 6.95523 15 6.9 15H5.6C5.54477 15 5.5 14.9552 5.5 14.9V9.1C5.5 9.04477 5.54477 9 5.6 9H8C8.8 9 9.5 9.7 9.5 10.5V11.5ZM14.5 13.5C14.5 14.3 13.8 15 13 15H10.6C10.5448 15 10.5 14.9552 10.5 14.9V9.1C10.5 9.04477 10.5448 9 10.6 9H13C13.8 9 14.5 9.7 14.5 10.5V13.5ZM17.1 10.5C17.0448 10.5 17 10.5448 17 10.6V11.4C17 11.4552 17.0448 11.5 17.1 11.5H18.4C18.4552 11.5 18.5 11.5448 18.5 11.6V12.9C18.5 12.9552 18.4552 13 18.4 13H17.1C17.0448 13 17 13.0448 17 13.1V14.9C17 14.9552 16.9552 15 16.9 15H15.6C15.5448 15 15.5 14.9552 15.5 14.9V9.1C15.5 9.04477 15.5448 9 15.6 9H18.4C18.4552 9 18.5 9.04477 18.5 9.1V10.4C18.5 10.4552 18.4552 10.5 18.4 10.5H17.1ZM12.9 10.5C12.9552 10.5 13 10.5448 13 10.6V13.4C13 13.4552 12.9552 13.5 12.9 13.5H12.1C12.0448 13.5 12 13.4552 12 13.4V10.6C12 10.5448 12.0448 10.5 12.1 10.5H12.9ZM7.9 10.5C7.95523 10.5 8 10.5448 8 10.6V11.4C8 11.4552 7.95523 11.5 7.9 11.5H7.1C7.04477 11.5 7 11.4552 7 11.4V10.6C7 10.5448 7.04477 10.5 7.1 10.5H7.9Z" fill="#1C1C31"/>
</svg>
