<svg width="25" height="24" viewBox="0 0 25 24" fill="none" xmlns="http://www.w3.org/2000/svg">
    <path fill-rule="evenodd" clip-rule="evenodd" d="M7.45634 3.36464C9.36798 2.24836 11.596 1.79787 13.7911 2.08377C15.9863 2.36968 18.0245 3.37581 19.5865 4.9445C21.1484 6.51319 22.1458 8.55577 22.4222 10.7521C22.4912 11.3001 22.1029 11.8002 21.5549 11.8692C21.0069 11.9382 20.5068 11.5499 20.4378 11.0019C20.2167 9.24475 19.4188 7.61065 18.1692 6.35566C16.9196 5.10068 15.289 4.29575 13.5328 4.06702C11.7766 3.8383 9.99421 4.1987 8.46486 5.09175C7.38561 5.72197 6.47543 6.59231 5.79987 7.62704H6.90625C7.45853 7.62704 7.90625 8.07476 7.90625 8.62704C7.90625 9.17933 7.45853 9.62704 6.90625 9.62704H3.5C2.94772 9.62704 2.5 9.17933 2.5 8.62704V5.03125C2.5 4.47897 2.94772 4.03125 3.5 4.03125C4.05228 4.03125 4.5 4.47897 4.5 5.03125V5.99862C5.29495 4.93921 6.29769 4.04122 7.45634 3.36464ZM3.44416 12.1349C3.99207 12.0655 4.49247 12.4535 4.56183 13.0014C4.78419 14.7579 5.58273 16.3911 6.83244 17.6453C8.08214 18.8995 9.71246 19.7038 11.4682 19.9325C13.2238 20.1611 15.0058 19.8012 16.5351 18.9089C17.6137 18.2795 18.5237 17.4104 19.1996 16.377H18.0312C17.479 16.377 17.0312 15.9292 17.0312 15.377C17.0312 14.8247 17.479 14.377 18.0312 14.377H21.4998C22.052 14.377 22.4998 14.8247 22.4998 15.377V19.0313C22.4998 19.5835 22.052 20.0313 21.4998 20.0313C20.9475 20.0313 20.4998 19.5835 20.4998 19.0313V18.0043C19.7044 19.063 18.7016 19.9603 17.543 20.6363C15.6316 21.7516 13.4043 22.2015 11.2099 21.9157C9.01543 21.63 6.9777 20.6246 5.41569 19.0569C3.85369 17.4893 2.8556 15.448 2.57767 13.2526C2.5083 12.7047 2.89625 12.2043 3.44416 12.1349ZM12.5 7C13.0523 7 13.5 7.44772 13.5 8V8.21745C13.5381 8.22628 13.5758 8.23556 13.613 8.24531C14.0122 8.34863 14.3433 8.48718 14.6063 8.66094C14.874 8.83471 15.076 9.02726 15.2122 9.2386C15.3531 9.44994 15.4235 9.65658 15.4235 9.85853C15.4235 10.0793 15.3484 10.2601 15.1981 10.401C15.0525 10.5419 14.8435 10.6123 14.5711 10.6123C14.3739 10.6123 14.2048 10.5559 14.0639 10.4432C13.9277 10.3305 13.7704 10.1614 13.5919 9.93602C13.5623 9.89786 13.5317 9.86125 13.5 9.8262V11.301C13.9542 11.4283 14.3347 11.5745 14.6416 11.7394C15.022 11.9414 15.3084 12.1809 15.501 12.458C15.6982 12.7304 15.7969 13.0427 15.7969 13.3949C15.7969 13.9256 15.6677 14.3812 15.4094 14.7616C15.1511 15.1373 14.7684 15.4238 14.2612 15.621C14.0307 15.7093 13.7769 15.7774 13.5 15.8252V16C13.5 16.5523 13.0523 17 12.5 17C11.9477 17 11.5 16.5523 11.5 16V15.8374C11.1889 15.7847 10.9046 15.7031 10.6473 15.5928C10.1541 15.3815 9.79018 15.1185 9.55536 14.8038C9.32054 14.4845 9.20312 14.1651 9.20312 13.8458C9.20312 13.6344 9.27827 13.4536 9.42855 13.3033C9.57884 13.1531 9.76904 13.0779 9.99917 13.0779C10.2011 13.0779 10.3561 13.1272 10.4641 13.2258C10.5721 13.3245 10.6754 13.463 10.7741 13.6415C10.9713 13.9843 11.2061 14.2403 11.4785 14.4093C11.4856 14.4137 11.4928 14.4179 11.5 14.4222V12.4218C11.1774 12.3235 10.8955 12.2228 10.6543 12.1198C10.241 11.9367 9.90993 11.6972 9.66102 11.4013C9.41212 11.1054 9.28766 10.7415 9.28766 10.3094C9.28766 9.92428 9.40272 9.56031 9.63285 9.21747C9.86297 8.87463 10.2011 8.60224 10.6473 8.40029C10.9022 8.28344 11.1865 8.19962 11.5 8.14885V8C11.5 7.44772 11.9477 7 12.5 7ZM11.5 9.48715C11.4684 9.50403 11.4377 9.52215 11.4081 9.54152C11.178 9.68711 11.0629 9.87027 11.0629 10.091C11.0629 10.2929 11.1474 10.4597 11.3165 10.5912C11.3715 10.6324 11.4326 10.6714 11.5 10.7081V9.48715ZM13.5 13.0569V14.4419C13.5169 14.4314 13.5334 14.4206 13.5496 14.4093C13.7986 14.2356 13.923 14.0383 13.923 13.8176C13.923 13.4795 13.7939 13.2329 13.5356 13.0779C13.524 13.0709 13.5122 13.0639 13.5 13.0569Z" fill="#1C1C31"/>
</svg>
