<svg width="25" height="25" viewBox="0 0 25 25" fill="none" xmlns="http://www.w3.org/2000/svg">
    <path fill-rule="evenodd" clip-rule="evenodd" d="M18.35 4.56912C18.35 4.16957 18.112 3.80841 17.7449 3.65063C17.3779 3.49285 16.9521 3.56872 16.6621 3.8436L14.1264 6.24722H10.3439C8.99699 6.24722 7.68183 6.65624 6.57247 7.42012C5.46312 8.18401 4.61188 9.26675 4.13141 10.5251C4.13082 10.5266 4.13023 10.5281 4.12965 10.5297C4.05422 10.5205 3.97985 10.5016 3.90839 10.4732C3.39515 10.2693 2.81374 10.52 2.60978 11.0333C2.40582 11.5465 2.65654 12.1279 3.16978 12.3319C3.34421 12.4012 3.52401 12.453 3.70658 12.4871C3.66572 13.1483 3.72365 13.8157 3.88179 14.4668C4.16322 15.6255 4.75028 16.6844 5.57796 17.535L5.57723 19.0181C5.57723 19.6579 5.8314 20.2716 6.28383 20.724C6.73627 21.1764 7.3499 21.4306 7.98973 21.4306C8.62957 21.4306 9.2432 21.1764 9.69563 20.724C10.0198 20.3998 10.2422 19.9928 10.3423 19.5527C10.7353 19.5683 11.1558 19.572 11.5645 19.5712C11.9976 19.5705 12.4411 19.5644 12.857 19.5586L12.8795 19.5583C13.2897 19.5526 13.6704 19.5473 13.9984 19.5473C14.0978 19.9895 14.3207 20.3985 14.6463 20.724C15.0987 21.1764 15.7123 21.4306 16.3522 21.4306C16.992 21.4306 17.6056 21.1764 18.0581 20.724C18.5105 20.2716 18.7647 19.6579 18.7647 19.0181V17.535C19.2659 17.0198 19.68 16.4272 19.9913 15.7806H20.5897C21.1047 15.7806 21.5986 15.576 21.9627 15.2119C22.3268 14.8478 22.5314 14.3539 22.5314 13.8389V11.9556C22.5314 11.4406 22.3268 10.9467 21.9627 10.5826C21.5986 10.2185 21.1047 10.0139 20.5897 10.0139H20.016C19.8518 9.62032 19.664 9.25165 19.4179 8.91077C19.1279 8.50916 18.7807 8.17736 18.3508 7.87564L18.35 4.56912ZM15.2129 7.97298L16.3506 6.8946L16.351 8.42456C16.351 8.61138 16.4032 8.79077 16.4972 8.94495C16.5827 9.08527 16.703 9.20472 16.8501 9.28987C17.3448 9.5761 17.6069 9.81914 17.7964 10.0815C18.0001 10.3637 18.1645 10.7282 18.3845 11.3483C18.5261 11.7473 18.9036 12.0139 19.3269 12.0139H20.5314V13.7806H19.326C18.9023 13.7806 18.5247 14.0475 18.3833 14.4469C18.1225 15.1836 17.6805 15.8429 17.098 16.364C16.8859 16.5537 16.7647 16.8248 16.7647 17.1093V19.0181C16.7647 19.1275 16.7212 19.2324 16.6439 19.3098C16.5665 19.3872 16.4616 19.4306 16.3522 19.4306C16.2428 19.4306 16.1378 19.3872 16.0605 19.3098C15.9831 19.2324 15.9397 19.1275 15.9397 19.0181V18.4691C15.9397 18.175 15.8102 17.8958 15.5857 17.7058C15.3612 17.5158 15.0645 17.4343 14.7744 17.4829C14.6752 17.4995 14.5755 17.5129 14.4755 17.5231C14.3169 17.5393 14.1574 17.5473 13.998 17.5473C13.6557 17.5473 13.2635 17.5527 12.8599 17.5584L12.8291 17.5588C12.4116 17.5646 11.98 17.5705 11.561 17.5712C10.6962 17.5727 9.97317 17.5508 9.56745 17.4829C9.2774 17.4343 8.98066 17.5158 8.75618 17.7058C8.5317 17.8958 8.40224 18.175 8.40224 18.4691V19.0181C8.40224 19.1275 8.35878 19.2324 8.28142 19.3098C8.20406 19.3872 8.09914 19.4306 7.98973 19.4306C7.88033 19.4306 7.77541 19.3872 7.69805 19.3098C7.62069 19.2324 7.57723 19.1275 7.57723 19.0181L7.57817 17.1098C7.57831 16.825 7.457 16.5537 7.24467 16.3638C6.54254 15.7361 6.04757 14.91 5.82529 13.9947C5.603 13.0795 5.66386 12.1184 5.99983 11.2385C6.3358 10.3586 6.93103 9.60152 7.70675 9.06737C8.48246 8.53322 9.40209 8.24722 10.3439 8.24722H14.525C14.781 8.24722 15.0272 8.14907 15.2129 7.97298ZM9.60944 9.05188C9.05716 9.05188 8.60944 9.4996 8.60944 10.0519C8.60944 10.6042 9.05716 11.0519 9.60944 11.0519L12.5157 11.0519C13.068 11.0519 13.5157 10.6042 13.5157 10.0519C13.5157 9.4996 13.068 9.05188 12.5157 9.05188L9.60944 9.05188ZM16.5001 10.4893C17.0524 10.4893 17.5001 10.937 17.5001 11.4893V11.4993C17.5001 12.0515 17.0524 12.4993 16.5001 12.4993C15.9478 12.4993 15.5001 12.0515 15.5001 11.4993V11.4893C15.5001 10.937 15.9478 10.4893 16.5001 10.4893Z" fill="#1C1C31"/>
</svg>
