<svg width="25" height="25" viewBox="0 0 25 25" fill="none" xmlns="http://www.w3.org/2000/svg">
    <path fill-rule="evenodd" clip-rule="evenodd" d="M7.77834 3.71193C8.34095 3.14932 9.10401 2.83325 9.89966 2.83325H15.8997C16.6953 2.83325 17.4584 3.14932 18.021 3.71193C18.5836 4.27454 18.8997 5.0376 18.8997 5.83325V8.83325H19.8997C20.6953 8.83325 21.4584 9.14932 22.021 9.71193C22.5836 10.2745 22.8997 11.0376 22.8997 11.8333V15.8333C22.8997 16.6289 22.5836 17.392 22.021 17.9546C21.4584 18.5172 20.6953 18.8333 19.8997 18.8333H18.8997V19.8333C18.8997 20.6289 18.5836 21.392 18.021 21.9546C17.4584 22.5172 16.6953 22.8333 15.8997 22.8333H9.89966C9.10401 22.8333 8.34095 22.5172 7.77834 21.9546C7.21573 21.392 6.89966 20.6289 6.89966 19.8333V18.8333H5.89966C5.10401 18.8333 4.34095 18.5172 3.77834 17.9546C3.21573 17.392 2.89966 16.6289 2.89966 15.8333V11.8333C2.89966 11.0376 3.21573 10.2745 3.77834 9.71193C4.34095 9.14932 5.10401 8.83325 5.89966 8.83325H6.89966V5.83325C6.89966 5.0376 7.21573 4.27454 7.77834 3.71193ZM8.89966 8.83325H16.8997V5.83325C16.8997 5.56804 16.7943 5.31368 16.6068 5.12615C16.4192 4.93861 16.1649 4.83325 15.8997 4.83325H9.89966C9.63444 4.83325 9.38009 4.93861 9.19255 5.12615C9.00501 5.31368 8.89966 5.56804 8.89966 5.83325V8.83325ZM5.89966 10.8333C5.63444 10.8333 5.38009 10.9386 5.19255 11.1261C5.00501 11.3137 4.89966 11.568 4.89966 11.8333V15.8333C4.89966 16.0985 5.00501 16.3528 5.19255 16.5404C5.38009 16.7279 5.63444 16.8333 5.89966 16.8333H6.89966V15.8333C6.89966 15.0376 7.21573 14.2745 7.77834 13.7119C8.34095 13.1493 9.10401 12.8333 9.89966 12.8333H15.8997C16.6953 12.8333 17.4584 13.1493 18.021 13.7119C18.5836 14.2745 18.8997 15.0376 18.8997 15.8333V16.8333H19.8997C20.1649 16.8333 20.4192 16.7279 20.6068 16.5404C20.7943 16.3528 20.8997 16.0985 20.8997 15.8333V11.8333C20.8997 11.568 20.7943 11.3137 20.6068 11.1261C20.4192 10.9386 20.1649 10.8333 19.8997 10.8333H5.89966ZM16.8997 15.8333C16.8997 15.568 16.7943 15.3137 16.6068 15.1261C16.4192 14.9386 16.1649 14.8333 15.8997 14.8333H9.89966C9.63444 14.8333 9.38009 14.9386 9.19255 15.1261C9.00501 15.3137 8.89966 15.568 8.89966 15.8333V19.8333C8.89966 20.0985 9.00501 20.3528 9.19255 20.5404C9.38009 20.7279 9.63444 20.8333 9.89966 20.8333H15.8997C16.1649 20.8333 16.4192 20.7279 16.6068 20.5404C16.7943 20.3528 16.8997 20.0985 16.8997 19.8333V15.8333Z" fill="#1C1C31"/>
</svg>
