<svg width="25" height="25" viewBox="0 0 25 25" fill="none" xmlns="http://www.w3.org/2000/svg">
    <path fill-rule="evenodd" clip-rule="evenodd" d="M4.08579 4.08579C4.46086 3.71071 4.96957 3.5 5.5 3.5H7.5C8.03043 3.5 8.53914 3.71071 8.91421 4.08579C9.28929 4.46086 9.5 4.96957 9.5 5.5V7.5C9.5 8.03043 9.28929 8.53914 8.91421 8.91421C8.53914 9.28929 8.03043 9.5 7.5 9.5H5.5C4.96957 9.5 4.46086 9.28929 4.08579 8.91421C3.71071 8.53914 3.5 8.03043 3.5 7.5V5.5C3.5 4.96957 3.71071 4.46086 4.08579 4.08579ZM7.5 5.5L5.5 5.5L5.5 7.5H7.5V5.5ZM12.5 3.5C13.0523 3.5 13.5 3.94772 13.5 4.5V5.5C13.5 6.05228 13.0523 6.5 12.5 6.5C11.9477 6.5 11.5 6.05228 11.5 5.5V4.5C11.5 3.94772 11.9477 3.5 12.5 3.5ZM16.0858 4.08579C16.4609 3.71071 16.9696 3.5 17.5 3.5H19.5C20.0304 3.5 20.5391 3.71071 20.9142 4.08579C21.2893 4.46086 21.5 4.96957 21.5 5.5V7.5C21.5 8.03043 21.2893 8.53914 20.9142 8.91421C20.5391 9.28929 20.0304 9.5 19.5 9.5H17.5C16.9696 9.5 16.4609 9.28929 16.0858 8.91421C15.7107 8.53914 15.5 8.03043 15.5 7.5V5.5C15.5 4.96957 15.7107 4.46086 16.0858 4.08579ZM19.5 5.5H17.5L17.5 7.5H19.5V5.5ZM12.5 8.5C13.0523 8.5 13.5 8.94772 13.5 9.5V11.5H16.51C17.0623 11.5 17.51 11.9477 17.51 12.5C17.51 13.0523 17.0623 13.5 16.51 13.5H12.5C11.9477 13.5 11.5 13.0523 11.5 12.5V9.5C11.5 8.94772 11.9477 8.5 12.5 8.5ZM3.5 12.5C3.5 11.9477 3.94772 11.5 4.5 11.5H8.5C9.05228 11.5 9.5 11.9477 9.5 12.5C9.5 13.0523 9.05228 13.5 8.5 13.5H4.5C3.94772 13.5 3.5 13.0523 3.5 12.5ZM19.5 12.5C19.5 11.9477 19.9477 11.5 20.5 11.5H20.51C21.0623 11.5 21.51 11.9477 21.51 12.5C21.51 13.0523 21.0623 13.5 20.51 13.5H20.5C19.9477 13.5 19.5 13.0523 19.5 12.5ZM4.08579 16.0858C4.46086 15.7107 4.96957 15.5 5.5 15.5H7.5C8.03043 15.5 8.53914 15.7107 8.91421 16.0858C9.28929 16.4609 9.5 16.9696 9.5 17.5V19.5C9.5 20.0304 9.28929 20.5391 8.91421 20.9142C8.53914 21.2893 8.03043 21.5 7.5 21.5H5.5C4.96957 21.5 4.46086 21.2893 4.08579 20.9142C3.71071 20.5391 3.5 20.0304 3.5 19.5V17.5C3.5 16.9696 3.71071 16.4609 4.08579 16.0858ZM7.5 17.5L5.5 17.5L5.5 19.5H7.5V17.5ZM11.5 16.5C11.5 15.9477 11.9477 15.5 12.5 15.5H14.5C15.0523 15.5 15.5 15.9477 15.5 16.5C15.5 17.0523 15.0523 17.5 14.5 17.5H13.5V20.5C13.5 21.0523 13.0523 21.5 12.5 21.5C11.9477 21.5 11.5 21.0523 11.5 20.5V16.5ZM17.5 16.5C17.5 15.9477 17.9477 15.5 18.5 15.5H20.5C21.0523 15.5 21.5 15.9477 21.5 16.5C21.5 17.0523 21.0523 17.5 20.5 17.5H18.5C17.9477 17.5 17.5 17.0523 17.5 16.5ZM15.5 20.5C15.5 19.9477 15.9477 19.5 16.5 19.5H20.5C21.0523 19.5 21.5 19.9477 21.5 20.5C21.5 21.0523 21.0523 21.5 20.5 21.5H16.5C15.9477 21.5 15.5 21.0523 15.5 20.5Z" fill="#1C1C31"/>
</svg>
