<svg width="24" height="24" viewBox="0 0 24 24" fill="none" xmlns="http://www.w3.org/2000/svg">
    <path fill-rule="evenodd" clip-rule="evenodd" d="M14.1297 2.22943C11.8692 1.73671 9.50786 2.04302 7.44791 3.09617C5.38795 4.14932 3.7569 5.88416 2.83265 8.00507C1.9084 10.126 1.74814 12.5018 2.37918 14.7276C2.97727 16.8372 4.2511 18.6884 6 20C6.09636 20.0723 6.19415 20.1429 6.29336 20.2118C8.19321 21.5321 10.4921 22.1528 12.7982 21.9681C15.1044 21.7834 17.2752 20.8048 18.9407 19.1991C20.6063 17.5933 21.6635 15.4597 21.9323 13.1618C21.9965 12.6132 21.6038 12.1165 21.0552 12.0524C20.5067 11.9882 20.01 12.3809 19.9458 12.9294C19.7313 14.7633 18.8891 16.4664 17.5622 17.75C17.2098 16.8791 16.6548 16.0953 15.933 15.4689C14.7682 14.4578 13.2587 13.9341 11.7179 14.0066C10.1772 14.0792 8.72351 14.7423 7.65877 15.8583C7.13126 16.4112 6.71928 17.0543 6.43785 17.75C5.42976 16.7749 4.69002 15.546 4.30334 14.1821C3.79851 12.4014 3.92672 10.5008 4.66612 8.80406C5.40552 7.10733 6.71036 5.71946 8.35833 4.87694C10.0063 4.03442 11.8954 3.78937 13.7038 4.18355C15.0425 4.47535 16.2756 5.10408 17.2915 6H17C16.4477 6 16 6.44772 16 7C16 7.55228 16.4477 8 17 8H20C20.5523 8 21 7.55228 21 7V4C21 3.44772 20.5523 3 20 3C19.4477 3 19 3.44772 19 4V4.85856C17.6623 3.54738 15.9764 2.63195 14.1297 2.22943ZM12.6386 19.9745C11.0658 20.1004 9.49718 19.7581 8.12701 19C8.29631 18.3444 8.63081 17.7368 9.10585 17.2389C9.81568 16.4948 10.7848 16.0528 11.8119 16.0044C12.8391 15.9561 13.8455 16.3052 14.622 16.9792C15.2378 17.5137 15.6716 18.22 15.873 19C14.8834 19.5475 13.7818 19.8829 12.6386 19.9745ZM11 10C11 9.44772 11.4477 9 12 9C12.5523 9 13 9.44772 13 10C13 10.5523 12.5523 11 12 11C11.4477 11 11 10.5523 11 10ZM12 7C10.3431 7 9 8.34315 9 10C9 11.6569 10.3431 13 12 13C13.6569 13 15 11.6569 15 10C15 8.34315 13.6569 7 12 7Z" fill="#1C1C31"/>
</svg>
