<svg width="25" height="25" viewBox="0 0 25 25" fill="none" xmlns="http://www.w3.org/2000/svg">
    <path fill-rule="evenodd" clip-rule="evenodd" d="M4.17848 3.71193C4.74109 3.14932 5.50416 2.83325 6.2998 2.83325H18.2998C19.0955 2.83325 19.8585 3.14932 20.4211 3.71193C20.9837 4.27454 21.2998 5.0376 21.2998 5.83325V21.8333C21.2998 22.1798 21.1204 22.5017 20.8255 22.6839C20.5307 22.8661 20.1626 22.8827 19.8526 22.7277L16.2998 20.9513L12.747 22.7277C12.4655 22.8684 12.1341 22.8684 11.8526 22.7277L8.2998 20.9513L4.74702 22.7277C4.43703 22.8827 4.06889 22.8661 3.77407 22.6839C3.47926 22.5017 3.2998 22.1798 3.2998 21.8333V5.83325C3.2998 5.0376 3.61588 4.27454 4.17848 3.71193ZM6.2998 4.83325C6.03459 4.83325 5.78023 4.93861 5.5927 5.12615C5.40516 5.31368 5.2998 5.56804 5.2998 5.83325V20.2152L7.85259 18.9388C8.13412 18.7981 8.46549 18.7981 8.74702 18.9388L12.2998 20.7152L15.8526 18.9388C16.1341 18.7981 16.4655 18.7981 16.747 18.9388L19.2998 20.2152V5.83325C19.2998 5.56804 19.1944 5.31368 19.0069 5.12615C18.8194 4.93861 18.565 4.83325 18.2998 4.83325H6.2998ZM12.5999 7.33325C13.1521 7.33325 13.5999 7.78097 13.5999 8.33325V8.55143C13.6369 8.56004 13.6735 8.56909 13.7097 8.57857C14.1089 8.68189 14.44 8.82043 14.703 8.9942C14.9707 9.16796 15.1727 9.36052 15.3089 9.57185C15.4497 9.78319 15.5202 9.98983 15.5202 10.1918C15.5202 10.4125 15.445 10.5933 15.2948 10.7342C15.1492 10.8751 14.9402 10.9456 14.6678 10.9456C14.4705 10.9456 14.3015 10.8892 14.1606 10.7765C14.0244 10.6638 13.8671 10.4947 13.6886 10.2693C13.66 10.2324 13.6304 10.197 13.5999 10.163V11.6351C14.0526 11.7623 14.4321 11.9081 14.7382 12.0727C15.1186 12.2746 15.4051 12.5142 15.5977 12.7912C15.7949 13.0636 15.8936 13.3759 15.8936 13.7282C15.8936 14.2589 15.7644 14.7144 15.5061 15.0948C15.2478 15.4705 14.865 15.757 14.3578 15.9543C14.1282 16.0422 13.8756 16.1101 13.5999 16.1579V16.3333C13.5999 16.8855 13.1521 17.3333 12.5999 17.3333C12.0476 17.3333 11.5999 16.8855 11.5999 16.3333V16.1712C11.2875 16.1185 11.0022 16.0368 10.7439 15.9261C10.2508 15.7148 9.88686 15.4518 9.65203 15.1371C9.41721 14.8177 9.2998 14.4984 9.2998 14.179C9.2998 13.9677 9.37495 13.7869 9.52523 13.6366C9.67552 13.4863 9.86572 13.4112 10.0958 13.4112C10.2978 13.4112 10.4528 13.4605 10.5608 13.5591C10.6688 13.6577 10.7721 13.7963 10.8708 13.9747C11.068 14.3176 11.3028 14.5735 11.5752 14.7426C11.5833 14.7476 11.5916 14.7524 11.5999 14.7573V12.756C11.276 12.6574 10.993 12.5564 10.751 12.4531C10.3377 12.2699 10.0066 12.0304 9.7577 11.7345C9.50879 11.4387 9.38434 11.0747 9.38434 10.6426C9.38434 10.2575 9.4994 9.89356 9.72953 9.55072C9.95965 9.20788 10.2978 8.93549 10.7439 8.73355C10.9998 8.6163 11.2851 8.53231 11.5999 8.48159V8.33325C11.5999 7.78097 12.0476 7.33325 12.5999 7.33325ZM11.5999 9.81872C11.5671 9.83607 11.5354 9.85475 11.5048 9.87477C11.2746 10.0204 11.1596 10.2035 11.1596 10.4243C11.1596 10.6262 11.2441 10.7929 11.4132 10.9244C11.469 10.9663 11.5312 11.0058 11.5999 11.0431V9.81872ZM13.5999 13.3919V14.7732C13.6156 14.7633 13.6311 14.7531 13.6463 14.7426C13.8952 14.5688 14.0197 14.3716 14.0197 14.1508C14.0197 13.8127 13.8905 13.5661 13.6322 13.4112C13.6217 13.4047 13.6109 13.3983 13.5999 13.3919Z" fill="#1C1C31"/>
</svg>
