<svg width="24" height="24" viewBox="0 0 24 24" fill="none" xmlns="http://www.w3.org/2000/svg">
    <path fill-rule="evenodd" clip-rule="evenodd" d="M13.7209 2.97706C12.9083 1.72393 11.0588 1.77123 10.3113 3.06427L7.65179 7.665C7.37539 8.14314 7.53893 8.75482 8.01708 9.03122C8.49522 9.30762 9.1069 9.14407 9.3833 8.66592L12.0428 4.0652L14.3671 7.64965L13.7979 7.52744C13.2579 7.41151 12.7262 7.75526 12.6103 8.29524C12.4943 8.83522 12.8381 9.36695 13.3781 9.48288L16.3112 10.1126C16.8369 10.2255 17.3548 9.90266 17.4888 9.38722C17.4935 9.36943 17.4976 9.3515 17.5013 9.33348L18.1286 6.41168C18.2446 5.8717 17.9008 5.33998 17.3608 5.22404C16.8208 5.10811 16.2891 5.45186 16.1732 5.99184L16.0495 6.56809L13.7209 2.97706ZM2.65431 12.6836C2.48472 12.158 2.77333 11.5944 3.29893 11.4248L6.1227 10.5137C6.23071 10.4751 6.34522 10.455 6.46105 10.455C6.88345 10.4549 7.27607 10.7246 7.41275 11.1482L8.33395 14.0033C8.50353 14.5289 8.21492 15.0925 7.68932 15.2621C7.16372 15.4317 6.60016 15.143 6.43057 14.6174L6.25157 14.0627L4.30927 17.8682L9.62338 17.8711C10.1757 17.8714 10.6231 18.3193 10.6228 18.8716C10.6225 19.4239 10.1746 19.8714 9.62231 19.8711L4.3082 19.8682C2.81467 19.8674 1.84893 18.2893 2.52788 16.959L4.47324 13.1475L3.91306 13.3282C3.38746 13.4978 2.8239 13.2092 2.65431 12.6836ZM19.7547 19.8707C21.2483 19.8687 22.2127 18.2898 21.5326 16.96L19.1129 12.2288C18.8614 11.7371 18.2589 11.5424 17.7672 11.7938C17.2755 12.0453 17.0808 12.6478 17.3323 13.1395L19.752 17.8707L15.48 17.8766L15.892 17.4645C16.2826 17.074 16.2826 16.4409 15.892 16.0503C15.5015 15.6598 14.8683 15.6598 14.4778 16.0503L12.3565 18.1716C12.1274 18.4007 12.0327 18.7132 12.0724 19.0113C12.1034 19.2476 12.2169 19.4578 12.3829 19.6123L14.4778 21.7072C14.8683 22.0977 15.5015 22.0977 15.892 21.7072C16.2826 21.3167 16.2826 20.6835 15.892 20.293L15.4757 19.8766L19.7547 19.8707Z" fill="#1C1C31"/>
</svg>
