<svg width="25" height="25" viewBox="0 0 25 25" fill="none" xmlns="http://www.w3.org/2000/svg">
    <path fill-rule="evenodd" clip-rule="evenodd" d="M8.15629 4.1979C10.0679 3.08161 12.2959 2.63112 14.4911 2.91703C16.6862 3.20293 18.7245 4.20906 20.2864 5.77775C21.8484 7.34644 22.8457 9.38902 23.1221 11.5854C23.1911 12.1334 22.8028 12.6335 22.2548 12.7024C21.7069 12.7714 21.2068 12.3831 21.1378 11.8351C20.9166 10.078 20.1187 8.4439 18.8692 7.18891C17.6196 5.93393 15.9889 5.129 14.2328 4.90028C12.4766 4.67155 10.6942 5.03195 9.16481 5.925C8.08556 6.55522 7.17538 7.42557 6.49982 8.4603H7.6062C8.15849 8.4603 8.6062 8.90801 8.6062 9.4603C8.6062 10.0126 8.15849 10.4603 7.6062 10.4603H4.19995C3.64767 10.4603 3.19995 10.0126 3.19995 9.4603V5.8645C3.19995 5.31222 3.64767 4.8645 4.19995 4.8645C4.75224 4.8645 5.19995 5.31222 5.19995 5.8645V6.83187C5.9949 5.77246 6.99764 4.87448 8.15629 4.1979ZM4.14411 12.9682C4.69202 12.8988 5.19242 13.2867 5.26178 13.8346C5.48414 15.5911 6.28269 17.2243 7.53239 18.4785C8.78209 19.7327 10.4124 20.5371 12.1681 20.7657C13.9238 20.9944 15.7058 20.6344 17.235 19.7421C18.3137 19.1128 19.2237 18.2436 19.8996 17.2102H18.7312C18.1789 17.2102 17.7312 16.7625 17.7312 16.2102C17.7312 15.6579 18.1789 15.2102 18.7312 15.2102H22.1997C22.752 15.2102 23.1997 15.6579 23.1997 16.2102V19.8645C23.1997 20.4168 22.752 20.8645 22.1997 20.8645C21.6474 20.8645 21.1997 20.4168 21.1997 19.8645V18.8375C20.4044 19.8963 19.4015 20.7936 18.2429 21.4696C16.3315 22.5848 14.1043 23.0348 11.9098 22.749C9.71538 22.4632 7.67765 21.4578 6.11565 19.8902C4.55364 18.3226 3.55555 16.2813 3.27762 14.0858C3.20826 13.5379 3.5962 13.0375 4.14411 12.9682Z" fill="#1C1C31"/>
</svg>
