<svg width="25" height="25" viewBox="0 0 25 25" fill="none" xmlns="http://www.w3.org/2000/svg">
    <path fill-rule="evenodd" clip-rule="evenodd" d="M8.7518 2.71079C9.12687 2.33571 9.63558 2.125 10.166 2.125H14.166C14.6964 2.125 15.2052 2.33571 15.5802 2.71079C15.9553 3.08586 16.166 3.59457 16.166 4.125V6.125H20.166C20.7183 6.125 21.166 6.57272 21.166 7.125C21.166 7.67728 20.7183 8.125 20.166 8.125H20.0972L19.2965 19.338C19.2965 19.3381 19.2965 19.3379 19.2965 19.338C19.2426 20.0948 18.9039 20.8033 18.3487 21.3204C17.7934 21.8375 17.0628 22.125 16.304 22.125H8.02804C7.26925 22.125 6.53864 21.8375 5.98337 21.3204C5.42815 20.8033 5.08948 20.095 5.03556 19.3382C5.03555 19.3382 5.03556 19.3383 5.03556 19.3382L4.23487 8.125H4.16602C3.61373 8.125 3.16602 7.67728 3.16602 7.125C3.16602 6.57272 3.61373 6.125 4.16602 6.125H8.16602V4.125C8.16602 3.59457 8.37673 3.08586 8.7518 2.71079ZM10.166 6.125H14.166V4.125H10.166V6.125ZM6.23997 8.125L7.03048 19.1958C7.04843 19.4481 7.16134 19.6844 7.34643 19.8568C7.53153 20.0292 7.77506 20.125 8.02802 20.125H16.304C16.557 20.125 16.8005 20.0292 16.9856 19.8568C17.1707 19.6844 17.2836 19.4483 17.3015 19.196L18.0921 8.125H6.23997ZM10.166 10.125C10.7183 10.125 11.166 10.5727 11.166 11.125V17.125C11.166 17.6773 10.7183 18.125 10.166 18.125C9.61373 18.125 9.16602 17.6773 9.16602 17.125V11.125C9.16602 10.5727 9.61373 10.125 10.166 10.125ZM14.166 10.125C14.7183 10.125 15.166 10.5727 15.166 11.125V17.125C15.166 17.6773 14.7183 18.125 14.166 18.125C13.6137 18.125 13.166 17.6773 13.166 17.125V11.125C13.166 10.5727 13.6137 10.125 14.166 10.125Z" fill="#1C1C31"/>
</svg>
