<svg width="24" height="24" viewBox="0 0 24 24" fill="none" xmlns="http://www.w3.org/2000/svg">
    <path fill-rule="evenodd" clip-rule="evenodd" d="M12.1575 19.9984C14.062 19.9609 15.8905 19.245 17.3143 17.9796C18.7381 16.7142 19.6636 14.9823 19.9244 13.0954C20 12.5484 20.5049 12.1662 21.0519 12.2418C21.599 12.3174 21.9812 12.8222 21.9056 13.3693C21.5795 15.7279 20.4226 17.8928 18.6429 19.4745C16.8632 21.0563 14.5775 21.9511 12.1969 21.9981C9.81637 22.045 7.49717 21.241 5.65648 19.7306C3.81579 18.2203 2.57443 16.1027 2.15566 13.7588C1.73689 11.4149 2.1682 8.99843 3.37202 6.94414C4.57583 4.88984 6.47315 3.33249 8.7227 2.55221C10.9722 1.77193 13.4264 1.81992 15.6437 2.68755C17.4178 3.38175 18.9471 4.5642 20.0626 6.08471V5.49996C20.0626 4.94768 20.5104 4.49996 21.0626 4.49996C21.6149 4.49996 22.0626 4.94768 22.0626 5.49996V8.49996C22.0626 9.05225 21.6149 9.49996 21.0626 9.49996L18.0626 9.49996C17.5104 9.49996 17.0626 9.05225 17.0626 8.49996C17.0626 7.94768 17.5104 7.49996 18.0626 7.49996H18.6141C17.7105 6.17164 16.4233 5.14025 14.9149 4.55004C13.1411 3.85593 11.1778 3.81754 9.37811 4.44177C7.57847 5.06599 6.06062 6.31187 5.09757 7.95531C4.13452 9.59875 3.78946 11.5319 4.12448 13.407C4.4595 15.2822 5.45259 16.9762 6.92514 18.1845C8.39769 19.3928 10.253 20.036 12.1575 19.9984ZM12 7.43752C11.6759 7.43752 11.365 7.56629 11.1358 7.7955C10.9066 8.02471 10.7778 8.33559 10.7778 8.65974V9.32641H13.2222V8.65974C13.2222 8.33559 13.0935 8.02471 12.8642 7.7955C12.635 7.56629 12.3242 7.43752 12 7.43752ZM15.2222 9.32641V8.65974C15.2222 7.80516 14.8827 6.98557 14.2785 6.38129C13.6742 5.777 12.8546 5.43752 12 5.43752C11.1454 5.43752 10.3258 5.777 9.72155 6.38129C9.11727 6.98557 8.77778 7.80516 8.77778 8.65974V9.32641H8.66667C8.10677 9.32641 7.5698 9.54883 7.17389 9.94474C6.77798 10.3407 6.55556 10.8776 6.55556 11.4375V15.3264C6.55556 15.8863 6.77798 16.4233 7.17389 16.8192C7.5698 17.2151 8.10677 17.4375 8.66667 17.4375H15.3333C15.8932 17.4375 16.4302 17.2151 16.8261 16.8192C17.222 16.4233 17.4445 15.8863 17.4445 15.3264V11.4375C17.4445 10.8776 17.222 10.3407 16.8261 9.94474C16.4302 9.54883 15.8932 9.32641 15.3333 9.32641H15.2222ZM8.66667 11.3264C8.63721 11.3264 8.60894 11.3381 8.58811 11.359C8.56727 11.3798 8.55556 11.4081 8.55556 11.4375V15.3264C8.55556 15.3559 8.56727 15.3841 8.58811 15.405C8.60894 15.4258 8.63721 15.4375 8.66667 15.4375H15.3333C15.3628 15.4375 15.3911 15.4258 15.4119 15.405C15.4327 15.3841 15.4445 15.3559 15.4445 15.3264V11.4375C15.4445 11.4081 15.4327 11.3798 15.4119 11.359C15.3911 11.3381 15.3628 11.3264 15.3333 11.3264H8.66667ZM13.0001 13.1172C13.0001 12.5649 12.5524 12.1172 12.0001 12.1172C11.4479 12.1172 11.0001 12.5649 11.0001 13.1172V13.7422C11.0001 14.2945 11.4479 14.7422 12.0001 14.7422C12.5524 14.7422 13.0001 14.2945 13.0001 13.7422V13.1172Z" fill="#1C1C31"/>
</svg>
