<svg width="25" height="25" viewBox="0 0 25 25" fill="none" xmlns="http://www.w3.org/2000/svg">
    <path fill-rule="evenodd" clip-rule="evenodd" d="M5.09961 4.677C4.83439 4.677 4.58004 4.78236 4.3925 4.96989C4.20497 5.15743 4.09961 5.41178 4.09961 5.677L4.09961 15.677C4.09961 15.9422 4.20497 16.1966 4.3925 16.3841C4.58004 16.5716 4.83439 16.677 5.09961 16.677H10.1621C10.7144 16.677 11.1621 17.1247 11.1621 17.677C11.1621 18.2293 10.7144 18.677 10.1621 18.677H5.09961C4.30396 18.677 3.5409 18.3609 2.97829 17.7983C2.41568 17.2357 2.09961 16.4726 2.09961 15.677V5.677C2.09961 4.88135 2.41568 4.11829 2.97829 3.55568C3.5409 2.99307 4.30396 2.677 5.09961 2.677H19.0996C19.8953 2.677 20.6583 2.99307 21.2209 3.55568C21.7835 4.11829 22.0996 4.88135 22.0996 5.677V10.677C22.0996 11.2293 21.6519 11.677 21.0996 11.677C20.5473 11.677 20.0996 11.2293 20.0996 10.677V5.677C20.0996 5.41179 19.9943 5.15743 19.8067 4.96989C19.6192 4.78236 19.3648 4.677 19.0996 4.677L5.09961 4.677ZM13.1309 6.8645C13.6831 6.8645 14.1309 7.31221 14.1309 7.8645C14.1309 8.41679 13.6831 8.8645 13.1309 8.8645L7.13086 8.8645C6.57858 8.8645 6.13086 8.41679 6.13086 7.8645C6.13086 7.31222 6.57858 6.8645 7.13086 6.8645L13.1309 6.8645ZM16.6695 13.4264C17.1128 13.432 17.5515 13.5112 17.9679 13.6603C17.91 13.2923 18.061 12.9066 18.3881 12.681C18.8428 12.3675 19.4655 12.4819 19.7791 12.9366L20.9145 14.583C21.228 15.0377 21.1136 15.6604 20.6589 15.974C20.652 15.9788 20.645 15.9835 20.6379 15.9881L19.0122 17.1092C18.5575 17.4227 17.9348 17.3083 17.6213 16.8536C17.3643 16.481 17.3948 15.9955 17.6644 15.6599C17.578 15.6478 17.4918 15.6242 17.4078 15.5881C17.1664 15.4846 16.907 15.4296 16.6444 15.4263C16.3818 15.423 16.1211 15.4715 15.8772 15.5689C15.6333 15.6664 15.411 15.8109 15.2229 15.9943C15.0349 16.1777 14.8848 16.3963 14.7813 16.6376C14.5635 17.1452 13.9756 17.3801 13.468 17.1624C12.9605 16.9447 12.7255 16.3567 12.9433 15.8491C13.1504 15.3664 13.4505 14.9292 13.8266 14.5624C14.2026 14.1957 14.6473 13.9066 15.135 13.7117C15.6228 13.5168 16.1442 13.4199 16.6695 13.4264ZM13.267 18.8443C13.2638 18.8463 13.2607 18.8483 13.2575 18.8504C12.7961 19.1539 12.6682 19.7741 12.9717 20.2354L14.071 21.9063C14.3745 22.3677 14.9946 22.4956 15.456 22.1921C15.7881 21.9736 15.9474 21.5912 15.8975 21.2219C16.3105 21.3801 16.7475 21.4689 17.1906 21.4841C17.7156 21.5022 18.239 21.4166 18.7309 21.2324C19.2228 21.0482 19.6737 20.7689 20.0576 20.4104C20.4416 20.0519 20.7512 19.6214 20.9688 19.1433C21.1975 18.6406 20.9755 18.0476 20.4728 17.8189C19.9701 17.5901 19.3772 17.8122 19.1484 18.3149C19.0396 18.5539 18.8848 18.7692 18.6928 18.9484C18.5008 19.1277 18.2754 19.2673 18.0295 19.3594C17.7835 19.4516 17.5218 19.4943 17.2593 19.4853C16.9968 19.4763 16.7387 19.4157 16.4996 19.3069C16.4163 19.269 16.3306 19.2434 16.2444 19.2295C16.5213 18.8998 16.5623 18.4151 16.3135 18.037C16.01 17.5756 15.3899 17.4476 14.9285 17.7512L13.267 18.8443Z" fill="#1C1C31"/>
</svg>
