<svg width="25" height="25" viewBox="0 0 25 25" fill="none" xmlns="http://www.w3.org/2000/svg">
    <path fill-rule="evenodd" clip-rule="evenodd" d="M19.4563 4.03145C19.8468 3.64092 19.8468 3.00776 19.4563 2.61723C19.0658 2.22671 18.4326 2.22671 18.0421 2.61723L14.3146 6.34474C14.0842 6.57512 13.9805 6.90329 14.0366 7.22422L14.5701 10.2727L14.0759 10.7669L12.6007 9.29172L5.99557 2.68664C5.54591 2.23698 4.81686 2.23698 4.3672 2.68664C2.79394 4.2599 2.79394 6.81066 4.3672 8.38392L8.93783 12.9545C9.12537 13.1421 9.37972 13.2474 9.64494 13.2474C9.91015 13.2474 10.1645 13.1421 10.352 12.9545L11.8935 11.413L12.6617 12.1812L5.1436 19.6992C4.75307 20.0898 4.75307 20.7229 5.1436 21.1134C5.53412 21.504 6.16728 21.504 6.55781 21.1134L14.0759 13.5954L21.5825 21.102C21.973 21.4925 22.6062 21.4925 22.9967 21.102C23.3872 20.7114 23.3872 20.0783 22.9967 19.6878L15.4901 12.1812L15.9844 11.6869L19.0328 12.2204C19.3538 12.2765 19.6819 12.1728 19.9123 11.9425L23.6398 8.21495C24.0304 7.82443 24.0304 7.19126 23.6398 6.80074C23.2493 6.41021 22.6161 6.41021 22.2256 6.80074L18.8656 10.1607L17.7124 9.9589L21.4713 6.19993C21.8618 5.80941 21.8618 5.17624 21.4713 4.78572C21.0808 4.39519 20.4476 4.39519 20.0571 4.78572L16.2981 8.5447L16.0963 7.39143L19.4563 4.03145ZM5.31253 4.83203L10.4793 9.99883L9.64494 10.8332L5.78141 6.9697C5.20343 6.39172 5.04713 5.55172 5.31253 4.83203Z" fill="#1C1C31"/>
</svg>
