<svg width="24" height="24" viewBox="0 0 24 24" fill="none" xmlns="http://www.w3.org/2000/svg">
<path fill-rule="evenodd" clip-rule="evenodd" d="M10.046 4.29848C10.4334 4.69207 10.4284 5.32522 10.0349 5.71265L6.44135 9.25H12.8889C15.0351 9.25 17.0964 10.0891 18.6187 11.5876C20.1416 13.0866 21 15.1231 21 17.25V19C21 19.5523 20.5523 20 20 20C19.4477 20 19 19.5523 19 19V17.25C19 15.6638 18.36 14.1394 17.2157 13.0129C16.0708 11.8859 14.5147 11.25 12.8889 11.25H6.44135L10.0349 14.7873C10.4284 15.1748 10.4334 15.8079 10.046 16.2015C9.65855 16.5951 9.0254 16.6001 8.63182 16.2127L3.29848 10.9627C3.10753 10.7747 3 10.5179 3 10.25C3 9.98205 3.10753 9.72532 3.29848 9.53735L8.63182 4.28735C9.0254 3.89991 9.65855 3.9049 10.046 4.29848Z" fill="#1C1C31"/>
</svg>
