<svg width="25" height="25" viewBox="0 0 25 25" fill="none" xmlns="http://www.w3.org/2000/svg">
    <path fill-rule="evenodd" clip-rule="evenodd" d="M6.02085 3.52451C6.54349 3.00187 7.25235 2.70825 7.99148 2.70825H9.79475H11.598H13.4013C14.1404 2.70825 14.8493 3.00187 15.3719 3.52451C15.8946 4.04715 16.1882 4.75601 16.1882 5.49514V7.29842V8.69639L17.6559 10.1641C18.3337 10.8414 18.8714 11.6456 19.2383 12.5307C19.6053 13.4159 19.7942 14.3646 19.7944 15.3228V15.323V21.7246C19.7944 22.2679 19.3541 22.7083 18.8108 22.7083C18.2676 22.7083 17.8272 22.2679 17.8272 21.7246V15.3232V15.323C17.827 14.6233 17.689 13.9305 17.4211 13.2841C17.1531 12.6376 16.7604 12.0503 16.2654 11.5557L16.2652 11.5554L16.1882 11.4784V12.7083C16.1882 12.7301 16.1875 12.7518 16.1861 12.7733V15.0408C16.1861 16.7186 14.1565 17.5619 12.9681 16.374L12.9679 16.3738L11.8005 15.2073L11.8002 15.207C11.758 15.1648 11.6017 15.0695 11.3901 15.0524C11.2087 15.0377 11.0582 15.0845 10.9351 15.2073C10.8126 15.3299 10.766 15.4797 10.7807 15.6605C10.7978 15.8714 10.8929 16.0276 10.9353 16.0701L10.9354 16.0701L15.8977 21.0289C16.282 21.4129 16.2822 22.0356 15.8982 22.4199C15.5143 22.8042 14.8915 22.8044 14.5072 22.4204L9.54459 17.4614L9.54433 17.4611C9.49314 17.4099 9.44419 17.3556 9.39762 17.2984H7.99148C7.25235 17.2984 6.54349 17.0048 6.02085 16.4822C5.49821 15.9595 5.20459 15.2507 5.20459 14.5115V12.7083V7.29842V5.49514C5.20459 4.75601 5.49821 4.04715 6.02085 3.52451ZM14.221 8.19658V9.037C14.2196 9.05843 14.2189 9.08 14.2189 9.10169V14.8428L13.1913 13.816L13.191 13.8157C12.7824 13.4073 12.172 13.1421 11.549 13.0916C11.0186 13.0486 10.4229 13.1583 9.89693 13.5216L9.87169 13.4861C9.29192 12.6808 8.40787 12.0348 7.1718 11.8101V8.19658C8.40787 7.97187 9.29192 7.32582 9.87169 6.52055C10.2995 5.92632 10.546 5.26957 10.6712 4.67546H10.7216C10.8467 5.26957 11.0933 5.92632 11.5211 6.52055C12.1009 7.32582 12.9849 7.97187 14.221 8.19658ZM7.1718 6.17334C7.69712 6.00289 8.0396 5.69837 8.2752 5.37114C8.4321 5.15321 8.54894 4.9133 8.63278 4.67546H7.99148C7.77408 4.67546 7.5656 4.76182 7.41188 4.91554C7.25816 5.06926 7.1718 5.27775 7.1718 5.49514V6.17334ZM7.1718 13.8333V14.5115C7.1718 14.7289 7.25816 14.9374 7.41188 15.0911C7.5656 15.2448 7.77408 15.3312 7.99148 15.3312H8.63278C8.54894 15.0934 8.4321 14.8535 8.2752 14.6355C8.0396 14.3083 7.69712 14.0038 7.1718 13.8333ZM12.76 4.67546C12.8438 4.9133 12.9607 5.15321 13.1176 5.37114C13.3532 5.69837 13.6957 6.00289 14.221 6.17334V5.49514C14.221 5.27775 14.1346 5.06926 13.9809 4.91554C13.8272 4.76182 13.6187 4.67546 13.4013 4.67546H12.76ZM10.6964 10.0853C10.6511 10.0853 10.6144 10.0486 10.6144 10.0033C10.6144 9.95806 10.6511 9.92137 10.6964 9.92137C10.7417 9.92137 10.7784 9.95806 10.7784 10.0033C10.7784 10.0486 10.7417 10.0853 10.6964 10.0853ZM12.5816 10.0033C12.5816 8.96214 11.7376 8.11809 10.6964 8.11809C9.6552 8.11809 8.81115 8.96214 8.81115 10.0033C8.81115 11.0445 9.6552 11.8886 10.6964 11.8886C11.7376 11.8886 12.5816 11.0445 12.5816 10.0033Z" fill="#1C1C31"/>
</svg>
