<svg width="25" height="25" viewBox="0 0 25 25" fill="none" xmlns="http://www.w3.org/2000/svg">
    <path fill-rule="evenodd" clip-rule="evenodd" d="M6.29328 6.79328C6.37968 6.2478 6.89192 5.87563 7.4374 5.96203C7.98289 6.04843 8.35505 6.56067 8.26866 7.10615C8.19539 7.56877 8.01367 8.00748 7.73836 8.38641C7.46305 8.76535 7.10196 9.07374 6.68463 9.28638C6.42003 9.42121 6.13758 9.51511 5.8469 9.56578C6.02786 9.74673 6.27785 9.85865 6.55398 9.85865H7.35667C8.3941 8.06524 10.3331 6.85865 12.554 6.85865C14.7748 6.85865 16.7139 8.06524 17.7513 9.85865H18.554C18.6724 9.85865 18.7859 9.83807 18.8913 9.80031C18.8312 9.77453 18.7719 9.74673 18.7134 9.71693C18.296 9.50428 17.9349 9.19589 17.6596 8.81696C17.3843 8.43802 17.2026 7.99931 17.1293 7.53669C17.0429 6.99121 17.4151 6.47897 17.9606 6.39257C18.5061 6.30618 19.0183 6.67834 19.1047 7.22383C19.1286 7.37471 19.1879 7.5178 19.2777 7.64139C19.3675 7.76498 19.4852 7.86556 19.6213 7.93491C19.7575 8.00427 19.9081 8.04042 20.0608 8.04042C20.2136 8.04042 20.3642 8.00427 20.5003 7.93491C20.6364 7.86556 20.7542 7.76498 20.844 7.64139C20.9338 7.5178 20.993 7.37471 21.0169 7.22383C21.0408 7.07294 21.0287 6.91854 20.9815 6.77326C20.9343 6.62797 20.8533 6.49591 20.7453 6.38789C20.3548 5.99737 20.3548 5.3642 20.7453 4.97368C21.1358 4.58316 21.769 4.58316 22.1595 4.97368C22.4907 5.30488 22.7388 5.70976 22.8836 6.15522C23.0283 6.60068 23.0656 7.07408 22.9923 7.53669C22.919 7.99931 22.7373 8.43802 22.462 8.81696C22.1922 9.18833 21.84 9.49194 21.4332 9.70408C21.0682 10.9493 19.9173 11.8586 18.554 11.8586H18.471C18.5256 12.1839 18.554 12.5179 18.554 12.8586C20.7627 12.8589 22.554 14.6495 22.554 16.8586V19.8586C22.554 20.4109 22.1063 20.8586 21.554 20.8586C21.0017 20.8586 20.554 20.4109 20.554 19.8586V16.8586C20.554 15.7543 19.6583 14.8586 18.5535 14.8586H18.2126C18.1645 14.9948 18.1116 15.1287 18.0541 15.2601C18.9507 15.7788 19.554 16.7483 19.554 17.8586V20.8586C19.554 21.4109 19.1063 21.8586 18.554 21.8586C18.0017 21.8586 17.554 21.4109 17.554 20.8586V17.8586C17.554 17.4476 17.3059 17.0944 16.9514 16.9407C16.6155 17.3024 16.2355 17.6225 15.8201 17.8927C16.2772 18.4192 16.554 19.1066 16.554 19.8586V21.8586C16.554 22.4109 16.1063 22.8586 15.554 22.8586C15.0017 22.8586 14.554 22.4109 14.554 21.8586V19.8586C14.554 19.3064 14.1063 18.8586 13.554 18.8586V18.7757C13.2288 18.8302 12.8947 18.8586 12.554 18.8586C12.2133 18.8586 11.8792 18.8302 11.554 18.7757V18.8586C11.0017 18.8586 10.554 19.3064 10.554 19.8586V21.8586C10.554 22.4109 10.1063 22.8586 9.55398 22.8586C9.00169 22.8586 8.55398 22.4109 8.55398 21.8586V19.8586C8.55398 19.1066 8.83071 18.4192 9.2879 17.8927C8.87242 17.6225 8.49247 17.3024 8.15659 16.9407C7.80202 17.0944 7.55398 17.4476 7.55398 17.8586V20.8586C7.55398 21.4109 7.10626 21.8586 6.55398 21.8586C6.00169 21.8586 5.55398 21.4109 5.55398 20.8586V17.8586C5.55398 16.7483 6.15722 15.7788 7.05385 15.2601C6.99639 15.1287 6.9435 14.9948 6.89539 14.8586H6.55448C5.44969 14.8586 4.55398 15.7543 4.55398 16.8586V19.8586C4.55398 20.4109 4.10626 20.8586 3.55398 20.8586C3.00169 20.8586 2.55398 20.4109 2.55398 19.8586V16.8586C2.55398 14.6495 4.34529 12.8589 6.55398 12.8586C6.55398 12.5179 6.58238 12.1839 6.63694 11.8586H6.55398C4.95044 11.8586 3.64075 10.6006 3.55812 9.0176C3.32108 8.84009 3.11117 8.62753 2.93598 8.38641C2.66067 8.00748 2.47895 7.56877 2.40568 7.10615C2.33241 6.64353 2.36967 6.17014 2.51441 5.72468C2.65915 5.27922 2.90726 4.87434 3.23846 4.54314C3.62898 4.15261 4.26215 4.15261 4.65267 4.54314C5.04319 4.93366 5.04319 5.56683 4.65267 5.95735C4.54465 6.06537 4.46373 6.19743 4.41652 6.34271C4.36931 6.488 4.35716 6.6424 4.38106 6.79328C4.40496 6.94417 4.46422 7.08725 4.55402 7.21084C4.64381 7.33443 4.76158 7.43502 4.89769 7.50437C5.03381 7.57372 5.1844 7.60988 5.33717 7.60988C5.48993 7.60988 5.64053 7.57372 5.77665 7.50437C5.91276 7.43502 6.03053 7.33443 6.12032 7.21084C6.21011 7.08725 6.26938 6.94417 6.29328 6.79328ZM12.554 16.8586C14.7631 16.8586 16.554 15.0678 16.554 12.8586C16.554 10.6495 14.7631 8.85865 12.554 8.85865C10.3448 8.85865 8.55398 10.6495 8.55398 12.8586C8.55398 15.0678 10.3448 16.8586 12.554 16.8586Z" fill="#1C1C31"/>
</svg>
