<svg width="25" height="25" viewBox="0 0 25 25" fill="none" xmlns="http://www.w3.org/2000/svg">
    <path fill-rule="evenodd" clip-rule="evenodd" d="M9.34652 5.14217L15.9331 10.4837L12.8102 15.301L5.2453 11.4686C4.71519 11.2 4.53486 10.5312 4.85811 10.0326L7.87754 5.37489C8.20079 4.87626 8.88498 4.76786 9.34652 5.14217ZM12.7083 17.4914L12.8252 17.5506L13.8533 18.2171C15.2435 19.1184 17.1012 18.722 18.0025 17.3317L19.9064 14.3948C20.8076 13.0045 20.4112 11.1469 19.0209 10.2456L17.9929 9.5791L17.8911 9.49658L10.6063 3.58878C9.22164 2.46587 7.16907 2.79105 6.19932 4.28696L3.1799 8.94464C2.21015 10.4405 2.75115 12.4471 4.34145 13.2527L12.7083 17.4914ZM14.9412 16.5389L14.5539 16.2878L17.5457 11.6727L17.933 11.9238C18.3964 12.2242 18.5286 12.8434 18.2282 13.3069L16.3243 16.2437C16.0238 16.7072 15.4046 16.8393 14.9412 16.5389ZM18.2907 20.8274C18.843 20.8274 19.2907 20.3796 19.2907 19.8274C19.2907 19.2751 18.843 18.8274 18.2907 18.8274C17.7384 18.8274 17.2907 19.2751 17.2907 19.8274C17.2907 20.3796 17.7384 20.8274 18.2907 20.8274ZM21.6657 17.6319C21.6657 18.1842 21.218 18.6319 20.6657 18.6319C20.1134 18.6319 19.6657 18.1842 19.6657 17.6319C19.6657 17.0796 20.1134 16.6319 20.6657 16.6319C21.218 16.6319 21.6657 17.0796 21.6657 17.6319ZM20.6657 22.8274C21.218 22.8274 21.6657 22.3796 21.6657 21.8274C21.6657 21.2751 21.218 20.8274 20.6657 20.8274C20.1134 20.8274 19.6657 21.2751 19.6657 21.8274C19.6657 22.3796 20.1134 22.8274 20.6657 22.8274Z" fill="#1C1C31"/>
</svg>
