<svg width="25" height="25" viewBox="0 0 25 25" fill="none" xmlns="http://www.w3.org/2000/svg">
    <path fill-rule="evenodd" clip-rule="evenodd" d="M22.2158 2.80174C22.4834 3.07607 22.5707 3.47922 22.4406 3.83967L15.9406 21.8397C15.8016 22.2246 15.442 22.486 15.0329 22.4995C14.6239 22.513 14.2479 22.2758 14.0839 21.9008L10.729 14.2325L3.0528 10.3945C2.69104 10.2136 2.47386 9.83259 2.50253 9.42914C2.5312 9.0257 2.80008 8.67925 3.18378 8.55135L21.1838 2.55135C21.5474 2.43015 21.9482 2.52741 22.2158 2.80174ZM12.6897 13.7245L14.9111 18.8019L19.0365 7.37773L12.6897 13.7245ZM17.7976 5.78828L6.10656 9.68527L11.3026 12.2833L17.7976 5.78828Z" fill="#1C1C31"/>
</svg>
