<svg width="25" height="25" viewBox="0 0 25 25" fill="none" xmlns="http://www.w3.org/2000/svg">
    <path fill-rule="evenodd" clip-rule="evenodd" d="M6.29694 9.55485C6.77523 9.83099 7.38682 9.66711 7.66296 9.18882C7.87655 8.81887 8.15541 7.90293 8.19662 6.9591C8.20812 6.69565 8.19856 6.47421 8.1774 6.29779C8.01404 6.36768 7.81749 6.47011 7.59508 6.6118C6.79831 7.1194 6.1445 7.81887 5.93091 8.18882C5.65477 8.66711 5.81865 9.2787 6.29694 9.55485ZM8.57461 6.17833C8.57451 6.17849 8.57133 6.17877 8.56536 6.17871C8.57172 6.17815 8.5747 6.17818 8.57461 6.17833ZM8.08654 5.90227C8.08351 5.89713 8.08216 5.89423 8.08225 5.89407C8.08233 5.89391 8.08385 5.89648 8.08654 5.90227ZM5.29694 11.2869C6.73182 12.1153 8.56659 11.6237 9.39501 10.1888C10.2234 8.75394 10.7318 5.18712 9.29694 4.35869C7.86206 3.53027 5.02729 5.75394 4.19886 7.18882C3.37043 8.6237 3.86206 10.4585 5.29694 11.2869ZM19.6989 12.8587C20.2511 12.8587 20.6989 12.411 20.6989 11.8587C20.6989 11.4315 20.4824 10.4989 20.0462 9.66087C19.9244 9.42696 19.8054 9.23997 19.6989 9.09777C19.5923 9.23997 19.4733 9.42696 19.3516 9.66087C18.9153 10.4989 18.6989 11.4315 18.6989 11.8587C18.6989 12.411 19.1466 12.8587 19.6989 12.8587ZM19.9831 8.79571C19.9831 8.7959 19.9805 8.79773 19.9753 8.80067C19.9805 8.797 19.9831 8.79553 19.9831 8.79571ZM19.4224 8.80067C19.4172 8.79773 19.4146 8.7959 19.4146 8.79571C19.4146 8.79553 19.4172 8.797 19.4224 8.80067ZM19.6989 14.8587C21.3557 14.8587 22.6989 13.5155 22.6989 11.8587C22.6989 10.2018 21.3557 6.85869 19.6989 6.85869C18.042 6.85869 16.6989 10.2018 16.6989 11.8587C16.6989 13.5155 18.042 14.8587 19.6989 14.8587ZM6.78722 18.8935C6.79705 19.4457 6.35737 19.9013 5.80517 19.9112C5.25298 19.921 4.79736 19.4813 4.78753 18.9291C4.77993 18.502 4.97978 17.5656 5.40102 16.72C5.5186 16.484 5.63425 16.2949 5.73824 16.1508C5.84728 16.2911 5.96959 16.476 6.0955 16.7077C6.54657 17.5377 6.77962 18.4664 6.78722 18.8935ZM6.01708 15.8438C6.01708 15.8439 6.0145 15.8458 6.00935 15.8489C6.01451 15.8451 6.01708 15.8436 6.01708 15.8438ZM5.45655 15.8587C5.4513 15.8559 5.44865 15.8541 5.44864 15.8539C5.44863 15.8537 5.45126 15.8551 5.45655 15.8587ZM8.7869 18.8579C8.81639 20.5145 7.49736 21.8814 5.84077 21.9108C4.18418 21.9403 2.81734 20.6213 2.78785 18.9647C2.75836 17.3081 4.04179 13.9416 5.69839 13.9121C7.35498 13.8826 8.75741 17.2013 8.7869 18.8579ZM11.2964 13.5557C11.7753 13.8308 12.3865 13.6656 12.6616 13.1868C12.8745 12.8164 13.1514 11.8998 13.1906 10.9559C13.2016 10.6925 13.1915 10.471 13.17 10.2947C13.0068 10.3649 12.8104 10.4677 12.5883 10.6099C11.7926 11.1192 11.1403 11.82 10.9275 12.1904C10.6524 12.6693 10.8175 13.2805 11.2964 13.5557ZM13.5669 10.1744L13.5654 10.1746C13.5639 10.1747 13.5613 10.1748 13.5577 10.1748C13.5641 10.1742 13.567 10.1742 13.5669 10.1744ZM13.0783 9.89934C13.0753 9.8942 13.0739 9.89131 13.074 9.89115C13.0741 9.89099 13.0756 9.89356 13.0783 9.89934ZM10.3 15.2898C11.7367 16.1152 13.5704 15.6197 14.3958 14.1831C15.2212 12.7465 15.7221 9.17862 14.2854 8.35322C12.8488 7.52781 10.0187 9.75746 9.19334 11.1941C8.36794 12.6307 8.86343 14.4644 10.3 15.2898ZM14.2397 20.6042C13.688 20.6292 13.2205 20.2022 13.1955 19.6505C13.1706 19.0987 13.5976 18.6312 14.1493 18.6063C14.5761 18.587 15.5176 18.7611 16.3744 19.159C16.6136 19.2701 16.8058 19.3805 16.9526 19.4805C16.8154 19.5933 16.634 19.7207 16.4058 19.8529C15.5884 20.3265 14.6665 20.5849 14.2397 20.6042ZM17.2672 19.7508C17.267 19.7508 17.2651 19.7483 17.2619 19.7432C17.2658 19.7483 17.2674 19.7508 17.2672 19.7508ZM17.2369 19.1909C17.2396 19.1856 17.2413 19.1829 17.2415 19.1829C17.2417 19.1829 17.2404 19.1855 17.2369 19.1909ZM14.3301 22.6022C12.6749 22.6771 11.2725 21.396 11.1976 19.7408C11.1227 18.0857 12.4038 16.6832 14.059 16.6083C15.7141 16.5335 19.1145 17.7241 19.1894 19.3793C19.2643 21.0345 15.9853 22.5273 14.3301 22.6022Z" fill="#1C1C31"/>
</svg>
