<svg width="25" height="24" viewBox="0 0 25 24" fill="none" xmlns="http://www.w3.org/2000/svg">
    <path d="M11.6551 2C10.766 2 10.0009 2.62863 9.82852 3.50088C9.70294 4.1362 9.24846 4.64639 8.67394 4.94528C8.51314 5.02894 8.35569 5.11762 8.20183 5.21119C7.64306 5.55102 6.96767 5.68723 6.3483 5.47729C5.49125 5.18679 4.54798 5.53782 4.08936 6.31795L3.28672 7.68325C2.83162 8.4574 2.99752 9.4465 3.6803 10.0298C4.17373 10.4513 4.38983 11.0996 4.36498 11.7481C4.36173 11.8329 4.3601 11.9168 4.3601 12C4.3601 12.4087 4.40058 12.8324 4.47531 13.2907C4.47534 13.2909 4.47536 13.2911 4.47536 13.2913C4.47536 13.2924 4.4749 13.2934 4.47409 13.294L3.77463 13.8916C3.03731 14.5215 2.85827 15.5896 3.3499 16.4255L4.08996 17.6837C4.54831 18.463 5.49052 18.8138 6.34688 18.524C6.96592 18.3144 7.64082 18.4508 8.19968 18.7896C8.35413 18.8833 8.5122 18.972 8.67363 19.0556C9.24858 19.3536 9.70293 19.8638 9.8285 20.499C10.0009 21.3713 10.766 22 11.6552 22H13.3449C14.234 22 14.9991 21.3714 15.1715 20.4991C15.2971 19.8638 15.7516 19.3536 16.3261 19.0548C16.4869 18.9712 16.6443 18.8825 16.7982 18.789C17.357 18.4491 18.0324 18.3128 18.6518 18.5227C19.5087 18.8132 20.4519 18.4621 20.9104 17.682L21.7116 16.3187C22.1666 15.5443 22.0012 14.5551 21.3189 13.971C20.8259 13.5489 20.6102 12.9005 20.635 12.252C20.6383 12.1672 20.6399 12.0833 20.6399 12C20.6399 11.5925 20.6004 11.1686 20.5247 10.7112C20.5247 10.711 20.5246 10.7108 20.5246 10.7106C20.5246 10.7096 20.5251 10.7086 20.5259 10.7079L21.2264 10.1088C21.9632 9.47863 22.1419 8.41069 21.6503 7.57495L20.91 6.31627C20.4517 5.537 19.5095 5.18622 18.6531 5.47605C18.0341 5.68555 17.3592 5.54917 16.8003 5.21037C16.6459 5.11674 16.4878 5.02805 16.3264 4.94439C15.7514 4.64644 15.2971 4.13624 15.1715 3.50096C14.9991 2.62867 14.234 2 13.3448 2H11.6551ZM11.6672 4.68429C11.7458 4.2866 12.0946 4 12.5 4C12.9054 4 13.2542 4.2866 13.3328 4.68429L13.4329 5.19012C13.5324 5.69338 13.886 6.10892 14.3668 6.28769L14.6542 6.39453C15.2939 6.63147 15.8686 6.95675 16.3672 7.35938L16.5977 7.54485C17.0013 7.86973 17.5428 7.96608 18.0337 7.80035L18.5596 7.62282C18.9334 7.49664 19.3444 7.6498 19.5445 7.98981C19.7494 8.33807 19.6749 8.78314 19.3679 9.04577L18.9638 9.39131C18.5744 9.7244 18.3869 10.2365 18.4691 10.7423L18.5153 11.0264C18.5154 11.027 18.5155 11.0277 18.5155 11.0283C18.5155 11.029 18.5156 11.0296 18.5157 11.0303C18.5778 11.4048 18.6049 11.719 18.6049 12C18.6049 12.2812 18.5777 12.5957 18.5155 12.9707L18.4688 13.2546C18.3855 13.761 18.5729 14.2741 18.9629 14.6076L19.3659 14.9523C19.673 15.215 19.7476 15.66 19.5429 16.0084C19.3427 16.3493 18.9306 16.5028 18.5562 16.3758L18.0328 16.1984C17.5426 16.0323 17.0014 16.1283 16.5983 16.453L16.3653 16.6406C15.8668 17.0431 15.2944 17.3682 14.6551 17.6051C14.6545 17.6054 14.6539 17.6055 14.6532 17.6055C14.6526 17.6055 14.6519 17.6056 14.6513 17.6058L14.3648 17.7123C13.884 17.8911 13.5304 18.3066 13.4309 18.8099L13.3307 19.3167C13.2521 19.7138 12.9038 20 12.499 20C12.0942 20 11.7459 19.7138 11.6673 19.3167L11.5671 18.8099C11.4676 18.3066 11.114 17.8911 10.6332 17.7123L10.3458 17.6055C9.70613 17.3685 9.13143 17.0432 8.63275 16.6406L8.40233 16.4552C7.99872 16.1303 7.45718 16.0339 6.96628 16.1996L6.44042 16.3772C6.06664 16.5034 5.65558 16.3502 5.45552 16.0102C5.25062 15.6619 5.32504 15.2169 5.63208 14.9542L6.03632 14.6084C6.42678 14.2744 6.61422 13.7606 6.53054 13.2536L6.48466 12.9756C6.48455 12.9749 6.4845 12.9743 6.4845 12.9736C6.4845 12.973 6.48445 12.9723 6.48434 12.9717C6.42312 12.5956 6.39507 12.2804 6.39507 12C6.39507 11.7188 6.42228 11.4043 6.4845 11.0293L6.53108 10.7461C6.61442 10.2393 6.42675 9.72588 6.03626 9.39233L5.63263 9.04756C5.32527 8.78502 5.2505 8.33983 5.45524 7.99129C5.65539 7.65055 6.06725 7.49711 6.44155 7.62385L6.96581 7.80136C7.45684 7.96762 7.9988 7.87107 8.40221 7.54546L8.63275 7.35938C9.13143 6.95675 9.70613 6.63147 10.3458 6.39453L10.6332 6.28769C11.114 6.10892 11.4676 5.69338 11.5671 5.19012L11.6672 4.68429ZM12.5 8C10.2651 8 8.43005 9.80348 8.43005 12C8.43005 14.1965 10.2651 16 12.5 16C14.7349 16 16.57 14.1965 16.57 12C16.57 9.80348 14.7349 8 12.5 8ZM12.5 10C13.6309 10 14.535 10.8885 14.535 12C14.535 13.1115 13.6309 14 12.5 14C11.3691 14 10.465 13.1115 10.465 12C10.465 10.8885 11.3691 10 12.5 10Z" fill="#1C1C31"/>
</svg>
