<svg width="24" height="24" viewBox="0 0 24 24" fill="none" xmlns="http://www.w3.org/2000/svg">
<path fill-rule="evenodd" clip-rule="evenodd" d="M2 4C2 3.44772 2.44772 3 3 3H4.88197C5.63951 3 6.33204 3.428 6.67082 4.10557L7.11803 5H19.2185C20.3132 5 21.0392 6.13466 20.5805 7.12859L18.042 12.6286C17.7968 13.1598 17.2652 13.5 16.6801 13.5H10.0146L8.94319 15H18C18.5523 15 19 15.4477 19 16C19 16.5523 18.5523 17 18 17H8.94319C7.31644 17 6.3702 15.1613 7.31572 13.8375L8.34857 12.3915L5.59859 6.43324L4.88197 5H3C2.44772 5 2 4.55228 2 4ZM8.06291 7L10.1398 11.5H16.3602L18.4371 7H8.06291ZM10 20C10 21.1046 9.10457 22 8 22C6.89543 22 6 21.1046 6 20C6 18.8954 6.89543 18 8 18C9.10457 18 10 18.8954 10 20ZM17 22C18.1046 22 19 21.1046 19 20C19 18.8954 18.1046 18 17 18C15.8954 18 15 18.8954 15 20C15 21.1046 15.8954 22 17 22Z" fill="#1C1C31"/>
</svg>
