<svg width="25" height="25" viewBox="0 0 25 25" fill="none" xmlns="http://www.w3.org/2000/svg">
    <path d="M11.0734 4.80669C11.7102 3.7311 13.2898 3.7311 13.9266 4.8067L15.6919 7.78839C15.9252 8.1824 16.3161 8.46179 16.7691 8.5583L20.1972 9.28858C21.4338 9.55202 21.9219 11.0298 21.0788 11.958L18.7418 14.5311C18.433 14.8711 18.2837 15.3232 18.3303 15.7768L18.6837 19.2099C18.8111 20.4483 17.5333 21.3616 16.3754 20.8597L13.1657 19.4682C12.7416 19.2844 12.2584 19.2844 11.8343 19.4682L8.62457 20.8597C7.46672 21.3616 6.18888 20.4483 6.31633 19.2099L6.66966 15.7768C6.71635 15.3232 6.56704 14.8711 6.25822 14.5311L3.92118 11.958C3.07814 11.0298 3.56624 9.55202 4.80285 9.28858L8.23093 8.5583C8.68392 8.46179 9.07482 8.1824 9.30809 7.78839L11.0734 4.80669Z" fill="#1C1C31" stroke="#1C1C31" stroke-width="2"/>
</svg>
