<svg width="25" height="25" viewBox="0 0 25 25" fill="none" xmlns="http://www.w3.org/2000/svg">
    <path fill-rule="evenodd" clip-rule="evenodd" d="M8.49658 3.5H6.49658C5.39658 3.5 4.49658 4.4 4.49658 5.5V10.5C4.49658 11.0523 4.9443 11.5 5.49658 11.5C6.04887 11.5 6.49658 11.0523 6.49658 10.5V9.5H8.49658V10.5C8.49658 11.0523 8.9443 11.5 9.49658 11.5C10.0489 11.5 10.4966 11.0523 10.4966 10.5V5.5C10.4966 4.4 9.60658 3.5 8.49658 3.5ZM8.49658 7.5H6.49658V6C6.49658 5.72386 6.72044 5.5 6.99658 5.5H7.99658C8.27272 5.5 8.49658 5.72386 8.49658 6V7.5ZM17.4828 3.5C18.0351 3.5 18.4828 3.94772 18.4828 4.5V18.0858L19.7631 16.8054C20.1536 16.4149 20.7868 16.4149 21.1773 16.8054C21.5678 17.1959 21.5678 17.8291 21.1773 18.2196L18.1899 21.2071C18.0023 21.3946 17.748 21.5 17.4828 21.5C17.2176 21.5 16.9632 21.3946 16.7757 21.2071L13.7882 18.2196C13.3977 17.8291 13.3977 17.1959 13.7883 16.8054C14.1788 16.4149 14.812 16.4149 15.2025 16.8054L16.4828 18.0857V4.5C16.4828 3.94772 16.9305 3.5 17.4828 3.5ZM5.53125 13.4531C4.97897 13.4531 4.53125 13.9008 4.53125 14.4531C4.53125 15.0054 4.97897 15.4531 5.53125 15.4531H7.65463L4.67745 19.8843C4.56556 20.0458 4.5 20.2418 4.5 20.4531C4.5 21.0054 4.94772 21.4531 5.5 21.4531H9.5C10.0523 21.4531 10.5 21.0054 10.5 20.4531C10.5 19.9008 10.0523 19.4531 9.5 19.4531H7.37662L10.3538 15.022C10.4657 14.8605 10.5312 14.6645 10.5312 14.4531C10.5312 13.9008 10.0835 13.4531 9.53125 13.4531H5.53125Z" fill="#1C1C31"/>
</svg>
