<svg width="25" height="25" viewBox="0 0 25 25" fill="none" xmlns="http://www.w3.org/2000/svg">
    <path fill-rule="evenodd" clip-rule="evenodd" d="M4.5 10C4.5 7.51472 6.51472 5.5 9 5.5C11.4853 5.5 13.5 7.51472 13.5 10C13.5 12.4853 11.4853 14.5 9 14.5C6.51472 14.5 4.5 12.4853 4.5 10ZM9 3.5C5.41015 3.5 2.5 6.41015 2.5 10C2.5 13.5899 5.41015 16.5 9 16.5C12.5899 16.5 15.5 13.5899 15.5 10C15.5 6.41015 12.5899 3.5 9 3.5ZM18.483 3.5C19.0353 3.5 19.483 3.94772 19.483 4.5L19.483 18.0858L20.7633 16.8054C21.1539 16.4149 21.787 16.4149 22.1776 16.8054C22.5681 17.1959 22.5681 17.8291 22.1776 18.2196L19.1901 21.2071C19.0026 21.3946 18.7482 21.5 18.483 21.5C18.2178 21.5 17.9634 21.3946 17.7759 21.2071L14.7885 18.2196C14.398 17.8291 14.398 17.1959 14.7885 16.8054C15.179 16.4149 15.8122 16.4149 16.2027 16.8054L17.483 18.0857L17.483 4.5C17.483 3.94772 17.9307 3.5 18.483 3.5ZM9.00234 6.33337C9.4065 6.33337 9.73413 6.6617 9.73413 7.06671V7.22671C9.76125 7.23302 9.78805 7.23965 9.81454 7.2466C10.1067 7.32237 10.349 7.42397 10.5414 7.5514C10.7373 7.67883 10.8851 7.82003 10.9848 7.97502C11.0879 8.13 11.1394 8.28153 11.1394 8.42963C11.1394 8.5915 11.0844 8.72409 10.9744 8.82741C10.8679 8.93073 10.715 8.98239 10.5156 8.98239C10.3713 8.98239 10.2476 8.94107 10.1445 8.85841C10.0448 8.77575 9.92967 8.65177 9.79907 8.48645C9.77815 8.45941 9.75651 8.43342 9.73413 8.4085V9.48808C10.0655 9.58132 10.3431 9.68828 10.5672 9.80896C10.8456 9.95705 11.0552 10.1327 11.1961 10.3359C11.3405 10.5357 11.4126 10.7647 11.4126 11.023C11.4126 11.4122 11.3181 11.7462 11.1291 12.0252C10.9401 12.3007 10.66 12.5108 10.2888 12.6555C10.1208 12.72 9.93589 12.7698 9.73413 12.8048V12.9334C9.73413 13.3384 9.4065 13.6667 9.00234 13.6667C8.59819 13.6667 8.27055 13.3384 8.27055 12.9334V12.8145C8.04198 12.7759 7.8332 12.716 7.64421 12.6348C7.28335 12.4798 7.017 12.2869 6.84516 12.0562C6.67332 11.822 6.5874 11.5878 6.5874 11.3536C6.5874 11.1986 6.64239 11.066 6.75237 10.9558C6.86234 10.8456 7.00153 10.7905 7.16994 10.7905C7.31772 10.7905 7.43113 10.8267 7.51018 10.899C7.58922 10.9713 7.66483 11.0729 7.737 11.2038C7.88135 11.4552 8.05319 11.6429 8.25252 11.7669L8.27055 11.7776V10.3101C8.03353 10.2378 7.82647 10.1637 7.64937 10.0879C7.34693 9.95361 7.10464 9.77796 6.92249 9.56099C6.74034 9.34402 6.64926 9.07711 6.64926 8.76025C6.64926 8.47784 6.73347 8.21093 6.90187 7.95952C7.07027 7.7081 7.31772 7.50835 7.64421 7.36026C7.83142 7.27427 8.0402 7.21268 8.27055 7.17549V7.06671C8.27055 6.6617 8.59819 6.33337 9.00234 6.33337ZM8.27055 8.15605C8.2466 8.16877 8.2234 8.18248 8.20097 8.19716C8.03257 8.30392 7.94837 8.43824 7.94837 8.60011C7.94837 8.7482 8.01023 8.87046 8.13395 8.9669C8.1748 8.9976 8.22034 9.02661 8.27055 9.05394V8.15605ZM9.73413 10.7764V11.7893C9.74567 11.7821 9.757 11.7746 9.76814 11.7669C9.95029 11.6395 10.0414 11.4948 10.0414 11.3329C10.0414 11.085 9.94685 10.9042 9.75783 10.7905C9.75014 10.7858 9.74224 10.7811 9.73413 10.7764Z" fill="#1C1C31"/>
</svg>
