<svg width="25" height="25" viewBox="0 0 25 25" fill="none" xmlns="http://www.w3.org/2000/svg">
    <path fill-rule="evenodd" clip-rule="evenodd" d="M19.7317 2.83423C20.284 2.83423 20.7317 3.28194 20.7317 3.83423V4.83423H21.7317C22.284 4.83423 22.7317 5.28194 22.7317 5.83423C22.7317 6.38651 22.284 6.83423 21.7317 6.83423H20.6107C20.685 7.15018 20.7089 7.45953 20.7152 7.72689C20.7236 8.08335 20.7013 8.44552 20.68 8.76204L20.6729 8.86646V8.86647V8.86649C20.6534 9.15399 20.6366 9.40013 20.635 9.62956C20.6213 11.5824 19.2534 12.5995 18.2601 13.1924C18.0451 13.3207 17.8292 13.4398 17.6395 13.5444L17.6395 13.5444L17.5428 13.5978C17.3211 13.7204 17.1486 13.8185 17.0101 13.9103C16.9437 13.9543 16.8969 13.9893 16.8647 14.0155C16.7591 16.7657 14.5502 18.9795 11.8053 19.0525C11.7791 19.0847 11.7445 19.1307 11.7013 19.1951C11.6082 19.334 11.5084 19.5072 11.3838 19.7293L11.3295 19.8263C11.2232 20.0162 11.1024 20.2322 10.9724 20.4472C10.3751 21.4351 9.3468 22.8107 7.39779 22.797C6.83594 22.793 6.10773 22.7852 5.42304 22.6542C4.7459 22.5247 3.95058 22.2464 3.39445 21.5738C2.9187 20.9983 2.7805 20.2347 2.72687 19.6608C2.68006 19.1599 2.68696 18.6293 2.69228 18.2202L2.69228 18.2201C2.69334 18.1387 2.69433 18.062 2.69483 17.9913C2.70858 16.0385 4.07646 15.0214 5.06976 14.4285C5.28475 14.3002 5.50063 14.1811 5.69022 14.0766L5.69027 14.0766L5.78703 14.0231C6.00871 13.9005 6.18123 13.8024 6.31971 13.7106C6.38616 13.6666 6.43297 13.6316 6.46512 13.6054C6.57079 10.8552 8.77959 8.64142 11.5246 8.56837C11.5507 8.53622 11.5854 8.49019 11.6285 8.42582C11.7216 8.28687 11.8215 8.11367 11.9461 7.8916L12.0003 7.79466L12.0004 7.79464C12.1066 7.60471 12.2274 7.38869 12.3574 7.17366C12.9547 6.18584 13.9831 4.81021 15.9321 4.82393C16.0374 4.82468 16.1755 4.82274 16.3341 4.82051L16.3342 4.82051C16.7248 4.81502 17.2404 4.80777 17.6991 4.83448C18.0325 4.85388 18.3923 4.89239 18.7317 4.9726V3.83423C18.7317 3.28194 19.1794 2.83423 19.7317 2.83423ZM16.4709 6.81954L16.4709 6.81954C16.8279 6.8141 17.195 6.80852 17.5829 6.8311C17.8618 6.84733 18.0973 6.87693 18.2803 6.92102C18.4452 6.96077 18.5109 6.99914 18.522 7.0056C18.5241 7.00682 18.5242 7.00691 18.5228 7.00568C18.5907 7.06258 18.7028 7.22502 18.7158 7.77416C18.7218 8.02912 18.706 8.30839 18.6845 8.62774L18.6774 8.732C18.6584 9.00979 18.6371 9.32061 18.6351 9.61548C18.6292 10.4435 18.118 10.948 17.235 11.475C17.0518 11.5844 16.8695 11.685 16.6792 11.79L16.5747 11.8477C16.3568 11.9682 16.119 12.1016 15.9055 12.243C15.5617 12.4708 14.8747 12.9693 14.8686 13.833C14.8559 15.6335 13.4025 17.0667 11.6421 17.0543C10.7723 17.0482 10.2664 17.7437 10.0399 18.0816C9.89715 18.2947 9.76197 18.5325 9.63951 18.7507L9.5809 18.8554L9.58087 18.8554C9.47421 19.046 9.37193 19.2288 9.2609 19.4124C8.72254 20.3029 8.21748 20.8027 7.41187 20.797C6.82997 20.7929 6.27816 20.7815 5.79886 20.6898C5.31202 20.5967 5.05937 20.4488 4.93584 20.2994C4.86495 20.2136 4.76471 19.9725 4.7182 19.4748C4.68224 19.09 4.68705 18.689 4.69194 18.2806L4.69194 18.2806L4.69194 18.2805L4.69194 18.2805L4.69194 18.2804L4.69194 18.2804C4.69304 18.1891 4.69414 18.0974 4.69478 18.0054C4.70061 17.1774 5.21183 16.6729 6.0948 16.1459C6.27803 16.0365 6.46026 15.936 6.65055 15.831L6.65059 15.831L6.75511 15.7732C6.97303 15.6527 7.21086 15.5193 7.42434 15.3779C7.76815 15.1501 8.45516 14.6516 8.46125 13.7879C8.47392 11.9874 9.92737 10.5542 11.6878 10.5666C12.5575 10.5727 13.0634 9.87717 13.2899 9.53927C13.4327 9.32621 13.5679 9.08844 13.6903 8.87016L13.7489 8.76555C13.8556 8.57492 13.9579 8.39212 14.0689 8.20846C14.6073 7.31803 15.1124 6.81821 15.918 6.82388C16.1005 6.82517 16.2843 6.82237 16.4709 6.81954ZM11.464 8.63369L11.4632 8.63453C11.4632 8.6347 11.4652 8.63325 11.4691 8.62966L11.4659 8.63211L11.464 8.63369ZM6.52763 13.5477C6.52777 13.5477 6.52647 13.5494 6.5233 13.5529C6.52589 13.5494 6.52748 13.5477 6.52763 13.5477ZM11.8666 18.9864C11.8666 18.9866 11.8646 18.9883 11.8607 18.9912C11.8646 18.9877 11.8666 18.9862 11.8666 18.9864ZM16.8022 14.0733C16.8021 14.0733 16.8034 14.0715 16.8065 14.0681C16.8039 14.0715 16.8024 14.0733 16.8022 14.0733ZM12.8152 14.9902C13.7653 14.1201 14.0065 12.8371 13.3539 12.1245C12.7013 11.412 11.402 11.5397 10.452 12.4098C9.50189 13.28 9.26073 14.563 9.91333 15.2756C10.5659 15.9881 11.8652 15.8604 12.8152 14.9902ZM8.69461 16.9405C9.25413 17.5514 9.04737 18.6514 8.2328 19.3975C7.41823 20.1435 6.30431 20.253 5.74479 19.6421C5.18528 19.0311 5.39204 17.9311 6.2066 17.1851C7.02117 16.4391 8.13509 16.3296 8.69461 16.9405ZM17.2328 10.3975C18.0474 9.65143 18.2541 8.5514 17.6946 7.94048C17.1351 7.32955 16.0212 7.43907 15.2066 8.18509C14.392 8.93112 14.1853 10.0311 14.7448 10.6421C15.3043 11.253 16.4182 11.1435 17.2328 10.3975Z" fill="#1C1C31"/>
</svg>
