<svg width="25" height="24" viewBox="0 0 25 24" fill="none" xmlns="http://www.w3.org/2000/svg"> 
    <path fill-rule="evenodd" clip-rule="evenodd" d="M19.0417 2.32789C18.6396 1.94934 18.0067 1.96847 17.6282 2.37061C16.4179 3.65638 15.5983 5.25999 15.2654 6.99412C15.26 7.02232 15.2558 7.05046 15.2528 7.0785C13.6548 7.8585 12.7703 9.5351 12.9967 11.7818C13.3148 14.9385 11.9564 15.743 10.0599 16.5037C8.85259 16.9874 7.56443 17.2538 6.15568 17.2538C5.77632 17.2538 5.40158 17.2336 5.03248 17.1943C4.86043 17.1759 4.6896 17.1534 4.5201 17.1269C4.05405 17.0539 3.59807 16.9502 3.15434 16.8181C3.07926 16.7957 3.00453 16.7726 2.93016 16.7486C2.66563 16.6633 2.42075 16.9387 2.56511 17.1762C2.61405 17.2568 2.66405 17.3366 2.71507 17.4157C2.97423 17.8173 3.26005 18.2001 3.57002 18.5617C3.72115 18.7379 3.87802 18.9091 4.04035 19.0749C5.94616 21.0219 8.60363 22.2302 11.5442 22.2302C17.9961 22.2302 22.413 17.0781 22.0337 10.6557C21.8561 8.31923 20.1786 6.59369 17.5198 6.59369C17.4875 6.59369 17.4554 6.59393 17.4233 6.59441C17.7511 5.5325 18.3179 4.55578 19.0845 3.74146C19.463 3.33931 19.4439 2.70644 19.0417 2.32789ZM10.8045 18.3599L10.8037 18.3602C9.74882 18.7829 8.63816 19.0666 7.46088 19.1875C8.67307 19.8526 10.0646 20.2302 11.5442 20.2302C16.732 20.2302 20.347 16.1662 20.0382 10.7917C19.9804 10.0748 19.7071 9.5514 19.3414 9.20957C18.9794 8.87112 18.4017 8.59369 17.5198 8.59369C16.5008 8.59369 15.8773 8.93116 15.5234 9.33046C15.1671 9.7325 14.8714 10.4383 14.9866 11.5812C15.1746 13.447 14.9052 15.024 13.9379 16.2686C13.0366 17.4283 11.7479 17.9815 10.8045 18.3599ZM14.7872 3.24323C14.8869 2.70002 14.5274 2.17882 13.9842 2.07909C13.441 1.97937 12.9198 2.33887 12.8201 2.88208C12.5666 4.26254 12.1528 4.94453 11.8265 5.24452C11.5499 5.49886 11.3003 5.52022 11.0502 5.43931C10.7492 5.34196 10.3967 5.06588 10.139 4.62888C9.88638 4.20051 9.77396 3.69819 9.85251 3.22727C9.91195 2.87092 9.77457 2.51022 9.49313 2.28371C9.21169 2.0572 8.82996 2.0001 8.49456 2.13434C7.09963 2.69265 6.15382 3.4266 5.75819 4.42278C5.36032 5.42457 5.63697 6.39678 5.96866 7.13218C6.18761 7.61762 6.50894 8.15032 6.7738 8.58937C6.88775 8.77827 6.99124 8.94984 7.07163 9.09286C7.22733 9.36987 7.32626 9.58055 7.37723 9.74494C7.41333 9.86134 7.41257 9.91422 7.41192 9.92507C7.34232 10.1674 7.24541 10.2377 7.20935 10.2582C7.16869 10.2812 7.0723 10.3155 6.88626 10.267C6.49119 10.1641 5.83263 9.6974 5.35563 8.60123C5.2031 8.25069 4.86405 8.01778 4.48212 8.00118C4.10019 7.98457 3.74221 8.18717 3.55983 8.52315C2.1587 11.1042 2.79282 13.965 4.07714 15.6144C4.41645 16.0502 5.04477 16.1284 5.48053 15.7891C5.91629 15.4498 5.99448 14.8214 5.65517 14.3857C5.07569 13.6415 4.68206 12.4879 4.78377 11.2661C5.26582 11.7299 5.8106 12.0536 6.38231 12.2025C6.97753 12.3575 7.62458 12.3218 8.19582 11.998C8.77133 11.6716 9.15341 11.1189 9.33872 10.4613C9.47411 9.98089 9.40181 9.52121 9.2875 9.15258C9.17335 8.78446 8.99209 8.42778 8.81509 8.11288C8.66864 7.85234 8.52832 7.6212 8.39589 7.40305L8.39588 7.40303C8.16823 7.02804 7.96388 6.69143 7.7918 6.30989C7.53814 5.74749 7.5196 5.40612 7.61696 5.161C7.66501 5.04001 7.769 4.87348 7.99649 4.68042C8.09823 5.02443 8.2419 5.34917 8.41628 5.64485C8.86808 6.41095 9.57622 7.06457 10.4346 7.34223C11.3438 7.63634 12.3523 7.47803 13.1802 6.71675C13.9585 6.00113 14.4956 4.83156 14.7872 3.24323Z" fill="#1C1C31"/>
</svg>
