<svg width="48" height="48" viewBox="0 0 48 48" fill="none" xmlns="http://www.w3.org/2000/svg">
<circle cx="24" cy="24" r="18" fill="#FFFCEB"/>
<path d="M16.0491 6.09422C18.2226 7.67883 18.3371 10.4907 17.9818 12.3392C17.9427 12.5426 18.1965 12.6806 18.3285 12.521C21.2144 9.03003 18.4845 5.30199 16.5536 3.71266C16.4807 3.65267 16.3769 3.65508 16.3042 3.71534L15.8233 4.11417C15.2141 4.61948 15.4095 5.62791 16.0491 6.09422Z" fill="#34800E"/>
<path d="M25.4414 15.3692C23.9133 16.3449 22.2822 17.5499 21.714 19.2818C21.1458 21.0137 21.8585 25.0144 22.5118 26.7052C23.1651 28.396 24.384 29.7981 25.958 30.6694C29.3203 32.5237 32.0695 33.2938 33.433 29.6499C33.9371 28.3082 33.9725 26.8362 33.5335 25.479C33.0945 24.1219 31.6653 22.1985 30.6809 21.1818C27.5986 17.9989 32.7915 15.0463 32.1535 14.5291C31.1896 13.7478 26.7554 14.5301 25.4414 15.3692Z" fill="#FF991F"/>
<path d="M29.9968 20.4447C28.1594 21.8552 26.456 22.4802 24.7844 24.4802C23.8654 26.2866 23.4137 28.7959 23.8438 30.7649C24.2739 32.7338 25.3748 34.4819 26.956 35.707C30.3349 38.3165 35.3198 37.4895 37.438 33.7176C38.2201 32.3291 38.5095 30.7177 38.2581 29.1518C38.0066 27.5859 37.2293 26.16 36.0558 25.1118C33.151 22.5169 36.3828 20.4668 35.8396 20.188C32.8334 18.6452 32.0249 22.837 29.9968 20.4447Z" fill="#FF991F"/>
<g style="mix-blend-mode:multiply">
<path d="M28.1866 24.5453C26.9013 25.1559 25.8632 26.1979 25.2516 27.4912C24.64 28.7845 24.4933 30.2478 24.8369 31.6283C25.1806 33.0089 25.9929 34.2199 27.1336 35.0521C29.5711 36.8245 31.6368 37.6927 33.0545 34.9881C33.5781 33.9924 33.7495 32.8495 33.5401 31.7497C33.3307 30.65 32.7533 29.6597 31.9039 28.944C30.0667 27.3959 33.008 24.6161 32.6762 24.3411C31.59 23.4409 29.2919 24.0201 28.1866 24.5453Z" fill="#FF8000"/>
</g>
<g style="mix-blend-mode:multiply" opacity="0.4">
<path fill-rule="evenodd" clip-rule="evenodd" d="M38.3239 30C38.2851 30.0815 38.2451 30.1624 38.2037 30.2429C37.2901 32.0186 35.7825 33.4284 33.9414 34.2289C32.1003 35.0294 30.0413 35.1701 28.1201 34.6268C26.199 34.0836 24.5365 32.8904 23.4199 31.2535C22.6153 30.07 22.2107 28.7284 22.177 27.3987C20.9806 29.6325 21.0513 32.4865 22.5954 34.7578C23.7121 36.3947 25.3746 37.5879 27.2957 38.1312C29.2168 38.6744 31.2758 38.5337 33.117 37.7332C34.9581 36.9328 36.4657 35.5229 37.3793 33.7472C37.9822 32.5753 38.3014 31.2926 38.3239 30Z" fill="#FF8000"/>
</g>
<path d="M37.2942 35.1632C37.8735 35.249 38.2883 35.8132 38.0071 36.3269C36.3084 39.4307 30.3557 39.2222 28.4755 39.0742C15.8572 38.1213 9.47164 18.6057 14.2639 12.9722C19.0561 7.33884 24.0919 11.2922 24.1205 13.9379C24.248 25.7294 24.3333 33.243 37.2942 35.1632Z" fill="#CC0C36"/>
<path fill-rule="evenodd" clip-rule="evenodd" d="M18.2447 10.2035C18.2698 10.3575 18.2834 10.5094 18.285 10.6582C18.4536 26.2557 20.6202 34.0322 37.8215 36.5447C35.9404 39.3764 30.2731 39.1756 28.4471 39.0319C15.8288 38.079 9.44321 18.5635 14.2354 12.9301C15.592 11.3354 16.9682 10.5089 18.2447 10.2035Z" fill="#6D1013" fill-opacity="0.3"/>
</svg>
