<svg width="25" height="25" viewBox="0 0 25 25" fill="none" xmlns="http://www.w3.org/2000/svg">
    <path fill-rule="evenodd" clip-rule="evenodd" d="M9.8128 4.63073C10.8369 2.90108 13.3629 2.90109 14.3869 4.63073L16.1523 7.61243C16.2413 7.76285 16.394 7.87469 16.5773 7.91374L20.0054 8.64403C21.9776 9.06418 22.7937 11.4503 21.4189 12.9639L19.0819 15.5369C18.9625 15.6683 18.9076 15.8393 18.9249 16.008L19.2783 19.441C19.4871 21.4702 17.4086 22.9045 15.5775 22.1107L12.3678 20.7192C12.1975 20.6454 12.0023 20.6454 11.8319 20.7192L8.62217 22.1107C6.79109 22.9045 4.7126 21.4702 4.92145 19.441L5.27478 16.008C5.29214 15.8393 5.23718 15.6683 5.11784 15.5369L2.7808 12.9639C1.40605 11.4503 2.22212 9.06417 4.19436 8.64403L7.62243 7.91374C7.80571 7.87469 7.9584 7.76285 8.04746 7.61242L9.8128 4.63073ZM12.6659 5.64965C12.4164 5.22811 11.7834 5.22811 11.5338 5.64965L9.76845 8.63135C9.39096 9.26895 8.76186 9.71588 8.03914 9.86984L4.61107 10.6001C4.11008 10.7069 3.94995 11.2764 4.26129 11.6192L6.59832 14.1923C7.09663 14.7409 7.34029 15.4741 7.26427 16.2127L6.91094 19.6458C6.86487 20.0934 7.34208 20.4858 7.82668 20.2757L11.0364 18.8842C11.7143 18.5904 12.4854 18.5904 13.1633 18.8842L16.373 20.2757C16.8576 20.4858 17.3349 20.0934 17.2888 19.6458L16.9355 16.2127C16.8594 15.4741 17.1031 14.7409 17.6014 14.1923L19.9384 11.6192C20.2498 11.2764 20.0896 10.7069 19.5887 10.6001L16.1606 9.86984C15.4379 9.71588 14.8088 9.26895 14.4313 8.63135L12.6659 5.64965Z" fill="#1C1C31"/>
</svg>
