<svg width="25" height="25" viewBox="0 0 25 25" fill="none" xmlns="http://www.w3.org/2000/svg">
    <path fill-rule="evenodd" clip-rule="evenodd" d="M5.3999 24.3333C4.84762 24.3333 4.3999 23.8855 4.3999 23.3333V7.33325C4.3999 6.78097 4.84762 6.33325 5.3999 6.33325C5.95219 6.33325 6.3999 6.78097 6.3999 7.33325V22.3333H21.3999C21.9522 22.3333 22.3999 22.781 22.3999 23.3333C22.3999 23.8855 21.9522 24.3333 21.3999 24.3333H5.3999ZM8.6928 18.6261C8.30227 19.0167 8.30227 19.6498 8.6928 20.0404C9.08332 20.4309 9.71649 20.4309 10.107 20.0404L14.5273 15.62L16.8298 17.155C16.9024 17.2056 16.9803 17.2453 17.0612 17.2744C17.3411 17.3749 17.6569 17.3467 17.9166 17.1897C17.9902 17.1453 18.0588 17.0911 18.1201 17.0273L22.107 13.0404C22.4975 12.6498 22.4975 12.0167 22.107 11.6261C21.7165 11.2356 21.0833 11.2356 20.6928 11.6261L17.2725 15.0465L14.97 13.5115C14.771 13.3731 14.533 13.3153 14.3014 13.3381C14.1556 13.3524 14.0125 13.3987 13.8832 13.4768C13.8096 13.5212 13.741 13.5754 13.6797 13.6392L8.6928 18.6261Z" fill="#1C1C31"/>
</svg>
