<svg width="25" height="25" viewBox="0 0 25 25" fill="none" xmlns="http://www.w3.org/2000/svg">
    <path fill-rule="evenodd" clip-rule="evenodd" d="M12.1475 4.41675C10.0257 4.41675 7.9909 5.2596 6.49061 6.75989C4.99032 8.26018 4.14746 10.295 4.14746 12.4167C4.14746 13.4673 4.35439 14.5076 4.75642 15.4782C5.15846 16.4488 5.74774 17.3307 6.49061 18.0736C7.23348 18.8165 8.11539 19.4057 9.08599 19.8078C10.0566 20.2098 11.0969 20.4167 12.1475 20.4167C13.198 20.4167 14.2383 20.2098 15.2089 19.8078C16.1795 19.4057 17.0614 18.8165 17.8043 18.0736C18.5472 17.3307 19.1365 16.4488 19.5385 15.4782C19.9405 14.5076 20.1475 13.4673 20.1475 12.4167C20.1475 10.295 19.3046 8.26018 17.8043 6.75989C16.304 5.2596 14.2692 4.41675 12.1475 4.41675ZM5.07639 5.34568C6.95176 3.47032 9.4953 2.41675 12.1475 2.41675C14.7996 2.41675 17.3432 3.47032 19.2185 5.34568C21.0939 7.22104 22.1475 9.76458 22.1475 12.4167C22.1475 13.73 21.8888 15.0303 21.3863 16.2436C20.8837 17.4568 20.1471 18.5592 19.2185 19.4878C18.2899 20.4164 17.1876 21.153 15.9743 21.6555C14.761 22.1581 13.4607 22.4167 12.1475 22.4167C10.8342 22.4167 9.53388 22.1581 8.32063 21.6555C7.10737 21.153 6.00498 20.4164 5.07639 19.4878C4.14781 18.5592 3.41121 17.4568 2.90867 16.2436C2.40612 15.0303 2.14746 13.73 2.14746 12.4167C2.14746 9.76458 3.20103 7.22104 5.07639 5.34568ZM15.8546 9.70964C16.2451 10.1002 16.2451 10.7333 15.8546 11.1239L11.8546 15.1239C11.464 15.5144 10.8309 15.5144 10.4404 15.1239L8.44035 13.1239C8.04983 12.7333 8.04983 12.1002 8.44035 11.7096C8.83088 11.3191 9.46404 11.3191 9.85457 11.7096L11.1475 13.0025L14.4404 9.70964C14.8309 9.31912 15.464 9.31912 15.8546 9.70964Z" fill="#1C1C31"/>
</svg>
