<svg width="49" height="48" viewBox="0 0 49 48" fill="none" xmlns="http://www.w3.org/2000/svg">
    <path fill-rule="evenodd" clip-rule="evenodd" d="M24.199 43.2001C29.2912 43.2001 34.1748 41.1772 37.7755 37.5765C41.3762 33.9758 43.399 29.0922 43.399 24C43.399 18.9079 41.3762 14.0243 37.7755 10.4236C34.1748 6.8229 29.2912 4.80005 24.199 4.80005C19.1069 4.80005 14.2233 6.8229 10.6226 10.4236C7.02188 14.0243 4.99902 18.9079 4.99902 24C4.99902 29.0922 7.02188 33.9758 10.6226 37.5765C14.2233 41.1772 19.1069 43.2001 24.199 43.2001ZM33.0958 20.8968C33.533 20.4442 33.7749 19.838 33.7694 19.2087C33.764 18.5794 33.5116 17.9775 33.0666 17.5325C32.6216 17.0875 32.0197 16.8351 31.3904 16.8296C30.7611 16.8242 30.1549 17.0661 29.7022 17.5033L21.799 25.4065L18.6958 22.3032C18.2432 21.8661 17.6369 21.6242 17.0077 21.6296C16.3784 21.6351 15.7764 21.8875 15.3315 22.3325C14.8865 22.7775 14.6341 23.3794 14.6286 24.0087C14.6231 24.638 14.865 25.2442 15.3022 25.6968L20.1022 30.4968C20.5523 30.9468 21.1626 31.1995 21.799 31.1995C22.4354 31.1995 23.0458 30.9468 23.4958 30.4968L33.0958 20.8968Z" fill="#1C1C31"/>
</svg>
