<svg width="25" height="25" viewBox="0 0 25 25" fill="none" xmlns="http://www.w3.org/2000/svg">
    <path d="M9.28761 14.7649C9.28761 15.2983 9.15781 15.7561 8.89822 16.1384C8.63862 16.516 8.25395 16.8039 7.74421 17.0021C7.23918 17.1957 6.62323 17.2924 5.89637 17.2924C5.20255 17.2924 4.60784 17.1862 4.11225 16.9738C3.61667 16.7614 3.25087 16.4971 3.01488 16.1809C2.77889 15.8599 2.66089 15.539 2.66089 15.218C2.66089 15.0056 2.73641 14.8239 2.88744 14.6729C3.03848 14.5218 3.22963 14.4463 3.46091 14.4463C3.66386 14.4463 3.81962 14.4959 3.92818 14.595C4.03674 14.6941 4.14057 14.8334 4.23969 15.0127C4.43793 15.3573 4.67392 15.6145 4.94767 15.7844C5.22615 15.9543 5.60374 16.0393 6.08045 16.0393C6.46748 16.0393 6.78371 15.9543 7.02914 15.7844C7.2793 15.6098 7.40437 15.4115 7.40437 15.1897C7.40437 14.8499 7.27458 14.6021 7.01498 14.4463C6.76011 14.2906 6.33768 14.1419 5.74769 14.0003C5.08219 13.8351 4.5394 13.6628 4.11933 13.4835C3.70398 13.2994 3.37123 13.0587 3.12108 12.7613C2.87092 12.464 2.74585 12.0982 2.74585 11.6639C2.74585 11.2769 2.86148 10.9111 3.09276 10.5666C3.32403 10.222 3.66386 9.94827 4.11225 9.74531C4.56536 9.53764 5.11051 9.4338 5.74769 9.4338C6.248 9.4338 6.69639 9.48572 7.09286 9.58956C7.49405 9.6934 7.8268 9.83263 8.09112 10.0073C8.36015 10.1819 8.56311 10.3754 8.69998 10.5878C8.84158 10.8002 8.91238 11.0079 8.91238 11.2108C8.91238 11.4327 8.83686 11.6144 8.68582 11.756C8.53951 11.8976 8.32947 11.9684 8.05572 11.9684C7.85748 11.9684 7.68757 11.9117 7.54597 11.7985C7.40909 11.6852 7.25098 11.5153 7.07162 11.2887C6.92531 11.0999 6.75303 10.9489 6.55479 10.8356C6.35656 10.7223 6.08753 10.6657 5.74769 10.6657C5.39842 10.6657 5.10815 10.7412 4.87687 10.8922C4.6456 11.0386 4.52996 11.2226 4.52996 11.4445C4.52996 11.6474 4.61492 11.815 4.78484 11.9471C4.95475 12.0746 5.18367 12.1808 5.47158 12.2657C5.75949 12.3507 6.15596 12.4545 6.66099 12.5772C7.26042 12.7236 7.74893 12.8982 8.12652 13.1012C8.50883 13.3041 8.79674 13.5448 8.99026 13.8233C9.18849 14.097 9.28761 14.4109 9.28761 14.7649Z" fill="#1C1C31"/>
    <path d="M18.1586 13.3631C18.1586 13.9389 18.069 14.4699 17.8896 14.9561C17.7102 15.4422 17.4507 15.8599 17.1108 16.2092C16.771 16.5585 16.3651 16.8275 15.8931 17.0163C15.4211 17.2004 14.8901 17.2924 14.3001 17.2924C13.7149 17.2924 13.1886 17.198 12.7213 17.0092C12.2541 16.8204 11.8481 16.5514 11.5036 16.2021C11.1638 15.8481 10.9042 15.4328 10.7248 14.9561C10.5502 14.4746 10.4629 13.9437 10.4629 13.3631C10.4629 12.7778 10.5525 12.2421 10.7319 11.756C10.9112 11.2698 11.1685 10.8545 11.5036 10.5099C11.8387 10.1654 12.2446 9.90107 12.7213 9.717C13.198 9.5282 13.7243 9.4338 14.3001 9.4338C14.8854 9.4338 15.4164 9.5282 15.8931 9.717C16.3698 9.90579 16.7781 10.1748 17.1179 10.5241C17.4577 10.8734 17.715 11.2887 17.8896 11.7701C18.069 12.2516 18.1586 12.7826 18.1586 13.3631ZM16.2188 13.3631C16.2188 12.5749 16.0441 11.9613 15.6949 11.5224C15.3503 11.0834 14.8854 10.8639 14.3001 10.8639C13.9225 10.8639 13.5898 10.963 13.3019 11.1613C13.014 11.3548 12.7921 11.6427 12.6364 12.025C12.4806 12.4073 12.4027 12.8534 12.4027 13.3631C12.4027 13.8681 12.4783 14.3094 12.6293 14.687C12.785 15.0646 13.0045 15.3549 13.2877 15.5579C13.5756 15.7561 13.9131 15.8552 14.3001 15.8552C14.8854 15.8552 15.3503 15.6357 15.6949 15.1968C16.0441 14.7531 16.2188 14.1419 16.2188 13.3631Z" fill="#1C1C31"/>
    <path d="M22.2177 12.8498H19.6572C19.4566 12.8498 19.3012 12.8007 19.1911 12.7023C19.081 12.604 19.0259 12.488 19.0259 12.3542C19.0259 12.2126 19.0751 12.0789 19.1734 11.953C19.2717 11.8232 19.3996 11.6934 19.5569 11.5637C19.7142 11.4339 19.9522 11.247 20.2708 11.0032C20.2983 10.9835 20.4576 10.8734 20.7487 10.6728C21.0437 10.4682 21.2502 10.2991 21.3682 10.1654C21.4901 10.0317 21.5511 9.88416 21.5511 9.7229C21.5511 9.54983 21.4842 9.41414 21.3505 9.31581C21.2207 9.21354 21.0515 9.16241 20.8431 9.16241C20.6228 9.16241 20.4576 9.20567 20.3475 9.29221C20.2413 9.37874 20.1449 9.50853 20.0584 9.6816C19.9758 9.85073 19.903 9.97069 19.8401 10.0415C19.7772 10.1084 19.667 10.1418 19.5097 10.1418C19.376 10.1418 19.2639 10.1025 19.1734 10.0238C19.0829 9.94119 19.0377 9.83303 19.0377 9.6993C19.0377 9.50657 19.1046 9.31187 19.2383 9.11521C19.372 8.91461 19.5766 8.74942 19.8519 8.61962C20.1272 8.48983 20.4655 8.42493 20.8667 8.42493C21.4685 8.42493 21.9168 8.55079 22.2118 8.80252C22.5068 9.05031 22.6543 9.35317 22.6543 9.7111C22.6543 10.0376 22.5383 10.3227 22.3062 10.5666C22.0742 10.8065 21.7418 11.07 21.3092 11.3572C20.8804 11.6403 20.6031 11.8527 20.4773 11.9943H22.1115C22.3121 11.9943 22.4655 12.0337 22.5717 12.1123C22.6819 12.1871 22.7369 12.2913 22.7369 12.425C22.7369 12.5391 22.6917 12.6394 22.6012 12.7259C22.5147 12.8085 22.3869 12.8498 22.2177 12.8498Z" fill="#1C1C31"/>
</svg>
