<svg width="20" height="20" viewBox="0 0 20 20" fill="none" xmlns="http://www.w3.org/2000/svg">
    <path fill-rule="evenodd" clip-rule="evenodd" d="M10.8315 2.49855C10.8315 2.03916 10.4591 1.66675 9.99973 1.66675C9.54034 1.66675 9.16793 2.03916 9.16793 2.49855V3.1805C9.16793 3.63989 9.54034 4.0123 9.99973 4.0123C10.4591 4.0123 10.8315 3.63989 10.8315 3.1805V2.49855ZM5.07595 10.0001C5.07595 7.28091 7.28027 5.07659 9.99944 5.07659C12.7186 5.07659 14.9229 7.28091 14.9229 10.0001C14.9229 12.7192 12.7186 14.9236 9.99944 14.9236C7.28027 14.9236 5.07595 12.7192 5.07595 10.0001ZM9.99944 6.7402C8.19905 6.7402 6.73955 8.1997 6.73955 10.0001C6.73955 11.8005 8.19905 13.26 9.99944 13.26C11.7998 13.26 13.2593 11.8005 13.2593 10.0001C13.2593 8.1997 11.7998 6.7402 9.99944 6.7402ZM15.9876 9.99997C15.9876 9.54058 16.36 9.16817 16.8194 9.16817H17.5014C17.9608 9.16817 18.3332 9.54058 18.3332 9.99997C18.3332 10.4594 17.9608 10.8318 17.5014 10.8318H16.8194C16.36 10.8318 15.9876 10.4594 15.9876 9.99997ZM9.99973 15.9877C10.4591 15.9877 10.8315 16.3601 10.8315 16.8195V17.5014C10.8315 17.9608 10.4591 18.3332 9.99973 18.3332C9.54034 18.3332 9.16793 17.9608 9.16793 17.5014V16.8195C9.16793 16.3601 9.54034 15.9877 9.99973 15.9877ZM15.3616 14.1853C15.0368 13.8605 14.5101 13.8605 14.1853 14.1853C13.8604 14.5101 13.8604 15.0368 14.1853 15.3616L14.8672 16.0436C15.192 16.3684 15.7187 16.3684 16.0436 16.0436C16.3684 15.7188 16.3684 15.1921 16.0436 14.8673L15.3616 14.1853ZM16.0436 3.95636C16.3684 4.2812 16.3684 4.80787 16.0436 5.13271L15.3616 5.81466C15.0368 6.1395 14.5101 6.1395 14.1853 5.81466C13.8604 5.48982 13.8604 4.96315 14.1853 4.63831L14.8672 3.95636C15.192 3.63153 15.7187 3.63153 16.0436 3.95636ZM5.81401 15.3616C6.13885 15.0368 6.13885 14.5101 5.81401 14.1853C5.48918 13.8605 4.96251 13.8605 4.63767 14.1853L3.95572 14.8673C3.63088 15.1921 3.63088 15.7188 3.95572 16.0436C4.28056 16.3684 4.80723 16.3684 5.13207 16.0436L5.81401 15.3616ZM3.95572 3.95636C4.28056 3.63153 4.80723 3.63153 5.13207 3.95636L5.81401 4.63831C6.13885 4.96315 6.13885 5.48982 5.81401 5.81466C5.48918 6.1395 4.96251 6.1395 4.63767 5.81466L3.95572 5.13271C3.63088 4.80787 3.63088 4.2812 3.95572 3.95636ZM2.49831 9.16817C2.03891 9.16817 1.6665 9.54058 1.6665 9.99997C1.6665 10.4594 2.03891 10.8318 2.49831 10.8318H3.18025C3.63964 10.8318 4.01205 10.4594 4.01205 9.99997C4.01205 9.54058 3.63964 9.16817 3.18025 9.16817H2.49831Z" fill="#1C1C31"/>
</svg>
