<svg width="25" height="25" viewBox="0 0 25 25" fill="none" xmlns="http://www.w3.org/2000/svg">
    <path fill-rule="evenodd" clip-rule="evenodd" d="M9.69897 5.85864H15.699C16.7386 5.85864 17.6855 6.25522 18.3968 6.90535C18.1843 6.97281 17.9957 7.11083 17.8669 7.30395C17.1846 8.32741 16.1927 8.4626 15.1451 8.25307C14.6209 8.14823 14.1355 7.96117 13.7743 7.79444C13.5959 7.71212 13.4533 7.63732 13.3578 7.58463C12.9416 7.35502 12.465 7.35018 12.0401 7.58463C11.9446 7.63732 11.802 7.71212 11.6236 7.79444C11.2624 7.96117 10.777 8.14823 10.2528 8.25307C9.20522 8.4626 8.21331 8.32741 7.53101 7.30395C7.40228 7.11087 7.21369 6.97283 7.00115 6.90535C7.71244 6.25522 8.6594 5.85864 9.69897 5.85864ZM5.79829 8.9689C5.73329 9.25504 5.69897 9.55283 5.69897 9.85864V13.4939C5.69897 15.5 6.70158 17.3734 8.37077 18.4862L12.699 21.3717L17.0272 18.4862C18.6964 17.3734 19.699 15.5 19.699 13.4939V9.85864C19.699 9.55283 19.6647 9.25504 19.5997 8.96891C19.582 8.96774 19.5645 8.96655 19.5474 8.96534C19.4002 8.95494 19.2617 8.94188 19.1372 8.92826C17.8362 10.4081 16.067 10.4771 14.7528 10.2142C14.027 10.0691 13.3874 9.81863 12.9361 9.61036C12.851 9.57104 12.7717 9.53285 12.699 9.49667C12.6262 9.53285 12.547 9.57104 12.4618 9.61036C12.0105 9.81863 11.3709 10.0691 10.6451 10.2142C9.3309 10.4771 7.56172 10.4081 6.26073 8.92826C6.13619 8.94188 5.99766 8.95494 5.85052 8.96534C5.83339 8.96655 5.81598 8.96774 5.79829 8.9689ZM3.69897 9.85864C3.69897 6.54493 6.38527 3.85864 9.69897 3.85864H15.699C19.0127 3.85864 21.699 6.54493 21.699 9.85864V13.4939C21.699 16.1687 20.3622 18.6666 18.1366 20.1503L13.2537 23.4056C12.9178 23.6295 12.4802 23.6295 12.1443 23.4056L7.26137 20.1503C5.03578 18.6666 3.69897 16.1687 3.69897 13.4939V9.85864Z" fill="#1C1C31"/>
</svg>
