<svg width="48" height="48" viewBox="0 0 48 48" fill="none" xmlns="http://www.w3.org/2000/svg">
    <path d="M40.1122 35.4466C40.1222 35.3266 40.1221 35.2166 40.1221 35.1066C40.1221 32.8366 38.3521 30.9966 36.1621 30.9966C33.9721 30.9966 32.2021 32.8366 32.2021 35.1066C32.2021 35.2266 32.2021 35.3366 32.2121 35.4466H40.1122Z" fill="#FFEA80"/>
    <path d="M16.1154 34.9917C16.2747 34.5895 16.3721 34.1479 16.3721 33.6904C16.3721 31.6479 14.5756 29.9917 12.3721 29.9917C10.1685 29.9917 8.37207 31.6479 8.37207 33.6904C8.37207 34.1557 8.46057 34.5895 8.62871 34.9917H16.1154Z" fill="#FFAB00"/>
    <path d="M11.7322 35.4468C11.7322 28.5568 17.1122 22.9868 23.7422 22.9868C30.3722 22.9868 35.7522 28.5668 35.7522 35.4468H11.7322Z" fill="#FFAB00"/>
    <path d="M26.9322 23.4268C25.9222 23.1368 24.8422 22.9868 23.7422 22.9868C17.1022 22.9868 11.7322 28.5668 11.7322 35.4468H18.1122C18.1122 29.6968 21.8522 24.8768 26.9322 23.4268Z" fill="#FFAB00"/>
    <g style="mix-blend-mode:multiply" opacity="0.4">
        <path d="M26.9322 23.4268C25.9222 23.1368 24.8422 22.9868 23.7422 22.9868C17.1022 22.9868 11.7322 28.5668 11.7322 35.4468H18.1122C18.1122 29.6968 21.8522 24.8768 26.9322 23.4268Z" fill="#FFAB00"/>
    </g>
    <g style="mix-blend-mode:multiply" opacity="0.6">
        <path d="M22.9123 26.8567L21.3523 27.3267C21.0123 27.4367 20.6523 27.2267 20.5623 26.8767C20.4623 26.5267 20.6523 26.1467 20.9923 26.0567L22.5523 25.5867C22.8923 25.4767 23.2523 25.6867 23.3423 26.0367C23.4423 26.3867 23.2523 26.7667 22.9123 26.8567Z" fill="#FFAB00"/>
    </g>
    <g style="mix-blend-mode:multiply" opacity="0.6">
        <path d="M23.2522 30.1866L22.1322 28.9666C21.8922 28.6966 21.9022 28.2766 22.1522 28.0266C22.4122 27.7766 22.8222 27.7866 23.0622 28.0466L24.1822 29.2666C24.4322 29.5366 24.4122 29.9566 24.1622 30.2066C23.8922 30.4566 23.5022 30.4466 23.2522 30.1866Z" fill="#FFAB00"/>
    </g>
    <g style="mix-blend-mode:multiply" opacity="0.6">
        <path d="M24.3621 34.4968L25.1021 32.9968C25.2621 32.6668 25.6521 32.5368 25.9621 32.7068C26.2821 32.8768 26.4021 33.2768 26.2421 33.6068L25.5021 35.1068C25.3421 35.4368 24.9521 35.5668 24.6421 35.3968C24.3221 35.2368 24.2021 34.8268 24.3621 34.4968Z" fill="#FFAB00"/>
    </g>
    <g style="mix-blend-mode:multiply" opacity="0.6">
        <path d="M27.7121 30.7868L26.0921 30.8468C25.7421 30.8568 25.4421 30.5668 25.4221 30.2068C25.4121 29.8468 25.6921 29.5268 26.0421 29.5168L27.6621 29.4568C28.0121 29.4468 28.3121 29.7368 28.3321 30.0968C28.3421 30.4568 28.0621 30.7668 27.7121 30.7868Z" fill="#FFAB00"/>
    </g>
    <g style="mix-blend-mode:multiply" opacity="0.6">
        <path d="M22.5021 32.6568L20.9121 32.9968C20.5621 33.0668 20.2221 32.8368 20.1521 32.4768C20.0821 32.1168 20.3021 31.7668 20.6521 31.6868L22.2421 31.3468C22.5921 31.2768 22.9321 31.5068 23.0021 31.8668C23.0721 32.2268 22.8521 32.5768 22.5021 32.6568Z" fill="#FFAB00"/>
    </g>
    <g style="mix-blend-mode:multiply" opacity="0.6">
        <path d="M29.8922 33.2967L28.3322 32.8567C27.9922 32.7567 27.7822 32.3967 27.8722 32.0467C27.9622 31.6967 28.3122 31.4767 28.6522 31.5767L30.2122 32.0167C30.5522 32.1167 30.7622 32.4767 30.6722 32.8267C30.5822 33.1867 30.2322 33.3967 29.8922 33.2967Z" fill="#FFAB00"/>
    </g>
    <g style="mix-blend-mode:multiply" opacity="0.6">
        <path d="M19.1122 33.9567L17.9222 35.1067C17.6622 35.3567 17.2522 35.3367 17.0122 35.0667C16.7722 34.7967 16.7922 34.3767 17.0522 34.1267L18.2422 32.9767C18.5022 32.7267 18.9022 32.7467 19.1522 33.0167C19.4022 33.2867 19.3822 33.7067 19.1222 33.9567H19.1122Z" fill="#FFAB00"/>
    </g>
    <g style="mix-blend-mode:multiply" opacity="0.6">
        <path d="M16.9722 32.4368L15.3622 32.2568C15.0122 32.2168 14.7522 31.8968 14.7922 31.5168C14.8322 31.1568 15.1422 30.8868 15.5022 30.9268L17.1122 31.1068C17.4622 31.1468 17.7222 31.4668 17.6822 31.8468C17.6422 32.2068 17.3322 32.4768 16.9722 32.4368Z" fill="#FFAB00"/>
    </g>
    <g style="mix-blend-mode:multiply" opacity="0.6">
        <path d="M26.4121 28.0466L24.8021 27.8666C24.4521 27.8266 24.1921 27.5066 24.2321 27.1266C24.2621 26.7666 24.5821 26.4966 24.9421 26.5366L26.5521 26.7166C26.9021 26.7566 27.1621 27.0766 27.1221 27.4566C27.0721 27.8166 26.7621 28.0866 26.4121 28.0466Z" fill="#FFAB00"/>
    </g>
    <g style="mix-blend-mode:multiply" opacity="0.6">
        <path d="M33.112 31.2868L31.492 31.3368C31.142 31.3468 30.842 31.0568 30.822 30.6868C30.812 30.3268 31.092 30.0068 31.452 29.9968L33.072 29.9468C33.422 29.9368 33.722 30.2268 33.732 30.5968C33.732 30.9768 33.452 31.2768 33.102 31.2868H33.112Z" fill="#FFAB00"/>
    </g>
    <g style="mix-blend-mode:multiply" opacity="0.6">
        <path d="M18.5321 29.6967L19.5321 28.3667C19.7521 28.0767 20.1521 28.0267 20.4321 28.2467C20.7121 28.4767 20.7621 28.8867 20.5521 29.1767L19.5521 30.5067C19.3321 30.7967 18.9321 30.8467 18.6521 30.6267C18.3621 30.4067 18.3121 29.9867 18.5321 29.6967Z" fill="#FFAB00"/>
    </g>
    <g style="mix-blend-mode:multiply" opacity="0.6">
        <path d="M15.862 27.3267L17.412 27.8067C17.752 27.9167 17.952 28.2767 17.842 28.6467C17.742 28.9967 17.382 29.2067 17.042 29.0967L15.492 28.6167C15.152 28.5067 14.952 28.1467 15.062 27.7767C15.172 27.4267 15.532 27.2167 15.872 27.3267H15.862Z" fill="#FFAB00"/>
    </g>
    <g style="mix-blend-mode:multiply" opacity="0.6">
        <path d="M29.1223 27.8668L30.6523 27.2868C30.9923 27.1568 31.3523 27.3368 31.4823 27.6768C31.6123 28.0268 31.4323 28.4068 31.1123 28.5368L29.5823 29.1168C29.2423 29.2468 28.8823 29.0668 28.7523 28.7268C28.6223 28.3768 28.7923 27.9968 29.1223 27.8668Z" fill="#FFAB00"/>
    </g>
    <path d="M22.4521 18.8167C22.2221 18.8167 22.0021 18.7267 21.8321 18.5567C20.4421 17.1667 20.3821 14.9367 21.6721 13.4867C21.7121 13.3967 21.7721 13.3267 21.8321 13.2567C22.5921 12.4967 22.5921 11.2467 21.8321 10.4867C21.4921 10.1467 21.4921 9.5867 21.8321 9.2467C22.1721 8.9067 22.7321 8.9067 23.0721 9.2467C23.7721 9.9467 24.1621 10.8867 24.1621 11.8667C24.1621 12.7767 23.8421 13.6467 23.2321 14.3167C23.1921 14.4067 23.1321 14.4767 23.0721 14.5467C22.3121 15.3067 22.3121 16.5567 23.0721 17.3167C23.4121 17.6567 23.4121 18.2167 23.0721 18.5567C22.9121 18.7267 22.6821 18.8167 22.4621 18.8167H22.4521Z" fill="#FFAB00"/>
    <g style="mix-blend-mode:multiply" opacity="0.4">
        <path d="M22.4521 18.8167C22.2221 18.8167 22.0021 18.7267 21.8321 18.5567C20.4421 17.1667 20.3821 14.9367 21.6721 13.4867C21.7121 13.3967 21.7721 13.3267 21.8321 13.2567C22.5921 12.4967 22.5921 11.2467 21.8321 10.4867C21.4921 10.1467 21.4921 9.5867 21.8321 9.2467C22.1721 8.9067 22.7321 8.9067 23.0721 9.2467C23.7721 9.9467 24.1621 10.8867 24.1621 11.8667C24.1621 12.7767 23.8421 13.6467 23.2321 14.3167C23.1921 14.4067 23.1321 14.4767 23.0721 14.5467C22.3121 15.3067 22.3121 16.5567 23.0721 17.3167C23.4121 17.6567 23.4121 18.2167 23.0721 18.5567C22.9121 18.7267 22.6821 18.8167 22.4621 18.8167H22.4521Z" fill="#FFAB00"/>
    </g>
    <path d="M28.3121 19.9067C28.0821 19.9067 27.8621 19.8167 27.6921 19.6567C26.6921 18.6567 26.6421 17.0667 27.5521 16.0167C27.5921 15.9567 27.6421 15.8967 27.6921 15.8267C28.0521 15.4667 28.0521 14.8767 27.6921 14.4967C27.3521 14.1567 27.3521 13.5967 27.6921 13.2567C28.0321 12.9167 28.5921 12.9167 28.9321 13.2567C29.9321 14.2567 29.9821 15.8467 29.0721 16.8967C29.0321 16.9567 28.9821 17.0267 28.9321 17.0867C28.5721 17.4467 28.5721 18.0367 28.9321 18.4067C29.2721 18.7467 29.2721 19.3067 28.9321 19.6467C28.7721 19.8067 28.5421 19.8967 28.3221 19.8967L28.3121 19.9067Z" fill="#FFAB00"/>
    <path d="M32.9637 41.9768H13.8637C8.38374 42.1968 5.52374 38.0668 4.46374 36.0568C4.20374 35.5668 4.57374 34.9868 5.13374 34.9868H41.6237C42.2037 34.9868 42.5637 35.5968 42.2737 36.0868C41.0637 38.0968 37.9837 42.1568 32.9637 41.9768Z" fill="#8B8BC1"/>
    <g style="mix-blend-mode:multiply" opacity="0.26">
        <path d="M17.6237 35.6868L17.3137 34.9868H5.15366C4.57366 34.9868 4.19366 35.5868 4.46366 36.0968C5.47366 38.0668 8.19366 41.9768 13.8637 41.9768H27.2137C23.0737 41.9768 19.3137 39.5068 17.6337 35.6868H17.6237Z" fill="#8B8BC1"/>
    </g>
</svg>
