<svg width="48" height="48" viewBox="0 0 48 48" fill="none" xmlns="http://www.w3.org/2000/svg">
    <path d="M13.7827 35.1368C13.7827 33.887 14.7958 32.8739 16.0456 32.8739H31.9552C33.2049 32.8739 34.2181 33.887 34.2181 35.1368C34.2181 35.3867 34.0154 35.5894 33.7655 35.5894H14.2353C13.9853 35.5894 13.7827 35.3867 13.7827 35.1368Z" fill="#474785"/>
    <path d="M15.1109 28.7212C15.1874 28.5886 15.3788 28.5886 15.4554 28.7212L17.0919 31.5558C17.8958 32.9482 16.891 34.6887 15.2831 34.6887C13.6753 34.6887 12.6704 32.9482 13.4743 31.5558L15.1109 28.7212Z" fill="#FFBF00"/>
    <path d="M15.1792 31.0624C15.2257 30.9818 15.342 30.9818 15.3886 31.0624L16.3831 32.785C16.8716 33.6312 16.261 34.6889 15.2839 34.6889C14.3068 34.6889 13.6961 33.6312 14.1847 32.785L15.1792 31.0624Z" fill="#FF991F"/>
    <path d="M19.525 30.0915C19.5769 30.0016 19.7067 30.0016 19.7586 30.0915L20.8683 32.0134C21.4133 32.9575 20.732 34.1376 19.6418 34.1376C18.5517 34.1376 17.8703 32.9575 18.4154 32.0134L19.525 30.0915Z" fill="#FFBF00"/>
    <path d="M28.2418 30.0916C28.2937 30.0017 28.4235 30.0017 28.4754 30.0916L29.585 32.0135C30.1301 32.9576 29.4488 34.1378 28.3586 34.1378C27.2685 34.1378 26.5871 32.9576 27.1322 32.0135L28.2418 30.0916Z" fill="#FFBF00"/>
    <path d="M23.8277 28.7212C23.9042 28.5886 24.0956 28.5886 24.1722 28.7212L25.8087 31.5558C26.6126 32.9482 25.6078 34.6887 23.9999 34.6887C22.3921 34.6887 21.3872 32.9482 22.1911 31.5558L23.8277 28.7212Z" fill="#FFBF00"/>
    <path d="M23.8945 31.0625C23.9411 30.982 24.0574 30.982 24.1039 31.0625L25.0984 32.7851C25.587 33.6313 24.9763 34.689 23.9992 34.689C23.0221 34.689 22.4115 33.6313 22.9 32.7851L23.8945 31.0625Z" fill="#FF991F"/>
    <path d="M32.5445 28.7212C32.621 28.5886 32.8124 28.5886 32.889 28.7212L34.5255 31.5558C35.3294 32.9482 34.3245 34.6887 32.7167 34.6887C31.1089 34.6887 30.104 32.9482 30.9079 31.5558L32.5445 28.7212Z" fill="#FFBF00"/>
    <path d="M32.6123 31.0625C32.6588 30.982 32.7752 30.982 32.8217 31.0625L33.8162 32.7851C34.3048 33.6313 33.6941 34.689 32.717 34.689C31.7399 34.689 31.1292 33.6313 31.6178 32.7851L32.6123 31.0625Z" fill="#FF991F"/>
    <path d="M28.2873 31.6791C28.3189 31.6245 28.3977 31.6245 28.4293 31.6791L29.1036 32.8471C29.4348 33.4208 29.0208 34.138 28.3583 34.138C27.6958 34.138 27.2817 33.4208 27.613 32.8471L28.2873 31.6791Z" fill="#FF991F"/>
    <path d="M19.5705 31.6791C19.6021 31.6245 19.6809 31.6245 19.7125 31.6791L20.3868 32.8471C20.7181 33.4208 20.304 34.138 19.6415 34.138C18.979 34.138 18.5649 33.4208 18.8962 32.8471L19.5705 31.6791Z" fill="#FF991F"/>
    <path fill-rule="evenodd" clip-rule="evenodd" d="M20.0684 9.37427C20.3445 9.37427 20.5684 9.59813 20.5684 9.87427V13.4368C20.5684 13.7129 20.3445 13.9368 20.0684 13.9368C19.7922 13.9368 19.5684 13.7129 19.5684 13.4368V9.87427C19.5684 9.59813 19.7922 9.37427 20.0684 9.37427Z" fill="#FFAB00"/>
    <path fill-rule="evenodd" clip-rule="evenodd" d="M27.9312 9.37427C28.2073 9.37427 28.4312 9.59813 28.4312 9.87427V13.4368C28.4312 13.7129 28.2073 13.9368 27.9312 13.9368C27.655 13.9368 27.4312 13.7129 27.4312 13.4368V9.87427C27.4312 9.59813 27.655 9.37427 27.9312 9.37427Z" fill="#FFAB00"/>
    <path fill-rule="evenodd" clip-rule="evenodd" d="M23.9995 9.84302C24.2757 9.84302 24.4995 10.0669 24.4995 10.343V13.9055C24.4995 14.1817 24.2757 14.4055 23.9995 14.4055C23.7234 14.4055 23.4995 14.1817 23.4995 13.9055V10.343C23.4995 10.0669 23.7234 9.84302 23.9995 9.84302Z" fill="#FFAB00"/>
    <path d="M31.165 17.9772C31.165 17.2865 31.725 16.7266 32.4156 16.7266H42.4994C43.1901 16.7266 43.75 17.2865 43.75 17.9772C43.75 18.6679 43.1901 19.2278 42.4994 19.2278H32.4156C31.725 19.2278 31.165 18.6679 31.165 17.9772Z" fill="#8B8BC1"/>
    <path d="M18.1247 27.8836C16.5099 27.8836 15.0622 26.8879 14.4845 25.3799L11.6757 18.048C11.4504 17.4598 11.8846 16.8284 12.5145 16.8284L35.4852 16.8284C36.1151 16.8284 36.5493 17.4598 36.324 18.048L33.5152 25.3799C32.9375 26.8879 31.4898 27.8836 29.875 27.8836H18.1247Z" fill="url(#paint0_linear_24415_368)" stroke="#BDBDDB" stroke-width="0.203497"/>
    <path opacity="0.6" fill-rule="evenodd" clip-rule="evenodd" d="M18.8562 16.7267C19.6189 21.0826 21.2817 27.066 23.9376 27.9375C23.987 27.9537 24.0336 27.9697 24.0775 27.9854H18.1248C16.4678 27.9854 14.9823 26.9637 14.3895 25.4163L11.5808 18.0844C11.3299 17.4296 11.8134 16.7267 12.5146 16.7267L18.8562 16.7267Z" fill="#8B8BC1"/>
    <defs>
        <linearGradient id="paint0_linear_24415_368" x1="38.6489" y1="24.0034" x2="2.34068" y2="37.6205" gradientUnits="userSpaceOnUse">
            <stop stop-color="#BDBDDB"/>
            <stop offset="1" stop-color="#8B8BC1"/>
        </linearGradient>
    </defs>
</svg>
