<svg width="48" height="48" viewBox="0 0 48 48" fill="none" xmlns="http://www.w3.org/2000/svg">
    <path d="M12.5375 22.6123L23.6151 33.4305C23.9545 33.7619 24.5256 33.5969 24.636 33.1357C24.6824 32.9418 24.6313 32.7375 24.4991 32.5883L14.2295 21.0003C13.7878 20.5019 13.0196 20.4725 12.5411 20.9357C12.0679 21.3938 12.0662 22.1522 12.5375 22.6123Z" fill="#BDBDDB"/>
    <path d="M23.1519 21.7604C22.9761 21.7604 22.8003 21.69 22.6733 21.5493C22.1263 20.9866 21.8235 20.2329 21.8235 19.439C21.8235 18.7054 22.0775 18.012 22.5463 17.4693C22.5756 17.399 22.6245 17.3387 22.6733 17.2884C22.9663 16.987 23.1226 16.595 23.1226 16.173C23.1226 15.7509 22.9663 15.359 22.6733 15.0575C22.4096 14.7862 22.4096 14.334 22.6733 14.0626C22.937 13.7913 23.3766 13.7913 23.6403 14.0626C24.1873 14.6254 24.4902 15.3791 24.4902 16.173C24.4902 16.9066 24.2362 17.6 23.7673 18.1426C23.738 18.213 23.6892 18.2733 23.6403 18.3235C23.3473 18.625 23.191 19.0169 23.191 19.439C23.191 19.8611 23.3473 20.253 23.6403 20.5545C23.9041 20.8258 23.9041 21.278 23.6403 21.5493C23.5036 21.69 23.3278 21.7604 23.1519 21.7604Z" fill="#FFAB00"/>
    <path d="M17.8176 22.6356C17.6043 22.6356 17.391 22.5565 17.237 22.4098C16.2889 21.5068 16.2415 20.0733 17.1066 19.1251C17.1422 19.0687 17.1896 19.0123 17.237 18.9558C17.5806 18.6285 17.5806 18.098 17.237 17.7594C16.917 17.4546 16.917 16.9467 17.237 16.6419C17.5569 16.3371 18.0902 16.3371 18.4102 16.6419C19.3582 17.5449 19.4056 18.9784 18.5405 19.9266C18.505 19.983 18.4576 20.0394 18.4102 20.0959C18.0665 20.4232 18.0665 20.9537 18.4102 21.2923C18.7301 21.5971 18.7301 22.105 18.4102 22.4098C18.2443 22.5565 18.031 22.6356 17.8176 22.6356Z" fill="#FFBF00"/>
    <path d="M28.4846 22.6356C28.2713 22.6356 28.058 22.5565 27.904 22.4098C26.9559 21.5068 26.9085 20.0733 27.7736 19.1251C27.8092 19.0687 27.8566 19.0123 27.904 18.9558C28.2476 18.6285 28.2476 18.098 27.904 17.7594C27.584 17.4546 27.584 16.9467 27.904 16.6419C28.2239 16.3371 28.7572 16.3371 29.0772 16.6419C30.0252 17.5449 30.0726 18.9784 29.2075 19.9266C29.172 19.983 29.1246 20.0394 29.0772 20.0959C28.7335 20.4232 28.7335 20.9537 29.0772 21.2923C29.3971 21.5971 29.3971 22.105 29.0772 22.4098C28.9113 22.5565 28.6979 22.6356 28.4846 22.6356Z" fill="#FFBF00"/>
    <path d="M23.8706 42.744C17.3456 42.744 12.0581 41.5909 12.0581 35.0659V26.7314C12.0581 26.1792 12.5058 25.7314 13.0581 25.7314H34.6831C35.2354 25.7314 35.6831 26.1792 35.6831 26.7314V35.0659C35.6831 41.5909 30.3956 42.744 23.8706 42.744Z" fill="#8B8BC1"/>
    <g style="mix-blend-mode:multiply" opacity="0.2">
        <path d="M20.5957 30.9314V25.7314H13.0457C12.4934 25.7314 12.0457 26.1792 12.0457 26.7314V34.9409C12.0457 41.4659 17.3332 42.744 23.8582 42.744C25.3707 42.744 26.8081 42.4565 28.1331 41.944C23.7331 40.2315 20.5957 35.9565 20.5957 30.9314Z" fill="#8B8BC1"/>
    </g>
</svg>
