<svg width="48" height="48" viewBox="0 0 48 48" fill="none" xmlns="http://www.w3.org/2000/svg">
    <path d="M42.2717 17.0192C43.184 21.42 40.6084 26.9448 36.2076 27.857C31.8068 28.7692 27.2473 24.7235 26.3351 20.3227C25.4229 15.9219 29.3998 5.29498 31.4429 4.87146C33.4861 4.44794 41.3595 12.6184 42.2717 17.0192Z" fill="#34800E"/>
    <path d="M33.8932 12.0758C33.7881 11.5689 33.292 11.2432 32.7851 11.3482C32.2782 11.4533 31.9524 11.9494 32.0575 12.4563L33.0043 17.024L30.9784 15.6937C30.5457 15.4096 29.9646 15.5301 29.6804 15.9628C29.3963 16.3955 29.5168 16.9766 29.9495 17.2608L33.5425 19.6199L34.3496 23.5138L32.3237 22.1836C31.8909 21.8994 31.3098 22.0199 31.0257 22.4526C30.7416 22.8853 30.862 23.4664 31.2947 23.7506L34.8877 26.1097L36.7711 35.1955C36.8761 35.7024 37.3722 36.0281 37.8791 35.923C38.386 35.8179 38.7118 35.3218 38.6067 34.8149L36.7233 25.7292L39.0825 22.1362C39.3666 21.7035 39.2462 21.1224 38.8135 20.8383C38.3807 20.5542 37.7996 20.6746 37.5155 21.1073L36.1852 23.1333L35.3781 19.2394L37.7373 15.6464C38.0214 15.2137 37.9009 14.6326 37.4682 14.3485C37.0355 14.0644 36.4544 14.1848 36.1702 14.6175L34.84 16.6435L33.8932 12.0758Z" fill="#2A660C"/>
    <path d="M22.2568 23.5967C26.6543 24.5248 30.6836 29.0987 29.7556 33.4962C28.8275 37.8937 23.2935 40.4494 18.8961 39.5214C14.4986 38.5933 6.35644 30.6906 6.78731 28.649C7.21818 26.6074 17.8593 22.6687 22.2568 23.5967Z" fill="#34800E"/>
    <path d="M14.3701 29.2911C13.8636 29.1842 13.3663 29.5082 13.2594 30.0147C13.1525 30.5212 13.4765 31.0185 13.983 31.1254L18.5472 32.0886L16.5165 33.4116C16.0828 33.6941 15.9602 34.2748 16.2428 34.7085C16.5254 35.1423 17.106 35.2648 17.5398 34.9823L21.1412 32.636L25.0322 33.4572L23.0014 34.7801C22.5677 35.0627 22.4452 35.6434 22.7277 36.0771C23.0103 36.5109 23.591 36.6334 24.0247 36.3508L27.6261 34.0046L36.705 35.9206C37.2115 36.0275 37.7088 35.7036 37.8157 35.1971C37.9226 34.6905 37.5987 34.1933 37.0921 34.0864L28.0132 32.1704L25.667 28.5689C25.3844 28.1352 24.8038 28.0127 24.37 28.2952C23.9363 28.5778 23.8137 29.1585 24.0963 29.5922L25.4193 31.6229L21.5283 30.8018L19.1821 27.2004C18.8995 26.7666 18.3188 26.6441 17.8851 26.9266C17.4514 27.2092 17.3288 27.7899 17.6114 28.2236L18.9343 30.2543L14.3701 29.2911Z" fill="#2A660C"/>
    <path d="M30.9441 14.7087C34.7623 18.5268 35.8188 25.7739 32.0006 29.592C28.1824 33.4102 20.9354 32.3537 17.1172 28.5355C13.299 24.7174 10.2853 11.4221 12.058 9.64942C13.8307 7.87675 27.1259 10.8905 30.9441 14.7087Z" fill="#87B659"/>
    <path d="M19.2706 15.2693C18.8308 14.8295 18.1178 14.8295 17.678 15.2693C17.2382 15.7091 17.2382 16.4221 17.678 16.8619L21.641 20.8249L18.7291 20.8249C18.1071 20.8249 17.603 21.3291 17.603 21.9511C17.603 22.573 18.1071 23.0772 18.7291 23.0772L23.8932 23.0772L27.2716 26.4556L24.3597 26.4556C23.7378 26.4556 23.2336 26.9598 23.2336 27.5817C23.2336 28.2037 23.7378 28.7079 24.3597 28.7079L29.5239 28.7079L37.4068 36.5908C37.8466 37.0306 38.5597 37.0306 38.9995 36.5908C39.4393 36.151 39.4393 35.438 38.9995 34.9982L31.1165 27.1152L31.1165 21.9511C31.1165 21.3291 30.6124 20.8249 29.9904 20.8249C29.3685 20.8249 28.8643 21.3291 28.8643 21.9511L28.8643 24.863L25.4859 21.4846L25.4859 16.3204C25.4859 15.6985 24.9817 15.1943 24.3597 15.1943C23.7378 15.1943 23.2336 15.6985 23.2336 16.3204L23.2336 19.2323L19.2706 15.2693Z" fill="#87B659"/>
    <path opacity="0.6" d="M19.2701 15.2693C18.8303 14.8295 18.1173 14.8295 17.6775 15.2693C17.2377 15.7091 17.2377 16.4221 17.6775 16.8619L21.6405 20.8249L18.7286 20.8249C18.1067 20.8249 17.6025 21.3291 17.6025 21.9511C17.6025 22.573 18.1067 23.0772 18.7286 23.0772L23.8928 23.0772L27.2712 26.4556L24.3593 26.4556C23.7373 26.4556 23.2331 26.9598 23.2331 27.5817C23.2331 28.2037 23.7373 28.7079 24.3593 28.7079L29.5234 28.7079L37.4063 36.5908C37.8461 37.0306 38.5592 37.0306 38.999 36.5908C39.4388 36.151 39.4388 35.438 38.999 34.9982L31.1161 27.1152L31.1161 21.9511C31.1161 21.3291 30.6119 20.8249 29.9899 20.8249C29.368 20.8249 28.8638 21.3291 28.8638 21.9511L28.8638 24.863L25.4854 21.4846L25.4854 16.3204C25.4854 15.6985 24.9812 15.1943 24.3593 15.1943C23.7373 15.1943 23.2331 15.6985 23.2331 16.3204L23.2331 19.2323L19.2701 15.2693Z" fill="#34800E"/>
</svg>
