<svg width="48" height="48" viewBox="0 0 48 48" fill="none" xmlns="http://www.w3.org/2000/svg">
    <path d="M36.8827 36.7203C36.9127 36.3101 37.2527 35.9599 37.6726 35.9299C38.3725 35.8799 39.0624 35.5897 39.6023 35.0494C40.7821 33.8688 40.7821 31.9477 39.6023 30.7571C38.6425 29.7966 37.2027 29.6165 36.0629 30.2068C35.553 30.4769 34.9231 30.3569 34.5231 29.9467L30.8637 26.2847C30.5938 26.7649 30.0539 27.0451 29.464 26.935C28.5641 26.7649 27.8143 27.5454 27.8143 28.4558V28.4759C27.9142 29.0262 27.6543 29.5464 27.2144 29.8266L30.9237 33.5386C31.3237 33.9388 31.4637 34.5591 31.1937 35.0594C30.5038 36.3501 30.8138 38.041 32.1335 38.9715C33.1234 39.6719 34.4931 39.7019 35.503 39.0316C36.3628 38.4713 36.8228 37.5908 36.8927 36.7003L36.8827 36.7203Z" fill="#FFD633"/>
    <g style="mix-blend-mode:multiply" opacity="0.36">
        <path d="M36.8924 36.7102C36.9224 36.3 37.2723 35.9498 37.6823 35.9198C38.3821 35.8698 39.072 35.5796 39.6119 35.0393C40.7917 33.8587 40.7917 31.9376 39.6119 30.747C39.232 30.3668 38.7921 30.1166 38.3222 29.9766C38.6221 31.0071 38.3721 32.1577 37.5523 32.9782C36.7924 33.7386 35.7526 33.9987 34.7827 33.7986C34.9827 34.7692 34.7028 35.8197 33.9629 36.5701C33.153 37.3806 31.9932 37.6407 30.9634 37.3405C31.1034 37.8108 31.3533 38.261 31.7333 38.6312C32.9131 39.8119 34.8327 39.8119 36.0125 38.6312C36.5425 38.091 36.8324 37.4006 36.8824 36.7002L36.8924 36.7102Z" fill="#FFD633"/>
    </g>
    <path fill-rule="evenodd" clip-rule="evenodd" d="M30.3184 28.2372C30.9418 28.0677 31.5471 28.3017 32.1537 27.9498C32.709 27.6265 33.0973 27.0004 33.2714 26.4182C33.4896 25.6544 33.4348 24.8202 33.2246 24.1337C32.3756 21.2863 29.6253 20.0212 28.1673 17.6494C27.4482 16.4773 26.7383 15.3552 26.3075 13.9942C25.8767 12.6331 25.5413 11.0721 24.8962 9.75486C23.8602 7.63555 21.9403 6.01436 19.5377 5.68146C14.8447 4.99809 10.0237 7.22266 7.61977 12.1519C5.35408 16.7717 6.0639 23.0941 10.3046 25.0713C10.8384 25.3268 11.4243 25.5126 12.0005 25.6793C13.2743 26.0348 14.6121 26.2364 15.9391 26.4705C17.5596 26.7717 18.7044 27.4866 19.8424 28.5519C20.7711 29.4034 21.4302 30.5231 22.4837 31.2318C23.4568 31.8913 24.67 32.2254 25.9193 32.2764C26.8231 32.3199 27.8587 32.3838 28.7718 31.9531C29.0899 31.8005 29.3996 31.5567 29.5684 31.2426C30.0326 30.3785 28.9591 28.6145 30.3284 28.2459L30.3184 28.2372Z" fill="#AA591F"/>
    <g style="mix-blend-mode:multiply" opacity="0.4">
        <path fill-rule="evenodd" clip-rule="evenodd" d="M25.1341 28.7613C23.8036 26.6264 20.27 22.2775 14.8524 21.7384C9.63784 21.219 8.24402 17.6449 8.20977 11.0832C7.9998 11.4244 7.79982 11.7743 7.61962 12.1519C5.35393 16.7718 6.06375 23.0941 10.3045 25.0713C10.8382 25.3269 11.4242 25.5126 12.0003 25.6793C13.2741 26.0348 14.612 26.2364 15.939 26.4705C17.5595 26.7717 18.7043 27.4866 19.8423 28.5519C20.7709 29.4034 21.4301 30.5232 22.4835 31.2318C23.4566 31.8913 24.6699 32.2255 25.9192 32.2765C26.7316 32.3137 27.6459 32.3452 28.4852 32.0494C27.4529 31.2963 25.9521 30.072 25.1443 28.7597L25.1341 28.7613Z" fill="#994000"/>
    </g>
    <g style="mix-blend-mode:multiply" opacity="0.4">
        <circle cx="17.9929" cy="9.539" r="1.60028" fill="#994000"/>
    </g>
    <g style="mix-blend-mode:multiply" opacity="0.4">
        <circle cx="19.0027" cy="13.8311" r="0.590614" fill="#994000"/>
    </g>
</svg>
