<svg width="24" height="24" viewBox="0 0 24 24" fill="none" xmlns="http://www.w3.org/2000/svg">
<path fill-rule="evenodd" clip-rule="evenodd" d="M3.62498 2.21925C3.23233 1.90414 2.6571 1.92869 2.29289 2.29289C1.90237 2.68342 1.90237 3.31658 2.29289 3.70711L4.25705 5.67127C2.84637 7.39514 2 9.59873 2 12C2 17.5228 6.47715 22 12 22C14.4013 22 16.6049 21.1536 18.3287 19.7429L20.2929 21.7071C20.6834 22.0976 21.3166 22.0976 21.7071 21.7071C22.0713 21.3429 22.0959 20.7677 21.7808 20.375L3.62498 2.21925ZM5.68014 7.09436C4.62708 8.44904 4 10.1513 4 12C4 16.4183 7.58172 20 12 20C13.8487 20 15.551 19.3729 16.9056 18.3199L12.4999 13.9141L10.9141 15.5C10.5236 15.8905 9.89045 15.8905 9.49992 15.5L7.49992 13.5C7.1094 13.1094 7.1094 12.4763 7.49992 12.0857C7.89045 11.6952 8.52361 11.6952 8.91414 12.0857L10.207 13.3786L11.0857 12.4999L5.68014 7.09436Z" fill="#1C1C31"/>
<path d="M20.8653 16.6311C21.5901 15.2465 22 13.6711 22 12C22 6.47715 17.5228 2 12 2C10.3289 2 8.75346 2.40992 7.36886 3.1347L8.86975 4.63559C9.8312 4.22641 10.8892 4 12 4C16.4183 4 20 7.58172 20 12C20 13.1108 19.7736 14.1688 19.3644 15.1302L20.8653 16.6311Z" fill="#1C1C31"/>
<path d="M15.3241 11.0899L16.4998 9.91421C16.8903 9.52369 16.8903 8.89052 16.4998 8.5C16.1093 8.10948 15.4761 8.10948 15.0856 8.5L13.9099 9.67571L15.3241 11.0899Z" fill="#1C1C31"/>
</svg>
