<svg width="25" height="25" viewBox="0 0 25 25" fill="none" xmlns="http://www.w3.org/2000/svg">
    <path fill-rule="evenodd" clip-rule="evenodd" d="M11.8322 2.78292C12.2121 2.44199 12.7879 2.44199 13.1678 2.78292C15.3274 4.72065 18.1676 5.7225 21.065 5.56863C21.5401 5.5434 21.9672 5.85644 22.0862 6.31713C22.356 7.36172 22.5 8.45572 22.5 9.58322C22.5 15.6425 18.3564 20.7307 12.7492 22.1737C12.5857 22.2157 12.4143 22.2157 12.2508 22.1737C6.64358 20.7307 2.5 15.6415 2.5 9.58322H3.5L2.5 9.58403C2.5 9.58376 2.5 9.58349 2.5 9.58322C2.49918 8.4814 2.63821 7.38393 2.91378 6.31712C3.03278 5.85644 3.4599 5.5434 3.93503 5.56863C6.83245 5.7225 9.67256 4.72065 11.8322 2.78292ZM4.68125 7.58301C4.56022 8.24204 4.49946 8.91127 4.5 9.58241L4.5 9.58322C4.5 14.6168 7.88222 18.8639 12.5 20.1695C17.1178 18.8639 20.5 14.6178 20.5 9.58322C20.5 8.89942 20.4376 8.23122 20.3187 7.58301C17.4817 7.54692 14.734 6.57982 12.5 4.8314C10.266 6.57983 7.51825 7.54693 4.68125 7.58301ZM12.5 8.58322C13.0523 8.58322 13.5 9.03094 13.5 9.58322V11.5832C13.5 12.1355 13.0523 12.5832 12.5 12.5832C11.9477 12.5832 11.5 12.1355 11.5 11.5832V9.58322C11.5 9.03094 11.9477 8.58322 12.5 8.58322ZM11.5 15.5832C11.5 15.0309 11.9477 14.5832 12.5 14.5832H12.51C13.0623 14.5832 13.51 15.0309 13.51 15.5832C13.51 16.1355 13.0623 16.5832 12.51 16.5832H12.5C11.9477 16.5832 11.5 16.1355 11.5 15.5832Z" fill="#1C1C31"/>
</svg>
