<svg width="25" height="25" viewBox="0 0 25 25" fill="none" xmlns="http://www.w3.org/2000/svg">
    <path fill-rule="evenodd" clip-rule="evenodd" d="M7.8999 4.70825C7.63469 4.70825 7.38033 4.81361 7.1928 5.00115C7.00526 5.18868 6.8999 5.44304 6.8999 5.70825V19.7083C6.8999 19.9735 7.00526 20.2278 7.1928 20.4154C7.38033 20.6029 7.63469 20.7083 7.8999 20.7083H17.8999C18.1651 20.7083 18.4195 20.6029 18.607 20.4154C18.7945 20.2278 18.8999 19.9735 18.8999 19.7083V9.77075H14.8999C14.3476 9.77075 13.8999 9.32304 13.8999 8.77075V4.70825H7.8999ZM15.8999 6.12246V7.77075H17.5482L15.8999 6.12246ZM5.77858 3.58693C6.34119 3.02432 7.10425 2.70825 7.8999 2.70825H14.8999C15.1651 2.70825 15.4195 2.81361 15.607 3.00115L20.607 8.00115C20.7945 8.18868 20.8999 8.44304 20.8999 8.70825V19.7083C20.8999 20.5039 20.5838 21.267 20.0212 21.8296C19.4586 22.3922 18.6956 22.7083 17.8999 22.7083H7.8999C7.10425 22.7083 6.34119 22.3922 5.77858 21.8296C5.21597 21.267 4.8999 20.5039 4.8999 19.7083V5.70825C4.8999 4.9126 5.21597 4.14954 5.77858 3.58693ZM12.5171 10.7841C12.3992 10.8329 12.2887 10.9053 12.1928 11.0011L9.1928 14.0011C8.80227 14.3917 8.80227 15.0248 9.1928 15.4154C9.58332 15.8059 10.2165 15.8059 10.607 15.4154L11.8999 14.1225V17.7083C11.8999 18.2605 12.3476 18.7083 12.8999 18.7083C13.4522 18.7083 13.8999 18.2605 13.8999 17.7083V14.1225L15.1928 15.4154C15.5833 15.8059 16.2165 15.8059 16.607 15.4154C16.9975 15.0248 16.9975 14.3917 16.607 14.0011L13.6074 11.0015L13.607 11.0011L12.5171 10.7841ZM12.5171 10.7841C12.635 10.7352 12.7643 10.7083 12.8999 10.7083C13.175 10.7083 13.4241 10.8193 13.6049 10.999L12.5171 10.7841Z" fill="#1C1C31"/>
</svg>
