<svg width="25" height="25" viewBox="0 0 25 25" fill="none" xmlns="http://www.w3.org/2000/svg">
    <path fill-rule="evenodd" clip-rule="evenodd" d="M12.4993 5.125C11.9688 5.125 11.4601 5.33571 11.0851 5.71079C10.71 6.08586 10.4993 6.59457 10.4993 7.125C10.4993 7.65543 10.71 8.16414 11.0851 8.53921C11.4601 8.91429 11.9688 9.125 12.4993 9.125C13.0297 9.125 13.5384 8.91429 13.9135 8.53921C14.2886 8.16414 14.4993 7.65543 14.4993 7.125C14.4993 6.59457 14.2886 6.08586 13.9135 5.71079C13.5384 5.33571 13.0297 5.125 12.4993 5.125ZM9.67084 4.29657C10.421 3.54643 11.4384 3.125 12.4993 3.125C13.5601 3.125 14.5775 3.54643 15.3277 4.29657C16.0778 5.04672 16.4993 6.06413 16.4993 7.125C16.4993 8.18587 16.0778 9.20328 15.3277 9.95343C14.5775 10.7036 13.5601 11.125 12.4993 11.125C11.4384 11.125 10.421 10.7036 9.67084 9.95343C8.92069 9.20328 8.49927 8.18587 8.49927 7.125C8.49927 6.06413 8.92069 5.04672 9.67084 4.29657ZM5.49927 9.125C5.23405 9.125 4.9797 9.23036 4.79216 9.41789C4.60462 9.60543 4.49927 9.85978 4.49927 10.125C4.49927 10.3902 4.60462 10.6446 4.79216 10.8321C4.9797 11.0196 5.23405 11.125 5.49927 11.125C5.76448 11.125 6.01884 11.0196 6.20637 10.8321C6.39391 10.6446 6.49927 10.3902 6.49927 10.125C6.49927 9.85978 6.39391 9.60543 6.20637 9.41789C6.01884 9.23036 5.76448 9.125 5.49927 9.125ZM3.37795 8.00368C3.94056 7.44107 4.70362 7.125 5.49927 7.125C6.29492 7.125 7.05798 7.44107 7.62059 8.00368C8.1832 8.56629 8.49927 9.32935 8.49927 10.125C8.49927 10.9206 8.1832 11.6837 7.62059 12.2463C7.05798 12.8089 6.29492 13.125 5.49927 13.125C4.70362 13.125 3.94056 12.8089 3.37795 12.2463C2.81534 11.6837 2.49927 10.9206 2.49927 10.125C2.49927 9.32935 2.81534 8.56629 3.37795 8.00368ZM19.4993 9.125C19.2341 9.125 18.9797 9.23036 18.7922 9.41789C18.6046 9.60543 18.4993 9.85978 18.4993 10.125C18.4993 10.3902 18.6046 10.6446 18.7922 10.8321C18.9797 11.0196 19.2341 11.125 19.4993 11.125C19.7645 11.125 20.0188 11.0196 20.2064 10.8321C20.3939 10.6446 20.4993 10.3902 20.4993 10.125C20.4993 9.85978 20.3939 9.60543 20.2064 9.41789C20.0188 9.23036 19.7645 9.125 19.4993 9.125ZM17.3779 8.00368C17.9406 7.44107 18.7036 7.125 19.4993 7.125C20.2949 7.125 21.058 7.44107 21.6206 8.00368C22.1832 8.56629 22.4993 9.32935 22.4993 10.125C22.4993 10.9207 22.1832 11.6837 21.6206 12.2463C21.058 12.8089 20.2949 13.125 19.4993 13.125C18.7036 13.125 17.9406 12.8089 17.3779 12.2463C16.8153 11.6837 16.4993 10.9207 16.4993 10.125C16.4993 9.32935 16.8153 8.56629 17.3779 8.00368ZM12.4993 14.1243C11.6995 14.1243 10.9181 14.3639 10.2558 14.8122C9.59357 15.2605 9.08081 15.897 8.7837 16.6395C8.60053 17.0966 8.49927 17.5979 8.49927 18.125V19.125H16.4993V18.125C16.4993 17.5979 16.3982 17.0971 16.215 16.6399C15.9179 15.8974 15.405 15.2605 14.7427 14.8122C14.0804 14.3639 13.299 14.1243 12.4993 14.1243ZM18.4993 19.125H21.4993V18.1251C21.4993 18.125 21.4993 18.1251 21.4993 18.1251C21.4992 17.7095 21.3697 17.3041 21.1287 16.9655C20.8877 16.6269 20.5471 16.3717 20.1544 16.2356C19.7617 16.0994 19.3363 16.089 18.9374 16.2058C18.7007 16.2751 18.4802 16.3871 18.2863 16.535C18.4254 17.0425 18.4993 17.576 18.4993 18.125V19.125ZM17.429 14.7026C17.0092 14.0982 16.4796 13.5729 15.8638 13.156C14.8706 12.4837 13.6987 12.1243 12.4993 12.1243C11.2998 12.1243 10.1279 12.4837 9.1347 13.156C8.5189 13.5729 7.98929 14.0982 7.56951 14.7026C7.27502 14.5245 6.95709 14.3841 6.62292 14.2863C5.8251 14.0528 4.97435 14.0736 4.18894 14.3459C3.40352 14.6182 2.72245 15.1285 2.24042 15.8058C1.75838 16.483 1.49933 17.2936 1.49927 18.1249V20.125C1.49927 20.6773 1.94698 21.125 2.49927 21.125H22.4993C23.0516 21.125 23.4993 20.6773 23.4993 20.125V18.125C23.4992 17.2937 23.2402 16.483 22.7581 15.8058C22.2761 15.1285 21.595 14.6182 20.8096 14.3459C20.0242 14.0736 19.1734 14.0528 18.3756 14.2863C18.0414 14.3841 17.7235 14.5245 17.429 14.7026ZM6.71221 16.535C6.51831 16.3871 6.29786 16.2751 6.06109 16.2058C5.66219 16.089 5.23681 16.0994 4.8441 16.2356C4.45139 16.3717 4.11086 16.6269 3.86984 16.9655C3.62884 17.3041 3.49931 17.7094 3.49927 18.125C3.49927 18.125 3.49927 18.125 3.49927 18.125V19.125H6.49927V18.125C6.49927 17.576 6.5731 17.0425 6.71221 16.535Z" fill="#1C1C31"/>
</svg>
