<svg width="25" height="25" viewBox="0 0 25 25" fill="none" xmlns="http://www.w3.org/2000/svg">
    <path fill-rule="evenodd" clip-rule="evenodd" d="M12.6351 2.81943C11.1255 1.96978 9.24192 3.05728 9.22293 4.78947L9.19339 7.48439C9.19259 7.55744 9.16046 7.63345 9.09771 7.69L7.07265 9.51504C5.78343 10.6769 6.19947 12.8127 7.88146 13.3512L10.4563 14.1755C10.5281 14.1985 10.5822 14.2487 10.6101 14.3109L11.7072 16.7608C12.4278 18.37 14.5976 18.5391 15.6194 17.1614L17.2403 14.9759C17.2897 14.9093 17.3658 14.8653 17.4482 14.8559L20.1513 14.5449C21.8554 14.3488 22.7938 12.3852 21.7605 10.9565L20.1874 8.78148C20.1474 8.72621 20.131 8.65427 20.147 8.58056L20.7206 5.93855C21.0952 4.21267 19.4536 2.78445 17.8028 3.32001L15.2097 4.16125C15.1293 4.18731 15.0475 4.17713 14.9838 4.1413L12.6351 2.81943ZM11.2228 4.81139C11.2239 4.70973 11.2749 4.62322 11.3701 4.56831C11.4652 4.5134 11.5656 4.51247 11.6542 4.56233L14.0028 5.88421C14.5599 6.19773 15.2219 6.2599 15.8269 6.06364L18.4199 5.2224C18.6399 5.15104 18.8052 5.33404 18.7661 5.51427L18.1926 8.15628C18.057 8.78081 18.1911 9.434 18.5668 9.95355L20.1399 12.1286C20.2415 12.269 20.1688 12.5297 19.9227 12.558L17.2196 12.869C16.5876 12.9417 16.0128 13.2736 15.6339 13.7845L14.013 15.97C13.8654 16.1689 13.6033 16.1015 13.5325 15.9433L12.4354 13.4935C12.1734 12.9083 11.6747 12.4656 11.0661 12.2708L8.49126 11.4464C8.31562 11.3902 8.23979 11.1555 8.41159 11.0007L10.4367 9.17568C10.9091 8.74989 11.1863 8.14548 11.1933 7.50631L11.2228 4.81139ZM2.4677 14.9497C2.07717 15.3402 2.07717 15.9734 2.4677 16.3639C2.85822 16.7544 3.49139 16.7544 3.88191 16.3639L6.00323 14.2426C6.39376 13.8521 6.39376 13.2189 6.00323 12.8284C5.61271 12.4378 4.97954 12.4378 4.58902 12.8284L2.4677 14.9497ZM2.53606 20.675C2.14553 21.0656 2.14553 21.6987 2.53606 22.0892C2.92658 22.4798 3.55975 22.4798 3.95027 22.0892L8.19291 17.8466C8.58344 17.4561 8.58344 16.8229 8.19291 16.4324C7.80239 16.0419 7.16922 16.0419 6.7787 16.4324L2.53606 20.675ZM8.26116 22.1572C7.87063 21.7667 7.87063 21.1335 8.26116 20.743L10.3825 18.6217C10.773 18.2312 11.4062 18.2312 11.7967 18.6217C12.1872 19.0122 12.1872 19.6454 11.7967 20.0359L9.67537 22.1572C9.28484 22.5478 8.65168 22.5478 8.26116 22.1572Z" fill="#1C1C31"/>
</svg>
