<svg width="25" height="25" viewBox="0 0 25 25" fill="none" xmlns="http://www.w3.org/2000/svg">
    <path fill-rule="evenodd" clip-rule="evenodd" d="M11.2912 8.64353C11.2912 7.12191 11.9358 5.78077 12.9245 4.89875C13.9131 5.78077 14.5577 7.12191 14.5577 8.64353C14.5577 9.55806 14.3249 10.4074 13.9244 11.131V9.01855C13.9244 8.46627 13.4767 8.01855 12.9244 8.01855C12.3721 8.01855 11.9244 8.46627 11.9244 9.01855V11.1309C11.524 10.4073 11.2912 9.55799 11.2912 8.64353ZM9.40533 9.9297C9.33034 9.51249 9.2912 9.08246 9.2912 8.64353C9.2912 6.19202 10.5122 4.01828 12.3797 2.80499C12.711 2.58974 13.138 2.58974 13.4693 2.80499C15.3367 4.01828 16.5577 6.19202 16.5577 8.64353C16.5577 9.0412 16.5256 9.43156 16.4638 9.8117C18.174 8.82422 20.1322 8.48339 21.95 8.83704C22.3501 8.91487 22.6629 9.22767 22.7407 9.62772C23.2274 12.1306 22.3977 14.8996 20.3762 16.921C18.579 18.7182 16.191 19.5735 13.9244 19.3991V21.6436C13.9244 22.1958 13.4767 22.6436 12.9244 22.6436C12.3721 22.6436 11.9244 22.1958 11.9244 21.6436V19.364C9.81968 19.5079 7.60499 18.7816 5.84704 17.2209C3.70913 15.3228 2.71656 12.6078 3.05414 10.0804C3.10809 9.67639 3.4018 9.34559 3.79653 9.24419C5.61541 8.77694 7.62074 9.01403 9.40533 9.9297ZM18.962 15.5068C18.0296 16.4392 16.9113 17.0281 15.7764 17.2798L18.2459 14.8103C18.6364 14.4197 18.6364 13.7866 18.2459 13.396C17.8554 13.0055 17.2222 13.0055 16.8317 13.396L14.2638 15.964C14.4937 14.7736 15.0936 13.5926 16.0705 12.6156C17.4457 11.2404 19.2254 10.6125 20.8661 10.7116C20.9651 12.3522 20.3371 14.1317 18.962 15.5068ZM11.9244 16.0375V16.3038L9.01666 13.396C8.62614 13.0055 7.99297 13.0055 7.60245 13.396C7.21192 13.7866 7.21192 14.4197 7.60245 14.8103L10.0085 17.2163C9.01296 16.9793 8.03156 16.4858 7.17487 15.7253C5.72054 14.4341 4.98809 12.6949 4.98968 11.0512C6.62154 10.855 8.43517 11.3763 9.88943 12.6674C10.9621 13.6197 11.642 14.8158 11.9244 16.0375Z" fill="#1C1C31"/>
</svg>
