<svg width="25" height="24" viewBox="0 0 25 24" fill="none" xmlns="http://www.w3.org/2000/svg">
    <g clip-path="url(#clip0_8355_6466)">
        <path fill-rule="evenodd" clip-rule="evenodd" d="M21.8185 4.19332L20.8213 4.1186L20.7466 3.1214C21.037 3.09963 21.3225 3.20556 21.5284 3.41149C21.7344 3.61743 21.8403 3.9029 21.8185 4.19332ZM8.125 18.2291C9.45829 19.3409 10.9933 20.0706 12.5808 20.2444C14.5009 20.4546 16.4145 19.8391 17.9929 18.2607C18.8507 17.4029 19.4723 16.0302 19.9408 14.6155C20.4212 13.1651 20.7876 11.5198 21.0629 9.98786C21.339 8.45158 21.5275 7.00571 21.647 5.9454C21.7069 5.4146 21.7496 4.97889 21.7774 4.67489C21.7913 4.52286 21.8015 4.40367 21.8083 4.32191L21.8159 4.22787L21.8178 4.20294L21.8185 4.19332C21.8185 4.19332 21.8185 4.19332 20.8213 4.1186C20.7466 3.1214 20.7466 3.1214 20.7466 3.1214L20.737 3.12213L20.7121 3.12407L20.618 3.13168C20.5363 3.13844 20.4171 3.14864 20.265 3.16255C19.961 3.19037 19.5253 3.23307 18.9945 3.2929C17.9342 3.4124 16.4884 3.60093 14.9521 3.87701C13.4201 4.15231 11.7749 4.51875 10.3244 4.99915C8.90976 5.46767 7.53703 6.08919 6.67919 6.94703C5.10081 8.52541 4.48533 10.4391 4.69554 12.3592C4.86934 13.9466 5.59899 15.4816 6.71078 16.8149L3.29834 20.2274C2.90782 20.6179 2.90782 21.2511 3.29834 21.6416C3.68886 22.0321 4.32203 22.0321 4.71255 21.6416L8.125 18.2291ZM9.54621 16.8079C10.5936 17.6449 11.7201 18.1382 12.7984 18.2563C14.1077 18.3996 15.4234 18.0018 16.5787 16.8465C17.0877 16.3375 17.5915 15.3475 18.0422 13.9867C18.481 12.6619 18.8276 11.1192 19.0945 9.63412C19.2745 8.63248 19.4163 7.66766 19.5253 6.82886L13.0432 13.311L16.013 13.7353C16.5597 13.8134 16.9396 14.3199 16.8615 14.8666C16.7834 15.4134 16.2769 15.7933 15.7302 15.7152L11.2754 15.0788L9.54621 16.8079ZM11.6289 11.8968L18.1111 5.41464C17.2723 5.5236 16.3074 5.66548 15.3058 5.84547C13.8208 6.11235 12.2781 6.45894 10.9532 6.89773C9.59248 7.3484 8.6024 7.85225 8.09341 8.36124C6.93812 9.51653 6.54032 10.8322 6.68366 12.1415C6.80172 13.2198 7.29502 14.3463 8.132 15.3937L9.86117 13.6645L9.22478 9.20977C9.14667 8.66303 9.52657 8.1565 10.0733 8.0784C10.62 8.00029 11.1266 8.38019 11.2047 8.92693L11.6289 11.8968Z" fill="#1C1C31"/>
    </g>
    <defs>
        <clipPath id="clip0_8355_6466">
            <rect width="24" height="24" fill="white" transform="translate(0.939697)"/>
        </clipPath>
    </defs>
</svg>
