<svg width="25" height="25" viewBox="0 0 25 25" fill="none" xmlns="http://www.w3.org/2000/svg">
    <path fill-rule="evenodd" clip-rule="evenodd" d="M17.5816 3.35584C17.8454 2.87061 18.4525 2.69109 18.9378 2.95487C19.423 3.21864 19.6025 3.82583 19.3387 4.31105L19.1843 4.59513L20.3657 3.40598C20.755 3.01419 21.3882 3.01213 21.7799 3.40139C22.1717 3.79064 22.1738 4.4238 21.7845 4.81559L20.6036 6.00421L20.886 5.84831C21.3695 5.58139 21.9779 5.75696 22.2448 6.24045C22.5117 6.72395 22.3361 7.33229 21.8526 7.59921L19.5624 8.86358C20.069 8.79374 20.5544 9.12085 20.672 9.62879C20.7966 10.1668 20.4615 10.704 19.9234 10.8286L16.4782 11.6266C16.7394 12.8771 16.3435 14.2329 15.2823 15.1388C13.5356 16.63 10.9988 18.7341 8.76497 20.3469C7.65397 21.149 6.58156 21.8562 5.70196 22.3028C5.26866 22.5229 4.82548 22.7093 4.41651 22.7943C4.06731 22.8668 3.39643 22.9364 2.89342 22.4366C2.39114 21.9376 2.45521 21.267 2.52483 20.9174C2.60639 20.5079 2.78893 20.0632 3.00516 19.6281C3.44407 18.7447 4.14167 17.6665 4.93377 16.5487C6.52639 14.3014 8.60754 11.7467 10.084 9.98611C10.9814 8.91603 12.3351 8.50853 13.5885 8.75989L14.3649 5.30603C14.486 4.76719 15.021 4.42856 15.5598 4.54968C16.0684 4.664 16.3986 5.14701 16.3323 5.65396L17.5816 3.35584ZM11.6165 11.2713C12.2335 10.5356 13.3525 10.4844 14.0545 11.1818C14.7553 11.8781 14.7128 12.9953 13.9837 13.6178C12.9339 14.5141 11.6101 15.6216 10.2489 16.7027L9.86289 16.3192C9.47109 15.9299 8.83793 15.932 8.44868 16.3238C8.05943 16.7156 8.06148 17.3487 8.45328 17.738L8.6561 17.9395C8.29685 18.2113 7.94144 18.4747 7.59428 18.7253C6.50552 19.5113 5.53417 20.145 4.79648 20.5196L4.79514 20.5202L4.79624 20.518C5.16439 19.7771 5.78934 18.8005 6.56556 17.7051C7.54689 16.3204 8.72798 14.8042 9.83548 13.4335L10.6919 14.2843C11.0837 14.6736 11.7168 14.6715 12.1061 14.2797C12.4953 13.8879 12.4933 13.2548 12.1015 12.8655L11.109 11.8794C11.2842 11.6684 11.4538 11.4652 11.6165 11.2713ZM3.92969 20.8471C3.9302 20.8465 3.93829 20.8455 3.95244 20.8459C3.93626 20.8479 3.92918 20.8477 3.92969 20.8471ZM4.47689 21.3657C4.47742 21.3799 4.4765 21.388 4.47591 21.3885C4.47532 21.389 4.47506 21.3819 4.47689 21.3657Z" fill="#1C1C31"/>
</svg>
