<svg width="48" height="48" viewBox="0 0 48 48" fill="none" xmlns="http://www.w3.org/2000/svg">
<circle cx="24" cy="24" r="18" fill="#FFFCEB"/>
<path d="M30.4033 14.9352C34.4248 18.9567 35.5376 26.5896 31.5161 30.6111C27.4946 34.6327 19.8617 33.5199 15.8402 29.4984C11.8187 25.4769 8.64449 11.4737 10.5116 9.60661C12.3786 7.73955 26.3818 10.9137 30.4033 14.9352Z" fill="#87B659"/>
<path d="M18.1078 15.5253C17.6446 15.0621 16.8936 15.0621 16.4304 15.5254C15.9672 15.9886 15.9672 16.7396 16.4304 17.2028L20.6044 21.3768L17.5375 21.3768C16.8824 21.3768 16.3514 21.9078 16.3514 22.5629C16.3514 23.218 16.8824 23.749 17.5375 23.749L22.9766 23.749L26.5349 27.3073L23.468 27.3073C22.8129 27.3073 22.2819 27.8383 22.2819 28.4934C22.2819 29.1485 22.8129 29.6795 23.468 29.6795L28.9071 29.6795L37.2098 37.9822C37.673 38.4454 38.424 38.4454 38.8872 37.9822C39.3504 37.519 39.3504 36.7679 38.8872 36.3047L30.5845 28.0021L30.5845 22.5629C30.5845 21.9078 30.0535 21.3768 29.3984 21.3768C28.7434 21.3768 28.2124 21.9078 28.2124 22.5629L28.2124 25.6299L24.6541 22.0716L24.6541 16.6324C24.6541 15.9774 24.123 15.4463 23.468 15.4463C22.8129 15.4463 22.2819 15.9774 22.2819 16.6324L22.2819 19.6994L18.1078 15.5253Z" fill="#87B659"/>
<g style="mix-blend-mode:multiply" opacity="0.6">
<path d="M18.1078 15.5253C17.6446 15.0621 16.8936 15.0621 16.4304 15.5254C15.9672 15.9886 15.9672 16.7396 16.4304 17.2028L20.6044 21.3768L17.5375 21.3768C16.8824 21.3768 16.3514 21.9078 16.3514 22.5629C16.3514 23.218 16.8824 23.749 17.5375 23.749L22.9766 23.749L26.5349 27.3073L23.468 27.3073C22.8129 27.3073 22.2819 27.8383 22.2819 28.4934C22.2819 29.1485 22.8129 29.6795 23.468 29.6795L28.9071 29.6795L37.2098 37.9822C37.673 38.4454 38.424 38.4454 38.8872 37.9822C39.3504 37.519 39.3504 36.7679 38.8872 36.3047L30.5845 28.0021L30.5845 22.5629C30.5845 21.9078 30.0535 21.3768 29.3984 21.3768C28.7434 21.3768 28.2124 21.9078 28.2124 22.5629L28.2124 25.6299L24.6541 22.0716L24.6541 16.6324C24.6541 15.9774 24.123 15.4463 23.468 15.4463C22.8129 15.4463 22.2819 15.9774 22.2819 16.6324L22.2819 19.6994L18.1078 15.5253Z" fill="#2E4914" fill-opacity="0.6"/>
</g>
</svg>
