<svg width="25" height="25" viewBox="0 0 25 25" fill="none" xmlns="http://www.w3.org/2000/svg">
    <path d="M12.8041 9.42028L11.481 15.7757H9.88067L11.2039 9.42028H12.8041ZM19.5367 13.5242L20.3792 11.1374L20.8638 13.5242H19.5367ZM21.323 15.7757H22.8027L21.5099 9.42028H20.1449C19.8372 9.42028 19.578 9.60358 19.4632 9.88618L17.0619 15.7757H18.7425L19.0763 14.8266H21.1291L21.323 15.7757ZM17.1452 13.7008C17.1523 12.0236 14.8886 11.9306 14.9037 11.1812C14.9086 10.9535 15.1199 10.7109 15.5822 10.6489C15.8114 10.6185 16.4436 10.594 17.1605 10.9333L17.4408 9.58505C17.0558 9.44202 16.5604 9.30418 15.944 9.30418C14.362 9.30418 13.249 10.1675 13.2401 11.4049C13.23 12.3199 14.0351 12.83 14.6404 13.1347C15.2646 13.4462 15.4737 13.6461 15.4707 13.9243C15.4664 14.3507 14.9729 14.5394 14.5137 14.5466C13.7085 14.5594 13.242 14.323 12.8701 14.1449L12.5796 15.5382C12.9541 15.7143 13.6442 15.8676 14.3587 15.8755C16.0406 15.8755 17.1403 15.0221 17.1452 13.7008ZM10.5175 9.42028L7.92451 15.7757H6.23307L4.95697 10.7036C4.87968 10.3917 4.81223 10.2771 4.57697 10.1453C4.19216 9.93052 3.55682 9.72968 2.99829 9.60469L3.03604 9.42028H5.75918C6.106 9.42028 6.41808 9.65743 6.49743 10.0679L7.17148 13.7459L8.83623 9.42028H10.5175Z" fill="#1A1F71"/>
</svg>
