<svg width="24" height="24" viewBox="0 0 24 24" fill="none" xmlns="http://www.w3.org/2000/svg">
    <path d="M11.8712 8.84948L10.5481 15.2049H8.94781L10.271 8.84948H11.8712ZM18.6038 12.9534L19.4463 10.5666L19.9309 12.9534H18.6038ZM20.3901 15.2049H21.8699L20.5771 8.84948H19.212C18.9044 8.84948 18.6452 9.03277 18.5304 9.31537L16.1291 15.2049H17.8097L18.1434 14.2558H20.1962L20.3901 15.2049ZM16.2124 13.13C16.2195 11.4528 13.9558 11.3598 13.9708 10.6104C13.9757 10.3827 14.1871 10.1401 14.6493 10.0781C14.8786 10.0477 15.5108 10.0232 16.2276 10.3625L16.508 9.01425C16.1229 8.87122 15.6275 8.73338 15.0112 8.73338C13.4291 8.73338 12.3162 9.59674 12.3073 10.8341C12.2972 11.7491 13.1022 12.2592 13.7075 12.5639C14.3317 12.8754 14.5409 13.0753 14.5379 13.3535C14.5335 13.7799 14.0401 13.9686 13.5808 13.9758C12.7756 13.9886 12.3092 13.7522 11.9372 13.5741L11.6468 14.9674C12.0213 15.1435 12.7113 15.2968 13.4259 15.3047C15.1077 15.3047 16.2074 14.4513 16.2124 13.13ZM9.5846 8.84948L6.99165 15.2049H5.30021L4.02411 10.1328C3.94681 9.82092 3.87937 9.7063 3.64411 9.57451C3.2593 9.35972 2.62395 9.15888 2.06543 9.03389L2.10318 8.84948H4.82632C5.17314 8.84948 5.48522 9.08663 5.56457 9.49706L6.23862 13.1751L7.90337 8.84948H9.5846Z" fill="white"/>
</svg>
