<svg width="25" height="25" viewBox="0 0 25 25" fill="none" xmlns="http://www.w3.org/2000/svg">
    <path fill-rule="evenodd" clip-rule="evenodd" d="M9.13848 18.556C9.00511 18.1572 8.93286 17.7304 8.93286 17.2867C8.93286 15.6502 11.1279 13.1457 12.2659 11.9573C12.6334 11.5734 13.2323 11.5734 13.5998 11.9573C14.7378 13.1457 16.9329 15.6502 16.9329 17.2867C16.9329 17.7304 16.8606 18.1572 16.7272 18.556C18.0735 17.4558 18.9329 15.7822 18.9329 13.9079C18.9329 13.4498 18.7474 12.7346 18.267 11.7663C17.8025 10.8301 17.1417 9.81375 16.3865 8.79899C15.2183 7.22931 13.9019 5.76627 12.9329 4.74819C11.9639 5.76627 10.6474 7.22931 9.47921 8.79899C8.72397 9.81375 8.06319 10.8301 7.59872 11.7663C7.11836 12.7346 6.93286 13.4498 6.93286 13.9079C6.93286 15.7822 7.79225 17.4558 9.13848 18.556ZM20.9329 13.9079C20.9329 18.3262 17.3511 21.9079 12.9329 21.9079C8.51458 21.9079 4.93286 18.3262 4.93286 13.9079C4.93286 10.2771 10.3353 4.51007 12.261 2.56965C12.6354 2.19244 13.2303 2.19244 13.6047 2.56965C15.5304 4.51007 20.9329 10.2771 20.9329 13.9079ZM14.9329 17.2867C14.9329 18.3912 14.0374 19.2867 12.9329 19.2867C11.8283 19.2867 10.9329 18.3912 10.9329 17.2867C10.9329 17.2868 10.9329 17.2866 10.9329 17.2861C10.934 17.2748 10.9499 17.114 11.1089 16.7701C11.2645 16.4336 11.5025 16.0382 11.8067 15.6071C12.1564 15.1116 12.5549 14.6229 12.9329 14.1901C13.3109 14.6229 13.7093 15.1116 14.059 15.6071C14.3632 16.0382 14.6012 16.4336 14.7568 16.7701C14.9158 17.114 14.9317 17.2748 14.9328 17.2861L14.9328 17.2866C14.9329 17.2867 14.9329 17.2867 14.9329 17.2867Z" fill="#1C1C31"/>
</svg>
