<svg width="49" height="48" viewBox="0 0 49 48" fill="none" xmlns="http://www.w3.org/2000/svg">
    <path fill-rule="evenodd" clip-rule="evenodd" d="M43.9996 24.0003C43.9996 29.0925 41.9768 33.976 38.3761 37.5767C34.7754 41.1774 29.8918 43.2003 24.7996 43.2003C19.7075 43.2003 14.8239 41.1774 11.2232 37.5767C7.62246 33.976 5.59961 29.0925 5.59961 24.0003C5.59961 18.9081 7.62246 14.0245 11.2232 10.4238C14.8239 6.82314 19.7075 4.80029 24.7996 4.80029C29.8918 4.80029 34.7754 6.82314 38.3761 10.4238C41.9768 14.0245 43.9996 18.9081 43.9996 24.0003ZM27.1996 33.6003C27.1996 34.2368 26.9468 34.8473 26.4967 35.2973C26.0466 35.7474 25.4361 36.0003 24.7996 36.0003C24.1631 36.0003 23.5526 35.7474 23.1026 35.2973C22.6525 34.8473 22.3996 34.2368 22.3996 33.6003C22.3996 32.9638 22.6525 32.3533 23.1026 31.9032C23.5526 31.4532 24.1631 31.2003 24.7996 31.2003C25.4361 31.2003 26.0466 31.4532 26.4967 31.9032C26.9468 32.3533 27.1996 32.9638 27.1996 33.6003ZM24.7996 12.0003C24.1631 12.0003 23.5526 12.2531 23.1026 12.7032C22.6525 13.1533 22.3996 13.7638 22.3996 14.4003V24.0003C22.3996 24.6368 22.6525 25.2473 23.1026 25.6973C23.5526 26.1474 24.1631 26.4003 24.7996 26.4003C25.4361 26.4003 26.0466 26.1474 26.4967 25.6973C26.9468 25.2473 27.1996 24.6368 27.1996 24.0003V14.4003C27.1996 13.7638 26.9468 13.1533 26.4967 12.7032C26.0466 12.2531 25.4361 12.0003 24.7996 12.0003Z" fill="#1C1C31"/>
</svg>
