<svg width="25" height="25" viewBox="0 0 25 25" fill="none" xmlns="http://www.w3.org/2000/svg">
    <path fill-rule="evenodd" clip-rule="evenodd" d="M10.6992 7.70825C10.6992 8.81282 9.80379 9.70825 8.69922 9.70825C7.59465 9.70825 6.69922 8.81282 6.69922 7.70825C6.69922 6.60368 7.59465 5.70825 8.69922 5.70825C9.80379 5.70825 10.6992 6.60368 10.6992 7.70825ZM12.6992 7.70825C12.6992 9.91739 10.9084 11.7083 8.69922 11.7083C6.49008 11.7083 4.69922 9.91739 4.69922 7.70825C4.69922 5.49911 6.49008 3.70825 8.69922 3.70825C10.9084 3.70825 12.6992 5.49911 12.6992 7.70825ZM11.5019 19.7083C10.9914 18.8257 10.6992 17.8011 10.6992 16.7083C10.6992 16.2372 10.7535 15.7788 10.8562 15.339C10.2338 14.9398 9.49354 14.7083 8.69922 14.7083C6.49008 14.7083 4.69922 16.4991 4.69922 18.7083V19.7083H11.5019ZM13.3814 21.7083H13.2909H3.69922C3.14693 21.7083 2.69922 21.2605 2.69922 20.7083V18.7083C2.69922 15.3945 5.38551 12.7083 8.69922 12.7083C9.76852 12.7083 10.7725 12.988 11.642 13.4782C12.7081 11.8124 14.5747 10.7083 16.6992 10.7083C20.0129 10.7083 22.6992 13.3945 22.6992 16.7083C22.6992 20.022 20.0129 22.7083 16.6992 22.7083C15.4725 22.7083 14.3317 22.3401 13.3814 21.7083ZM17.9921 15.0011C18.3826 14.6106 19.0158 14.6106 19.4063 15.0011C19.7969 15.3917 19.7969 16.0248 19.4063 16.4154L16.9063 18.9154C16.5158 19.3059 15.8826 19.3059 15.4921 18.9154L13.9921 17.4154C13.6016 17.0248 13.6016 16.3917 13.9921 16.0011C14.3826 15.6106 15.0158 15.6106 15.4063 16.0011L16.1992 16.794L17.9921 15.0011ZM20.6992 16.7083C20.6992 18.9174 18.9084 20.7083 16.6992 20.7083C14.4901 20.7083 12.6992 18.9174 12.6992 16.7083C12.6992 14.4991 14.4901 12.7083 16.6992 12.7083C18.9084 12.7083 20.6992 14.4991 20.6992 16.7083Z" fill="#1C1C31"/>
</svg>
