<svg width="24" height="24" viewBox="0 0 24 24" fill="none" xmlns="http://www.w3.org/2000/svg">
<rect x="2" y="5.10339" width="20" height="13.7931" rx="1.375" fill="black"/>
<path d="M9.52693 9.49442C9.53069 8.91557 9.06393 8.44326 8.48438 8.4395C7.90483 8.43575 7.43196 8.90196 7.4282 9.48081C7.42444 10.0597 7.8912 10.532 8.47075 10.5357C9.0503 10.5395 9.52317 10.0733 9.52693 9.49442Z" fill="url(#paint0_linear_26661_11471)"/>
<path d="M10.3519 8.77563H11.5249V15.4235H10.3519V8.77563Z" fill="white"/>
<path d="M12.5658 11.0693H13.7388V15.4235H12.5658V11.0693Z" fill="white"/>
<path d="M7.30217 11.0259C6.93492 11.0253 6.5733 11.116 6.24982 11.2897V8.77579H5.07666V13.2478C5.07654 13.6874 5.20694 14.1172 5.45137 14.4827C5.69579 14.8483 6.04326 15.1333 6.44984 15.3016C6.85642 15.4699 7.30383 15.514 7.73551 15.4284C8.16719 15.3427 8.56374 15.1311 8.87501 14.8203C9.18629 14.5095 9.3983 14.1135 9.48424 13.6824C9.57018 13.2513 9.52619 12.8044 9.35783 12.3982C9.18948 11.9921 8.90431 11.6449 8.53841 11.4006C8.1725 11.1563 7.74228 11.0259 7.30217 11.0259ZM7.30217 14.3176C7.09038 14.3176 6.88334 14.2548 6.70725 14.1373C6.53115 14.0198 6.39389 13.8528 6.31284 13.6573C6.23178 13.4619 6.21057 13.2468 6.25188 13.0394C6.29318 12.8319 6.39516 12.6413 6.5449 12.4917C6.69465 12.3421 6.88545 12.2403 7.09316 12.199C7.30088 12.1577 7.51619 12.1788 7.71186 12.2598C7.90754 12.3407 8.07479 12.4778 8.19248 12.6536C8.31016 12.8295 8.37299 13.0363 8.37302 13.2478C8.37308 13.3883 8.34542 13.5274 8.29163 13.6572C8.23783 13.787 8.15896 13.905 8.05951 14.0043C7.96006 14.1037 7.84199 14.1825 7.71204 14.2362C7.58209 14.2899 7.44282 14.3176 7.30217 14.3176Z" fill="white"/>
<path d="M17.5976 15.4238H19.1086L17.2932 13.0819L18.9394 11.0696H17.5689L15.9523 13.0945V8.77652H14.779V15.4238H15.9523L15.9515 13.1001L17.5976 15.4238Z" fill="white"/>
<defs>
<linearGradient id="paint0_linear_26661_11471" x1="7.7298" y1="10.2228" x2="9.22358" y2="8.74859" gradientUnits="userSpaceOnUse">
<stop stop-color="#E52F08"/>
<stop offset="1" stop-color="#E94F96"/>
</linearGradient>
</defs>
</svg>
