<svg width="24" height="24" viewBox="0 0 24 24" fill="none" xmlns="http://www.w3.org/2000/svg">
    <path fill-rule="evenodd" clip-rule="evenodd" d="M9 4C9.82843 4 10.5 4.67157 10.5 5.5H7.5C7.5 4.67157 8.17157 4 9 4ZM9 2C7.067 2 5.5 3.567 5.5 5.5H4C2.89543 5.5 2 6.39543 2 7.5V10C2 10.7487 2.41139 11.4013 3.02046 11.7441C3.00698 11.8379 3 11.9337 3 12.0312V20C3 21.1046 3.89543 22 5 22H19C20.1046 22 21 21.1046 21 20V12.0312C21 11.9337 20.993 11.8379 20.9795 11.7441C21.5886 11.4013 22 10.7487 22 10V7.5C22 6.39543 21.1046 5.5 20 5.5H18.5C18.5 3.567 16.933 2 15 2C13.7268 2 12.6124 2.67979 12 3.69621C11.3876 2.67979 10.2732 2 9 2ZM15 4C15.8284 4 16.5 4.67157 16.5 5.5H13.5C13.5 4.67157 14.1716 4 15 4ZM19 20V12.0312H13V20H19ZM11 20H5V12.0312H11V20ZM20 7.5H4V10H20V7.5Z" fill="#1C1C31"/>
</svg>
