<svg width="24" height="24" viewBox="0 0 24 24" fill="none" xmlns="http://www.w3.org/2000/svg">
<path fill-rule="evenodd" clip-rule="evenodd" d="M8 2C8.55228 2 9 2.44772 9 3V4H15V3C15 2.44772 15.4477 2 16 2C16.5523 2 17 2.44772 17 3V4H19C19.7957 4 20.5587 4.31607 21.1213 4.87868C21.6839 5.44129 22 6.20435 22 7V19C22 19.7957 21.6839 20.5587 21.1213 21.1213C20.5587 21.6839 19.7957 22 19 22H5C4.20435 22 3.44129 21.6839 2.87868 21.1213C2.31607 20.5587 2 19.7957 2 19V7C2 6.20435 2.31607 5.44129 2.87868 4.87868C3.44129 4.31607 4.20435 4 5 4H7V3C7 2.44772 7.44772 2 8 2ZM7 6H5C4.73478 6 4.48043 6.10536 4.29289 6.29289C4.10536 6.48043 4 6.73478 4 7V19C4 19.2652 4.10536 19.5196 4.29289 19.7071C4.48043 19.8946 4.73478 20 5 20H19C19.2652 20 19.5196 19.8946 19.7071 19.7071C19.8946 19.5196 20 19.2652 20 19V7C20 6.73478 19.8946 6.48043 19.7071 6.29289C19.5196 6.10536 19.2652 6 19 6H17V7C17 7.55228 16.5523 8 16 8C15.4477 8 15 7.55228 15 7V6H9V7C9 7.55228 8.55228 8 8 8C7.44772 8 7 7.55228 7 7V6Z" fill="#1C1C31"/>
<path d="M8.79289 10.2929C9.18342 9.90237 9.81658 9.90237 10.2071 10.2929L11.9688 12.0545L13.7304 10.2929C14.1209 9.90237 14.7541 9.90237 15.1446 10.2929C15.5351 10.6834 15.5351 11.3166 15.1446 11.7071L13.383 13.4688L15.1446 15.2304C15.5351 15.6209 15.5351 16.2541 15.1446 16.6446C14.7541 17.0351 14.1209 17.0351 13.7304 16.6446L11.9688 14.883L10.2071 16.6446C9.81658 17.0351 9.18342 17.0351 8.79289 16.6446C8.40237 16.2541 8.40237 15.6209 8.79289 15.2304L10.5545 13.4688L8.79289 11.7071C8.40237 11.3166 8.40237 10.6834 8.79289 10.2929Z" fill="#1C1C31"/>
</svg>
