<svg width="25" height="25" viewBox="0 0 25 25" fill="none" xmlns="http://www.w3.org/2000/svg">
    <path d="M8.5 3.15C8.5 2.65294 8.08976 2.23771 7.61047 2.36941C6.19215 2.75912 5.15 4.05798 5.15 5.6C5.15 7.45 6.65 8.95 8.5 8.95H10.03C10.42 8.95 10.79 9.05 11.11 9.25H13.13C12.55 8.2 11.36 7.5 10.03 7.5H8.5C7.5 7.5 6.65 6.52 6.65 5.5C6.65 4.68955 7.18662 4.06218 7.90874 3.83862C8.22528 3.74061 8.5 3.48137 8.5 3.15V3.15ZM14.1 2.75C13.6858 2.75 13.3807 3.09377 13.2754 3.49436C13.157 3.94446 12.8663 4.276 12.193 4.46801C11.8059 4.57838 11.5 4.90311 11.5 5.30558V5.30558C11.5 5.74433 11.8593 6.09164 12.2895 6.17799C13.8419 6.48964 15.055 7.7038 15.39 9.25H16.92C16.62 7.42 15.46 5.9 13.85 5.13C14.3491 4.63893 14.6927 4.36821 14.8077 3.49875C14.862 3.08811 14.5142 2.75 14.1 2.75V2.75ZM4.5 10.75C3.94772 10.75 3.5 11.1977 3.5 11.75V11.75C3.5 12.3023 3.94772 12.75 4.5 12.75H5.5V19.75C5.5 20.86 6.4 21.75 7.5 21.75H17.5C18.61 21.75 19.5 20.86 19.5 19.75V12.75H20.5C21.0523 12.75 21.5 12.3023 21.5 11.75V11.75C21.5 11.1977 21.0523 10.75 20.5 10.75H4.5ZM7.5 12.75H17.5V19.25C17.5 19.5261 17.2761 19.75 17 19.75H8C7.72386 19.75 7.5 19.5261 7.5 19.25V12.75Z" fill="#1C1C31"/>
</svg>
