<svg width="25" height="25" viewBox="0 0 25 25" fill="none" xmlns="http://www.w3.org/2000/svg">
  <path fill-rule="evenodd" clip-rule="evenodd" d="M14.3181 5.87136C14.1658 6.13518 13.9099 6.41545 13.615 6.6463L11.1561 12.6179C11.2708 12.6735 11.3834 12.7348 11.4936 12.8016C11.518 12.7706 11.5445 12.7408 11.573 12.7122L15.8233 8.4619C15.7507 7.88736 15.9006 7.16963 16.1561 6.72717C16.5719 6.00697 18.1873 4.42246 18.8355 4.79669C19.194 5.00367 19.1815 5.76652 19.0284 6.52888C19.7908 6.37577 20.5536 6.36329 20.7606 6.7218C21.1348 7.36999 19.5503 8.98541 18.8301 9.40122C18.4539 9.61844 17.8786 9.75937 17.3616 9.75203L12.9872 14.1264C12.9587 14.155 12.9288 14.1814 12.8979 14.2058C12.9466 14.2861 12.9923 14.3677 13.0351 14.4504L18.8166 12.0699C19.0627 11.7221 19.3852 11.4133 19.6863 11.2395C20.4065 10.8236 22.5977 10.259 22.972 10.9072C23.3463 11.5553 21.7618 13.1708 21.0416 13.5867C20.9329 13.6495 20.8075 13.7059 20.6717 13.7542C21.5019 14.195 22.388 14.8715 22.2659 15.3692C22.0876 16.0961 19.8259 16.1661 19.0182 15.968C18.4528 15.8293 17.724 15.3443 17.3989 14.8165L13.5372 16.4066C13.5239 16.4121 13.5105 16.4172 13.497 16.4221C13.4811 17.4644 13.0755 18.5018 12.2802 19.2971C11.1666 20.4107 9.57835 20.7603 8.16674 20.3459V21.5905C8.16674 22.1428 7.71902 22.5905 7.16674 22.5905C6.61446 22.5905 6.16674 22.1428 6.16674 21.5905V20.9469L6.12974 20.9839C5.73921 21.3744 5.10605 21.3744 4.71552 20.9839C4.325 20.5934 4.325 19.9602 4.71552 19.5697L4.72277 19.5624H4.13867C3.58639 19.5624 3.13867 19.1147 3.13867 18.5624C3.13867 18.0102 3.58639 17.5624 4.13867 17.5624H5.36249C4.93438 16.1435 5.28101 14.5407 6.4024 13.4193C7.17089 12.6508 8.16544 12.2462 9.17199 12.2054C9.18304 12.1643 9.19685 12.1234 9.2135 12.0829L10.8123 8.19995C10.2574 7.89941 9.73435 7.13021 9.58942 6.53932C9.39133 5.73164 9.46134 3.46992 10.1883 3.29164C10.6859 3.16957 11.3625 4.05579 11.8033 4.88606C11.8516 4.75023 11.9081 4.62481 11.9709 4.51604C12.3867 3.79585 14.0022 2.21143 14.6504 2.58569C15.2986 2.95995 14.7339 5.15118 14.3181 5.87136ZM7.81661 17.8829C8.65867 18.725 10.0239 18.725 10.866 17.8829C11.7081 17.0408 11.7081 15.6756 10.866 14.8335C10.0239 13.9915 8.65867 13.9915 7.81661 14.8335C6.97455 15.6756 6.97455 17.0408 7.81661 17.8829Z" fill="#1C1C31"/>
</svg>
