<svg width="48" height="48" viewBox="0 0 48 48" fill="none" xmlns="http://www.w3.org/2000/svg">
<path fill-rule="evenodd" clip-rule="evenodd" d="M12.2939 39.3918C12.7795 39.655 13.3865 39.4748 13.6497 38.9892L15.8073 35.0089L17.0647 39.2433C17.2219 39.7727 17.7786 40.0744 18.308 39.9172L18.3628 39.901C18.8922 39.7438 19.1939 39.1871 19.0367 38.6577L17.7793 34.4233L21.7596 36.581C22.2452 36.8442 22.8522 36.6639 23.1154 36.1784L23.1328 36.1463C23.3959 35.6608 23.2157 35.0538 22.7302 34.7906L16.9595 31.6625L16.1982 29.0988L18.7619 28.3376L24.5325 31.4657C25.0181 31.729 25.625 31.5487 25.8882 31.0631L25.9056 31.0311C26.1688 30.5455 25.9886 29.9386 25.503 29.6754L21.5227 27.5177L25.7571 26.2604C26.2865 26.1031 26.5882 25.5465 26.431 25.0171L26.4148 24.9623C26.2575 24.4329 25.7009 24.1311 25.1715 24.2883L20.9371 25.5457L23.0948 21.5654C23.358 21.0799 23.1777 20.4729 22.6922 20.2097L22.6601 20.1923C22.1746 19.9291 21.5676 20.1093 21.3044 20.5949L18.1763 26.3656L15.6126 27.1268L14.8514 24.5632L17.9795 18.7925C18.2427 18.307 18.0625 17.7001 17.577 17.4369L17.5449 17.4195C17.0594 17.1562 16.4524 17.3365 16.1892 17.822L14.0315 21.8024L12.7741 17.568C12.6169 17.0386 12.0603 16.7368 11.5309 16.894L11.4761 16.9103C10.9466 17.0675 10.6449 17.6242 10.8021 18.1536L12.0595 22.388L8.0792 20.2303C7.59365 19.9671 6.98667 20.1473 6.72347 20.6329L6.70609 20.665C6.44291 21.1505 6.62315 21.7574 7.10868 22.0206L12.8793 25.1488L13.6406 27.7124L11.077 28.4737L5.30633 25.3455C4.82079 25.0823 4.2138 25.2626 3.95061 25.7481L3.93323 25.7802C3.67005 26.2657 3.85029 26.8727 4.33582 27.1359L8.31615 29.2935L4.08178 30.5509C3.55235 30.7081 3.25061 31.2648 3.40782 31.7942L3.42409 31.849C3.5813 32.3784 4.13794 32.6801 4.66738 32.5229L8.90174 31.2655L6.74408 35.2459C6.48088 35.7314 6.66111 36.3383 7.14663 36.6015L7.1787 36.6189C7.66424 36.8822 8.27123 36.7019 8.53443 36.2164L11.6626 30.4457L14.2262 29.6844L14.9875 32.2481L11.8593 38.0187C11.5961 38.5042 11.7763 39.1112 12.2619 39.3744L12.2939 39.3918Z" fill="#6A8EE8"/>
<path fill-rule="evenodd" clip-rule="evenodd" d="M26.9762 17.4731C27.1542 17.7516 27.5243 17.833 27.8028 17.655L30.0359 16.2277L29.4814 18.7467C29.4096 19.0728 29.6157 19.3953 29.9418 19.4671C30.2678 19.5388 30.5904 19.3327 30.6621 19.0066L31.2167 16.4876L32.644 18.7207C32.822 18.9992 33.192 19.0807 33.4705 18.9027C33.749 18.7247 33.8305 18.3546 33.6525 18.0761L31.5806 14.8346L31.9185 13.2995L33.4535 13.6375L35.5254 16.8791C35.7034 17.1576 36.0735 17.239 36.3519 17.061C36.6304 16.883 36.7119 16.5129 36.5339 16.2344L35.1066 14.0014L37.6256 14.5559C37.9516 14.6277 38.2741 14.4215 38.3459 14.0955C38.4177 13.7694 38.2116 13.4469 37.8855 13.3751L35.3665 12.8206L37.5996 11.3933C37.8781 11.2153 37.9596 10.8452 37.7816 10.5667C37.6036 10.2882 37.2335 10.2068 36.955 10.3848L33.7134 12.4567L32.1784 12.1188L32.5163 10.5837L35.7579 8.51186C36.0364 8.33386 36.1179 7.96381 35.9399 7.68532C35.7619 7.40681 35.3918 7.32534 35.1133 7.50335L32.8802 8.93067L33.4347 6.41167C33.5065 6.08561 33.3004 5.76309 32.9743 5.69131C32.6482 5.61954 32.3257 5.82567 32.2539 6.15174L31.6994 8.67074L30.2721 6.43764C30.0941 6.15914 29.724 6.07768 29.4456 6.25569C29.1671 6.4337 29.0856 6.80375 29.2636 7.08224L31.3355 10.3238L30.9976 11.8588L29.4626 11.5209L27.3907 8.27933C27.2127 8.00083 26.8426 7.91937 26.5641 8.09739C26.2857 8.27539 26.2042 8.64545 26.3822 8.92394L27.8095 11.157L25.2905 10.6025C24.9645 10.5307 24.6419 10.7369 24.5702 11.0629C24.4984 11.389 24.7045 11.7115 25.0306 11.7833L27.5496 12.3378L25.3165 13.7651C25.038 13.9431 24.9565 14.3132 25.1345 14.5916C25.3125 14.8702 25.6826 14.9516 25.9611 14.7736L29.2027 12.7017L30.7377 13.0396L30.3998 14.5746L27.1582 16.6465C26.8797 16.8245 26.7982 17.1946 26.9762 17.4731Z" fill="#4970D6"/>
<path fill-rule="evenodd" clip-rule="evenodd" d="M35.2932 31.7114C35.4574 31.8129 35.6728 31.7621 35.7742 31.5979L36.5879 30.2814L36.9339 31.7473C36.9787 31.9371 37.1688 32.0546 37.3586 32.0098C37.5483 31.965 37.6659 31.7749 37.6211 31.5851L37.2751 30.1192L38.5915 30.9329C38.7557 31.0344 38.9711 30.9835 39.0725 30.8194C39.174 30.6552 39.1232 30.4398 38.959 30.3384L37.048 29.1572L36.8371 28.2639L37.7304 28.0531L39.6414 29.2342C39.8056 29.3357 40.021 29.2849 40.1225 29.1207C40.2239 28.9565 40.1731 28.7412 40.0089 28.6397L38.6924 27.826L40.1584 27.48C40.3481 27.4352 40.4656 27.2451 40.4208 27.0553C40.376 26.8656 40.1859 26.7481 39.9962 26.7929L38.5303 27.1389L39.3439 25.8224C39.4454 25.6582 39.3946 25.4429 39.2304 25.3414C39.0662 25.2399 38.8509 25.2907 38.7494 25.4549L37.5682 27.3659L36.675 27.5768L36.4641 26.6835L37.6453 24.7725C37.7467 24.6083 37.6959 24.393 37.5317 24.2915C37.3676 24.19 37.1522 24.2408 37.0507 24.405L36.237 25.7215L35.891 24.2556C35.8462 24.0658 35.6561 23.9483 35.4664 23.9931C35.2766 24.0379 35.1591 24.228 35.2039 24.4178L35.5499 25.8837L34.2334 25.07C34.0692 24.9685 33.8539 25.0194 33.7524 25.1835C33.6509 25.3477 33.7018 25.5631 33.866 25.6645L35.777 26.8457L35.9878 27.739L35.0945 27.9498L33.1835 26.7687C33.0193 26.6672 32.804 26.718 32.7025 26.8822C32.601 27.0464 32.6519 27.2617 32.816 27.3632L34.1325 28.1769L32.6666 28.5229C32.4768 28.5677 32.3593 28.7578 32.4041 28.9476C32.4489 29.1373 32.639 29.2548 32.8288 29.21L34.2947 28.864L33.481 30.1805C33.3795 30.3447 33.4304 30.56 33.5945 30.6615C33.7587 30.763 33.9741 30.7122 34.0756 30.548L35.2567 28.637L36.15 28.4261L36.3608 29.3194L35.1797 31.2304C35.0782 31.3946 35.129 31.6099 35.2932 31.7114Z" fill="#295CE1"/>
</svg>
