<svg width="25" height="25" viewBox="0 0 25 25" fill="none" xmlns="http://www.w3.org/2000/svg">
    <path fill-rule="evenodd" clip-rule="evenodd" d="M10.5 4.41675C10.2348 4.41675 9.98043 4.5221 9.79289 4.70964C9.60536 4.89718 9.5 5.15153 9.5 5.41675V15.4167C9.5 15.682 9.60536 15.9363 9.79289 16.1239C9.98043 16.3114 10.2348 16.4167 10.5 16.4167H18.5C18.7652 16.4167 19.0196 16.3114 19.2071 16.1239C19.3946 15.9363 19.5 15.682 19.5 15.4167V8.83096L15.0859 4.41685L10.5 4.41675ZM8.37868 3.29543C8.94129 2.73282 9.70435 2.41675 10.5 2.41675H15.086C15.6163 2.41686 16.1251 2.62761 16.5001 3.00264M16.5001 3.00264L20.914 7.41653C20.914 7.4165 20.914 7.41657 20.914 7.41653C21.289 7.79151 21.4999 8.3002 21.5 8.83053V15.4167C21.5 16.2124 21.1839 16.9755 20.6213 17.5381C20.0587 18.1007 19.2957 18.4167 18.5 18.4167H17.5V19.4167C17.5 20.2124 17.1839 20.9755 16.6213 21.5381C16.0587 22.1007 15.2957 22.4167 14.5 22.4167H6.5C5.70435 22.4167 4.94129 22.1007 4.37868 21.5381C3.81607 20.9755 3.5 20.2124 3.5 19.4167V9.41675C3.5 8.6211 3.81607 7.85804 4.37868 7.29543C4.94129 6.73282 5.70435 6.41675 6.5 6.41675H7.5V5.41675C7.5 4.6211 7.81607 3.85804 8.37868 3.29543M7.5 8.41675H6.5C6.23478 8.41675 5.98043 8.5221 5.79289 8.70964C5.60536 8.89718 5.5 9.15153 5.5 9.41675V19.4167C5.5 19.682 5.60536 19.9363 5.79289 20.1239C5.98043 20.3114 6.23478 20.4167 6.5 20.4167H14.5C14.7652 20.4167 15.0196 20.3114 15.2071 20.1239C15.3946 19.9363 15.5 19.682 15.5 19.4167V18.4167H10.5C9.70435 18.4167 8.94129 18.1007 8.37868 17.5381C7.81607 16.9755 7.5 16.2124 7.5 15.4167V8.41675Z" fill="#1C1C31"/>
</svg>
