<svg width="24" height="24" viewBox="0 0 24 24" fill="none" xmlns="http://www.w3.org/2000/svg">
    <path fill-rule="evenodd" clip-rule="evenodd" d="M3.17157 5.17157C3.92172 4.42143 4.93913 4 6 4H18C19.0609 4 20.0783 4.42143 20.8284 5.17157C21.5786 5.92172 22 6.93913 22 8V16C22 17.0609 21.5786 18.0783 20.8284 18.8284C20.0783 19.5786 19.0609 20 18 20H6C4.93913 20 3.92172 19.5786 3.17157 18.8284C2.42143 18.0783 2 17.0609 2 16V8C2 6.93913 2.42143 5.92172 3.17157 5.17157ZM6 6C5.46957 6 4.96086 6.21071 4.58579 6.58579C4.21071 6.96086 4 7.46957 4 8V16C4 16.5304 4.21071 17.0391 4.58579 17.4142C4.96086 17.7893 5.46957 18 6 18H18C18.5304 18 19.0391 17.7893 19.4142 17.4142C19.7893 17.0391 20 16.5304 20 16V8C20 7.46957 19.7893 6.96086 19.4142 6.58579C19.0391 6.21071 18.5304 6 18 6H6ZM6.0625 9C6.0625 8.44772 6.51022 8 7.0625 8H9.0625C9.61478 8 10.0625 8.44772 10.0625 9V11C10.0625 11.5523 9.61478 12 9.0625 12H7.0625C6.51022 12 6.0625 11.5523 6.0625 11V9ZM7.0625 14.0625C6.51022 14.0625 6.0625 14.5102 6.0625 15.0625C6.0625 15.6148 6.51022 16.0625 7.0625 16.0625H8.0625C8.61478 16.0625 9.0625 15.6148 9.0625 15.0625C9.0625 14.5102 8.61478 14.0625 8.0625 14.0625H7.0625ZM10.5312 15.0625C10.5312 14.5102 10.979 14.0625 11.5312 14.0625H12.5312C13.0835 14.0625 13.5312 14.5102 13.5312 15.0625C13.5312 15.6148 13.0835 16.0625 12.5312 16.0625H11.5312C10.979 16.0625 10.5312 15.6148 10.5312 15.0625ZM16 14.0625C15.4477 14.0625 15 14.5102 15 15.0625C15 15.6148 15.4477 16.0625 16 16.0625H17C17.5523 16.0625 18 15.6148 18 15.0625C18 14.5102 17.5523 14.0625 17 14.0625H16Z" fill="#1C1C31"/>
</svg>
