<svg width="49" height="48" viewBox="0 0 49 48" fill="none" xmlns="http://www.w3.org/2000/svg">
<path d="M30.7178 14.9352C34.7393 18.9567 35.8521 26.5896 31.8306 30.6111C27.8091 34.6327 20.1761 33.5199 16.1546 29.4984C12.1331 25.4769 8.95895 11.4737 10.826 9.60661C12.6931 7.73955 26.6963 10.9137 30.7178 14.9352Z" fill="#87B659"/>
<path d="M18.4223 15.5253C17.9591 15.0621 17.2081 15.0621 16.7449 15.5254C16.2817 15.9886 16.2817 16.7396 16.7449 17.2028L20.9189 21.3768L17.8519 21.3768C17.1969 21.3768 16.6658 21.9078 16.6658 22.5629C16.6658 23.218 17.1969 23.749 17.8519 23.749L23.2911 23.749L26.8494 27.3073L23.7824 27.3073C23.1274 27.3073 22.5963 27.8383 22.5963 28.4934C22.5963 29.1485 23.1274 29.6795 23.7824 29.6795L29.2216 29.6795L37.5242 37.9822C37.9874 38.4454 38.7385 38.4454 39.2017 37.9822C39.6649 37.519 39.6649 36.7679 39.2017 36.3047L30.899 28.0021L30.899 22.5629C30.899 21.9078 30.368 21.3768 29.7129 21.3768C29.0578 21.3768 28.5268 21.9078 28.5268 22.5629L28.5268 25.6299L24.9685 22.0716L24.9685 16.6324C24.9685 15.9774 24.4375 15.4463 23.7824 15.4463C23.1274 15.4463 22.5963 15.9774 22.5963 16.6324L22.5963 19.6994L18.4223 15.5253Z" fill="#87B659"/>
<path opacity="0.6" d="M18.4223 15.5253C17.9591 15.0621 17.2081 15.0621 16.7449 15.5254C16.2817 15.9886 16.2817 16.7396 16.7449 17.2028L20.9189 21.3768L17.8519 21.3768C17.1969 21.3768 16.6658 21.9078 16.6658 22.5629C16.6658 23.218 17.1969 23.749 17.8519 23.749L23.2911 23.749L26.8494 27.3073L23.7824 27.3073C23.1274 27.3073 22.5963 27.8383 22.5963 28.4934C22.5963 29.1485 23.1274 29.6795 23.7824 29.6795L29.2216 29.6795L37.5242 37.9822C37.9874 38.4454 38.7385 38.4454 39.2017 37.9822C39.6649 37.519 39.6649 36.7679 39.2017 36.3047L30.899 28.0021L30.899 22.5629C30.899 21.9078 30.368 21.3768 29.7129 21.3768C29.0578 21.3768 28.5268 21.9078 28.5268 22.5629L28.5268 25.6299L24.9685 22.0716L24.9685 16.6324C24.9685 15.9774 24.4375 15.4463 23.7824 15.4463C23.1274 15.4463 22.5963 15.9774 22.5963 16.6324L22.5963 19.6994L18.4223 15.5253Z" fill="#2E4914" fill-opacity="0.6"/>
</svg>
