<svg width="48" height="48" viewBox="0 0 48 48" fill="none" xmlns="http://www.w3.org/2000/svg">
<path d="M33.1973 16.795H21.1973C20.645 16.795 20.1973 17.2428 20.1973 17.795V19.795C20.1973 20.3473 20.645 20.795 21.1973 20.795H33.1973C33.7496 20.795 34.1973 20.3473 34.1973 19.795V17.795C34.1973 17.2428 33.7495 16.795 33.1973 16.795Z" fill="#FFEA80"/>
<path d="M34.9483 37.6632H12.4462C11.205 37.6632 10.1973 36.767 10.1973 35.6632C10.1973 34.5594 11.205 33.6632 12.4462 33.6632H34.9483C36.1895 33.6632 37.1973 34.5594 37.1973 35.6632C37.1973 36.767 36.1895 37.6632 34.9483 37.6632Z" fill="#FFBF00"/>
<path d="M34.9483 33.6632H12.4462C11.205 33.6632 10.1973 32.543 10.1973 31.1632C10.1973 29.7834 11.205 28.6632 12.4462 28.6632H34.9483C36.1895 28.6632 37.1973 29.7834 37.1973 31.1632C37.1973 32.543 36.1895 33.6632 34.9483 33.6632Z" fill="#FFBF00"/>
<path d="M34.9483 28.6632H12.4462C11.205 28.6632 10.1973 27.767 10.1973 26.6632C10.1973 25.5594 11.205 24.6632 12.4462 24.6632H34.9483C36.1895 24.6632 37.1973 25.5594 37.1973 26.6632C37.1973 27.767 36.1895 28.6632 34.9483 28.6632Z" fill="#FFBF00"/>
<path d="M34.9483 24.6632H12.4462C11.205 24.6632 10.1973 23.767 10.1973 22.6632C10.1973 21.5594 11.205 20.6632 12.4462 20.6632H34.9483C36.1895 20.6632 37.1973 21.5594 37.1973 22.6632C37.1973 23.767 36.1895 24.6632 34.9483 24.6632Z" fill="#FFBF00"/>
<path opacity="0.4" d="M18.0316 26.6632C18.0316 25.5594 19.002 24.6632 20.1973 24.6632H12.3629C11.1677 24.6632 10.1973 25.5594 10.1973 26.6632C10.1973 27.767 11.1677 28.6632 12.3629 28.6632H20.1973C19.002 28.6632 18.0316 27.767 18.0316 26.6632Z" fill="#FFAB00"/>
<path opacity="0.4" d="M18.0316 22.6632C18.0316 21.5594 19.002 20.6632 20.1973 20.6632H12.3629C11.1677 20.6632 10.1973 21.5594 10.1973 22.6632C10.1973 23.767 11.1677 24.6632 12.3629 24.6632H20.1973C19.002 24.6632 18.0316 23.767 18.0316 22.6632Z" fill="#FFAB00"/>
<path opacity="0.4" d="M18.0316 31.1631C18.0316 29.7834 19.002 28.6632 20.1973 28.6632H12.3629C11.1677 28.6632 10.1973 29.7834 10.1973 31.1631C10.1973 32.5429 11.1677 33.6631 12.3629 33.6631H20.1973C19.002 33.6767 18.0316 32.5566 18.0316 31.1631Z" fill="#FFAB00"/>
<path opacity="0.4" d="M18.0316 35.6632C18.0316 34.5594 19.002 33.6632 20.1973 33.6632H12.3629C11.1677 33.6632 10.1973 34.5594 10.1973 35.6632C10.1973 36.767 11.1677 37.6632 12.3629 37.6632H20.1973C19.002 37.6632 18.0316 36.767 18.0316 35.6632Z" fill="#FFAB00"/>
<path fill-rule="evenodd" clip-rule="evenodd" d="M36.4951 34.212H10.8992C11.3024 33.872 11.8471 33.6632 12.4461 33.6632H34.9482C35.5472 33.6632 36.0919 33.872 36.4951 34.212Z" fill="#FFAB00"/>
<path fill-rule="evenodd" clip-rule="evenodd" d="M10.8992 37.1144L36.4951 37.1144C36.0919 37.4545 35.5472 37.6632 34.9482 37.6632L12.4461 37.6632C11.8471 37.6632 11.3024 37.4545 10.8992 37.1144Z" fill="#FFAB00"/>
<path fill-rule="evenodd" clip-rule="evenodd" d="M36.4951 25.212H10.8992C11.3024 24.872 11.8471 24.6632 12.4461 24.6632H34.9482C35.5472 24.6632 36.0919 24.872 36.4951 25.212Z" fill="#FFAB00"/>
<path fill-rule="evenodd" clip-rule="evenodd" d="M36.1553 29.0538H11.2393C11.5881 28.8065 12.0022 28.6632 12.4462 28.6632H34.9483C35.3923 28.6632 35.8065 28.8065 36.1553 29.0538Z" fill="#FFAB00"/>
<path d="M20.6714 20.6632C21.381 20.6632 21.959 21.252 21.959 21.975V29.5794C21.959 30.1906 22.4491 30.69 23.049 30.69C23.6489 30.69 24.1391 30.1906 24.1391 29.5794V21.975C24.1391 21.252 24.7171 20.6632 25.4267 20.6632H20.6714Z" fill="#FFEA80"/>
<path d="M26.1458 20.6632C27.198 20.6632 28.055 21.5363 28.055 22.6084V33.8846C28.055 34.7909 28.7819 35.5314 29.6714 35.5314C30.561 35.5314 31.2878 34.7909 31.2878 33.8846V22.6084C31.2878 21.5363 32.1449 20.6632 33.1971 20.6632H26.1458Z" fill="#FFEA80"/>
<path d="M17.8263 32.2474C17.6925 33.242 17.6721 33.771 17.2832 34.4692C16.9421 35.086 16.423 35.5856 15.7936 35.903C15.1642 36.2204 14.4538 36.3407 13.7551 36.2483L12.7584 36.1134C12.9079 34.991 12.9118 34.934 12.9779 34.6927C13.1967 33.8676 13.7092 33.1508 14.4191 32.6766C15.1289 32.2025 15.9874 32.0037 16.8334 32.1175L17.8263 32.2474Z" fill="#1C5500"/>
<path opacity="0.5" fill-rule="evenodd" clip-rule="evenodd" d="M17.8099 32.2451C17.7681 32.3348 17.7215 32.426 17.6694 32.5197C17.2624 33.2565 16.6427 33.8532 15.8911 34.232C15.1395 34.6107 14.291 34.7539 13.4561 34.6428L13.0093 34.582C12.9983 34.6186 12.9878 34.6555 12.978 34.6926C12.9183 34.9106 12.9093 34.9781 12.7979 35.8166C12.786 35.9063 12.7729 36.0048 12.7585 36.1133L13.7552 36.2482C14.454 36.3406 15.1644 36.2203 15.7938 35.9029C16.4231 35.5855 16.9422 35.0859 17.2833 34.4691C17.6197 33.8652 17.6804 33.3879 17.7772 32.6265C17.7924 32.5076 17.8084 32.3817 17.8264 32.2473L17.8099 32.2451Z" fill="#34800E"/>
<path d="M12.9745 34.6886L13.5801 35.4825L12.7621 36.1065C12.0218 36.6591 11.0934 36.8974 10.1785 36.7697C9.2635 36.642 8.43585 36.1586 7.87515 35.4244L7.26953 34.6305L8.06343 34.0249C8.80289 33.4622 9.73548 33.216 10.6563 33.3405C11.5772 33.4649 12.4109 33.9498 12.9745 34.6886Z" fill="#1C5500"/>
<path opacity="0.5" fill-rule="evenodd" clip-rule="evenodd" d="M12.481 34.1636L12.123 34.4367C11.2231 35.1084 10.0949 35.3984 8.98313 35.2438C8.37275 35.1589 7.79439 34.9437 7.2842 34.6193L7.26953 34.6305L7.87515 35.4244C8.43585 36.1586 9.26351 36.642 10.1785 36.7697C11.0934 36.8974 12.0218 36.6591 12.7621 36.1065L13.5801 35.4825L12.9745 34.6886C12.8273 34.4956 12.6617 34.32 12.481 34.1636Z" fill="#34800E"/>
<path d="M14.93 33.6193C14.9578 33.9334 14.9137 34.2498 14.8011 34.5444C14.6885 34.839 14.5103 35.1041 14.2801 35.3196C14.0498 35.5351 13.7735 35.6954 13.472 35.7882C13.1706 35.8811 12.852 35.9041 12.5404 35.8555C11.9714 35.7653 11.4589 35.4594 11.1095 35.0013C10.76 34.5433 10.6005 33.9682 10.6639 33.3956C10.6948 33.1173 10.7819 32.8482 10.9198 32.6045C11.0577 32.3609 11.2436 32.1477 11.4662 31.9779C11.6888 31.808 11.9435 31.6851 12.215 31.6165C12.4865 31.5479 12.769 31.5351 13.0456 31.5787C13.5434 31.6574 14.0001 31.9016 14.342 32.2718C14.6839 32.6421 14.8911 33.1168 14.93 33.6193Z" fill="#474785"/>
<path opacity="0.6" fill-rule="evenodd" clip-rule="evenodd" d="M13.2317 34.5469C13.3661 34.5278 13.4907 34.466 13.5872 34.3705C13.8486 34.111 14.1539 33.8997 14.4889 33.7464C14.6045 33.6946 14.698 33.6034 14.7526 33.4892C14.8073 33.3749 14.8197 33.2448 14.7875 33.1223C14.7046 32.8133 14.5557 32.5273 14.3526 32.2834C14.6883 32.652 14.8916 33.1221 14.9301 33.6194C14.9579 33.9336 14.9139 34.25 14.8012 34.5446C14.6886 34.8392 14.5104 35.1043 14.2802 35.3198C14.0499 35.5353 13.7736 35.6956 13.4721 35.7884C13.1707 35.8812 12.8521 35.9042 12.5405 35.8557C11.9715 35.7655 11.459 35.4596 11.1096 35.0015C10.7602 34.5434 10.6006 33.9684 10.664 33.3957C10.6836 33.2193 10.7258 33.0466 10.7892 32.8816C10.7488 33.0083 10.721 33.139 10.7064 33.2719C10.6938 33.3751 10.7033 33.4799 10.7342 33.5792C10.7651 33.6785 10.8168 33.7701 10.8858 33.848C10.9548 33.9258 11.0396 33.9881 11.1345 34.0307C11.2294 34.0733 11.3322 34.0953 11.4362 34.0951C11.9284 34.1065 12.4105 34.2375 12.8409 34.4767C12.9603 34.5414 13.0973 34.5661 13.2317 34.5469Z" fill="#363663"/>
<path d="M13.5796 36.9381C13.5277 37.3282 13.3612 37.6942 13.1012 37.9897C12.8412 38.2851 12.4994 38.4968 12.119 38.5979C11.7386 38.6989 11.3368 38.6849 10.9645 38.5574C10.5921 38.43 10.2659 38.195 10.0272 37.882C9.78849 37.5691 9.648 37.1924 9.62352 36.7996C9.59904 36.4068 9.69166 36.0155 9.88966 35.6754C10.0877 35.3353 10.3821 35.0615 10.7358 34.8889C11.0895 34.7162 11.4864 34.6523 11.8764 34.7054C12.398 34.7763 12.8702 35.0512 13.1895 35.4697C13.5087 35.8883 13.649 36.4163 13.5796 36.9381Z" fill="#474785"/>
<path opacity="0.6" fill-rule="evenodd" clip-rule="evenodd" d="M10.3522 35.1085C10.1664 35.2593 10.0083 35.4432 9.88668 35.6522C9.68867 35.9924 9.59605 36.3836 9.62053 36.7764C9.64501 37.1692 9.7855 37.5459 10.0242 37.8589C10.2629 38.1718 10.5891 38.4068 10.9615 38.5343C11.3339 38.6617 11.7357 38.6758 12.116 38.5747C12.3532 38.5117 12.5754 38.4056 12.7721 38.2631C12.5634 38.2427 12.3567 38.1981 12.1561 38.1295C11.6465 37.9551 11.2 37.6333 10.8733 37.205C10.5466 36.7767 10.3543 36.2611 10.3208 35.7235C10.3079 35.5169 10.3187 35.3106 10.3522 35.1085Z" fill="#363663"/>
<path d="M11.4857 34.654C11.442 34.657 11.3728 34.6664 11.3538 34.6691C11.3985 34.6639 11.4412 34.6577 11.4857 34.654Z" fill="#474785"/>
<path d="M11.4857 34.654C11.442 34.657 11.3728 34.6664 11.3538 34.6691C11.3985 34.6639 11.4412 34.6577 11.4857 34.654Z" fill="#474785"/>
<path d="M16.6952 38.0269C17.6288 37.3148 17.7899 35.9566 17.055 34.9933C16.3202 34.03 14.9677 33.8264 14.0341 34.5385C13.1006 35.2507 12.9395 36.6089 13.6743 37.5722C14.4091 38.5355 15.7616 38.7391 16.6952 38.0269Z" fill="#474785"/>
<path opacity="0.6" fill-rule="evenodd" clip-rule="evenodd" d="M13.269 36.7093C13.3401 37.0203 13.4779 37.3152 13.6741 37.5723C13.9374 37.9175 14.2941 38.1792 14.6989 38.3243C15.1038 38.4694 15.5386 38.4913 15.9484 38.3873C16.3581 38.2834 16.7244 38.0581 17.0008 37.7402C17.2761 37.4234 17.4499 37.0287 17.5004 36.6058C17.1198 37.0032 16.6367 37.2889 16.1034 37.4306C15.5293 37.5832 14.9229 37.5619 14.3608 37.3696C13.952 37.2297 13.58 37.0038 13.269 36.7093Z" fill="#363663"/>
<path fill-rule="evenodd" clip-rule="evenodd" d="M10.632 36.4258C10.5688 36.4741 10.5566 36.5644 10.6048 36.6277L10.6533 36.6913L10.577 36.7495C10.5208 36.7924 10.51 36.8727 10.5529 36.9289C10.5957 36.9852 10.6761 36.996 10.7323 36.9531L10.8086 36.8948L10.8572 36.9585C10.9055 37.0218 10.9958 37.0339 11.0591 36.9857C11.1223 36.9374 11.1345 36.847 11.0862 36.7838L11.0377 36.7201L11.114 36.6619C11.1703 36.619 11.1811 36.5387 11.1382 36.4824C11.0953 36.4262 11.015 36.4154 10.9587 36.4583L10.8824 36.5165L10.8339 36.453C10.7856 36.3897 10.6952 36.3776 10.632 36.4258Z" fill="#8B8BC1"/>
<path fill-rule="evenodd" clip-rule="evenodd" d="M12.4135 32.3758C12.3502 32.424 12.3381 32.5144 12.3863 32.5776L12.4348 32.6412L12.3585 32.6994C12.3023 32.7423 12.2915 32.8227 12.3344 32.8789C12.3772 32.9351 12.4576 32.9459 12.5138 32.903L12.5901 32.8448L12.6387 32.9085C12.687 32.9717 12.7773 32.9839 12.8406 32.9356C12.9038 32.8874 12.916 32.797 12.8677 32.7337L12.8192 32.6701L12.8955 32.6118C12.9518 32.5689 12.9626 32.4886 12.9197 32.4324C12.8768 32.3762 12.7964 32.3654 12.7402 32.4082L12.6639 32.4665L12.6154 32.4029C12.5671 32.3397 12.4767 32.3275 12.4135 32.3758Z" fill="#8B8BC1"/>
<path fill-rule="evenodd" clip-rule="evenodd" d="M15.1061 35.0569C15.0429 35.1052 15.0307 35.1955 15.079 35.2588L15.1275 35.3224L15.0511 35.3806C14.9949 35.4235 14.9841 35.5038 15.027 35.56C15.0699 35.6163 15.1502 35.6271 15.2064 35.5842L15.2828 35.5259L15.3313 35.5896C15.3796 35.6529 15.47 35.665 15.5332 35.6168C15.5965 35.5685 15.6086 35.4781 15.5604 35.4149L15.5118 35.3512L15.5882 35.293C15.6444 35.2501 15.6552 35.1698 15.6123 35.1135C15.5694 35.0573 15.4891 35.0465 15.4329 35.0894L15.3565 35.1476L15.308 35.0841C15.2598 35.0208 15.1694 35.0087 15.1061 35.0569Z" fill="#8B8BC1"/>
<path d="M35.019 41.8714H11.5034C9.47507 41.8714 7.77494 40.5164 7.2952 38.6984C7.16054 38.1766 7.57295 37.6632 8.12843 37.6632H38.394C38.9495 37.6632 39.3619 38.1766 39.2273 38.6984C38.7475 40.5248 37.0474 41.8714 35.019 41.8714Z" fill="#BDBDDB"/>
<g style="mix-blend-mode:multiply" opacity="0.26">
<path d="M16.9561 37.6632H8.1261C7.57212 37.6632 7.16083 38.1752 7.29513 38.6956C7.77357 40.5086 9.46907 41.8516 11.4835 41.8516H21.2704C18.8951 41.86 16.9478 39.9798 16.9478 37.6632H16.9561Z" fill="#8B8BC1"/>
</g>
</svg>
