<svg width="49" height="48" viewBox="0 0 49 48" fill="none" xmlns="http://www.w3.org/2000/svg">
<path fill-rule="evenodd" clip-rule="evenodd" d="M7.64193 11.3734C7.70732 10.6101 8.25423 9.97796 9.00016 9.80348C14.9559 8.41039 21.7104 9.94539 26.9559 14.4838C32.2015 19.0221 34.6919 25.4856 34.1698 31.5798C34.1044 32.3431 33.5575 32.9752 32.8116 33.1497C26.8558 34.5428 20.1014 33.0078 14.8558 28.4694C9.61023 23.9311 7.11981 17.4676 7.64193 11.3734Z" fill="#BDBDDB"/>
<path fill-rule="evenodd" clip-rule="evenodd" d="M21.083 10.8642C17.4248 9.36244 13.5038 8.96249 9.83936 9.64737C8.06506 9.76833 7.67242 10.6513 7.60872 12.2256C7.45794 15.9504 8.41762 19.7732 10.4298 23.1773C12.4331 21.5999 14.4347 19.6944 16.3234 17.5114C18.2122 15.3283 19.81 13.0735 21.083 10.8642Z" fill="#A9A9D0"/>
<path fill-rule="evenodd" clip-rule="evenodd" d="M35.1957 30.9589C33.6664 32.2076 33.1146 33.9234 32.6933 34.1307C32.2721 34.3381 29.1175 33.4457 29.5513 33.636C29.9852 33.8263 34.176 28.992 34.0954 28.384C34.0148 27.776 34.8663 30.1657 35.1957 30.9589Z" fill="#BDBDDB"/>
<path opacity="0.4" fill-rule="evenodd" clip-rule="evenodd" d="M35.1957 30.9589C33.6664 32.2076 33.1146 33.9234 32.6933 34.1307C32.2721 34.3381 29.1175 33.4457 29.5513 33.636C29.9852 33.8263 34.176 28.992 34.0954 28.384C34.0148 27.776 34.8663 30.1657 35.1957 30.9589Z" fill="#8B8BC1"/>
<path d="M44.6101 32.7065C44.912 31.9113 37.6256 31.0261 35.0912 30.8008C34.5755 30.7549 33.0718 31.8491 32.4191 33.8892C32.0614 35.0071 34.7601 42.8704 35.9132 42.7586C37.0663 42.6469 37.8493 37.3846 38.5791 36.6653C39.6713 35.5886 44.2327 33.7005 44.6101 32.7065Z" fill="#BDBDDB"/>
<circle cx="14.8315" cy="12.6407" r="0.93158" transform="rotate(-7.54894 14.8315 12.6407)" fill="#363663"/>
<path d="M24.4841 20.8152C23.8371 22.926 21.8823 24.4458 20.0079 24.4213C19.8306 24.4189 19.7091 24.6239 19.818 24.7638C21.3782 26.7678 23.2594 27.6546 27.3219 28.1295C27.4724 28.1471 27.5868 27.9963 27.5302 27.8559C26.3351 24.8916 25.4639 22.2182 25.022 20.7872C24.9558 20.5731 24.5498 20.6009 24.4841 20.8152Z" fill="#8B8BC1"/>
<path opacity="0.4" d="M21.08 18.1226C21.5927 18.0288 22.6422 17.6975 22.3745 16.5705C22.3538 16.4831 22.429 16.4013 22.5009 16.4457C23.0053 16.757 23.4127 17.4474 22.9118 18.1817C22.3677 18.9794 21.4629 18.57 21.0418 18.3133C20.9633 18.2655 20.9913 18.1388 21.08 18.1226Z" fill="#8B8BC1"/>
<path opacity="0.4" d="M19.8256 15.3048C20.5033 15.1139 22.2142 14.4468 21.4915 12.7082C21.457 12.6254 21.5219 12.5353 21.6 12.5667C22.415 12.8939 23.2025 13.842 22.5887 15.0315C21.9066 16.3535 20.3976 15.7865 19.8074 15.4984C19.7246 15.4579 19.739 15.3293 19.8256 15.3048Z" fill="#8B8BC1"/>
<path opacity="0.4" d="M23.118 15.4408C23.7289 15.3093 25.1506 14.8392 24.6816 13.3604C24.6545 13.2749 24.7256 13.1893 24.8006 13.2277C25.4672 13.5687 26.0578 14.4202 25.4656 15.3875C24.8135 16.4526 23.5977 15.9224 23.0878 15.6329C23.0077 15.5874 23.0299 15.4598 23.118 15.4408Z" fill="#8B8BC1"/>
</svg>
