<svg width="49" height="48" viewBox="0 0 49 48" fill="none" xmlns="http://www.w3.org/2000/svg">
<path d="M42.5002 17.0192C43.4125 21.42 40.8369 26.9448 36.4361 27.857C32.0353 28.7692 27.4758 24.7235 26.5636 20.3227C25.6514 15.9219 29.6283 5.29498 31.6715 4.87146C33.7146 4.44794 41.588 12.6184 42.5002 17.0192Z" fill="#34800E"/>
<path d="M34.1217 12.0758C34.0166 11.5689 33.5205 11.2432 33.0136 11.3482C32.5067 11.4533 32.181 11.9494 32.286 12.4563L33.2329 17.024L31.2069 15.6937C30.7742 15.4096 30.1931 15.5301 29.909 15.9628C29.6248 16.3955 29.7453 16.9766 30.178 17.2608L33.771 19.6199L34.5781 23.5138L32.5522 22.1836C32.1195 21.8994 31.5383 22.0199 31.2542 22.4526C30.9701 22.8853 31.0905 23.4664 31.5233 23.7506L35.1162 26.1097L36.9996 35.1955C37.1047 35.7024 37.6008 36.0281 38.1077 35.923C38.6146 35.8179 38.9403 35.3218 38.8352 34.8149L36.9519 25.7292L39.311 22.1362C39.5951 21.7035 39.4747 21.1224 39.042 20.8383C38.6093 20.5542 38.0281 20.6746 37.744 21.1073L36.4138 23.1333L35.6066 19.2394L37.9658 15.6464C38.2499 15.2137 38.1294 14.6326 37.6967 14.3485C37.264 14.0644 36.6829 14.1848 36.3988 14.6175L35.0685 16.6435L34.1217 12.0758Z" fill="#2A660C"/>
<path d="M22.4853 23.5967C26.8828 24.5248 30.9121 29.0987 29.9841 33.4962C29.056 37.8937 23.5221 40.4494 19.1246 39.5214C14.7271 38.5933 6.58496 30.6906 7.01583 28.649C7.4467 26.6074 18.0879 22.6687 22.4853 23.5967Z" fill="#34800E"/>
<path d="M14.5986 29.2911C14.0921 29.1842 13.5948 29.5082 13.4879 30.0147C13.381 30.5212 13.705 31.0185 14.2115 31.1254L18.7758 32.0886L16.745 33.4116C16.3113 33.6941 16.1887 34.2748 16.4713 34.7085C16.7539 35.1423 17.3346 35.2648 17.7683 34.9823L21.3697 32.636L25.2607 33.4572L23.23 34.7801C22.7962 35.0627 22.6737 35.6434 22.9562 36.0771C23.2388 36.5109 23.8195 36.6334 24.2532 36.3508L27.8546 34.0046L36.9335 35.9206C37.4401 36.0275 37.9373 35.7036 38.0442 35.1971C38.1511 34.6905 37.8272 34.1933 37.3206 34.0864L28.2418 32.1704L25.8955 28.5689C25.613 28.1352 25.0323 28.0127 24.5985 28.2952C24.1648 28.5778 24.0423 29.1585 24.3248 29.5922L25.6478 31.6229L21.7568 30.8018L19.4106 27.2004C19.128 26.7666 18.5473 26.6441 18.1136 26.9266C17.6799 27.2092 17.5573 27.7899 17.8399 28.2236L19.1629 30.2543L14.5986 29.2911Z" fill="#2A660C"/>
<path d="M31.1726 14.7087C34.9908 18.5268 36.0473 25.7739 32.2291 29.592C28.4109 33.4102 21.1639 32.3537 17.3457 28.5355C13.5275 24.7174 10.5138 11.4221 12.2865 9.64942C14.0592 7.87675 27.3544 10.8905 31.1726 14.7087Z" fill="#87B659"/>
<path d="M19.4991 15.2693C19.0593 14.8295 18.3463 14.8295 17.9065 15.2693C17.4667 15.7091 17.4667 16.4221 17.9065 16.8619L21.8695 20.8249L18.9576 20.8249C18.3357 20.8249 17.8315 21.3291 17.8315 21.9511C17.8315 22.573 18.3357 23.0772 18.9576 23.0772L24.1218 23.0772L27.5002 26.4556L24.5883 26.4556C23.9663 26.4556 23.4621 26.9598 23.4621 27.5817C23.4621 28.2037 23.9663 28.7079 24.5883 28.7079L29.7524 28.7079L37.6353 36.5908C38.0751 37.0306 38.7882 37.0306 39.228 36.5908C39.6678 36.151 39.6678 35.438 39.228 34.9982L31.3451 27.1152L31.3451 21.9511C31.3451 21.3291 30.8409 20.8249 30.2189 20.8249C29.597 20.8249 29.0928 21.3291 29.0928 21.9511L29.0928 24.863L25.7144 21.4846L25.7144 16.3204C25.7144 15.6985 25.2102 15.1943 24.5883 15.1943C23.9663 15.1943 23.4621 15.6985 23.4621 16.3204L23.4621 19.2323L19.4991 15.2693Z" fill="#87B659"/>
<path opacity="0.6" d="M19.4986 15.2693C19.0589 14.8295 18.3458 14.8295 17.906 15.2693C17.4662 15.7091 17.4662 16.4221 17.906 16.8619L21.869 20.8249L18.9571 20.8249C18.3352 20.8249 17.831 21.3291 17.831 21.9511C17.831 22.573 18.3352 23.0772 18.9571 23.0772L24.1213 23.0772L27.4997 26.4556L24.5878 26.4556C23.9658 26.4556 23.4616 26.9598 23.4616 27.5817C23.4616 28.2037 23.9658 28.7079 24.5878 28.7079L29.7519 28.7079L37.6349 36.5908C38.0746 37.0306 38.7877 37.0306 39.2275 36.5908C39.6673 36.151 39.6673 35.438 39.2275 34.9982L31.3446 27.1152L31.3446 21.9511C31.3446 21.3291 30.8404 20.8249 30.2184 20.8249C29.5965 20.8249 29.0923 21.3291 29.0923 21.9511L29.0923 24.863L25.7139 21.4846L25.7139 16.3204C25.7139 15.6985 25.2097 15.1943 24.5878 15.1943C23.9658 15.1943 23.4616 15.6985 23.4616 16.3204L23.4616 19.2323L19.4986 15.2693Z" fill="#34800E"/>
</svg>
