<svg width="48" height="48" viewBox="0 0 48 48" fill="none" xmlns="http://www.w3.org/2000/svg">
<path d="M35.2957 37.9351H13.5152C12.3138 37.9351 11.3384 37.0389 11.3384 35.9351C11.3384 34.8312 12.3138 33.9351 13.5152 33.9351H35.2957C36.4971 33.9351 37.4725 34.8312 37.4725 35.9351C37.4725 37.0389 36.4971 37.9351 35.2957 37.9351Z" fill="#FFBF00"/>
<g style="mix-blend-mode:multiply" opacity="0.4">
<path d="M19.1725 35.9351C19.1725 34.8312 20.1429 33.9351 21.3381 33.9351H13.5038C12.3085 33.9351 11.3381 34.8312 11.3381 35.9351C11.3381 37.0389 12.3085 37.9351 13.5038 37.9351H21.3381C20.1429 37.9351 19.1725 37.0389 19.1725 35.9351Z" fill="#FFBF00"/>
</g>
<path d="M35.6562 30.9447H13.1542C11.913 30.9447 10.9053 29.8245 10.9053 28.4447C10.9053 17.2041 37.8516 17.1499 37.9051 28.4447C37.9051 29.8245 36.8974 30.9447 35.6562 30.9447Z" fill="#FFBF00"/>
<g style="mix-blend-mode:multiply" opacity="0.4">
<path fill-rule="evenodd" clip-rule="evenodd" d="M19.2045 20.5537C18.6929 21.6411 18.3701 23.2317 18.3701 25.0024C18.3701 28.2691 19.4474 30.903 20.7843 30.9349H13.0292C11.8125 30.9034 10.8335 29.7956 10.8335 28.4356C10.8335 24.2672 14.539 21.6372 19.2045 20.5537ZM20.8335 30.9349C20.8171 30.9353 20.8007 30.9353 20.7843 30.9349H20.8335Z" fill="#FFBF00"/>
</g>
<path d="M22.167 30.9448H11.7559C11.5501 30.9448 11.3833 31.1116 11.3833 31.3174C11.3833 31.5231 11.5501 31.6899 11.7559 31.6899H22.167C22.3728 31.6899 22.5396 31.5231 22.5396 31.3174C22.5396 31.1116 22.3728 30.9448 22.167 30.9448Z" fill="#CC0C36"/>
<path d="M34.1357 30.9448H23.3184C23.1126 30.9448 22.9458 31.1116 22.9458 31.3174C22.9458 31.5231 23.1126 31.6899 23.3184 31.6899H34.1357C34.3415 31.6899 34.5083 31.5231 34.5083 31.3174C34.5083 31.1116 34.3415 30.9448 34.1357 30.9448Z" fill="#CC0C36"/>
<path d="M35.6734 30.9448H35.2871C35.0814 30.9448 34.9146 31.1116 34.9146 31.3174C34.9146 31.5231 35.0814 31.6899 35.2871 31.6899H35.6734C35.8792 31.6899 36.046 31.5231 36.046 31.3174C36.046 31.1116 35.8792 30.9448 35.6734 30.9448Z" fill="#CC0C36"/>
<g style="mix-blend-mode:multiply" opacity="0.36">
<path d="M19.232 31.6899H11.7222C11.3107 31.6899 10.9771 32.0235 10.9771 32.4351C10.9771 32.8466 11.3107 33.1802 11.7222 33.1802H19.232C19.6435 33.1802 19.9771 32.8466 19.9771 32.4351C19.9771 32.0235 19.6435 31.6899 19.232 31.6899Z" fill="#363663"/>
</g>
<path fill-rule="evenodd" clip-rule="evenodd" d="M20.06 32.7258H11.6366C10.0082 32.7257 9.88755 33.7385 10.2582 34.1953C10.9457 35.0425 12.3519 34.1953 13.2269 34.1953C14.0238 34.3281 14.0305 34.9578 14.1955 35.2952C14.3787 35.6693 14.6212 35.9085 14.917 35.9724C15.2546 36.0428 15.6249 35.8769 15.9946 35.5261C16.2575 35.2765 16.6781 35.2459 16.9755 35.4548C17.3937 35.7489 17.7841 35.8601 18.1096 35.7388C18.3779 35.6403 18.574 35.3969 18.6994 35.0425C18.8082 34.7345 19.1069 34.5218 19.4377 34.483C19.7036 34.4518 19.9158 34.3575 20.0585 34.1953C20.3331 33.8833 20.3158 33.3612 20.06 32.7258Z" fill="#87B659"/>
<path fill-rule="evenodd" clip-rule="evenodd" d="M27.3739 34.2534C27.5116 34.2857 27.6437 34.3097 27.7696 34.325C27.8627 34.3394 27.9622 34.346 28.0676 34.3452C28.1702 34.346 28.2673 34.3397 28.3584 34.326C28.4869 34.3107 28.622 34.2863 28.763 34.2534C29.2042 34.1502 29.6879 34.332 29.8866 34.6597C30.107 35.023 30.3988 35.2553 30.7548 35.3173C31.1611 35.3857 31.6066 35.2246 32.0515 34.8839C32.3678 34.6416 32.874 34.6118 33.2319 34.8147C33.7351 35.1003 34.2049 35.2083 34.5966 35.0905C34.9195 34.9948 35.1554 34.7585 35.3063 34.4143C35.4373 34.1152 35.6021 33.9448 36.4458 34.4143C37.2896 34.8839 39.0708 33.2656 36.8228 32.7783C34.5749 32.2909 35.8624 32.9086 35.6512 32.6179C35.2389 32.0504 34.7523 31.9036 33.8827 32.107C33.4415 32.2102 32.9577 32.0283 32.7591 31.7006C32.5387 31.3373 32.2468 31.1051 31.8909 31.043C31.4846 30.9746 31.039 31.1358 30.5942 31.4765C30.2778 31.7188 29.7716 31.7485 29.4137 31.5456C28.9106 31.26 28.4407 31.152 28.049 31.2699C27.7262 31.3655 27.4902 31.6019 27.3393 31.946C27.3375 31.9501 27.3357 31.9542 27.3338 31.9582C27.1881 31.7348 26.9924 31.5791 26.7458 31.5058C26.3551 31.388 25.8866 31.496 25.3848 31.7816C25.0279 31.9845 24.5231 31.9547 24.2076 31.7124C23.764 31.3717 23.3196 31.2106 22.9144 31.279C22.5594 31.341 22.2684 31.5733 22.0486 31.9365C21.8504 32.2643 21.368 32.4461 20.928 32.3429C20.3082 32.1976 19.8013 32.2202 19.4753 32.4422C19.339 32.5351 19.2784 32.6041 19.2647 32.6841C19.003 33.2548 19.0343 33.7828 19.9623 33.871C20.3592 33.9087 20.7177 34.1152 20.8483 34.4143C20.9988 34.7585 21.2341 34.9948 21.5561 35.0905C21.9467 35.2083 22.4153 35.1003 22.9171 34.8147C23.274 34.6118 23.7788 34.6416 24.0943 34.8839C24.5379 35.2246 24.9823 35.3857 25.3875 35.3173C25.7425 35.2553 26.0335 35.023 26.2533 34.6597C26.4514 34.332 26.9339 34.1502 27.3739 34.2534Z" fill="#34800E"/>
<path d="M36.2944 31.6899H11.7222C11.3107 31.6899 10.9771 32.0235 10.9771 32.4351C10.9771 32.8466 11.3107 33.1802 11.7222 33.1802H36.2944C36.7059 33.1802 37.0396 32.8466 37.0396 32.4351C37.0396 32.0235 36.706 31.6899 36.2944 31.6899Z" fill="#4D1A00"/>
<path d="M35.9157 40.6917H12.0847C10.0291 40.6917 8.30614 39.804 7.81996 38.6132C7.68349 38.2714 8.10143 37.9351 8.66437 37.9351H39.336C39.899 37.9351 40.3169 38.2714 40.1804 38.6132C39.6943 39.8096 37.9713 40.6917 35.9157 40.6917Z" fill="#BDBDDB"/>
<g style="mix-blend-mode:multiply" opacity="0.26">
<path d="M17.6373 37.9351H8.66437C8.10143 37.9351 7.68349 38.2714 7.81996 38.6132C8.30613 39.804 10.0291 40.6862 12.0761 40.6862H22.0214C19.6076 40.6917 17.6287 39.4567 17.6287 37.9351H17.6373Z" fill="#8B8BC1"/>
</g>
</svg>
