<svg width="48" height="48" viewBox="0 0 48 48" fill="none" xmlns="http://www.w3.org/2000/svg">
<path d="M22.2943 18.785C21.6827 18.0527 20.8326 17.5595 19.8934 17.392C18.9542 17.2245 17.986 17.3934 17.159 17.869C16.332 18.3446 15.6991 19.0965 15.3715 19.9926C15.044 20.8886 15.0428 21.8714 15.3681 22.7683C15.6934 23.6651 16.3244 24.4186 17.1503 24.8963C17.9761 25.374 18.9439 25.5452 19.8835 25.3801C20.8231 25.2149 21.6744 24.7238 22.2878 23.9931C22.9012 23.2624 23.2374 22.3389 23.2373 21.3848C23.2381 20.4344 22.9042 19.5139 22.2943 18.785ZM19.1812 23.6383C18.7357 23.6381 18.3003 23.5059 17.9299 23.2583C17.5596 23.0107 17.271 22.6589 17.1005 22.2473C16.9301 21.8357 16.8856 21.3828 16.9725 20.9459C17.0595 20.509 17.274 20.1077 17.589 19.7927C17.904 19.4777 18.3053 19.2631 18.7422 19.1762C19.1792 19.0893 19.632 19.1338 20.0436 19.3042C20.4552 19.4746 20.8071 19.7633 21.0546 20.1336C21.3022 20.5039 21.4345 20.9394 21.4346 21.3848C21.4346 21.9825 21.1972 22.5557 20.7746 22.9783C20.352 23.4009 19.7788 23.6383 19.1812 23.6383Z" fill="#FFD633"/>
<g style="mix-blend-mode:multiply" opacity="0.36">
<path d="M23.2378 21.3848C23.2377 22.3408 22.8999 23.2661 22.2841 23.9974C21.6682 24.7286 20.8139 25.2189 19.8718 25.3816C18.9297 25.5444 17.9604 25.3692 17.1349 24.887C16.3094 24.4047 15.6808 23.6464 15.3599 22.7459C15.9165 22.5243 16.4702 22.2843 17.0212 22.0259C17.1176 22.3515 17.2864 22.6511 17.5149 22.9023C17.7434 23.1536 18.0257 23.3499 18.3408 23.4766C18.6558 23.6034 18.9955 23.6573 19.3343 23.6343C19.6731 23.6114 20.0023 23.5121 20.2974 23.344C20.5925 23.1759 20.8457 22.9433 21.0382 22.6635C21.2307 22.3838 21.3575 22.0641 21.4091 21.7285C21.4607 21.3928 21.4358 21.0498 21.3362 20.7252C21.2366 20.4005 21.0649 20.1026 20.834 19.8536C21.3292 19.5173 21.8161 19.161 22.2948 18.7849C22.9053 19.5136 23.2392 20.4342 23.2378 21.3848Z" fill="#FFD633"/>
</g>
<path d="M37.4915 20.7365C36.88 20.0043 36.0299 19.5111 35.0907 19.3435C34.1515 19.176 33.1833 19.3449 32.3563 19.8205C31.5292 20.2962 30.8964 21.0481 30.5688 21.9441C30.2413 22.8402 30.2401 23.823 30.5654 24.7198C30.8907 25.6167 31.5217 26.3701 32.3475 26.8478C33.1734 27.3255 34.1411 27.4968 35.0807 27.3316C36.0204 27.1664 36.8717 26.6753 37.4851 25.9446C38.0985 25.2139 38.4347 24.2904 38.4346 23.3364C38.4354 22.3859 38.1015 21.4655 37.4915 20.7365ZM34.3784 25.5898C33.933 25.5897 33.4975 25.4574 33.1272 25.2099C32.7568 24.9623 32.4682 24.6104 32.2978 24.1988C32.1274 23.7873 32.0828 23.3344 32.1698 22.8975C32.2567 22.4605 32.4713 22.0592 32.7863 21.7442C33.1013 21.4292 33.5026 21.2147 33.9395 21.1277C34.3764 21.0408 34.8293 21.0853 35.2409 21.2558C35.6525 21.4262 36.0043 21.7148 36.2519 22.0851C36.4995 22.4555 36.6317 22.8909 36.6319 23.3364C36.6319 23.934 36.3944 24.5072 35.9718 24.9298C35.5492 25.3524 34.9761 25.5898 34.3784 25.5898Z" fill="#FFD633"/>
<g style="mix-blend-mode:multiply" opacity="0.36">
<path d="M38.4346 23.3367C38.4345 24.2927 38.0967 25.218 37.4808 25.9493C36.865 26.6805 36.0107 27.1708 35.0686 27.3335C34.1265 27.4963 33.1572 27.3211 32.3317 26.8389C31.5062 26.3566 30.8776 25.5983 30.5566 24.6978C31.1132 24.4762 31.667 24.2362 32.218 23.9778C32.3144 24.3034 32.4832 24.603 32.7117 24.8543C32.9402 25.1055 33.2225 25.3018 33.5376 25.4285C33.8526 25.5553 34.1922 25.6092 34.5311 25.5862C34.8699 25.5633 35.1991 25.464 35.4942 25.2959C35.7892 25.1278 36.0425 24.8952 36.235 24.6154C36.4275 24.3357 36.5543 24.016 36.6059 23.6804C36.6575 23.3447 36.6326 23.0018 36.533 22.6771C36.4334 22.3524 36.2617 22.0545 36.0308 21.8055C36.526 21.4692 37.0129 21.113 37.4916 20.7368C38.1021 21.4655 38.436 22.3861 38.4346 23.3367Z" fill="#FFD633"/>
</g>
<path d="M25.7826 20.7164C25.5963 20.8754 25.59 21.1576 25.7649 21.3251C27.2364 22.7166 29.5468 22.8083 31.1223 21.4667C32.7019 20.1318 32.9943 17.8362 31.8648 16.1592C31.7325 15.9567 31.4473 15.9156 31.2664 16.0758L25.7826 20.7164Z" fill="#CC0C36"/>
<g style="mix-blend-mode:multiply" opacity="0.46">
<path d="M30.028 20.3452C29.8989 20.4556 29.7036 20.4421 29.5944 20.3077L29.0394 19.6503C28.929 19.5212 28.9425 19.3259 29.0769 19.2167C29.206 19.1063 29.4013 19.1198 29.5105 19.2542L30.0655 19.9116C30.1759 20.0407 30.157 20.2347 30.028 20.3452Z" fill="#CC0C36"/>
</g>
<g style="mix-blend-mode:multiply" opacity="0.46">
<path d="M31.744 18.5666C31.662 18.7169 31.4724 18.7728 31.3221 18.6908L30.5653 18.2794C30.415 18.1974 30.359 18.0078 30.4411 17.8575C30.5231 17.7072 30.7127 17.6513 30.863 17.7333L31.6198 18.1447C31.7688 18.2321 31.8247 18.4216 31.744 18.5666Z" fill="#CC0C36"/>
</g>
<g style="mix-blend-mode:multiply" opacity="0.46">
<path d="M28.1831 21.5814C28.3446 21.5242 28.4331 21.3471 28.376 21.1856L28.0969 20.3741C28.0398 20.2126 27.8627 20.1241 27.7012 20.1812C27.5397 20.2384 27.4511 20.4155 27.5083 20.577L27.7927 21.3898C27.8445 21.55 28.0216 21.6385 28.1831 21.5814Z" fill="#CC0C36"/>
</g>
<path d="M21.9292 27.549C21.5392 27.4657 21.255 27.104 21.2679 26.7055C21.2859 26.1496 21.1526 25.7304 20.8487 25.5122C20.5816 25.3209 20.2082 25.3045 19.7687 25.4365C19.3712 25.556 18.9231 25.3739 18.7424 25.0003C18.4883 24.4751 18.1614 24.1526 17.7772 24.1061C17.3327 24.0515 16.8723 24.3733 16.4493 24.9718C16.2217 25.2938 15.7759 25.4 15.4402 25.1932C14.3255 24.5065 13.338 24.3036 12.7646 24.7512C12.1907 25.1991 12.1497 26.2075 12.5481 27.4558C12.6677 27.8306 12.4585 28.2369 12.0921 28.3801C11.408 28.6474 10.9828 29.0156 10.9282 29.4606C10.8816 29.8455 11.1145 30.2414 11.5652 30.6153C11.8844 30.8802 11.9546 31.3582 11.7429 31.7149C11.5078 32.1109 11.9691 32.3837 12.0921 32.6875C12.2288 33.0353 12.0686 33.3596 12.6151 33.4767C13.0036 33.56 13.2854 33.9208 13.272 34.3179C13.2532 34.8759 13.3863 35.2967 13.691 35.5155C13.9426 35.6957 14.2863 35.7225 14.6924 35.615C15.0393 35.5232 15.4128 35.6588 15.6452 35.9322C15.8349 36.1553 16.0496 36.2907 16.2883 36.3206C16.85 36.3896 17.4386 35.8552 17.945 34.9194C18.118 34.5997 18.5061 34.4594 18.8539 34.5655C19.4659 34.7521 19.9871 34.7249 20.3414 34.4457C20.7007 34.1658 20.8511 33.6644 20.8166 33.0229C20.7971 32.6615 21.0254 32.3202 21.3758 32.2292C22.4059 31.9616 23.0681 31.5219 23.1372 30.955C23.167 30.7172 23.0898 30.4754 22.9201 30.2379C22.7103 29.9444 22.6643 29.547 22.837 29.2304C23.0373 28.8632 23.095 28.5244 22.9828 28.2364C22.8428 27.8942 22.4697 27.6644 21.9292 27.549Z" fill="#34800E"/>
<path d="M28.2004 22.721C27.8288 22.6469 27.5582 22.3027 27.575 21.9241C27.6004 21.3492 27.4682 20.9158 27.1573 20.6927C26.8824 20.4958 26.4948 20.4841 26.0384 20.629C25.6626 20.7483 25.236 20.5747 25.0686 20.2178C24.812 19.6706 24.4789 19.3341 24.0858 19.2865C23.6337 19.231 23.1652 19.5648 22.7363 20.1831C22.5228 20.4909 22.0985 20.5914 21.7806 20.3933C20.6529 19.6908 19.6521 19.4798 19.0731 19.9317C18.4939 20.3838 18.4576 21.4071 18.8681 22.6717C18.9835 23.0272 18.785 23.414 18.4357 23.547C17.7312 23.8153 17.2923 24.1885 17.2368 24.641C17.1891 25.0348 17.4341 25.4401 17.9055 25.8217C18.2117 26.0696 18.2788 26.5248 18.0725 26.8605C17.8209 27.27 17.7389 27.648 17.8655 27.9607C18.0054 28.3164 18.3943 28.5504 18.961 28.6649C19.331 28.7397 19.5993 29.0831 19.5821 29.4602C19.5558 30.0372 19.688 30.4722 19.9996 30.6959C20.2577 30.8808 20.6126 30.9042 21.0325 30.7869C21.3609 30.6951 21.717 30.8236 21.9328 31.0875C22.1276 31.3255 22.3494 31.47 22.5969 31.501C23.1645 31.5708 23.7595 31.0243 24.2695 30.0703C24.4323 29.7657 24.8013 29.6321 25.1307 29.736C25.7564 29.9334 26.2896 29.9101 26.65 29.6261C27.0111 29.3414 27.1628 28.8276 27.1226 28.1704C27.1016 27.8271 27.3188 27.5027 27.6521 27.4179C28.7006 27.1512 29.376 26.7082 29.4458 26.1354C29.4767 25.8887 29.3925 25.6377 29.2092 25.3917C29.0045 25.1169 28.9614 24.7382 29.1296 24.4396C29.3427 24.0614 29.4066 23.7124 29.2914 23.4168C29.1519 23.066 28.7646 22.8334 28.2004 22.721Z" fill="#34800E"/>
<g style="mix-blend-mode:multiply" opacity="0.46">
<path d="M28.238 22.7287C27.8478 22.6461 27.5636 22.2844 27.5765 21.8858C27.5944 21.3299 27.4612 20.9108 27.1573 20.6927C26.8902 20.5014 26.5168 20.4849 26.0773 20.617C25.6798 20.7364 25.2317 20.5543 25.051 20.1807C24.7968 19.6555 24.47 19.3331 24.0858 19.2865C23.6413 19.232 23.1809 19.5537 22.7579 20.1522C22.5303 20.4742 22.0845 20.5804 21.7488 20.3736C20.6341 19.6869 19.6466 19.4841 19.0731 19.9317C18.4993 20.3796 18.4583 21.3879 18.8567 22.6362C18.9763 23.011 18.7671 23.4173 18.4007 23.5605C17.7166 23.8278 17.2914 24.196 17.2368 24.641C17.1902 25.0259 17.4231 25.4218 17.8738 25.7957C18.193 26.0606 18.2632 26.5386 18.0515 26.8953C17.8164 27.2914 17.7425 27.6569 17.8655 27.9607C18.0023 28.3085 18.3772 28.54 18.9237 28.6572C19.3122 28.7404 19.594 29.1012 19.5806 29.4983C19.5617 30.0564 19.6949 30.4771 19.9996 30.6959C20.2512 30.8761 20.5949 30.9029 21.001 30.7955C21.3479 30.7037 21.7214 30.8393 21.9538 31.1127C22.1435 31.3357 22.3582 31.4712 22.5969 31.501C23.1586 31.57 23.7472 31.0356 24.2536 30.0999C24.4266 29.7801 24.8147 29.6398 25.1625 29.7459C25.7745 29.9326 26.2957 29.9053 26.65 29.6261C27.0051 29.3462 27.1576 28.8448 27.1244 28.2034C27.1057 27.8419 27.334 27.5006 27.6844 27.4096C28.7144 27.142 29.3767 26.7023 29.4458 26.1354C29.4756 25.8976 29.3984 25.6558 29.2287 25.4183C29.0189 25.1249 28.9729 24.7275 29.1456 24.4108C29.3458 24.0436 29.4036 23.7048 29.2914 23.4168C29.155 23.0739 28.7819 22.8439 28.238 22.7287Z" fill="#34800E"/>
</g>
<path d="M34.1689 31.7968C34.2051 31.3999 34.5284 31.074 34.9253 31.0385C35.479 30.9891 35.8785 30.8066 36.0578 30.4754C36.2166 30.1867 36.1887 29.8152 36.0037 29.3951C35.8361 29.0146 35.9621 28.5467 36.3114 28.3211C36.8001 28.0056 37.0779 27.6425 37.0779 27.255C37.0779 26.8054 36.7002 26.3878 36.052 26.0389C35.7059 25.8525 35.5476 25.4244 35.7114 25.067C36.2565 23.8776 36.3393 22.8704 35.8261 22.3526C35.3128 21.8392 34.3056 21.9183 33.1122 22.4663C32.7547 22.6305 32.326 22.4723 32.1394 22.126C31.7906 21.4783 31.3732 21.1008 30.9238 21.1008C30.5353 21.1008 30.1714 21.38 29.8553 21.8709C29.6309 22.2194 29.1652 22.3463 28.7857 22.1797C28.3648 21.995 27.9926 21.9655 27.7034 22.121C27.3752 22.3007 27.1909 22.7019 27.1408 23.2579C27.1052 23.6533 26.7818 23.9767 26.3864 24.0114C25.8304 24.0602 25.4292 24.2428 25.2494 24.5749C25.1002 24.8473 25.115 25.1904 25.2684 25.5768C25.4015 25.9124 25.3099 26.3023 25.0663 26.5688C24.8703 26.7831 24.7642 27.0123 24.7642 27.2494C24.7642 27.8159 25.368 28.3362 26.3572 28.7268C26.6947 28.8601 26.8804 29.2277 26.8167 29.585C26.7045 30.2144 26.7922 30.7278 27.1133 31.0489C27.4344 31.37 27.9478 31.4577 28.5772 31.3455C28.9345 31.2818 29.3021 31.4675 29.4351 31.8052C29.8246 32.7943 30.3417 33.3981 30.9128 33.3981C31.1506 33.3981 31.3805 33.2912 31.5954 33.0941C31.8607 32.8508 32.2491 32.7584 32.5836 32.8917C32.9736 33.047 33.3174 33.0627 33.5873 32.9128C33.9299 32.7415 34.1186 32.3475 34.1689 31.7968Z" fill="#34800E"/>
<path d="M28.0592 24.3561C27.3922 23.5576 26.4652 23.0197 25.4409 22.837C24.4167 22.6544 23.3608 22.8385 22.4589 23.3572C21.557 23.8759 20.8668 24.6959 20.5096 25.6731C20.1524 26.6503 20.1511 27.7221 20.5058 28.7001C20.8606 29.6782 21.5488 30.4999 22.4494 31.0208C23.35 31.5418 24.4054 31.7286 25.4301 31.5484C26.4548 31.3683 27.3832 30.8327 28.0521 30.0359C28.7211 29.239 29.0877 28.2319 29.0876 27.1914C29.0885 26.1549 28.7244 25.1511 28.0592 24.3561ZM24.6642 29.6489C24.1784 29.6488 23.7035 29.5046 23.2996 29.2346C22.8958 28.9646 22.581 28.5809 22.3952 28.132C22.2093 27.6831 22.1607 27.1892 22.2555 26.7128C22.3504 26.2363 22.5843 25.7986 22.9278 25.4551C23.2714 25.1116 23.709 24.8776 24.1855 24.7828C24.662 24.688 25.1559 24.7366 25.6047 24.9224C26.0536 25.1083 26.4373 25.423 26.7073 25.8269C26.9773 26.2308 27.1215 26.7056 27.1217 27.1914C27.1217 27.8432 26.8628 28.4683 26.4019 28.9291C25.941 29.39 25.3159 29.6489 24.6642 29.6489Z" fill="#FFEA80"/>
<g style="mix-blend-mode:multiply" opacity="0.36">
<path d="M29.0879 27.1915C29.0878 28.2341 28.7194 29.2432 28.0478 30.0406C27.3762 30.8381 26.4445 31.3728 25.4171 31.5503C24.3897 31.7278 23.3326 31.5367 22.4324 31.0108C21.5321 30.4849 20.8466 29.6579 20.4966 28.6758C21.1036 28.4342 21.7075 28.1725 22.3084 27.8907C22.4135 28.2458 22.5976 28.5725 22.8468 28.8465C23.096 29.1204 23.4039 29.3345 23.7474 29.4728C24.091 29.611 24.4614 29.6698 24.8309 29.6447C25.2004 29.6197 25.5594 29.5115 25.8812 29.3281C26.203 29.1448 26.4792 28.8911 26.6891 28.586C26.8991 28.2809 27.0374 27.9323 27.0936 27.5663C27.1499 27.2003 27.1227 26.8262 27.0141 26.4722C26.9055 26.1181 26.7183 25.7932 26.4664 25.5217C27.0064 25.1549 27.5375 24.7664 28.0595 24.3562C28.7252 25.1508 29.0894 26.1548 29.0879 27.1915Z" fill="#FFEA80"/>
</g>
<path d="M12.7828 19.2455C12.5611 19.1493 12.3025 19.2688 12.233 19.497C11.6355 21.4287 12.5674 23.546 14.4649 24.3713C16.3581 25.2001 18.5475 24.4516 19.5616 22.706C19.6839 22.4986 19.5969 22.2275 19.3717 22.127L12.7828 19.2455Z" fill="#CC0C36"/>
<g style="mix-blend-mode:multiply" opacity="0.46">
<path d="M15.1169 22.8906C14.9593 22.8203 14.8907 22.6411 14.961 22.4835L15.3051 21.6945C15.3754 21.5369 15.5546 21.4683 15.7122 21.5387C15.8699 21.609 15.9384 21.7882 15.8681 21.9458L15.524 22.7348C15.4579 22.8889 15.2745 22.961 15.1169 22.8906Z" fill="#CC0C36"/>
</g>
<g style="mix-blend-mode:multiply" opacity="0.46">
<path d="M17.4642 23.6468C17.2927 23.6377 17.1617 23.4956 17.1708 23.3241L17.2082 22.4658C17.2172 22.2942 17.3594 22.1633 17.5309 22.1723C17.7024 22.1813 17.8334 22.3235 17.8244 22.495L17.7869 23.3533C17.7822 23.5213 17.6357 23.6558 17.4642 23.6468Z" fill="#CC0C36"/>
</g>
<g style="mix-blend-mode:multiply" opacity="0.46">
<path d="M13.1972 21.7771C13.3184 21.8987 13.5147 21.8945 13.6364 21.7733L14.241 21.1627C14.3627 21.0415 14.3585 20.8452 14.2372 20.7235C14.116 20.6019 13.9197 20.6061 13.798 20.7274L13.1934 21.3379C13.0752 21.4634 13.0759 21.6554 13.1972 21.7771Z" fill="#CC0C36"/>
</g>
<path d="M8.52066 24.1155C9.02173 24.4247 9.19326 25.0917 9.23956 25.3122C9.24845 25.3584 9.21929 25.3982 9.17846 25.408C8.95613 25.4652 8.28291 25.6077 7.78727 25.2994C7.29164 24.9911 7.11467 24.3232 7.06837 24.1027C7.05948 24.0564 7.08864 24.0166 7.12947 24.0068C7.34637 23.9487 8.01959 23.8062 8.52066 24.1155Z" fill="#34800E"/>
<path d="M36.6777 16.7987C36.8265 17.3667 36.4957 17.9678 36.3744 18.1608C36.3523 18.1994 36.3027 18.2104 36.2641 18.1883C36.06 18.078 35.4755 17.7196 35.3266 17.1516C35.1777 16.5836 35.5086 15.9826 35.6299 15.7895C35.652 15.7509 35.7016 15.7399 35.7402 15.762C35.9442 15.8723 36.5288 16.2307 36.6777 16.7987Z" fill="#34800E"/>
<path d="M12.2412 22.8928C12.346 23.2954 12.1143 23.72 12.0261 23.8578C12.0096 23.8854 11.9765 23.8909 11.9489 23.8799C11.8055 23.8027 11.392 23.549 11.2872 23.1465C11.1824 22.7439 11.414 22.3193 11.5022 22.1814C11.5188 22.1539 11.5519 22.1483 11.5794 22.1594C11.7228 22.2366 12.1309 22.4902 12.2412 22.8928Z" fill="#34800E"/>
<path d="M14.5186 17.4775C14.4359 17.8635 14.0554 18.1227 13.923 18.1999C13.8954 18.2164 13.8624 18.2054 13.8458 18.1833C13.7576 18.0565 13.5205 17.665 13.6032 17.2789C13.6859 16.8929 14.0664 16.6338 14.1987 16.5565C14.2263 16.54 14.2594 16.551 14.2759 16.5731C14.3642 16.6999 14.6013 17.0915 14.5186 17.4775Z" fill="#34800E"/>
<path d="M31.4093 19.4515C31.2494 19.8155 30.8248 19.9864 30.6759 20.0416C30.6484 20.0526 30.6153 20.0361 30.6042 20.0085C30.5436 19.8651 30.3892 19.4295 30.5491 19.071C30.709 18.7126 31.1336 18.5361 31.2825 18.481C31.3101 18.47 31.3432 18.4865 31.3542 18.5141C31.4149 18.6575 31.5693 19.0931 31.4093 19.4515Z" fill="#34800E"/>
<g style="mix-blend-mode:multiply" opacity="0.36">
<path d="M31.4093 19.4515C31.2494 19.8155 30.8248 19.9864 30.6759 20.0416C30.6484 20.0526 30.6153 20.0361 30.6042 20.0085C30.5436 19.8651 30.3892 19.4295 30.5491 19.071C30.709 18.7126 31.1336 18.5361 31.2825 18.481C31.3101 18.47 31.3432 18.4865 31.3542 18.5141C31.4149 18.6575 31.5693 19.0931 31.4093 19.4515Z" fill="#34800E"/>
</g>
<path d="M40.8804 24.2919C40.4558 25.0143 39.5184 25.29 39.1985 25.3617C39.1379 25.3782 39.0772 25.3396 39.0552 25.279C38.9614 24.9646 38.7353 24.0106 39.1599 23.2882C39.5846 22.5659 40.522 22.2901 40.8418 22.2184C40.9025 22.2019 40.9632 22.2405 40.9852 22.3012C41.079 22.6155 41.3051 23.5695 40.8804 24.2919Z" fill="#34800E"/>
<path d="M24.0419 40.5469L24.0329 40.538H23.9908C16.8637 40.538 11.0279 34.9708 10.5528 28.0968L10.5528 28.0965C10.5215 27.6664 10.8998 27.2934 11.3546 27.2934H36.645C37.1081 27.2934 37.4781 27.6658 37.4468 28.0965L37.4468 28.0968C36.9727 34.9574 31.1588 40.5251 24.0419 40.5469Z" fill="#994000" stroke="#FF8000" stroke-width="0.203497"/>
<g style="mix-blend-mode:multiply" opacity="0.36">
<path d="M18.7882 27.3452V27.1917H11.3546C10.8487 27.1917 10.4152 27.6071 10.4513 28.1038C10.93 35.0311 16.8101 40.6487 23.9908 40.6487C25.454 40.6487 26.854 40.4139 28.1727 39.9985C22.7353 38.2734 18.7882 33.2609 18.7882 27.3452Z" fill="#994000"/>
</g>
<path d="M29.4193 39.5378H18.5806V41.6693C18.5806 42.157 18.987 42.5454 19.4838 42.5454H28.5251C29.0219 42.5454 29.4284 42.148 29.4284 41.6693V39.5378H29.4193Z" fill="#994000"/>
<g style="mix-blend-mode:multiply" opacity="0.36">
<path d="M21.8051 39.5378H18.5806V41.6693C18.5806 42.157 18.987 42.5454 19.4838 42.5454H23.3406L21.8051 39.5378Z" fill="#994000"/>
</g>
<path d="M36.4465 32.6736C36.8258 31.8156 37.1239 30.9124 37.3136 29.9731H10.6953C10.885 30.9124 11.174 31.8156 11.5624 32.6736H36.4465Z" fill="#FFAB00"/>
<g style="mix-blend-mode:multiply" opacity="0.4">
<path d="M19.9263 32.6736C19.547 31.8156 19.2489 30.9124 19.0592 29.9731H10.6953C10.8669 30.795 11.1108 31.5898 11.4269 32.3485C11.4721 32.4568 11.5173 32.5652 11.5624 32.6646H19.9263V32.6736Z" fill="#FFAB00"/>
</g>
</svg>
