<svg width="25" height="25" viewBox="0 0 25 25" fill="none" xmlns="http://www.w3.org/2000/svg">
    <path fill-rule="evenodd" clip-rule="evenodd" d="M20.2986 5.20825C20.2986 4.94304 20.1933 4.68868 20.0057 4.50115C19.8182 4.31361 19.5639 4.20825 19.2986 4.20825H18.4613C18.5585 4.51846 18.7039 4.83737 18.9102 5.12384C19.2003 5.52685 19.6301 5.89686 20.2986 6.0827V5.20825ZM20.2986 8.12799C18.9118 7.89575 17.928 7.1826 17.2871 6.29241C16.8036 5.62079 16.5323 4.87496 16.4008 4.20825H14.1965C14.065 4.87496 13.7937 5.62079 13.3102 6.29241C12.6693 7.1826 11.6855 7.89575 10.2986 8.12799V9.20825C10.2986 9.76054 9.85093 10.2083 9.29864 10.2083C8.74636 10.2083 8.29864 9.76054 8.29864 9.20825V5.20825C8.29864 4.4126 8.61471 3.64954 9.17732 3.08693C9.73993 2.52432 10.503 2.20825 11.2986 2.20825H19.2986C20.0943 2.20825 20.8574 2.52432 21.42 3.08693C21.9826 3.64954 22.2986 4.4126 22.2986 5.20825L22.2986 19.2083C22.2986 20.0039 21.9826 20.767 21.42 21.3296C20.8574 21.8922 20.0943 22.2083 19.2986 22.2083H11.2986C10.503 22.2083 9.73993 21.8922 9.17732 21.3296C8.61471 20.767 8.29864 20.0039 8.29864 19.2083V15.2083C8.29864 14.656 8.74636 14.2083 9.29864 14.2083C9.85093 14.2083 10.2986 14.656 10.2986 15.2083L10.2986 16.2885C11.6855 16.5208 12.6693 17.2339 13.3102 18.1241C13.7937 18.7957 14.065 19.5415 14.1965 20.2083H16.4008C16.5323 19.5415 16.8035 18.7957 17.2871 18.1241C17.928 17.2339 18.9118 16.5208 20.2986 16.2885L20.2986 8.12799ZM20.2986 18.3338C19.6301 18.5196 19.2003 18.8897 18.9102 19.2927C18.7039 19.5791 18.5585 19.898 18.4613 20.2083H19.2986C19.5639 20.2083 19.8182 20.1029 20.0057 19.9154C20.1933 19.7278 20.2986 19.4735 20.2986 19.2083V18.3338ZM12.1359 4.20825H11.2986C11.0334 4.20825 10.7791 4.31361 10.5915 4.50115C10.404 4.68868 10.2986 4.94304 10.2986 5.20825V6.08269C10.9671 5.89686 11.3969 5.52685 11.6871 5.12384C11.8933 4.83737 12.0388 4.51846 12.1359 4.20825ZM10.2986 18.3338V19.2083C10.2986 19.4735 10.404 19.7278 10.5915 19.9154C10.7791 20.1029 11.0334 20.2083 11.2986 20.2083H12.1359C12.0388 19.898 11.8933 19.5791 11.6871 19.2927C11.3969 18.8897 10.9671 18.5196 10.2986 18.3338ZM16.0996 9.00825C16.0996 8.56642 15.7422 8.20825 15.3013 8.20825C14.8604 8.20825 14.503 8.56642 14.503 9.00825V9.12692C14.2517 9.1675 14.0239 9.23469 13.8197 9.32849C13.4635 9.49004 13.1936 9.70796 13.0099 9.98223C12.8261 10.2565 12.7343 10.5477 12.7343 10.8558C12.7343 11.2014 12.8336 11.4926 13.0324 11.7293C13.2311 11.966 13.4954 12.1576 13.8253 12.3041C14.0185 12.3868 14.2444 12.4676 14.503 12.5465V14.1475L14.4833 14.1357C14.2658 14.0005 14.0784 13.7957 13.9209 13.5214C13.8422 13.3787 13.7597 13.2678 13.6735 13.1889C13.5872 13.11 13.4635 13.0706 13.3023 13.0706C13.1186 13.0706 12.9667 13.1307 12.8468 13.2509C12.7268 13.3712 12.6668 13.5158 12.6668 13.6849C12.6668 13.9404 12.7605 14.1958 12.948 14.4513C13.1355 14.7031 13.426 14.9135 13.8197 15.0825C14.0259 15.1711 14.2536 15.2364 14.503 15.2786V15.4083C14.503 15.8501 14.8604 16.2083 15.3013 16.2083C15.7422 16.2083 16.0996 15.8501 16.0996 15.4083V15.268C16.3197 15.2298 16.5214 15.1755 16.7047 15.1051C17.1096 14.9473 17.4152 14.7181 17.6214 14.4175C17.8276 14.1132 17.9307 13.7487 17.9307 13.3242C17.9307 13.0424 17.852 12.7926 17.6945 12.5746C17.5408 12.353 17.3121 12.1614 17.0084 11.9998C16.764 11.8681 16.461 11.7515 16.0996 11.6498V10.472C16.124 10.4992 16.1476 10.5276 16.1704 10.5571C16.3129 10.7374 16.4385 10.8727 16.5472 10.9628C16.6597 11.053 16.7947 11.0981 16.9522 11.0981C17.1696 11.0981 17.3364 11.0417 17.4527 10.929C17.5726 10.8163 17.6326 10.6717 17.6326 10.4951C17.6326 10.3335 17.5764 10.1682 17.4639 9.99913C17.3552 9.83006 17.194 9.67602 16.9803 9.53701C16.7703 9.39799 16.506 9.28716 16.1873 9.2045C16.1584 9.19692 16.1292 9.18968 16.0996 9.1828V9.00825ZM14.4271 10.2415C14.4515 10.2255 14.4768 10.2105 14.503 10.1966V11.1761C14.4482 11.1463 14.3985 11.1147 14.3539 11.0812C14.219 10.976 14.1515 10.8426 14.1515 10.6811C14.1515 10.5045 14.2433 10.3579 14.4271 10.2415ZM16.0996 14.1602V13.0552L16.1125 13.0628L16.1255 13.0706C16.3317 13.1946 16.4348 13.3918 16.4348 13.6623C16.4348 13.8389 16.3354 13.9967 16.1367 14.1357C16.1246 14.1442 16.1122 14.1523 16.0996 14.1602ZM6.81825 10.0869C7.20877 9.69637 7.20877 9.06321 6.81825 8.67268C6.42772 8.28216 5.79456 8.28216 5.40403 8.67268L2.57561 11.5011C2.18508 11.8916 2.18508 12.5248 2.57561 12.9153L5.40403 15.7438C5.79456 16.1343 6.42772 16.1343 6.81825 15.7438C7.20877 15.3532 7.20877 14.7201 6.81825 14.3295L5.69696 13.2083H10.2986C10.8509 13.2083 11.2986 12.7605 11.2986 12.2083C11.2986 11.656 10.8509 11.2083 10.2986 11.2083H5.69689L6.81825 10.0869Z" fill="#1C1C31"/>
</svg>
