<svg width="25" height="25" viewBox="0 0 25 25" fill="none" xmlns="http://www.w3.org/2000/svg">
    <path fill-rule="evenodd" clip-rule="evenodd" d="M5.39087 12.8332L11.3284 18.7707L20.4374 18.7707L20.4374 6.89575L11.3284 6.89578L5.39087 12.8332ZM3.97666 11.419L9.91416 5.48156C10.2892 5.10649 10.7979 4.89578 11.3284 4.89578L20.4374 4.89575C21.542 4.89575 22.4374 5.79118 22.4374 6.89575V18.7707C22.4374 19.8753 21.542 20.7707 20.4374 20.7707L11.3284 20.7707C10.7979 20.7707 10.2892 20.56 9.91415 20.185L3.97665 14.2474C3.1956 13.4664 3.19561 12.2001 3.97666 11.419ZM11.2928 9.70427C11.6834 9.31374 12.3165 9.31374 12.707 9.70427L14.4687 11.4659L16.2303 9.70427C16.6209 9.31374 17.254 9.31374 17.6445 9.70427C18.0351 10.0948 18.0351 10.728 17.6445 11.1185L15.8829 12.8801L17.6445 14.6418C18.0351 15.0323 18.0351 15.6655 17.6445 16.056C17.254 16.4465 16.6209 16.4465 16.2303 16.056L14.4687 14.2943L12.707 16.056C12.3165 16.4465 11.6834 16.4465 11.2928 16.056C10.9023 15.6655 10.9023 15.0323 11.2928 14.6418L13.0545 12.8801L11.2928 11.1185C10.9023 10.728 10.9023 10.0948 11.2928 9.70427Z" fill="#1C1C31"/>
</svg>
