<svg width="25" height="24" viewBox="0 0 25 24" fill="none" xmlns="http://www.w3.org/2000/svg">
    <path fill-rule="evenodd" clip-rule="evenodd" d="M10.9684 3.58579C11.3434 3.21071 11.8521 3 12.3826 3C12.913 3 13.4217 3.21071 13.7968 3.58579C14.1719 3.96086 14.3826 4.46957 14.3826 5C14.3826 5.53043 14.1719 6.03914 13.7968 6.41421C13.4217 6.78929 12.913 7 12.3826 7C11.8521 7 11.3434 6.78929 10.9684 6.41421C10.5933 6.03914 10.3826 5.53043 10.3826 5C10.3826 4.46957 10.5933 3.96086 10.9684 3.58579ZM10.9684 10.5858C11.3434 10.2107 11.8521 10 12.3826 10C12.913 10 13.4217 10.2107 13.7968 10.5858C14.1719 10.9609 14.3826 11.4696 14.3826 12C14.3826 12.5304 14.1719 13.0391 13.7968 13.4142C13.4217 13.7893 12.913 14 12.3826 14C11.8521 14 11.3434 13.7893 10.9684 13.4142C10.5933 13.0391 10.3826 12.5304 10.3826 12C10.3826 11.4696 10.5933 10.9609 10.9684 10.5858ZM10.9684 17.5858C11.3434 17.2107 11.8521 17 12.3826 17C12.913 17 13.4217 17.2107 13.7968 17.5858C14.1719 17.9609 14.3826 18.4696 14.3826 19C14.3826 19.5304 14.1719 20.0391 13.7968 20.4142C13.4217 20.7893 12.913 21 12.3826 21C11.8521 21 11.3434 20.7893 10.9684 20.4142C10.5933 20.0391 10.3826 19.5304 10.3826 19C10.3826 18.4696 10.5933 17.9609 10.9684 17.5858Z" fill="#1C1C31"/>
</svg>
