<svg width="25" height="25" viewBox="0 0 25 25" fill="none" xmlns="http://www.w3.org/2000/svg">
    <path fill-rule="evenodd" clip-rule="evenodd" d="M5.49779 4.07011C5.10726 3.67959 4.4741 3.67959 4.08357 4.07011C3.69305 4.46064 3.69305 5.0938 4.08357 5.48433L5.79981 7.20057C4.23179 8.48836 3.04124 10.2187 2.41898 12.2003C2.35774 12.3953 2.35774 12.6044 2.41898 12.7995C3.76474 17.085 7.7686 20.1955 12.5002 20.1955C14.3196 20.1955 16.0312 19.7357 17.5255 18.9262L19.6399 21.0407C20.0304 21.4312 20.6636 21.4312 21.0541 21.0407C21.4447 20.6502 21.4447 20.017 21.0541 19.6265L5.49779 4.07011ZM16.0341 17.4348L14.4447 15.8455C13.8591 16.1858 13.1891 16.3695 12.5002 16.3695C11.4739 16.3695 10.4897 15.9618 9.76398 15.2361C9.0383 14.5104 8.63062 13.5262 8.63062 12.4999C8.63062 11.811 8.81434 11.141 9.15466 10.5554L7.22237 8.62312C5.95636 9.61481 4.97635 10.9551 4.42735 12.4999C5.60726 15.8198 8.77809 18.1955 12.5002 18.1955C13.76 18.1955 14.9566 17.9235 16.0341 17.4348ZM10.6785 12.0793C10.6469 12.2162 10.6306 12.3572 10.6306 12.4999C10.6306 12.9958 10.8276 13.4713 11.1782 13.8219C11.5288 14.1725 12.0043 14.3695 12.5002 14.3695C12.6429 14.3695 12.784 14.3532 12.9208 14.3216L10.6785 12.0793ZM20.573 12.4998C20.2531 13.4 19.7869 14.2307 19.2031 14.9634L20.6244 16.3847C21.4933 15.3406 22.1647 14.1263 22.5814 12.7995C22.6426 12.6044 22.6426 12.3953 22.5814 12.2003C21.2356 7.91481 17.2328 4.8042 12.5002 4.8042C11.4512 4.8042 10.4379 4.95709 9.48147 5.24179L11.1498 6.9101C11.5897 6.8404 12.0407 6.8042 12.5002 6.8042C16.2231 6.8042 19.3931 9.17983 20.573 12.4998Z" fill="#1C1C31"/>
</svg>
