<svg width="25" height="25" viewBox="0 0 25 25" fill="none" xmlns="http://www.w3.org/2000/svg">
    <path fill-rule="evenodd" clip-rule="evenodd" d="M12.6664 17.8205C8.94435 17.8205 5.77352 15.4448 4.59361 12.1249C5.77352 8.80488 8.94435 6.4292 12.6664 6.4292C16.3894 6.4292 19.5594 8.80483 20.7393 12.1248C19.5594 15.4449 16.3894 17.8205 12.6664 17.8205ZM12.6664 4.4292C7.93486 4.4292 3.931 7.53975 2.58524 11.8253C2.52399 12.0203 2.52399 12.2294 2.58524 12.4245C3.931 16.71 7.93486 19.8205 12.6664 19.8205C17.399 19.8205 21.4019 16.7099 22.7476 12.4245C22.8089 12.2294 22.8089 12.0203 22.7476 11.8253C21.4019 7.53981 17.399 4.4292 12.6664 4.4292ZM11.3445 10.803C11.6951 10.4523 12.1706 10.2554 12.6664 10.2554C13.1623 10.2554 13.6378 10.4523 13.9884 10.803C14.339 11.1536 14.536 11.6291 14.536 12.1249C14.536 12.6208 14.339 13.0963 13.9884 13.4469C13.6378 13.7975 13.1623 13.9945 12.6664 13.9945C12.1706 13.9945 11.6951 13.7975 11.3445 13.4469C10.9938 13.0963 10.7969 12.6208 10.7969 12.1249C10.7969 11.6291 10.9938 11.1536 11.3445 10.803ZM12.6664 8.25537C11.6402 8.25537 10.6559 8.66306 9.93024 9.38874C9.20456 10.1144 8.79688 11.0987 8.79688 12.1249C8.79688 13.1512 9.20456 14.1354 9.93024 14.8611C10.6559 15.5868 11.6402 15.9945 12.6664 15.9945C13.6927 15.9945 14.677 15.5868 15.4026 14.8611C16.1283 14.1354 16.536 13.1512 16.536 12.1249C16.536 11.0987 16.1283 10.1144 15.4026 9.38874C14.677 8.66306 13.6927 8.25537 12.6664 8.25537Z" fill="#1C1C31"/>
</svg>
