<svg width="48" height="48" viewBox="0 0 48 48" fill="none" xmlns="http://www.w3.org/2000/svg">
<circle cx="24" cy="24" r="18" fill="#FFFCEB"/>
<path fill-rule="evenodd" clip-rule="evenodd" d="M7.5848 11.3734C7.65019 10.6101 8.1971 9.97796 8.94303 9.80348C14.8988 8.41039 21.6533 9.94539 26.8988 14.4838C32.1444 19.0221 34.6348 25.4856 34.1127 31.5798C34.0473 32.3431 33.5004 32.9752 32.7544 33.1497C26.7987 34.5428 20.0442 33.0078 14.7987 28.4694C9.5531 23.9311 7.06268 17.4676 7.5848 11.3734Z" fill="#BDBDDB"/>
<path fill-rule="evenodd" clip-rule="evenodd" d="M21.0258 10.8642C17.3677 9.36244 13.4466 8.96249 9.78223 9.64737C8.00793 9.76833 7.61529 10.6513 7.55159 12.2256C7.40081 15.9504 8.36049 19.7732 10.3727 23.1773C12.376 21.5999 14.3776 19.6944 16.2663 17.5114C18.155 15.3283 19.7529 13.0735 21.0258 10.8642Z" fill="#A9A9D0"/>
<path fill-rule="evenodd" clip-rule="evenodd" d="M35.1386 30.9589C33.6093 32.2076 33.0574 33.9234 32.6362 34.1307C32.215 34.3381 29.0604 33.4457 29.4942 33.636C29.9281 33.8263 34.1189 28.992 34.0383 28.384C33.9577 27.776 34.8092 30.1657 35.1386 30.9589Z" fill="#BDBDDB"/>
<path opacity="0.4" fill-rule="evenodd" clip-rule="evenodd" d="M35.1386 30.9589C33.6093 32.2076 33.0574 33.9234 32.6362 34.1307C32.215 34.3381 29.0604 33.4457 29.4942 33.636C29.9281 33.8263 34.1189 28.992 34.0383 28.384C33.9577 27.776 34.8092 30.1657 35.1386 30.9589Z" fill="#8B8BC1"/>
<path d="M44.553 32.7065C44.8549 31.9113 37.5685 31.0261 35.034 30.8008C34.5184 30.7549 33.0146 31.8491 32.362 33.8892C32.0043 35.0071 34.703 42.8704 35.8561 42.7586C37.0091 42.6469 37.7922 37.3846 38.5219 36.6653C39.6142 35.5886 44.1756 33.7005 44.553 32.7065Z" fill="#BDBDDB"/>
<circle cx="14.7744" cy="12.6407" r="0.93158" transform="rotate(-7.54894 14.7744 12.6407)" fill="#363663"/>
<path d="M24.427 20.8152C23.7799 22.926 21.8252 24.4458 19.9508 24.4213C19.7735 24.4189 19.652 24.6239 19.7609 24.7638C21.3211 26.7678 23.2023 27.6546 27.2648 28.1295C27.4152 28.1471 27.5297 27.9963 27.473 27.8559C26.278 24.8916 25.4067 22.2182 24.9648 20.7872C24.8987 20.5731 24.4927 20.6009 24.427 20.8152Z" fill="#8B8BC1"/>
<path opacity="0.4" d="M21.0229 18.1226C21.5355 18.0288 22.5851 17.6975 22.3174 16.5705C22.2966 16.4831 22.3719 16.4013 22.4437 16.4457C22.9482 16.757 23.3556 17.4474 22.8547 18.1817C22.3106 18.9794 21.4058 18.57 20.9847 18.3133C20.9062 18.2655 20.9342 18.1388 21.0229 18.1226Z" fill="#8B8BC1"/>
<path opacity="0.4" d="M19.7685 15.3048C20.4461 15.1139 22.1571 14.4468 21.4343 12.7082C21.3999 12.6254 21.4648 12.5353 21.5429 12.5667C22.3579 12.8939 23.1454 13.842 22.5316 15.0315C21.8495 16.3535 20.3404 15.7865 19.7503 15.4984C19.6674 15.4579 19.6818 15.3293 19.7685 15.3048Z" fill="#8B8BC1"/>
<path opacity="0.4" d="M23.0609 15.4408C23.6718 15.3093 25.0935 14.8392 24.6245 13.3604C24.5973 13.2749 24.6684 13.1893 24.7435 13.2277C25.4101 13.5687 26.0007 14.4202 25.4085 15.3875C24.7564 16.4526 23.5405 15.9224 23.0307 15.6329C22.9506 15.5874 22.9728 15.4598 23.0609 15.4408Z" fill="#8B8BC1"/>
</svg>
