<svg width="48" height="48" viewBox="0 0 48 48" fill="none" xmlns="http://www.w3.org/2000/svg">
<circle cx="24" cy="24.0002" r="18" fill="#FFFCEB"/>
<ellipse cx="24" cy="39.2502" rx="19.625" ry="2.75" fill="#F5F5FA"/>
<rect x="6.52734" y="16.187" width="34.9454" height="23.8792" rx="3" fill="#2D2D53"/>
<rect x="8.52344" y="18.2495" width="25.9178" height="19.875" rx="1.5" fill="#474785"/>
<rect x="36.082" y="24.5234" width="3.39044" height="3.47975" rx="1.69522" fill="#8B8BC1"/>
<rect x="36.082" y="18.2495" width="3.39044" height="3.47975" rx="1.69522" fill="#8B8BC1"/>
<path opacity="0.3" fill-rule="evenodd" clip-rule="evenodd" d="M20.2105 16.187L6.52764 32.6171L6.52734 19.187C6.52734 17.5302 7.87048 16.187 9.52734 16.187H20.2105Z" fill="#8B8BC1"/>
<path opacity="0.3" fill-rule="evenodd" clip-rule="evenodd" d="M30.9103 16.187L10.5581 40.0662H9.52052C8.131 40.0662 6.96211 39.1215 6.62109 37.8393L25.085 16.187H30.9103Z" fill="#8B8BC1"/>
<path opacity="0.4" fill-rule="evenodd" clip-rule="evenodd" d="M38.9965 18.7669L36.9056 21.4883C36.4122 21.1919 36.082 20.6515 36.082 20.034V19.9447C36.082 19.0085 36.841 18.2495 37.7773 18.2495C38.2559 18.2495 38.6882 18.4479 38.9965 18.7669Z" fill="#BDBDDB"/>
<path opacity="0.4" fill-rule="evenodd" clip-rule="evenodd" d="M38.9965 25.0408L36.9056 27.7622C36.4122 27.4659 36.082 26.9255 36.082 26.308V26.2187C36.082 25.2824 36.841 24.5234 37.7773 24.5234C38.2559 24.5234 38.6882 24.7218 38.9965 25.0408Z" fill="#BDBDDB"/>
<g opacity="0.5">
<path d="M30.8475 31.4954C30.8531 31.4283 30.8531 31.3667 30.8531 31.3052C30.8531 30.035 29.8627 29.0054 28.6372 29.0054C27.4118 29.0054 26.4214 30.035 26.4214 31.3052C26.4214 31.3723 26.4214 31.4339 26.427 31.4954H30.8475Z" fill="#FFEA80"/>
<path d="M17.4198 31.2409C17.5089 31.0159 17.5634 30.7687 17.5634 30.5128C17.5634 29.3698 16.5582 28.4431 15.3252 28.4431C14.0921 28.4431 13.0869 29.3698 13.0869 30.5128C13.0869 30.7731 13.1364 31.0159 13.2305 31.2409H17.4198Z" fill="#2D2D53"/>
<path d="M14.9673 31.4955C14.9673 27.6402 17.9777 24.5234 21.6876 24.5234C25.3975 24.5234 28.4079 27.6458 28.4079 31.4955H14.9673Z" fill="#FFAB00"/>
<path d="M23.4726 24.7696C22.9074 24.6074 22.3031 24.5234 21.6876 24.5234C17.9721 24.5234 14.9673 27.6458 14.9673 31.4955H18.5373C18.5373 28.2781 20.63 25.581 23.4726 24.7696Z" fill="#FFAB00"/>
<g style="mix-blend-mode:multiply" opacity="0.4">
<path d="M23.4726 24.7696C22.9074 24.6074 22.3031 24.5234 21.6876 24.5234C17.9721 24.5234 14.9673 27.6458 14.9673 31.4955H18.5373C18.5373 28.2781 20.63 25.581 23.4726 24.7696Z" fill="#FFAB00"/>
</g>
<g style="mix-blend-mode:multiply" opacity="0.6">
<path d="M21.2234 26.6889L20.3505 26.9518C20.1603 27.0134 19.9588 26.8959 19.9085 26.7C19.8525 26.5042 19.9588 26.2916 20.1491 26.2412L21.022 25.9782C21.2122 25.9167 21.4137 26.0342 21.464 26.23C21.52 26.4259 21.4137 26.6385 21.2234 26.6889Z" fill="#FFAB00"/>
</g>
<g style="mix-blend-mode:multiply" opacity="0.6">
<path d="M21.4135 28.5521L20.7868 27.8694C20.6525 27.7184 20.6581 27.4833 20.798 27.3435C20.9434 27.2036 21.1729 27.2092 21.3072 27.3546L21.9339 28.0373C22.0738 28.1884 22.0626 28.4234 21.9227 28.5633C21.7716 28.7032 21.5534 28.6976 21.4135 28.5521Z" fill="#FFAB00"/>
</g>
<g style="mix-blend-mode:multiply" opacity="0.6">
<path d="M22.0346 30.9641L22.4487 30.1247C22.5382 29.9401 22.7564 29.8673 22.9299 29.9625C23.109 30.0576 23.1761 30.2814 23.0866 30.4661L22.6725 31.3054C22.583 31.4901 22.3647 31.5628 22.1913 31.4677C22.0122 31.3781 21.9451 31.1487 22.0346 30.9641Z" fill="#FFAB00"/>
</g>
<g style="mix-blend-mode:multiply" opacity="0.6">
<path d="M23.909 28.888L23.0025 28.9216C22.8066 28.9272 22.6388 28.7649 22.6276 28.5635C22.622 28.362 22.7787 28.183 22.9745 28.1774L23.881 28.1438C24.0768 28.1382 24.2447 28.3005 24.2559 28.5019C24.2615 28.7034 24.1048 28.8768 23.909 28.888Z" fill="#FFAB00"/>
</g>
<g style="mix-blend-mode:multiply" opacity="0.6">
<path d="M20.9941 29.9344L20.1044 30.1246C19.9086 30.1638 19.7183 30.0351 19.6791 29.8337C19.64 29.6322 19.7631 29.4364 19.9589 29.3916L20.8486 29.2013C21.0445 29.1622 21.2347 29.2909 21.2739 29.4923C21.313 29.6938 21.1899 29.8896 20.9941 29.9344Z" fill="#FFAB00"/>
</g>
<g style="mix-blend-mode:multiply" opacity="0.6">
<path d="M25.1288 30.2924L24.2559 30.0462C24.0656 29.9902 23.9481 29.7888 23.9985 29.593C24.0489 29.3971 24.2447 29.274 24.4349 29.33L25.3079 29.5762C25.4981 29.6321 25.6156 29.8336 25.5653 30.0294C25.5149 30.2308 25.3191 30.3484 25.1288 30.2924Z" fill="#FFAB00"/>
</g>
<g style="mix-blend-mode:multiply" opacity="0.6">
<path d="M19.0968 30.6617L18.4309 31.3052C18.2855 31.4451 18.056 31.4339 17.9217 31.2828C17.7874 31.1317 17.7986 30.8967 17.9441 30.7568L18.61 30.1133C18.7555 29.9734 18.9793 29.9846 19.1192 30.1357C19.2591 30.2868 19.2479 30.5218 19.1024 30.6617H19.0968Z" fill="#FFAB00"/>
</g>
<g style="mix-blend-mode:multiply" opacity="0.6">
<path d="M17.8994 29.8112L16.9985 29.7105C16.8026 29.6881 16.6571 29.5091 16.6795 29.2965C16.7019 29.095 16.8754 28.9439 17.0768 28.9663L17.9777 29.067C18.1735 29.0894 18.319 29.2685 18.2966 29.4811C18.2743 29.6825 18.1008 29.8336 17.8994 29.8112Z" fill="#FFAB00"/>
</g>
<g style="mix-blend-mode:multiply" opacity="0.6">
<path d="M23.1816 27.3547L22.2807 27.254C22.0848 27.2316 21.9394 27.0525 21.9617 26.8399C21.9785 26.6385 22.1576 26.4874 22.359 26.5098L23.2599 26.6105C23.4558 26.6329 23.6013 26.8119 23.5789 27.0246C23.5509 27.226 23.3774 27.3771 23.1816 27.3547Z" fill="#FFAB00"/>
</g>
<g style="mix-blend-mode:multiply" opacity="0.6">
<path d="M26.9309 29.1677L26.0245 29.1957C25.8286 29.2012 25.6608 29.039 25.6496 28.8319C25.644 28.6305 25.8006 28.4514 26.0021 28.4458L26.9086 28.4179C27.1044 28.4123 27.2723 28.5745 27.2779 28.7816C27.2779 28.9942 27.1212 29.1621 26.9254 29.1677H26.9309Z" fill="#FFAB00"/>
</g>
<g style="mix-blend-mode:multiply" opacity="0.6">
<path d="M18.7722 28.278L19.3318 27.5338C19.4549 27.3715 19.6787 27.3436 19.8354 27.4667C19.992 27.5954 20.02 27.8248 19.9025 27.9871L19.343 28.7313C19.2199 28.8935 18.996 28.9215 18.8394 28.7984C18.6771 28.6753 18.6491 28.4403 18.7722 28.278Z" fill="#FFAB00"/>
</g>
<g style="mix-blend-mode:multiply" opacity="0.6">
<path d="M17.2781 26.9518L18.1454 27.2204C18.3356 27.282 18.4476 27.4834 18.386 27.6905C18.3301 27.8863 18.1286 28.0038 17.9384 27.9423L17.071 27.6737C16.8808 27.6121 16.7689 27.4107 16.8304 27.2036C16.892 27.0078 17.0934 26.8903 17.2837 26.9518H17.2781Z" fill="#FFAB00"/>
</g>
<g style="mix-blend-mode:multiply" opacity="0.6">
<path d="M24.6979 27.254L25.554 26.9295C25.7442 26.8567 25.9457 26.9575 26.0184 27.1477C26.0912 27.3436 25.9904 27.5562 25.8114 27.6289L24.9552 27.9535C24.765 28.0262 24.5636 27.9255 24.4908 27.7352C24.4181 27.5394 24.5132 27.3268 24.6979 27.254Z" fill="#FFAB00"/>
</g>
<path d="M26.8479 35.1495H16.1604C13.094 35.2726 11.4936 32.9616 10.9005 31.8369C10.755 31.5627 10.962 31.2382 11.2754 31.2382H31.6937C32.0183 31.2382 32.2197 31.5795 32.0574 31.8537C31.3804 32.9784 29.6569 35.2502 26.8479 35.1495Z" fill="#363663"/>
<g style="mix-blend-mode:multiply" opacity="0.26">
<path d="M18.264 31.6299L18.0905 31.2382H11.2863C10.9617 31.2382 10.7491 31.5739 10.9002 31.8593C11.4653 32.9616 12.9874 35.1495 16.1601 35.1495H23.6302C21.3136 35.1495 19.2097 33.7674 18.2696 31.6299H18.264Z" fill="#363663"/>
</g>
</g>
</svg>
