<svg width="25" height="25" viewBox="0 0 25 25" fill="none" xmlns="http://www.w3.org/2000/svg">
    <path fill-rule="evenodd" clip-rule="evenodd" d="M5.25 2.5C4.69772 2.5 4.25 2.94772 4.25 3.5C4.25 4.05229 4.69772 4.5 5.25 4.5H4.83571L2.97408 6.36163C2.30475 7.03095 2.4151 8.1453 3.20269 8.67036L4.25788 9.37383C4.25268 9.41515 4.25 9.45726 4.25 9.5V19.5C4.25 21.1569 5.59315 22.5 7.25 22.5H17.25C18.9069 22.5 20.25 21.1569 20.25 19.5V9.5C20.25 9.45723 20.2473 9.41509 20.2421 9.37373L21.2972 8.67036C22.0847 8.1453 22.1951 7.03096 21.5258 6.36163L19.6641 4.5H5.25L19.25 4.5C19.8023 4.5 20.25 4.05228 20.25 3.5C20.25 2.94772 19.8023 2.5 19.25 2.5H5.25ZM18.25 10.0963C17.6698 10.0963 17.0897 9.92837 16.5858 9.59245L15.8046 9.07165C15.4687 8.84772 15.0311 8.84772 14.6952 9.07165L13.914 9.59245C12.9063 10.2642 11.5935 10.2643 10.5858 9.59245L9.80462 9.07165C9.46872 8.84772 9.03112 8.84772 8.69522 9.07165L7.91402 9.59245C7.4102 9.92834 6.8301 10.0963 6.25 10.0963V19.5C6.25 20.0523 6.69772 20.5 7.25 20.5H17.25C17.8023 20.5 18.25 20.0523 18.25 19.5V10.0963ZM4.81956 7.34458L5.66414 6.5H18.8357L19.6803 7.34458L18.8046 7.92835C18.4687 8.15228 18.0311 8.15228 17.6952 7.92835L16.914 7.40755C15.9063 6.73575 14.5935 6.73575 13.5858 7.40755L12.8046 7.92835C12.4687 8.15228 12.0311 8.15228 11.6952 7.92835L10.914 7.40755C9.90632 6.73575 8.59352 6.73575 7.58582 7.40755L6.80462 7.92835C6.46872 8.15228 6.03112 8.15228 5.69522 7.92835L4.81956 7.34458ZM13.8359 11.5L15.9788 14.5L13.8359 17.5H10.6639L8.521 14.5L10.6639 11.5H13.8359ZM11.6931 13.5L10.9788 14.5L11.6931 15.5H12.8067L13.521 14.5L12.8067 13.5H11.6931Z" fill="#1C1C31"/>
</svg>
