<svg width="25" height="25" viewBox="0 0 25 25" fill="none" xmlns="http://www.w3.org/2000/svg">
    <path fill-rule="evenodd" clip-rule="evenodd" d="M8.09912 9.70825C9.20369 9.70825 10.0991 8.81282 10.0991 7.70825C10.0991 6.60368 9.20369 5.70825 8.09912 5.70825C6.99455 5.70825 6.09912 6.60368 6.09912 7.70825C6.09912 8.81282 6.99455 9.70825 8.09912 9.70825ZM8.09912 11.7083C10.3083 11.7083 12.0991 9.91739 12.0991 7.70825C12.0991 5.49911 10.3083 3.70825 8.09912 3.70825C5.88998 3.70825 4.09912 5.49911 4.09912 7.70825C4.09912 9.91739 5.88998 11.7083 8.09912 11.7083ZM10.0991 16.7083C10.0991 17.8011 10.3913 18.8257 10.9018 19.7083H4.09912V18.7083C4.09912 16.4991 5.88998 14.7083 8.09912 14.7083C8.89345 14.7083 9.63369 14.9398 10.2561 15.339C10.1534 15.7788 10.0991 16.2372 10.0991 16.7083ZM12.6908 21.7083H12.7813C13.7316 22.3401 14.8724 22.7083 16.0991 22.7083C19.4128 22.7083 22.0991 20.022 22.0991 16.7083C22.0991 13.3945 19.4128 10.7083 16.0991 10.7083C13.9746 10.7083 12.108 11.8124 11.0419 13.4782C10.1724 12.988 9.16843 12.7083 8.09912 12.7083C4.78541 12.7083 2.09912 15.3945 2.09912 18.7083V20.7083C2.09912 21.2605 2.54684 21.7083 3.09912 21.7083H12.6908ZM16.0991 20.7083C18.3083 20.7083 20.0991 18.9174 20.0991 16.7083C20.0991 14.4991 18.3083 12.7083 16.0991 12.7083C13.89 12.7083 12.0991 14.4991 12.0991 16.7083C12.0991 18.9174 13.89 20.7083 16.0991 20.7083ZM14.0679 15.6926C13.5156 15.6926 13.0679 16.1403 13.0679 16.6926C13.0679 17.2449 13.5156 17.6926 14.0679 17.6926H18.0679C18.6202 17.6926 19.0679 17.2449 19.0679 16.6926C19.0679 16.1403 18.6202 15.6926 18.0679 15.6926H14.0679Z" fill="#1C1C31"/>
</svg>
