<svg width="24" height="24" viewBox="0 0 24 24" fill="none" xmlns="http://www.w3.org/2000/svg">
<path fill-rule="evenodd" clip-rule="evenodd" d="M18.7522 12.3313C18.3166 12.3952 17.8853 12.4919 17.4622 12.6211C16.2839 12.9809 15.1945 13.5842 14.2644 14.392C13.3344 15.1998 12.5845 16.194 12.0633 17.3103C11.7618 17.956 11.5408 18.6342 11.4038 19.3297L18.7522 12.3313ZM9.34012 19.5477C6.22983 18.4517 4 15.4851 4 12C4 7.58172 7.58172 4 12 4C15.8134 4 19.0051 6.66932 19.8062 10.2403C18.8157 10.2608 17.8303 10.4176 16.8782 10.7083C15.4319 11.1499 14.0946 11.8904 12.953 12.882C11.8113 13.8736 10.8908 15.094 10.2511 16.4642C9.79413 17.443 9.48776 18.4825 9.34012 19.5477ZM21.3793 12.5911C21.7757 12.2136 22.0101 11.6886 21.9638 11.1432C21.5292 6.02145 17.2342 2 12 2C6.47715 2 2 6.47715 2 12C2 17.0682 5.77041 21.2558 10.6593 21.9109C11.2013 21.9835 11.7363 21.7749 12.1323 21.3978L21.3793 12.5911Z" fill="#1C1C31"/>
</svg>
