<svg width="25" height="25" viewBox="0 0 25 25" fill="none" xmlns="http://www.w3.org/2000/svg">
    <path fill-rule="evenodd" clip-rule="evenodd" d="M4.32918 3.35557C4.66796 2.678 5.36049 2.25 6.11803 2.25H18.882C19.6395 2.25 20.332 2.678 20.6708 3.35557L22.3944 6.80279C22.4639 6.94164 22.5 7.09476 22.5 7.25V8.25C22.5 9.24279 22.1309 10.1975 21.4688 10.9308V21.25V21.25C21.4688 21.4571 21.4058 21.6495 21.298 21.8091C21.1183 22.0751 20.8139 22.25 20.4688 22.25H15.5016C15.5011 22.25 15.5005 22.25 15.5 22.25C15.4995 22.25 15.4989 22.25 15.4984 22.25L9.5011 22.25C9.50074 22.25 9.50037 22.25 9.5 22.25C9.49963 22.25 9.49926 22.25 9.4989 22.25H4.5C4.15482 22.25 3.85049 22.0751 3.67078 21.8091C3.56296 21.6495 3.5 21.4571 3.5 21.25L3.5 21.2491L3.5 10.8958C2.85748 10.1673 2.5 9.22706 2.5 8.25V7.25C2.5 7.09476 2.53615 6.94164 2.60557 6.80279L4.32918 3.35557ZM10.5 20.25L14.5 20.25V17.25C14.5 16.9848 14.3946 16.7304 14.2071 16.5429C14.0196 16.3554 13.7652 16.25 13.5 16.25H11.5C11.2348 16.25 10.9804 16.3554 10.7929 16.5429C10.6054 16.7304 10.5 16.9848 10.5 17.25V20.25ZM16.5 20.25V17.25C16.5 16.4543 16.1839 15.6913 15.6213 15.1287C15.0587 14.5661 14.2957 14.25 13.5 14.25H11.5C10.7043 14.25 9.94129 14.5661 9.37868 15.1287C8.81607 15.6913 8.5 16.4543 8.5 17.25V20.25H5.5L5.5 12.123C5.82394 12.2066 6.15973 12.25 6.5 12.25C7.56087 12.25 8.57828 11.8286 9.32843 11.0784C9.38768 11.0192 9.44489 10.9582 9.5 10.8958C9.55511 10.9582 9.61232 11.0192 9.67157 11.0784C10.4217 11.8286 11.4391 12.25 12.5 12.25C13.5609 12.25 14.5783 11.8286 15.3284 11.0784C15.3877 11.0192 15.4449 10.9582 15.5 10.8958C15.5551 10.9582 15.6123 11.0192 15.6716 11.0784C16.4217 11.8286 17.4391 12.25 18.5 12.25C18.8293 12.25 19.1545 12.2094 19.4688 12.1309V20.25H16.5ZM10.5 8.25C10.5 8.78043 10.7107 9.28914 11.0858 9.66421C11.4609 10.0393 11.9696 10.25 12.5 10.25C13.0304 10.25 13.5391 10.0393 13.9142 9.66421C14.2893 9.28914 14.5 8.78043 14.5 8.25H10.5ZM5.11803 6.25L6.11803 4.25L18.882 4.25L19.882 6.25H5.11803ZM16.5 8.25C16.5 8.78043 16.7107 9.28914 17.0858 9.66421C17.4609 10.0393 17.9696 10.25 18.5 10.25C19.0304 10.25 19.5391 10.0393 19.9142 9.66421C20.2893 9.28914 20.5 8.78043 20.5 8.25H16.5ZM4.5 8.25H8.5C8.5 8.78043 8.28929 9.28914 7.91421 9.66421C7.53914 10.0393 7.03043 10.25 6.5 10.25C5.96957 10.25 5.46086 10.0393 5.08579 9.66421C4.71071 9.28914 4.5 8.78043 4.5 8.25Z" fill="#1C1C31"/>
</svg>
