<svg width="24" height="24" viewBox="0 0 24 24" fill="none" xmlns="http://www.w3.org/2000/svg">
<path fill-rule="evenodd" clip-rule="evenodd" d="M12.0001 4.40381C11.8026 4.40381 11.6094 4.46232 11.4451 4.57196L4.44511 9.23796C4.44509 9.23797 4.44512 9.23795 4.44511 9.23796C4.32083 9.32089 4.21682 9.43053 4.14064 9.55861L11.4448 14.4281C11.6091 14.5377 11.8026 14.5964 12.0001 14.5964C12.1977 14.5964 12.3908 14.5379 12.5551 14.4283L19.8596 9.55861C19.7834 9.43053 19.6794 9.32092 19.5552 9.23799C19.5551 9.23798 19.5552 9.238 19.5552 9.23799L12.5555 4.5722C12.3911 4.46256 12.1977 4.40381 12.0001 4.40381ZM21.9998 10.0276C22.001 9.98526 21.9995 9.94274 21.9953 9.90033C21.9707 9.46537 21.8516 9.04027 21.6455 8.65491C21.4126 8.2195 21.0759 7.8483 20.6651 7.57426L13.6651 2.90826C13.1722 2.57949 12.5926 2.40381 12.0001 2.40381C11.4076 2.40381 10.8284 2.57926 10.3355 2.90802C10.3353 2.9081 10.3356 2.90794 10.3355 2.90802L3.33546 7.57402C2.92471 7.84807 2.5876 8.2195 2.35472 8.65491C2.14861 9.04027 2.02951 9.46538 2.0049 9.90033C2.00068 9.94274 1.9992 9.98526 2.0004 10.0276C2.0002 10.0418 2.0001 10.0559 2.00011 10.0701C2.00011 10.0701 2.00011 10.0702 2.00011 10.0701V19.0001C2.00011 19.7958 2.31618 20.5588 2.87879 21.1214C3.44139 21.684 4.20446 22.0001 5.00011 22.0001H19.0001C19.7958 22.0001 20.5588 21.684 21.1214 21.1214C21.684 20.5588 22.0001 19.7958 22.0001 19.0001V10.0703C22.0001 10.0702 22.0001 10.0703 22.0001 10.0703C22.0001 10.0561 22 10.0418 21.9998 10.0276ZM20.0001 11.8686L16.0529 14.5001L20.0001 17.1316V11.8686ZM19.8878 19.4605L14.2501 15.702L13.6651 16.092C13.665 16.092 13.6652 16.0919 13.6651 16.092C13.1722 16.4207 12.5926 16.5964 12.0001 16.5964C11.4076 16.5964 10.8283 16.4209 10.3354 16.0922C10.3353 16.0921 10.3355 16.0922 10.3354 16.0922L9.75011 15.702L4.11236 19.4605C4.15914 19.5507 4.21981 19.634 4.293 19.7072C4.48054 19.8948 4.73489 20.0001 5.00011 20.0001H19.0001C19.2653 20.0001 19.5197 19.8948 19.7072 19.7072C19.7804 19.634 19.8411 19.5507 19.8878 19.4605ZM4.00011 17.1316L7.94733 14.5001L4.00011 11.8686V17.1316Z" fill="#1C1C31"/>
</svg>
