<svg width="25" height="24" viewBox="0 0 25 24" fill="none" xmlns="http://www.w3.org/2000/svg">
    <path d="M20.5 4.5H4.5C3.4 4.5 2.51 5.34375 2.51 6.375L2.5 17.625C2.5 18.6562 3.4 19.5 4.5 19.5H20.5C21.6 19.5 22.5 18.6562 22.5 17.625V6.375C22.5 5.34375 21.6 4.5 20.5 4.5ZM20.5 16.625C20.5 17.1773 20.0523 17.625 19.5 17.625H5.5C4.94772 17.625 4.5 17.1773 4.5 16.625V8.25L11.4889 12.3451C12.1133 12.7109 12.8867 12.7109 13.5111 12.3451L16.5 10.5937L20.5 8.25V16.625ZM13.0055 10.7663C12.6933 10.9492 12.3067 10.9492 11.9945 10.7663L4.5 6.375H20.5L13.0055 10.7663Z" fill="#1C1C31"/>
</svg>
