<svg width="25" height="25" viewBox="0 0 25 25" fill="none" xmlns="http://www.w3.org/2000/svg">
    <path fill-rule="evenodd" clip-rule="evenodd" d="M17.4329 3.78662C17.4329 3.23434 16.9851 2.78662 16.4329 2.78662C15.8806 2.78662 15.4329 3.23434 15.4329 3.78662V5.28662H9.93286C9.63327 5.28662 9.34946 5.42094 9.15952 5.65263C8.96958 5.88432 8.89353 6.18896 8.95228 6.48274L9.21818 7.81225C7.71634 7.92025 6.27279 8.36796 5.13552 9.12614C3.81817 10.0044 2.93286 11.2997 2.93286 12.7866C2.93286 13.0518 3.03822 13.3062 3.22575 13.4937C3.41329 13.6813 3.66764 13.7866 3.93286 13.7866H9.93286H15.9329C16.4851 13.7866 16.9329 13.3389 16.9329 12.7866C16.9329 11.2997 16.0476 10.0044 14.7302 9.12614C13.7513 8.47352 12.5454 8.05093 11.2707 7.87703L11.1527 7.28662H16.4329H21.7955L20.1661 19.9146C20.1018 20.4133 19.6772 20.7866 19.1743 20.7866H16.9329V18.7866C16.9329 18.2343 16.4851 17.7866 15.9329 17.7866H3.93286C3.38058 17.7866 2.93286 18.2343 2.93286 18.7866V20.7866C2.93286 21.8912 3.82829 22.7866 4.93286 22.7866H14.9329C15.0325 22.7866 15.1305 22.7793 15.2263 22.7653C15.2929 22.7793 15.362 22.7866 15.4329 22.7866H19.1743C20.6828 22.7866 21.9566 21.6666 22.1497 20.1705L23.9246 6.41459C23.9614 6.12943 23.8737 5.84223 23.6839 5.62631C23.494 5.41038 23.2204 5.28662 22.9329 5.28662H17.4329V3.78662ZM6.24492 10.7902C7.17855 10.1678 8.50337 9.78662 9.93286 9.78662C11.3624 9.78662 12.6872 10.1678 13.6208 10.7902C14.0887 11.1022 14.4173 11.4436 14.6286 11.7866H9.93286H5.23714C5.44846 11.4436 5.77702 11.1022 6.24492 10.7902ZM4.93286 20.7866V19.7866H14.9329V20.7866H4.93286ZM16.9329 15.7866C16.9329 16.3389 16.4851 16.7866 15.9329 16.7866H3.93286C3.38058 16.7866 2.93286 16.3389 2.93286 15.7866C2.93286 15.2343 3.38058 14.7866 3.93286 14.7866H15.9329C16.4851 14.7866 16.9329 15.2343 16.9329 15.7866Z" fill="#1C1C31"/>
</svg>
