<svg width="25" height="24" viewBox="0 0 25 24" fill="none" xmlns="http://www.w3.org/2000/svg">
    <path fill-rule="evenodd" clip-rule="evenodd" d="M17.5613 2.37061C17.9398 1.96847 18.5727 1.94934 18.9749 2.32789C19.377 2.70644 19.3961 3.33931 19.0176 3.74146C18.251 4.55578 17.6842 5.5325 17.3564 6.59441C17.3885 6.59393 17.4206 6.59369 17.4529 6.59369C20.1117 6.59369 21.7892 8.31923 21.9668 10.6557C22.3461 17.0781 17.9292 22.2302 11.4773 22.2302C8.53674 22.2302 5.87926 21.0219 3.97345 19.0749C3.81113 18.9091 3.65426 18.7379 3.50313 18.5617C3.19316 18.2001 2.90734 17.8173 2.64818 17.4157C2.59715 17.3366 2.54716 17.2568 2.49821 17.1762C2.35386 16.9387 2.59874 16.6633 2.86327 16.7486C2.93764 16.7726 3.01237 16.7957 3.08745 16.8181C3.53117 16.9502 3.98716 17.0539 4.45321 17.1269C4.62271 17.1534 4.79353 17.1759 4.96559 17.1943C5.33468 17.2336 5.70943 17.2538 6.08878 17.2538C7.49754 17.2538 8.7857 16.9874 9.99301 16.5037C11.8895 15.743 13.2479 14.9385 12.9298 11.7818C12.7034 9.5351 13.5879 7.8585 15.1859 7.0785C15.1889 7.05046 15.1931 7.02232 15.1985 6.99412C15.5315 5.25999 16.351 3.65638 17.5613 2.37061ZM10.7368 18.3602L10.7376 18.3599C11.681 17.9815 12.9697 17.4283 13.871 16.2686C14.8383 15.024 15.1077 13.447 14.9197 11.5812C14.8045 10.4383 15.1002 9.7325 15.4565 9.33046C15.8104 8.93116 16.4339 8.59369 17.4529 8.59369C18.3348 8.59369 18.9125 8.87112 19.2745 9.20957C19.6402 9.5514 19.9135 10.0748 19.9713 10.7917C20.2801 16.1662 16.6651 20.2302 11.4773 20.2302C9.9977 20.2302 8.60617 19.8526 7.39399 19.1875C8.57127 19.0666 9.68193 18.7829 10.7368 18.3602Z" fill="#1C1C31"/>
</svg>
