<svg width="25" height="25" viewBox="0 0 25 25" fill="none" xmlns="http://www.w3.org/2000/svg">
    <path fill-rule="evenodd" clip-rule="evenodd" d="M3.44824 6.25C3.44824 4.59315 4.71998 3.25 6.28875 3.25H19.6787C21.2474 3.25 22.5192 4.59315 22.5192 6.25V18.25C22.5192 19.9069 21.2474 21.25 19.6787 21.25H6.28875C4.71998 21.25 3.44824 19.9069 3.44824 18.25V17.2182C2.9111 17.201 2.48096 16.7601 2.48096 16.2188C2.48096 15.6774 2.9111 15.2365 3.44824 15.2193V13.2495C2.9111 13.2322 2.48096 12.7913 2.48096 12.25C2.48096 11.7087 2.9111 11.2678 3.44824 11.2505V9.28073C2.9111 9.26346 2.48096 8.82259 2.48096 8.28125C2.48096 7.73991 2.9111 7.29904 3.44824 7.28177V6.25ZM5.34192 17.2188H5.48096C6.03324 17.2188 6.48096 16.771 6.48096 16.2188C6.48096 15.6665 6.03324 15.2188 5.48096 15.2188H5.34192V13.25H5.48096C6.03324 13.25 6.48096 12.8023 6.48096 12.25C6.48096 11.6977 6.03324 11.25 5.48096 11.25H5.34192V9.28125H5.48096C6.03324 9.28125 6.48096 8.83353 6.48096 8.28125C6.48096 7.72897 6.03324 7.28125 5.48096 7.28125H5.34192V6.25C5.34192 5.69772 5.76583 5.25 6.28875 5.25H19.6787C20.2016 5.25 20.6255 5.69772 20.6255 6.25V18.25C20.6255 18.8023 20.2016 19.25 19.6787 19.25H6.28875C5.76583 19.25 5.34192 18.8023 5.34192 18.25V17.2188ZM16.4466 18.25C15.8944 18.25 15.4466 17.8023 15.4466 17.25L15.4466 7.25001C15.4466 6.97549 15.5595 6.71304 15.7587 6.5242C15.958 6.33536 16.2261 6.23673 16.5002 6.25144C17.2494 6.29163 17.9026 6.51357 18.4083 6.96928C18.9052 7.41704 19.1538 7.99564 19.284 8.54763C19.4127 9.09274 19.4424 9.68368 19.4471 10.2361C19.4494 10.5168 19.4452 10.8037 19.4408 11.0818L19.4402 11.1198V11.12V11.1202V11.1203V11.1205V11.1206V11.1208C19.436 11.3891 19.4319 11.6501 19.4326 11.91C19.4334 12.1757 19.3284 12.4308 19.1408 12.619C18.9532 12.8072 18.6984 12.913 18.4326 12.913L17.4467 12.913L17.4466 17.25C17.4466 17.8023 16.9989 18.25 16.4466 18.25ZM17.4467 10.6287C17.4478 10.5005 17.4482 10.3754 17.4472 10.2529L17.4467 10.2046L17.4467 10.6287ZM11.9639 7.25C11.9639 6.69772 11.5162 6.25 10.9639 6.25C10.4116 6.25 9.96387 6.69772 9.96387 7.25V10.1006C9.66497 9.92769 9.46387 9.60452 9.46387 9.23438V7.23438C9.46387 6.68209 9.01615 6.23438 8.46387 6.23438C7.91158 6.23438 7.46387 6.68209 7.46387 7.23438V9.23438C7.46387 10.7209 8.54501 11.9549 9.96387 12.1929L9.96387 17.25C9.96387 17.8023 10.4116 18.25 10.9639 18.25C11.5162 18.25 11.9639 17.8023 11.9639 17.25L11.9639 12.1929C13.3827 11.9549 14.4639 10.7209 14.4639 9.23437V7.23438C14.4639 6.68209 14.0162 6.23438 13.4639 6.23438C12.9116 6.23438 12.4639 6.68209 12.4639 7.23438V9.23437C12.4639 9.60452 12.2628 9.92769 11.9639 10.1006V7.25Z" fill="#1C1C31"/>
</svg>
