<svg width="25" height="25" viewBox="0 0 25 25" fill="none" xmlns="http://www.w3.org/2000/svg">
    <path fill-rule="evenodd" clip-rule="evenodd" d="M13.4016 7.18297V8.53703L14.6588 9.03992L16.1043 9.61811V12.1289H9.29346L9.29346 9.61811L10.7389 9.03992L11.9962 8.53703V7.18297V6.10189V4.85864H13.4016V6.10189V7.18297ZM9.29346 14.1289L9.29346 20.8586H16.1043L16.1043 14.1289H9.29346ZM8.55068 7.76116C8.45546 7.79925 8.36435 7.84412 8.27782 7.8951C7.67432 8.25062 7.29346 8.90286 7.29346 9.61811V20.8586C7.29346 21.9632 8.18889 22.8586 9.29346 22.8586H16.1043C17.2088 22.8586 18.1043 21.9632 18.1043 20.8586V9.61811C18.1043 8.90285 17.7234 8.25062 17.1199 7.8951C17.0334 7.84412 16.9423 7.79925 16.847 7.76116L16.0232 7.43162L15.4016 7.18297V6.10189H15.834H16.0232C16.3859 6.10189 16.7035 5.90879 16.8788 5.61979C16.9704 5.46873 17.0232 5.29147 17.0232 5.10189V3.85864C17.0232 3.30636 16.5755 2.85864 16.0232 2.85864H9.37454C8.82225 2.85864 8.37454 3.30636 8.37454 3.85864V5.10188C8.37454 5.29147 8.4273 5.46873 8.51893 5.61979C8.69424 5.90879 9.01184 6.10189 9.37454 6.10189H9.56373H9.99616V7.18297L9.37454 7.43162L8.55068 7.76116Z" fill="#1C1C31"/>
</svg>
