<svg width="25" height="25" viewBox="0 0 25 25" fill="none" xmlns="http://www.w3.org/2000/svg">
    <path fill-rule="evenodd" clip-rule="evenodd" d="M8.74261 2.52988C8.40183 2.44468 8.04135 2.54453 7.79297 2.79291C7.54459 3.04129 7.44474 3.40178 7.52993 3.74256L8.4131 7.27524C8.34222 7.36823 8.26024 7.47596 8.1691 7.59603C7.84128 8.02792 7.39432 8.62026 6.91828 9.26145C5.98048 10.5246 4.88524 12.0365 4.39584 12.8602C1.82761 17.1829 5.06759 22.5 10.0852 22.5H14.9149C19.9325 22.5 23.1725 17.1829 20.6043 12.8602C20.1149 12.0365 19.0197 10.5246 18.0819 9.26145C17.6058 8.62026 17.1589 8.02792 16.831 7.59603C16.7399 7.47596 16.6579 7.36823 16.587 7.27524L17.4702 3.74256C17.5554 3.40178 17.4556 3.04129 17.2072 2.79291C16.9588 2.54453 16.5983 2.44468 16.2575 2.52988L12.5001 3.46924L8.74261 2.52988ZM14.7193 6.50002L15.1257 4.87439L12.7426 5.47016C12.5834 5.50997 12.4168 5.50997 12.2575 5.47016L9.87444 4.87439L10.2808 6.50002H12.5001H14.7193ZM9.99429 8.50002C9.92635 8.58916 9.84842 8.69159 9.76216 8.80523C9.43721 9.23333 8.99472 9.81976 8.52409 10.4537C7.56855 11.7407 6.54153 13.1643 6.11526 13.8818C4.39043 16.7849 6.51676 20.5 10.0852 20.5H14.9149C18.4834 20.5 20.6097 16.7849 18.8849 13.8818C18.4586 13.1643 17.4316 11.7407 16.4761 10.4537C16.0054 9.81976 15.5629 9.23333 15.238 8.80523C15.1517 8.69159 15.0738 8.58916 15.0059 8.50002H12.5001H9.99429ZM12.5001 9.4844C13.0524 9.4844 13.5001 9.93211 13.5001 10.4844V10.7018C13.5382 10.7107 13.5759 10.72 13.6131 10.7297C14.0123 10.833 14.3434 10.9716 14.6064 11.1453C14.8741 11.3191 15.076 11.5117 15.2122 11.723C15.3531 11.9343 15.4236 12.141 15.4236 12.3429C15.4236 12.5637 15.3484 12.7445 15.1982 12.8854C15.0526 13.0262 14.8436 13.0967 14.5712 13.0967C14.3739 13.0967 14.2049 13.0403 14.064 12.9276C13.9278 12.8149 13.7705 12.6458 13.592 12.4204C13.5624 12.3823 13.5318 12.3456 13.5001 12.3106V13.7854C13.9542 13.9127 14.3347 14.0589 14.6416 14.2238C15.022 14.4258 15.3085 14.6653 15.5011 14.9424C15.6983 15.2148 15.7969 15.5271 15.7969 15.8793C15.7969 16.41 15.6678 16.8656 15.4095 17.246C15.1512 17.6217 14.7684 17.9082 14.2612 18.1054C14.0307 18.1937 13.777 18.2618 13.5001 18.3096V18.4844C13.5001 19.0367 13.0524 19.4844 12.5001 19.4844C11.9478 19.4844 11.5001 19.0367 11.5001 18.4844V18.3218C11.189 18.2691 10.9047 18.1875 10.6473 18.0772C10.1542 17.8659 9.79025 17.6029 9.55543 17.2882C9.32061 16.9689 9.2032 16.6495 9.2032 16.3302C9.2032 16.1188 9.27834 15.938 9.42863 15.7877C9.57891 15.6374 9.76911 15.5623 9.99924 15.5623C10.2012 15.5623 10.3562 15.6116 10.4642 15.7102C10.5722 15.8089 10.6755 15.9474 10.7741 16.1259C10.9714 16.4687 11.2062 16.7247 11.4786 16.8937L11.5001 16.9066V14.9062C11.1775 14.8079 10.8956 14.7072 10.6544 14.6042C10.2411 14.4211 9.91001 14.1816 9.6611 13.8857C9.41219 13.5898 9.28773 13.2258 9.28773 12.7938C9.28773 12.4087 9.4028 12.0447 9.63292 11.7019C9.86304 11.359 10.2012 11.0866 10.6473 10.8847C10.9023 10.7678 11.1865 10.684 11.5001 10.6332V10.4844C11.5001 9.93211 11.9478 9.4844 12.5001 9.4844ZM11.5001 11.9715C11.4685 11.9884 11.4378 12.0065 11.4082 12.0259C11.178 12.1715 11.063 12.3547 11.063 12.5754C11.063 12.7773 11.1475 12.9441 11.3166 13.0756C11.3715 13.1168 11.4327 13.1558 11.5001 13.1925V11.9715ZM13.5001 15.5412V16.9263C13.5169 16.9158 13.5335 16.905 13.5497 16.8937C13.7986 16.72 13.9231 16.5227 13.9231 16.302C13.9231 15.9638 13.7939 15.7173 13.5356 15.5623C13.5241 15.5553 13.5123 15.5483 13.5001 15.5412Z" fill="#1C1C31"/>
</svg>
