<svg width="20" height="20" viewBox="0 0 20 20" fill="none" xmlns="http://www.w3.org/2000/svg">
    <path fill-rule="evenodd" clip-rule="evenodd" d="M7.60067 2.61249C7.82134 2.74925 7.95559 2.9904 7.95559 3.25001C7.95559 6.32589 8.71806 8.48677 10.1156 9.88436C11.5132 11.2819 13.6741 12.0444 16.75 12.0444C17.0096 12.0444 17.2507 12.1787 17.3875 12.3993C17.5243 12.62 17.5372 12.8957 17.4216 13.1282C16.1348 15.7178 13.4612 17.5 10.37 17.5C6.02354 17.5 2.5 13.9765 2.5 9.62995C2.5 6.53879 4.28225 3.86527 6.87181 2.57837C7.10429 2.46283 7.37999 2.47574 7.60067 2.61249ZM6.50206 4.56816C4.98019 5.73287 4.00002 7.56741 4.00002 9.62995C4.00002 13.148 6.85198 16 10.37 16C12.4326 16 14.2672 15.0198 15.4319 13.4979C12.7463 13.3019 10.5909 12.4809 9.05497 10.945C7.51907 9.40912 6.69811 7.25372 6.50206 4.56816Z" fill="black"/>
</svg>
