<svg width="25" height="25" viewBox="0 0 25 25" fill="none" xmlns="http://www.w3.org/2000/svg">
    <path fill-rule="evenodd" clip-rule="evenodd" d="M8.66912 3.11611C8.55783 2.67094 8.15784 2.35864 7.69897 2.35864C7.24011 2.35864 6.84012 2.67094 6.72883 3.11611L5.9182 6.35864H5.69897C5.14669 6.35864 4.69897 6.80636 4.69897 7.35864V8.35864C3.59441 8.35864 2.69897 9.25407 2.69897 10.3586V20.3586C2.69897 21.4632 3.59441 22.3586 4.69897 22.3586H10.699C11.8035 22.3586 12.699 21.4632 12.699 20.3586V10.3586C12.699 9.25407 11.8035 8.35864 10.699 8.35864V7.35864C10.699 6.80636 10.2513 6.35864 9.69897 6.35864H9.47975L8.66912 3.11611ZM5.69897 10.3586H4.69897L4.69897 20.3586H10.699V10.3586H9.69897H5.69897ZM18.199 18.3586C19.3035 18.3586 20.199 17.4632 20.199 16.3586C20.199 15.2541 19.3035 14.3586 18.199 14.3586C17.0944 14.3586 16.199 15.2541 16.199 16.3586C16.199 17.4632 17.0944 18.3586 18.199 18.3586ZM17.699 20.3586C17.699 21.4632 16.8035 22.3586 15.699 22.3586C14.5944 22.3586 13.699 21.4632 13.699 20.3586C13.699 19.2541 14.5944 18.3586 15.699 18.3586C16.8035 18.3586 17.699 19.2541 17.699 20.3586ZM20.699 22.3586C21.8035 22.3586 22.699 21.4632 22.699 20.3586C22.699 19.2541 21.8035 18.3586 20.699 18.3586C19.5944 18.3586 18.699 19.2541 18.699 20.3586C18.699 21.4632 19.5944 22.3586 20.699 22.3586Z" fill="#1C1C31"/>
</svg>
