<svg width="25" height="25" viewBox="0 0 25 25" fill="none" xmlns="http://www.w3.org/2000/svg">
    <path fill-rule="evenodd" clip-rule="evenodd" d="M12.9119 4.41675C10.7901 4.41675 8.7553 5.2596 7.25501 6.75989C5.75472 8.26018 4.91187 10.295 4.91187 12.4167C4.91187 13.4673 5.11879 14.5076 5.52083 15.4782C5.92287 16.4488 6.51214 17.3307 7.25501 18.0736C7.99788 18.8165 8.87979 19.4057 9.8504 19.8078C10.821 20.2098 11.8613 20.4167 12.9119 20.4167C13.9624 20.4167 15.0027 20.2098 15.9733 19.8078C16.9439 19.4057 17.8258 18.8165 18.5687 18.0736C19.3116 17.3307 19.9009 16.4488 20.3029 15.4782C20.7049 14.5076 20.9119 13.4673 20.9119 12.4167C20.9119 10.295 20.069 8.26018 18.5687 6.75989C17.0684 5.2596 15.0336 4.41675 12.9119 4.41675ZM5.8408 5.34568C7.71616 3.47032 10.2597 2.41675 12.9119 2.41675C15.564 2.41675 18.1076 3.47032 19.9829 5.34568C21.8583 7.22104 22.9119 9.76458 22.9119 12.4167C22.9119 13.73 22.6532 15.0303 22.1507 16.2436C21.6481 17.4568 20.9115 18.5592 19.9829 19.4878C19.0543 20.4164 17.952 21.153 16.7387 21.6555C15.5254 22.1581 14.2251 22.4167 12.9119 22.4167C11.5986 22.4167 10.2983 22.1581 9.08503 21.6555C7.87177 21.153 6.76938 20.4164 5.8408 19.4878C4.91221 18.5592 4.17562 17.4568 3.67307 16.2436C3.17052 15.0303 2.91187 13.73 2.91187 12.4167C2.91187 9.76458 3.96543 7.22104 5.8408 5.34568ZM10.2048 9.70964C10.5953 9.31912 11.2284 9.31912 11.619 9.70964L12.9119 11.0025L14.2048 9.70964C14.5953 9.31912 15.2284 9.31912 15.619 9.70964C16.0095 10.1002 16.0095 10.7333 15.619 11.1239L14.3261 12.4167L15.619 13.7096C16.0095 14.1002 16.0095 14.7333 15.619 15.1239C15.2284 15.5144 14.5953 15.5144 14.2048 15.1239L12.9119 13.831L11.619 15.1239C11.2284 15.5144 10.5953 15.5144 10.2048 15.1239C9.81423 14.7333 9.81423 14.1002 10.2048 13.7096L11.4977 12.4167L10.2048 11.1239C9.81423 10.7333 9.81423 10.1002 10.2048 9.70964Z" fill="#1C1C31"/>
</svg>
