<svg width="25" height="25" viewBox="0 0 25 25" fill="none" xmlns="http://www.w3.org/2000/svg">
    <path fill-rule="evenodd" clip-rule="evenodd" d="M11.4562 4.1875C11.2344 4.1875 11.0182 4.27696 10.8561 4.44183C10.6934 4.60728 10.5991 4.83522 10.5991 5.07639C10.5991 5.31755 10.6934 5.5455 10.8561 5.71095C11.0182 5.87582 11.2344 5.96528 11.4562 5.96528H13.3133C13.5351 5.96528 13.7514 5.87582 13.9135 5.71095C14.0761 5.5455 14.1705 5.31755 14.1705 5.07639C14.1705 4.83522 14.0761 4.60728 13.9135 4.44183C13.7514 4.27696 13.5351 4.1875 13.3133 4.1875H11.4562ZM9.42992 3.03965C9.96439 2.49606 10.6929 2.1875 11.4562 2.1875H13.3133C14.0766 2.1875 14.8051 2.49606 15.3396 3.03965C15.6321 3.33712 15.8534 3.69158 15.9939 4.07639H17.0276C17.7909 4.07639 18.5194 4.38494 19.0539 4.92854C19.5878 5.47157 19.8848 6.20451 19.8848 6.96528V9.35821C21.05 9.77004 21.8848 10.8813 21.8848 12.1875V19.1875C21.8848 20.8444 20.5416 22.1875 18.8848 22.1875H13.8848C12.9963 22.1875 12.198 21.8012 11.6487 21.1875H7.74191C6.97862 21.1875 6.2501 20.8789 5.71564 20.3353C5.18174 19.7923 4.88477 19.0594 4.88477 18.2986V6.96528C4.88477 6.20451 5.18174 5.47157 5.71564 4.92854C6.2501 4.38494 6.97863 4.07639 7.74191 4.07639H8.77568C8.91608 3.69158 9.13745 3.33712 9.42992 3.03965ZM10.8848 19.1875V12.1875C10.8848 10.5306 12.2279 9.1875 13.8848 9.1875H17.8848V6.96528C17.8848 6.72411 17.7904 6.49617 17.6277 6.33072C17.4656 6.16585 17.2494 6.07639 17.0276 6.07639H15.9939C15.8534 6.46119 15.6321 6.81566 15.3396 7.11312C14.8051 7.65672 14.0766 7.96528 13.3133 7.96528H11.4562C10.6929 7.96528 9.96439 7.65672 9.42992 7.11312C9.13745 6.81566 8.91608 6.46119 8.77568 6.07639H7.74191C7.5201 6.07639 7.30388 6.16585 7.14178 6.33072C6.97912 6.49617 6.88477 6.72411 6.88477 6.96528V18.2986C6.88477 18.5398 6.97912 18.7677 7.14178 18.9332C7.30389 19.098 7.5201 19.1875 7.74191 19.1875H10.8848ZM19.8848 12.1875C19.8848 11.6352 19.437 11.1875 18.8848 11.1875H13.8848C13.3325 11.1875 12.8848 11.6352 12.8848 12.1875V19.1875C12.8848 19.7398 13.3325 20.1875 13.8848 20.1875H18.8848C19.437 20.1875 19.8848 19.7398 19.8848 19.1875V12.1875ZM13.8848 14.1875C13.8848 13.6352 14.3325 13.1875 14.8848 13.1875H17.8848C18.437 13.1875 18.8848 13.6352 18.8848 14.1875C18.8848 14.7398 18.437 15.1875 17.8848 15.1875H14.8848C14.3325 15.1875 13.8848 14.7398 13.8848 14.1875ZM14.8848 16.1875C14.3325 16.1875 13.8848 16.6352 13.8848 17.1875C13.8848 17.7398 14.3325 18.1875 14.8848 18.1875H17.8848C18.437 18.1875 18.8848 17.7398 18.8848 17.1875C18.8848 16.6352 18.437 16.1875 17.8848 16.1875H14.8848Z" fill="#1C1C31"/>
</svg>
