<svg width="24" height="24" viewBox="0 0 24 24" fill="none" xmlns="http://www.w3.org/2000/svg">
    <path fill-rule="evenodd" clip-rule="evenodd" d="M3.17157 4.17157C3.92172 3.42143 4.93913 3 6 3H18C19.0609 3 20.0783 3.42143 20.8284 4.17157C21.5786 4.92172 22 5.93913 22 7V9V15C22 16.0609 21.5786 17.0783 20.8284 17.8284C20.0783 18.5786 19.0609 19 18 19H12.6569C12.6217 19.0996 12.5838 19.1983 12.5433 19.2961C12.2417 20.0241 11.7998 20.6855 11.2426 21.2426C10.6855 21.7998 10.0241 22.2417 9.2961 22.5433C8.56815 22.8448 7.78793 23 7 23C6.21207 23 5.43185 22.8448 4.7039 22.5433C3.97595 22.2417 3.31451 21.7998 2.75736 21.2426C2.20021 20.6855 1.75825 20.0241 1.45672 19.2961C1.15519 18.5681 1 17.7879 1 17C1 15.8115 1.35265 14.6593 2 13.6833V9V7C2 5.93913 2.42143 4.92172 3.17157 4.17157ZM4 11.8038C4.90436 11.2817 5.93765 11 7 11C8.5913 11 10.1174 11.6321 11.2426 12.7574C11.3535 12.8682 11.4596 12.983 11.5608 13.1014C11.6934 13.0364 11.8424 13 12 13H13C13.5523 13 14 13.4477 14 14C14 14.5523 13.5523 15 13 15H12.6569C12.8819 15.6364 13 16.3121 13 17H18C18.5304 17 19.0391 16.7893 19.4142 16.4142C19.7893 16.0391 20 15.5304 20 15V10H4V11.8038ZM11 17C11 15.9391 10.5786 14.9217 9.82843 14.1716C9.07828 13.4214 8.06087 13 7 13C5.93913 13 4.92172 13.4214 4.17157 14.1716C3.42143 14.9217 3 15.9391 3 17C3 17.5253 3.10346 18.0454 3.30448 18.5307C3.5055 19.016 3.80014 19.457 4.17157 19.8284C4.54301 20.1999 4.98396 20.4945 5.46927 20.6955C5.95457 20.8965 6.47471 21 7 21C7.52529 21 8.04543 20.8965 8.53073 20.6955C9.01604 20.4945 9.45699 20.1999 9.82843 19.8284C10.1999 19.457 10.4945 19.016 10.6955 18.5307C10.8965 18.0454 11 17.5253 11 17ZM20 8H4V7C4 6.46957 4.21071 5.96086 4.58579 5.58579C4.96086 5.21071 5.46957 5 6 5H18C18.5304 5 19.0391 5.21071 19.4142 5.58579C19.7893 5.96086 20 6.46957 20 7V8ZM15 14C15 13.4477 15.4477 13 16 13H17C17.5523 13 18 13.4477 18 14C18 14.5523 17.5523 15 17 15H16C15.4477 15 15 14.5523 15 14ZM8 14.7778C8 14.2255 7.55228 13.7778 7 13.7778C6.44772 13.7778 6 14.2255 6 14.7778V17C6 17.5523 6.44772 18 7 18C7.55228 18 8 17.5523 8 17V14.7778ZM7 18.2222C6.44772 18.2222 6 18.6699 6 19.2222C6 19.7745 6.44772 20.2222 7 20.2222H7.00556C7.55784 20.2222 8.00556 19.7745 8.00556 19.2222C8.00556 18.6699 7.55784 18.2222 7.00556 18.2222H7Z" fill="#1C1C31"/>
</svg>
