<svg width="25" height="25" viewBox="0 0 25 25" fill="none" xmlns="http://www.w3.org/2000/svg">
    <path fill-rule="evenodd" clip-rule="evenodd" d="M8.064 22.9721C6.43585 22.9708 4.89781 22.331 3.74898 21.1821C2.58898 20.0321 1.95898 18.4921 1.95898 16.8621C1.95898 15.2321 2.59898 13.6921 3.74898 12.5421C4.64241 11.6487 5.45873 11.2951 6.9077 10.6674L6.98898 10.6321L7.18971 10.5452C7.47872 10.42 7.74556 10.3044 8.03898 10.1821C8.58898 9.94214 8.82898 9.23215 8.86898 8.64215C8.98898 6.97215 9.69898 5.39215 10.889 4.20215C13.599 1.49215 18.019 1.48215 20.729 4.20215C22.039 5.51215 22.769 7.26215 22.769 9.12215C22.769 10.9821 22.049 12.7321 20.729 14.0421C19.539 15.2321 17.969 15.9521 16.289 16.0621C15.709 16.1021 14.989 16.3421 14.749 16.8921L14.289 17.9421C13.649 19.4421 13.289 20.2721 12.379 21.1821C11.2302 22.341 9.69215 22.9709 8.064 22.9721ZM15.809 4.16215C14.539 4.16215 13.269 4.64215 12.299 5.61215C11.449 6.46215 10.939 7.58215 10.859 8.77215C10.759 10.2821 9.99898 11.4921 8.84898 12.0021C8.59396 12.1155 8.354 12.2188 8.12908 12.3156L8.12901 12.3157L8.12871 12.3158C8.03626 12.3556 7.94635 12.3943 7.85898 12.4321C6.37898 13.0621 5.79898 13.3121 5.16898 13.9521C4.38898 14.7321 3.95898 15.7621 3.95898 16.8621C3.95898 17.9621 4.38898 18.9921 5.16898 19.7721C5.94898 20.5521 6.97898 20.9821 8.07898 20.9821C9.17898 20.9821 10.209 20.5521 10.989 19.7721C11.6145 19.1467 11.8579 18.5785 12.4287 17.2462L12.469 17.1521L12.929 16.0821C13.439 14.9321 14.639 14.1721 16.159 14.0721C17.349 13.9921 18.479 13.4821 19.319 12.6321C20.259 11.6921 20.769 10.4521 20.769 9.12215C20.769 7.79215 20.249 6.55215 19.319 5.61215C18.349 4.64215 17.079 4.16215 15.809 4.16215ZM12.7991 10.1421C12.2491 10.1421 11.7991 9.69213 11.7991 9.14213C11.7991 8.50213 11.9491 7.86213 12.2491 7.29213C12.5391 6.72213 12.9691 6.22213 13.4891 5.84213C14.0091 5.46213 14.6191 5.21213 15.2491 5.11213C15.8791 5.01213 16.5391 5.06213 17.1491 5.26213C17.6791 5.43213 17.9591 6.00213 17.7891 6.52213C17.6191 7.04213 17.0491 7.33213 16.5291 7.16213C16.2191 7.06213 15.8791 7.03213 15.5591 7.08213C15.2391 7.13213 14.9291 7.26213 14.6591 7.45213C14.3991 7.64213 14.1791 7.90213 14.0291 8.19213C13.8791 8.48213 13.7991 8.81213 13.7991 9.14213C13.7991 9.69213 13.3491 10.1421 12.7991 10.1421ZM5.55893 18.4922C5.74893 18.8122 6.07893 18.9922 6.42893 18.9922L6.43893 19.0022C6.60893 19.0022 6.77893 18.9622 6.93893 18.8722C7.41893 18.5922 7.58893 17.9822 7.30893 17.5022C7.17893 17.2922 7.10893 17.0522 7.09893 16.8022C7.07893 16.5622 7.12893 16.3122 7.22893 16.0922C7.32893 15.8622 7.47893 15.6622 7.66893 15.5122C7.84893 15.3622 8.07893 15.2522 8.31893 15.2022C8.85893 15.0822 9.20893 14.5522 9.08893 14.0122C8.96893 13.4722 8.43893 13.1222 7.89893 13.2422C7.34893 13.3522 6.82893 13.6022 6.39893 13.9522C5.96893 14.3122 5.61893 14.7622 5.38893 15.2722C5.15893 15.7822 5.05893 16.3422 5.08893 16.9022C5.11893 17.4622 5.27893 18.0122 5.55893 18.4922Z" fill="#1C1C31"/>
</svg>
