<svg width="25" height="24" viewBox="0 0 25 24" fill="none" xmlns="http://www.w3.org/2000/svg">
    <path fill-rule="evenodd" clip-rule="evenodd" d="M15.3783 6.81899L6.42896 15.7675L6.42896 18.071H8.73246L17.6814 9.12211L15.3783 6.81899ZM19.0728 7.68505C19.4904 7.05303 19.4209 6.19293 18.864 5.63601C18.3072 5.07925 17.4475 5.00981 16.8154 5.42765L19.0728 7.68505ZM20.2782 4.22179C18.8797 2.82332 16.6241 2.80489 15.2027 4.16656L15.1874 4.18154L4.72188 14.6462C4.53433 14.8337 4.42896 15.0881 4.42896 15.3533V19.071C4.42896 19.6233 4.87667 20.071 5.42896 20.071L9.14668 20.071C9.41189 20.071 9.66625 19.9657 9.85378 19.7781L20.3189 9.31306L20.3339 9.29773C21.6958 7.87611 21.6765 5.62005 20.2782 4.22179Z" fill="#1C1C31"/>
</svg>
