<svg width="25" height="24" viewBox="0 0 25 24" fill="none" xmlns="http://www.w3.org/2000/svg">
    <path fill-rule="evenodd" clip-rule="evenodd" d="M9.89783 3C10.3057 2.99989 10.7032 3.128 11.0342 3.36624C11.3654 3.60459 11.6132 3.94108 11.7425 4.32806L13.1576 8.57417C13.3052 9.01816 13.288 9.50121 13.1087 9.93337C12.9294 10.3655 12.6003 10.7185 12.1818 10.9276C12.1818 10.9276 12.1819 10.9276 12.1818 10.9276L10.9541 11.5412C11.7767 12.9575 12.9545 14.1354 14.3707 14.9582L14.9854 13.7304C15.1945 13.3122 15.5478 12.9826 15.9797 12.8034C16.4118 12.6241 16.8942 12.6067 17.3382 12.7543L21.5821 14.1692C21.9691 14.2981 22.3058 14.5455 22.5445 14.8763C22.7832 15.2071 22.9118 15.6046 22.9121 16.0126V19.1111C22.9121 19.8773 22.6077 20.6121 22.066 21.1539C21.5242 21.6956 20.7894 22 20.0232 22H19.0788C10.7027 22 3.91211 15.2094 3.91211 6.83333V5.88889C3.91211 5.12271 4.21647 4.38791 4.75825 3.84614C5.30002 3.30436 6.03482 3 6.801 3H9.89783C9.89795 3 9.89772 3 9.89783 3ZM9.85833 5H6.801C6.56525 5 6.33916 5.09365 6.17246 5.26035C6.00576 5.42705 5.91211 5.65314 5.91211 5.88889V6.83333C5.91211 14.1048 11.8073 20 19.0788 20H20.0232C20.259 20 20.4851 19.9063 20.6518 19.7396C20.8185 19.5729 20.9121 19.3469 20.9121 19.1111V16.0541L16.7529 14.6674L15.7069 16.7566C15.4666 17.2367 14.8901 17.4413 14.4009 17.2202C11.8665 16.0749 9.83666 14.0447 8.69182 11.5101C8.47076 11.0207 8.67573 10.444 9.15611 10.2039L11.2447 9.1601L9.85833 5ZM11.2877 9.13862C11.2877 9.13863 11.2877 9.13862 11.2877 9.13862V9.13862Z" fill="#1C1C31"/>
</svg>
