<svg width="25" height="25" viewBox="0 0 25 25" fill="none" xmlns="http://www.w3.org/2000/svg">
    <path fill-rule="evenodd" clip-rule="evenodd" d="M12.0996 3.83325C12.6519 3.83325 13.0996 4.28097 13.0996 4.83325V11.8333H20.0996C20.6519 11.8333 21.0996 12.281 21.0996 12.8333C21.0996 13.3855 20.6519 13.8333 20.0996 13.8333H13.0996V20.8333C13.0996 21.3855 12.6519 21.8333 12.0996 21.8333C11.5473 21.8333 11.0996 21.3855 11.0996 20.8333V13.8333H4.09961C3.54732 13.8333 3.09961 13.3855 3.09961 12.8333C3.09961 12.281 3.54732 11.8333 4.09961 11.8333H11.0996V4.83325C11.0996 4.28097 11.5473 3.83325 12.0996 3.83325Z" fill="#1C1C31"/>
</svg>
