<svg width="24" height="24" viewBox="0 0 24 24" fill="none" xmlns="http://www.w3.org/2000/svg">
    <path fill-rule="evenodd" clip-rule="evenodd" d="M2.87991 2.88329C3.44279 2.32061 4.20547 2.00513 5 2.00513H19C19.7945 2.00513 20.5572 2.32061 21.1201 2.88329C21.6831 3.44608 22 4.21014 22 5.00757V15.176C21.9998 15.9733 21.6828 16.7374 21.1199 17.3001M21.1199 17.3001L17.292 21.1266C17.2919 21.1267 17.292 21.1266 17.292 21.1266C16.7292 21.6893 15.9666 22.005 15.1722 22.0051H5C4.20547 22.0051 3.44278 21.6896 2.87991 21.127C2.31692 20.5642 2 19.8001 2 19.0027V5.00757C2 4.21014 2.31692 3.44608 2.87991 2.88329M16 19.5858L19.5798 16.0072H17C16.7337 16.0072 16.4789 16.113 16.2917 16.3002C16.1045 16.4873 16 16.7403 16 17.0034V19.5858ZM14 19.9989V17.0034C14 16.206 14.3169 15.4419 14.8799 14.8791C15.4428 14.3164 16.2055 14.0009 17 14.0009H20V5.00757C20 4.74449 19.8955 4.49149 19.7083 4.3044C19.5211 4.11719 19.2663 4.0114 19 4.0114H5C4.73366 4.0114 4.47893 4.11719 4.29166 4.3044C4.10451 4.49149 4 4.74449 4 5.00757V19.0027C4 19.2658 4.10451 19.5188 4.29166 19.7059C4.47893 19.8931 4.73366 19.9989 5 19.9989H14ZM6 7.00687C6 6.45285 6.44772 6.00373 7 6.00373H17C17.5523 6.00373 18 6.45285 18 7.00687C18 7.56088 17.5523 8.01 17 8.01H7C6.44772 8.01 6 7.56088 6 7.00687ZM6 11.0055C6 10.4515 6.44772 10.0023 7 10.0023H17C17.5523 10.0023 18 10.4515 18 11.0055C18 11.5595 17.5523 12.0086 17 12.0086H7C6.44772 12.0086 6 11.5595 6 11.0055ZM6 15.0041C6 14.4501 6.44772 14.0009 7 14.0009H11C11.5523 14.0009 12 14.4501 12 15.0041C12 15.5581 11.5523 16.0072 11 16.0072H7C6.44772 16.0072 6 15.5581 6 15.0041Z" fill="#1C1C31"/>
</svg>
