<svg width="25" height="24" viewBox="0 0 25 24" fill="none" xmlns="http://www.w3.org/2000/svg">
    <path fill-rule="evenodd" clip-rule="evenodd" d="M19 4C18.7239 4 18.5 4.22386 18.5 4.5V15.4655C18.5 15.5603 18.4868 15.652 18.4622 15.7389C18.4714 15.8118 18.4711 15.8878 18.4599 15.9657C17.9763 19.3422 15.0722 21.9375 11.562 21.9375C8.05175 21.9375 5.14769 19.3422 4.66401 15.9657C4.58569 15.419 5.04094 14.9687 5.59323 14.9687L16.5 14.9688V4.5C16.5 3.11929 17.6193 2 19 2C20.3807 2 21.5 3.11929 21.5 4.5V6C21.5 6.55228 21.0523 7 20.5 7C19.9477 7 19.5 6.55228 19.5 6V4.5C19.5 4.22386 19.2761 4 19 4ZM4.53018 6.85088C4.86967 6.41526 5.49802 6.33732 5.93364 6.67681C6.75599 7.31767 7.17223 8.06577 7.14592 8.92585C7.12632 9.56633 6.84165 10.1746 6.65672 10.5697C6.63598 10.614 6.61649 10.6556 6.59877 10.6943C6.37876 11.1749 6.29296 11.4421 6.31105 11.6783C6.32432 11.8514 6.41106 12.1853 7.02551 12.6974C7.44979 13.0509 7.50711 13.6815 7.15355 14.1058C6.79998 14.53 6.16942 14.5874 5.74514 14.2338C4.85959 13.4958 4.38383 12.7048 4.3169 11.831C4.25479 11.0203 4.57109 10.3187 4.78029 9.86181C5.0338 9.30806 5.14044 9.07423 5.14685 8.86468L5.14698 8.86071C5.14921 8.79503 5.15563 8.6061 4.70426 8.25434C4.26863 7.91486 4.1907 7.28651 4.53018 6.85088ZM9.51006 6.67681C9.07443 6.33732 8.44608 6.41526 8.1066 6.85088C7.76711 7.28651 7.84505 7.91486 8.28067 8.25434C8.73205 8.6061 8.72563 8.79503 8.7234 8.86071L8.72327 8.86468C8.71686 9.07423 8.61022 9.30806 8.3567 9.86181C8.14751 10.3187 7.83121 11.0203 7.89331 11.831C7.96025 12.7048 8.43601 13.4958 9.32156 14.2338C9.74583 14.5874 10.3764 14.53 10.73 14.1058C11.0835 13.6815 11.0262 13.0509 10.6019 12.6974C9.98747 12.1853 9.90073 11.8514 9.88747 11.6783C9.86938 11.4421 9.95517 11.1749 10.1752 10.6943C10.1929 10.6556 10.2124 10.614 10.2331 10.5697C10.4181 10.1746 10.7027 9.56633 10.7223 8.92585C10.7486 8.06577 10.3324 7.31767 9.51006 6.67681ZM12.1066 6.85088C12.4461 6.41526 13.0744 6.33732 13.5101 6.67681C14.3324 7.31767 14.7486 8.06577 14.7223 8.92585C14.7027 9.56633 14.4181 10.1746 14.2331 10.5697L14.233 10.5699L14.2328 10.5703C14.2122 10.6144 14.1928 10.6558 14.1752 10.6943C13.9552 11.1749 13.8694 11.4421 13.8875 11.6783C13.9007 11.8514 13.9875 12.1853 14.6019 12.6974C15.0262 13.0509 15.0835 13.6815 14.73 14.1058C14.3764 14.53 13.7458 14.5874 13.3216 14.2338C12.436 13.4958 11.9602 12.7048 11.8933 11.831C11.8312 11.0203 12.1475 10.3187 12.3567 9.86181C12.6102 9.30806 12.7169 9.07423 12.7233 8.86468L12.7234 8.86071C12.7256 8.79503 12.732 8.6061 12.2807 8.25434C11.845 7.91486 11.7671 7.28651 12.1066 6.85088ZM11.562 19.9375C9.53009 19.9375 7.78108 18.7166 7.01159 16.9687L16.1124 16.9688C15.3429 18.7166 13.5939 19.9375 11.562 19.9375Z" fill="#1C1C31"/>
</svg>
