<svg width="24" height="25" viewBox="0 0 24 25" fill="none" xmlns="http://www.w3.org/2000/svg">
    <path fill-rule="evenodd" clip-rule="evenodd" d="M9.99976 4.125C8.40846 4.125 6.88233 4.75714 5.75712 5.88236C4.6319 7.00758 3.99976 8.5337 3.99976 10.125C3.99976 10.9129 4.15495 11.6931 4.45648 12.4211C4.75801 13.1491 5.19996 13.8105 5.75712 14.3676C6.31427 14.9248 6.9757 15.3667 7.70366 15.6683C8.43161 15.9698 9.21182 16.125 9.99976 16.125C10.7877 16.125 11.5679 15.9698 12.2959 15.6683C13.0238 15.3667 13.6852 14.9248 14.2424 14.3676C14.7995 13.8105 15.2415 13.1491 15.543 12.4211C15.8446 11.6931 15.9998 10.9129 15.9998 10.125C15.9998 8.5337 15.3676 7.00758 14.2424 5.88236C13.1172 4.75714 11.5911 4.125 9.99976 4.125ZM4.3429 4.46815C5.84319 2.96785 7.87802 2.125 9.99976 2.125C12.1215 2.125 14.1563 2.96785 15.6566 4.46815C17.1569 5.96844 17.9998 8.00327 17.9998 10.125C17.9998 11.1756 17.7928 12.2159 17.3908 13.1865C17.117 13.8476 16.7563 14.4675 16.3193 15.0304L21.7069 20.4179C22.0974 20.8084 22.0974 21.4416 21.7069 21.8321C21.3163 22.2226 20.6832 22.2226 20.2926 21.8321L14.9051 16.4446C14.3422 16.8815 13.7223 17.2422 13.0612 17.516C12.0906 17.9181 11.0503 18.125 9.99976 18.125C8.94918 18.125 7.90889 17.9181 6.93829 17.516C5.96768 17.114 5.08577 16.5247 4.3429 15.7819C3.60003 15.039 3.01076 14.1571 2.60872 13.1865C2.20668 12.2159 1.99976 11.1756 1.99976 10.125C1.99976 8.00327 2.84261 5.96844 4.3429 4.46815Z" fill="#1C1C31"/>
</svg>
