<svg width="24" height="25" viewBox="0 0 24 25" fill="none" xmlns="http://www.w3.org/2000/svg">
<path fill-rule="evenodd" clip-rule="evenodd" d="M9.28852 4.3353C9.41761 3.2383 10.4116 2.45366 11.5086 2.58275L13.4143 2.80701C14.0413 2.88078 14.5662 3.23705 14.8768 3.73359C15.7784 3.38952 16.8218 3.7408 17.3198 4.6033L18.2792 6.26512C18.8315 7.2217 18.5038 8.44489 17.5472 8.99717L15.409 10.2316C14.4524 10.7839 13.2293 10.4562 12.677 9.49958L12.5123 9.21443L10.7525 9.00734C9.65554 8.87825 8.87089 7.88431 8.99998 6.78731L9.28852 4.3353ZM14.6261 6.18085L13.4593 6.85453L14.409 8.49958L16.5472 7.26512L15.5877 5.6033L14.786 6.06616C14.7371 6.10917 14.6836 6.14766 14.6261 6.18085ZM11.2748 4.56904L13.0228 4.77474L12.4496 5.10571C11.8076 5.47636 11.4488 6.14918 11.4492 6.84079C11.4484 6.91934 11.4522 6.99818 11.4607 7.07688L10.9863 7.02105L11.2748 4.56904ZM3.5 3.5C2.94772 3.5 2.5 3.94772 2.5 4.5C2.5 5.05228 2.94772 5.5 3.5 5.5H5.36789L8.84727 12.8257L7.77912 14.3545C6.85286 15.6802 7.80135 17.5 9.41859 17.5H18.6406C19.1929 17.5 19.6406 17.0523 19.6406 16.5C19.6406 15.9477 19.1929 15.5 18.6406 15.5L9.41859 15.5L10.5212 13.9219H17.3364C17.9214 13.9219 18.453 13.5818 18.6982 13.0507L21.3923 7.21608C21.6238 6.71467 21.405 6.1205 20.9036 5.88898C20.4022 5.65746 19.808 5.87626 19.5765 6.37767L17.0165 11.9219H10.6321L7.17448 4.64195C6.84321 3.94448 6.14004 3.5 5.36789 3.5H3.5ZM8.65625 22.5C9.76082 22.5 10.6562 21.6046 10.6562 20.5C10.6562 19.3954 9.76082 18.5 8.65625 18.5C7.55168 18.5 6.65625 19.3954 6.65625 20.5C6.65625 21.6046 7.55168 22.5 8.65625 22.5ZM19.6562 20.5C19.6562 21.6046 18.7608 22.5 17.6562 22.5C16.5517 22.5 15.6562 21.6046 15.6562 20.5C15.6562 19.3954 16.5517 18.5 17.6562 18.5C18.7608 18.5 19.6562 19.3954 19.6562 20.5Z" fill="#1C1C31"/>
</svg>
