<svg width="25" height="25" viewBox="0 0 25 25" fill="none" xmlns="http://www.w3.org/2000/svg">
    <path fill-rule="evenodd" clip-rule="evenodd" d="M3.09937 6.57153C3.09937 6.01925 3.54708 5.57153 4.09937 5.57153H20.0994C20.6516 5.57153 21.0994 6.01925 21.0994 6.57153C21.0994 7.12382 20.6516 7.57153 20.0994 7.57153L4.09937 7.57153C3.54708 7.57153 3.09937 7.12382 3.09937 6.57153ZM3.09937 12.5715C3.09937 12.0192 3.54708 11.5715 4.09937 11.5715L15.0994 11.5715C15.6517 11.5715 16.0994 12.0192 16.0994 12.5715C16.0994 13.1238 15.6517 13.5715 15.0994 13.5715L4.09937 13.5715C3.54708 13.5715 3.09937 13.1238 3.09937 12.5715ZM4.09937 17.5715C3.54708 17.5715 3.09937 18.0192 3.09937 18.5715C3.09937 19.1238 3.54708 19.5715 4.09937 19.5715L11.0994 19.5715C11.6517 19.5715 12.0994 19.1238 12.0994 18.5715C12.0994 18.0192 11.6516 17.5715 11.0994 17.5715L4.09937 17.5715Z" fill="#1C1C31"/>
</svg>
