<svg width="25" height="25" viewBox="0 0 25 25" fill="none" xmlns="http://www.w3.org/2000/svg">
    <path fill-rule="evenodd" clip-rule="evenodd" d="M18.483 21.5C17.9308 21.5 17.483 21.0523 17.483 20.5L17.483 6.91425L16.2027 8.19459C15.8122 8.58512 15.179 8.58512 14.7885 8.1946C14.398 7.80408 14.398 7.17092 14.7885 6.78039L17.7759 3.7929C17.9635 3.60536 18.2178 3.5 18.483 3.5C18.7483 3.5 19.0026 3.60536 19.1902 3.7929L22.1776 6.78039C22.5681 7.17092 22.5681 7.80409 22.1775 8.19461C21.787 8.58513 21.1539 8.58512 20.7633 8.19459L19.483 6.91426L19.483 20.5C19.483 21.0523 19.0353 21.5 18.483 21.5ZM9.00234 11.3334C9.4065 11.3334 9.73413 11.6617 9.73413 12.0667V12.2267C9.76125 12.233 9.78805 12.2397 9.81454 12.2466C10.1067 12.3224 10.349 12.424 10.5414 12.5514C10.7373 12.6788 10.8851 12.82 10.9848 12.975C11.0879 13.13 11.1394 13.2815 11.1394 13.4296C11.1394 13.5915 11.0844 13.7241 10.9744 13.8274C10.8679 13.9307 10.715 13.9824 10.5156 13.9824C10.3713 13.9824 10.2476 13.9411 10.1445 13.8584C10.0448 13.7758 9.92967 13.6518 9.79907 13.4865C9.77815 13.4594 9.75651 13.4334 9.73413 13.4085V14.4881C10.0655 14.5813 10.3431 14.6883 10.5672 14.809C10.8456 14.9571 11.0552 15.1327 11.1961 15.3359C11.3405 15.5357 11.4126 15.7647 11.4126 16.023C11.4126 16.4122 11.3181 16.7462 11.1291 17.0252C10.9401 17.3007 10.66 17.5108 10.2888 17.6555C10.1208 17.72 9.93589 17.7698 9.73413 17.8048V17.9334C9.73413 18.3384 9.4065 18.6667 9.00234 18.6667C8.59819 18.6667 8.27055 18.3384 8.27055 17.9334V17.8145C8.04198 17.7759 7.8332 17.716 7.64421 17.6348C7.28335 17.4798 7.017 17.2869 6.84516 17.0562C6.67332 16.822 6.5874 16.5878 6.5874 16.3536C6.5874 16.1986 6.64239 16.066 6.75237 15.9558C6.86234 15.8456 7.00153 15.7905 7.16994 15.7905C7.31772 15.7905 7.43113 15.8267 7.51018 15.899C7.58922 15.9713 7.66483 16.0729 7.737 16.2038C7.88135 16.4552 8.05319 16.6429 8.25252 16.7669L8.27055 16.7776V15.3101C8.03353 15.2378 7.82647 15.1637 7.64937 15.0879C7.34693 14.9536 7.10464 14.778 6.92249 14.561C6.74034 14.344 6.64926 14.0771 6.64926 13.7603C6.64926 13.4778 6.73347 13.2109 6.90187 12.9595C7.07027 12.7081 7.31772 12.5084 7.64421 12.3603C7.83142 12.2743 8.0402 12.2127 8.27055 12.1755V12.0667C8.27055 11.6617 8.59819 11.3334 9.00234 11.3334ZM8.27055 13.156C8.2466 13.1688 8.2234 13.1825 8.20097 13.1972C8.03257 13.3039 7.94837 13.4382 7.94837 13.6001C7.94837 13.7482 8.01023 13.8705 8.13395 13.9669C8.1748 13.9976 8.22034 14.0266 8.27055 14.0539V13.156ZM9.73413 15.7764V16.7893C9.74567 16.7821 9.757 16.7746 9.76814 16.7669C9.95029 16.6395 10.0414 16.4948 10.0414 16.3329C10.0414 16.085 9.94685 15.9042 9.75783 15.7905C9.75014 15.7858 9.74224 15.7811 9.73413 15.7764ZM4.5 15C4.5 12.5147 6.51472 10.5 9 10.5C11.4853 10.5 13.5 12.5147 13.5 15C13.5 17.4853 11.4853 19.5 9 19.5C6.51472 19.5 4.5 17.4853 4.5 15ZM9 8.5C5.41015 8.5 2.5 11.4101 2.5 15C2.5 18.5899 5.41015 21.5 9 21.5C12.5899 21.5 15.5 18.5899 15.5 15C15.5 11.4101 12.5899 8.5 9 8.5Z" fill="#1C1C31"/>
</svg>
