<svg width="24" height="24" viewBox="0 0 24 24" fill="none" xmlns="http://www.w3.org/2000/svg">
<path fill-rule="evenodd" clip-rule="evenodd" d="M16.9828 21C16.4305 21 15.9828 20.5523 15.9828 20L15.9828 6.41425L14.7025 7.69459C14.312 8.08512 13.6788 8.08512 13.2883 7.6946C12.8977 7.30408 12.8977 6.67092 13.2882 6.28039L16.2757 3.2929C16.4632 3.10536 16.7176 3 16.9828 3C17.248 3 17.5024 3.10536 17.6899 3.2929L20.6773 6.28039C21.0678 6.67092 21.0678 7.30409 20.6773 7.69461C20.2868 8.08513 19.6536 8.08512 19.2631 7.69459L17.9828 6.41426L17.9828 20C17.9828 20.5523 17.5351 21 16.9828 21ZM8.46632 3.10558C8.8051 3.27497 9.0191 3.62123 9.0191 4.00001V10C9.0191 10.5523 8.57139 11 8.0191 11C7.46682 11 7.0191 10.5523 7.0191 10V6.00001L6.6191 6.30001C6.17727 6.63138 5.55047 6.54183 5.2191 6.10001C4.88773 5.65818 4.97727 5.03138 5.4191 4.70001L7.4191 3.20001C7.72212 2.97274 8.12753 2.93619 8.46632 3.10558ZM8.26159 13.3516C7.84705 13.1304 7.38437 13.015 6.91454 13.0154C6.44472 13.0158 5.98224 13.1321 5.56808 13.3539C5.15392 13.5757 4.80086 13.8963 4.54018 14.2872C4.2795 14.678 4.11924 15.1272 4.07359 15.5948C4.01994 16.1444 4.42204 16.6335 4.97171 16.6872C5.52138 16.7409 6.01048 16.3388 6.06413 15.7891C6.07782 15.6488 6.12589 15.5141 6.20409 15.3969C6.28228 15.2796 6.38818 15.1835 6.51241 15.1169C6.63664 15.0504 6.77536 15.0155 6.91628 15.0154C7.05721 15.0153 7.19599 15.0499 7.32034 15.1162C7.44468 15.1825 7.55075 15.2785 7.62914 15.3956C7.70754 15.5127 7.75584 15.6474 7.76978 15.7876C7.78372 15.9278 7.76285 16.0693 7.70903 16.1996C7.65522 16.3298 7.57011 16.4448 7.46125 16.5343C7.41616 16.5714 7.37515 16.6116 7.33827 16.6543L4.36919 19.2467C4.05523 19.5208 3.94422 19.961 4.09061 20.3512C4.23701 20.7415 4.6101 21 5.0269 21H9.01128C9.56356 21 10.0113 20.5523 10.0113 20C10.0113 19.4477 9.56356 19 9.01128 19H7.69262L8.79838 18.0345C8.84089 17.9974 8.87951 17.9575 8.91419 17.9153C9.19025 17.6454 9.40938 17.3217 9.55746 16.9633C9.73687 16.5291 9.80644 16.0574 9.75998 15.5898C9.71352 15.1223 9.55248 14.6735 9.29112 14.283C9.02975 13.8926 8.67614 13.5727 8.26159 13.3516Z" fill="#1C1C31"/>
</svg>
