<svg width="24" height="24" viewBox="0 0 24 24" fill="none" xmlns="http://www.w3.org/2000/svg">
<path fill-rule="evenodd" clip-rule="evenodd" d="M17.108 3C17.6603 3 18.108 3.44772 18.108 4L18.108 17.5858L19.3883 16.3054C19.7789 15.9149 20.412 15.9149 20.8025 16.3054C21.1931 16.6959 21.1931 17.3291 20.8026 17.7196L17.8151 20.7071C17.6276 20.8946 17.3732 21 17.108 21C16.8428 21 16.5884 20.8946 16.4009 20.7071L13.4135 17.7196C13.023 17.3291 13.023 16.6959 13.4135 16.3054C13.804 15.9149 14.4372 15.9149 14.8277 16.3054L16.108 17.5857L16.108 4C16.108 3.44772 16.5557 3 17.108 3ZM8.52637 3.10558C8.86516 3.27497 9.07916 3.62123 9.07916 4.00001V10C9.07916 10.5523 8.63145 11 8.07916 11C7.52688 11 7.07916 10.5523 7.07916 10V6.00001L6.67916 6.30001C6.23733 6.63138 5.61053 6.54183 5.27916 6.10001C4.94779 5.65818 5.03733 5.03138 5.47916 4.70001L7.47916 3.20001C7.78218 2.97274 8.18759 2.93619 8.52637 3.10558ZM6.9746 13.0154C7.44443 13.015 7.90711 13.1304 8.32165 13.3516C8.7362 13.5727 9.08981 13.8926 9.35117 14.283C9.61254 14.6735 9.77358 15.1223 9.82004 15.5898C9.86649 16.0574 9.79693 16.5291 9.61752 16.9633C9.46944 17.3217 9.25031 17.6454 8.97425 17.9153C8.93957 17.9575 8.90095 17.9974 8.85844 18.0345L7.75268 19H9.07133C9.62362 19 10.0713 19.4477 10.0713 20C10.0713 20.5523 9.62362 21 9.07133 21H5.08696C4.67016 21 4.29707 20.7415 4.15067 20.3512C4.00428 19.961 4.11528 19.5208 4.42925 19.2467L7.39833 16.6543C7.43521 16.6116 7.47622 16.5714 7.52131 16.5343C7.63017 16.4448 7.71527 16.3298 7.76909 16.1996C7.82291 16.0693 7.84377 15.9278 7.82984 15.7876C7.8159 15.6474 7.7676 15.5127 7.6892 15.3956C7.61081 15.2785 7.50474 15.1825 7.38039 15.1162C7.25605 15.0499 7.11727 15.0153 6.97634 15.0154C6.83542 15.0155 6.69669 15.0504 6.57247 15.1169C6.44824 15.1835 6.34234 15.2796 6.26414 15.3969C6.18595 15.5141 6.13788 15.6488 6.12419 15.7891C6.07053 16.3388 5.58144 16.7409 5.03177 16.6872C4.4821 16.6335 4.07999 16.1444 4.13365 15.5948C4.17929 15.1272 4.33956 14.678 4.60024 14.2872C4.86092 13.8963 5.21398 13.5757 5.62814 13.3539C6.0423 13.1321 6.50477 13.0158 6.9746 13.0154Z" fill="#1C1C31"/>
</svg>
