<svg width="25" height="25" viewBox="0 0 25 25" fill="none" xmlns="http://www.w3.org/2000/svg">
    <path d="M15.1 9.45005L18.0023 4.41367C18.2765 3.93796 18.8859 3.77705 19.3591 4.05543C19.8252 4.3296 19.9843 4.92756 19.716 5.39706L17.4 9.45005H15.1ZM16.8 10.45H20.5C21.0523 10.45 21.5 10.8978 21.5 11.45C21.5 12.0023 21.0523 12.45 20.5 12.45H19.5V19.45C19.5 20.55 18.6 21.45 17.5 21.45H7.5C6.4 21.45 5.5 20.55 5.5 19.45V12.45H4.5C3.94772 12.45 3.5 12.0023 3.5 11.45C3.5 10.8978 3.94772 10.45 4.5 10.45H16.8ZM17.5 12.45H7.5V18.95C7.5 19.2262 7.72386 19.45 8 19.45H17C17.2761 19.45 17.5 19.2262 17.5 18.95V12.45Z" fill="#1C1C31"/>
</svg>
