<svg width="48" height="48" viewBox="0 0 48 48" fill="none" xmlns="http://www.w3.org/2000/svg">
    <path fill-rule="evenodd" clip-rule="evenodd" d="M28.3873 8.80665C27.3593 6.89272 22.0939 4.02024 21.0159 5.15742C20.8509 5.33154 20.8321 6.02747 20.8092 6.87624C20.7797 7.969 20.7434 9.31512 20.3793 10.1273C19.9386 11.1102 19.2467 11.5697 18.3311 12.1778C17.4303 12.7761 16.3128 13.5182 15.0051 15.0443C14.6944 15.4469 14.4213 15.834 14.1823 16.2062C10.1349 21.6715 12.8337 31.515 18.0462 34.963C20.4912 36.5744 23.4048 37.1493 26.2835 36.5886C29.1622 36.0278 31.8252 34.3666 33.8123 31.8918C35.7995 29.4171 36.9859 26.2845 37.1667 23.0351C37.3085 20.4866 35.2904 13.2703 33.29 13.2388C32.5009 13.2263 32.6909 15.4383 31.5987 15.0247C30.5064 14.6111 29.9143 11.6497 28.3873 8.80665Z" fill="#FF991F"/>
    <g style="mix-blend-mode:multiply" opacity="0.4">
        <path fill-rule="evenodd" clip-rule="evenodd" d="M13.0378 19.5742C13.4963 22.7135 14.9041 25.5291 17.033 27.5551C19.2165 29.633 22.0213 30.7498 24.9629 30.7125C27.9046 30.6752 30.7981 29.4861 33.1436 27.3507C34.7264 25.9054 36.208 24.0113 36.9134 22.053C37.3413 25.6364 35.6812 30.5474 32.5102 33.443C30.1978 35.5483 27.345 36.7207 24.4448 36.7575C21.5447 36.7943 18.7794 35.6932 16.6267 33.6445C14.4739 31.5959 12.9248 28.7487 12.5105 25.5577C12.2527 23.5716 12.533 21.5175 13.0378 19.5742Z" fill="#FF991F"/>
    </g>
    <g style="mix-blend-mode:multiply">
        <path d="M29.1967 25.2741C29.2954 25.199 29.4518 25.228 29.5148 25.3412C30.3457 26.8334 30.5283 26.717 31.1128 28.7289C31.3141 31.1366 30.9083 32.7087 29.9199 34.0143C28.9316 35.3198 26.9923 36.2301 25.3706 36.5563C21.6748 36.7069 18.8427 35.4447 17.918 30.8874C16.9932 26.3301 21.44 18.5685 23.1266 18.8649C24.7914 19.1575 24.2511 29.0394 29.1967 25.2741Z" fill="#FF8000"/>
    </g>
</svg>
