<svg width="48" height="48" viewBox="0 0 48 48" fill="none" xmlns="http://www.w3.org/2000/svg">
    <path d="M23.0663 24.4178C22.6033 23.6787 23.4386 23.246 23.9537 22.9251C25.5263 21.9341 27.5058 21.9806 29.0009 23.0613L30.4749 24.1184C30.826 24.3714 30.9085 24.869 30.6565 25.2277C30.4045 25.5865 29.9139 25.6745 29.5629 25.4215L28.0889 24.3644C26.6615 23.3427 23.0663 24.4178 23.0663 24.4178Z" fill="#ED8EA1"/>
    <path fill-rule="evenodd" clip-rule="evenodd" d="M16.1417 10.9007C16.3461 10.9821 16.4961 10.9979 16.5801 10.9862L16.7179 11.9766C16.4002 12.0208 16.0669 11.9473 15.7717 11.8297C15.4694 11.7094 15.1675 11.5273 14.8982 11.3065C14.3792 10.881 13.8828 10.2254 13.868 9.47627C13.8517 8.65484 14.4066 7.96567 15.4779 7.5108C16.5492 7.05594 17.32 6.78139 19.8125 6.78137C20.4062 6.78137 21.1979 7.00754 21.1979 7.28368C21.1979 7.55982 20.4011 7.71887 20.125 7.71887C17.6801 7.71889 16.7447 8.05935 15.8688 8.43127C15.0041 8.7984 14.8627 9.20057 14.8678 9.4565C14.8743 9.78472 15.1167 10.1925 15.5322 10.5332C15.7301 10.6954 15.9442 10.8221 16.1417 10.9007Z" fill="#F5AEBC"/>
    <path fill-rule="evenodd" clip-rule="evenodd" d="M25.3231 5.03388C25.3231 5.51477 24.0799 5.52466 23.6302 5.51481C21.9664 5.47834 19.568 5.42576 17.3755 5.71442C15.9764 5.89863 14.7214 6.21604 13.8251 6.73045C12.9481 7.23376 12.4618 7.89168 12.4478 8.79226C12.4367 9.50022 12.6352 9.96981 12.9149 10.2919C13.2018 10.6223 13.6138 10.8426 14.0998 10.9726C15.0903 11.2374 16.2388 11.0869 16.7374 10.9157C16.9986 10.8261 17.283 10.9651 17.3727 11.2263C17.4623 11.4875 17.3233 11.7719 17.0621 11.8615C16.4029 12.0878 15.0502 12.2618 13.8414 11.9386C13.2278 11.7745 12.6158 11.4726 12.1598 10.9476C11.6967 10.4143 11.4336 9.69538 11.4479 8.77666C11.469 7.42354 12.2425 6.48572 13.3273 5.86315C14.3927 5.25168 15.8013 4.91306 17.245 4.72298C19.5248 4.42282 22.0424 4.4787 23.7018 4.51552C24.5938 4.51558 25.3229 4.72294 25.3231 5.03388Z" fill="#F5AEBC"/>
    <path d="M4.76647 31.8537C5.3147 31.7783 8.40053 32.0828 10.1978 32.6424C12.8415 33.7991 16.9684 32.6947 12.2304 29.3718C6.30797 25.2182 3.62479 32.0108 4.76647 31.8537Z" fill="#F5AEBC"/>
    <path fill-rule="evenodd" clip-rule="evenodd" d="M10.5313 30.4333C14.3341 29.6723 21.712 30.1405 24.3044 31.0181C24.8181 29.5592 26.7719 25.8574 28.4116 26.0347C27.408 25.1638 26.6647 21.607 27.6595 20.5864C22.3308 22.2052 16.2387 15.5507 16.1597 11.3218C16.1581 11.2382 16.1553 11.1563 16.1514 11.0763C17.9453 9.93377 20.0079 9.15023 22.2526 8.84039C30.5959 7.68874 38.293 13.5187 39.4446 21.8619C40.5963 30.2052 34.7663 37.9023 26.4231 39.0539C19.6451 39.9895 13.2934 36.3174 10.5313 30.4333Z" fill="#F5AEBC"/>
    <path opacity="0.2" fill-rule="evenodd" clip-rule="evenodd" d="M24.3648 30.8988C24.9556 29.3468 26.8306 25.905 28.4129 26.0762C27.4094 25.2052 26.6661 21.6485 27.6609 20.6279C23.3433 21.9395 18.5244 17.8196 16.8092 13.9594C19.2336 16.3973 23.1543 19.5105 25.5303 18.903C27.9652 18.2804 31.1206 16.3445 32.7555 15.3415C32.921 15.2399 33.0709 15.1479 33.2029 15.0679C31.6446 16.8813 29.0257 20.5062 28.7843 22.3656C28.6008 23.7789 29.1518 25.0278 29.8564 25.5615C30.4169 26.1413 32.7209 26.2877 35.827 26.4849C36.5397 26.5301 37.2946 26.5781 38.0803 26.6345C37.3915 26.6675 36.6898 26.6997 35.9926 26.7316C32.8825 26.8739 29.8593 27.0122 28.4432 27.2077C26.7096 27.447 25.7534 29.661 25.9329 30.9612C26.1123 32.2614 27.1575 36.2417 28.662 37.0199C29.7869 37.6018 32.6753 36.764 34.2315 35.5973C32.0909 37.4249 29.4196 38.6819 26.4244 39.0954C19.7866 40.0116 13.5577 36.5088 10.7087 30.837C10.7668 30.6832 10.8458 30.5368 10.9467 30.399C11.6374 30.2836 12.4239 30.2032 13.2645 30.1538C10.3168 35.6732 25.4177 41.2965 26.8046 37.2763C25.9527 34.882 25.1492 32.7974 24.3648 30.8988Z" fill="#CC0C36"/>
    <circle cx="26.9869" cy="12.5129" r="1.0625" transform="rotate(-7.85907 26.9869 12.5129)" fill="#363663"/>
    <path d="M5.86496 26.7161C6.08849 27.0341 8.79635 29.7458 9.70195 31.3961C11.1138 33.5015 14.5402 36.1327 13.4352 30.4521C12.0539 23.3514 5.2023 25.7732 5.86496 26.7161Z" fill="#F5AEBC"/>
</svg>
