<svg width="48" height="48" viewBox="0 0 48 48" fill="none" xmlns="http://www.w3.org/2000/svg">
    <path d="M33.1035 25.2379C32.6935 25.2379 32.3335 24.9529 32.2335 24.5355C32.1135 24.0469 32.4135 23.5684 32.8935 23.4361C35.7735 22.7337 35.8435 21.0438 35.8435 21.0234C35.8435 20.5144 36.2435 20.1174 36.7435 20.1174C37.2435 20.1174 37.6435 20.5144 37.6435 21.0234C37.6435 21.1558 37.5935 24.1486 33.3235 25.1972C33.2435 25.2277 33.1735 25.2379 33.1035 25.2379Z" fill="#CC0C36"/>
    <path d="M36.7032 9.70348C36.6732 9.15377 37.2632 8.81784 37.7132 9.12323C38.7032 9.7951 40.1232 10.9658 40.8932 12.452C42.1932 14.9766 41.9232 17.2264 40.8532 19.0689C40.1932 20.2193 38.5932 21.0438 36.7932 21.0438C32.6432 21.0438 31.2032 15.6383 31.9032 12.6251C32.0032 12.1772 32.5432 12.0041 32.9032 12.2688L36.9932 15.2922L36.6932 9.6933L36.7032 9.70348Z" fill="#CC0C36"/>
    <path d="M36.1533 27.5386L34.2233 28.3021C33.7633 28.4853 33.2433 28.2512 33.0633 27.7829C32.8833 27.3147 33.1133 26.7853 33.5733 26.6021L35.5133 25.8386C36.9391 25.2786 41.7233 25.8386 41.7233 28.9943C41.2838 29.4169 38.688 26.1875 36.1533 27.5386Z" fill="#CC0C36"/>
    <path d="M11.566 27.5386L13.496 28.3021C13.956 28.4853 14.476 28.2512 14.656 27.7829C14.836 27.3147 14.606 26.7853 14.146 26.6021L12.206 25.8386C10.7802 25.2786 5.99596 25.8386 5.99596 28.9943C6.43548 29.4169 9.03125 26.1875 11.566 27.5386Z" fill="#CC0C36"/>
    <path d="M34.7299 31.9898L32.6681 32.2278C32.1763 32.2857 31.7347 31.9249 31.682 31.426C31.6293 30.9271 31.9885 30.4754 32.4802 30.4174L34.5517 30.1821C36.4736 29.6875 40.5502 31.7893 39.7334 34.8375C39.1995 35.132 37.0988 31.426 34.7299 31.9898Z" fill="#BD0827"/>
    <path d="M12.7842 31.9898L14.8461 32.2278C15.3378 32.2857 15.7795 31.9249 15.8322 31.426C15.8848 30.9271 15.5257 30.4754 15.0339 30.4174L12.9624 30.1821C11.0405 29.6875 6.96401 31.7893 7.78078 34.8375C8.3147 35.132 10.4153 31.426 12.7842 31.9898Z" fill="#BD0827"/>
    <path d="M32.6926 36.2611L30.6254 36.075C30.1321 36.0317 29.773 35.5887 29.8229 35.0895C29.8727 34.5903 30.3162 34.221 30.8095 34.2642L32.8856 34.4549C34.7861 34.2642 38.432 37.248 37.0126 40.0665C36.43 40.2463 35.5641 36.1944 32.6926 36.2611Z" fill="#BD0827"/>
    <path d="M14.8216 36.2611L16.8888 36.075C17.382 36.0317 17.7411 35.5887 17.6913 35.0895C17.6414 34.5903 17.1979 34.221 16.7047 34.2642L14.6286 34.4549C12.728 34.2642 9.08215 37.248 10.5015 40.0665C11.0842 40.2463 11.95 36.1944 14.8216 36.2611Z" fill="#BD0827"/>
    <path d="M34.4332 25.5435L32.5932 23.5889C30.8432 21.726 28.4232 20.6775 25.8932 20.6775H22.2532C19.7232 20.6775 17.2932 21.726 15.5532 23.5889L13.7132 25.5435C12.6532 26.6734 12.3232 28.3124 12.8432 29.7783C13.8832 32.6693 15.9032 37.0772 18.6132 37.0772H29.5632C32.2832 37.0772 34.3032 32.6693 35.3332 29.7783C35.8432 28.3124 35.5132 26.6836 34.4532 25.5435H34.4332Z" fill="#CC0C36"/>
    <g style="mix-blend-mode:multiply" opacity="0.36">
        <path d="M29.5433 33.0866H18.5933C16.0733 33.0866 14.1533 29.2997 13.0733 26.4392C12.5333 27.447 12.4333 28.6686 12.8333 29.7782C13.8733 32.6693 15.8933 37.0771 18.6033 37.0771H29.5533C32.2733 37.0771 34.2933 32.6693 35.3233 29.7782C35.7233 28.6686 35.6133 27.447 35.0833 26.4392C33.9933 29.2997 32.0733 33.0866 29.5633 33.0866H29.5433Z" fill="#CC0C36"/>
    </g>
    <path d="M14.8632 25.2381C14.8032 25.2381 14.7232 25.2279 14.6432 25.2075C10.3732 24.159 10.2432 20.7996 10.2432 20.6775H12.0332L12.1132 21.0236C12.1132 21.0847 12.2332 22.7644 15.0632 23.4566C15.5532 23.5686 15.8432 24.0674 15.7232 24.556C15.6232 24.9428 15.2532 25.2279 14.8532 25.2279L14.8632 25.2381Z" fill="#CC0C36"/>
    <path d="M20.6735 19.4661C21.4235 19.4661 22.0335 18.9062 22.0335 18.2241C22.0335 17.5421 21.4235 16.9822 20.6735 16.9822C19.9235 16.9822 19.3135 17.5421 19.3135 18.2241C19.3135 18.9062 19.9235 19.4661 20.6735 19.4661Z" fill="#8B8BC1"/>
    <path d="M27.4733 19.4661C28.2233 19.4661 28.8333 18.9062 28.8333 18.2241C28.8333 17.5421 28.2233 16.9822 27.4733 16.9822C26.7233 16.9822 26.1133 17.5421 26.1133 18.2241C26.1133 18.9062 26.7233 19.4661 27.4733 19.4661Z" fill="#8B8BC1"/>
    <g style="mix-blend-mode:multiply" opacity="0.36">
        <path d="M40.8532 19.0589C41.9132 17.2163 42.1932 14.9666 40.8932 12.442C40.1232 10.9557 38.7032 9.79521 37.7132 9.11317C37.2732 8.80777 36.6732 9.15388 36.7032 9.69342L36.9232 13.745C38.8232 15.7402 39.2132 18.6415 38.8032 20.6673C39.7132 20.3212 40.4532 19.7511 40.8532 19.0589Z" fill="#CC0C36"/>
    </g>
    <path d="M11.6831 9.69342C11.7131 9.15388 11.1231 8.80777 10.6731 9.11317C9.68311 9.78503 8.24311 10.9557 7.47311 12.442C6.17311 14.9666 6.44311 17.2163 7.51311 19.0589C8.18311 20.2092 9.78311 21.0338 11.5931 21.0338C15.7631 21.0338 17.2031 15.6283 16.5031 12.615C16.4031 12.1671 15.8631 11.9941 15.5031 12.2587L11.3931 15.2923L11.6931 9.69342H11.6831Z" fill="#CC0C36"/>
    <g style="mix-blend-mode:multiply" opacity="0.36">
        <path d="M7.52336 19.0589C6.45336 17.2163 6.18336 14.9666 7.48336 12.442C8.25336 10.9557 9.68336 9.79521 10.6834 9.11317C11.1334 8.80777 11.7234 9.15388 11.6934 9.69342L11.4734 13.745C9.56336 15.7402 9.17336 18.6415 9.58336 20.6673C8.66336 20.3212 7.92336 19.7511 7.52336 19.0589Z" fill="#CC0C36"/>
    </g>
</svg>
