<svg width="48" height="48" viewBox="0 0 48 48" fill="none" xmlns="http://www.w3.org/2000/svg">
    <path d="M27.5286 11.5853C27.0794 9.50979 26.9082 7.87096 26.8459 6.54818C26.8295 6.2968 26.9447 6.04542 27.0054 5.79403C27.1326 5.26667 26.5077 5.01404 25.9652 5.01404H21.0996C20.8283 5.01404 20.5247 5.10909 20.4599 5.37249C20.3673 5.74869 20.6428 6.11554 20.609 6.54818C20.5036 7.89786 20.2753 9.56666 19.9346 11.5469C19.1747 15.8776 15.7668 19.6517 15.7668 23.7562V41.2199C15.7668 41.7847 16.2248 42.2426 16.7896 42.2426H30.7919C31.3555 42.2426 31.8129 41.7867 31.8146 41.2231L31.8697 23.5147C31.8697 19.5709 28.3489 15.7756 27.5286 11.5853Z" fill="#CC0C36"/>
    <path d="M21.0996 5.01404H23.2328C24.2556 5.01404 24.2556 6.0368 23.2328 6.03682C23.4407 10.5798 23.2328 13.7075 23.4248 17.594C21.5327 18.9876 20.3181 21.2249 20.3181 23.7562V42.2427H16.7896C16.2248 42.2427 15.7668 41.7847 15.7668 41.2199V23.7562C15.7668 19.6517 19.1747 15.8776 19.9346 11.5469C20.2742 9.57321 20.5321 7.77146 20.6043 6.54818C20.6329 6.06461 20.3666 5.72742 20.4565 5.37053C20.5228 5.10749 20.8283 5.01404 21.0996 5.01404Z" fill="#730217" fill-opacity="0.3"/>
    <path fill-rule="evenodd" clip-rule="evenodd" d="M19.635 24.4318C19.9465 22.8805 21.7008 21.6924 23.8182 21.6924C25.9357 21.6924 27.69 22.8805 28.0015 24.4318H29.4804V38.2421H18.156V24.4318H19.635Z" fill="white"/>
    <path d="M19.9609 25.3631H20.3705L20.4511 24.9616C20.6753 23.8453 22.0109 22.8372 23.8183 22.8372C25.6257 22.8372 26.9612 23.8453 27.1854 24.9616L27.2661 25.3631H27.6757H28.5394V37.0975H19.0972V25.3631H19.9609Z" stroke="#474785"/>
    <rect x="20.2976" y="3.97607" width="7.04149" height="3.24957" rx="1" fill="#730217"/>
</svg>
