<svg width="25" height="25" viewBox="0 0 25 25" fill="none" xmlns="http://www.w3.org/2000/svg">
    <path fill-rule="evenodd" clip-rule="evenodd" d="M12.3328 4.125C11.5371 4.125 10.7741 4.44107 10.2114 5.00368C9.64883 5.56629 9.33276 6.32935 9.33276 7.125C9.33276 7.92065 9.64883 8.68371 10.2114 9.24632C10.7741 9.80893 11.5371 10.125 12.3328 10.125C13.1284 10.125 13.8915 9.80893 14.4541 9.24632C15.0167 8.68371 15.3328 7.92065 15.3328 7.125C15.3328 6.32935 15.0167 5.56629 14.4541 5.00368C13.8915 4.44107 13.1284 4.125 12.3328 4.125ZM8.79723 3.58947C9.73491 2.65178 11.0067 2.125 12.3328 2.125C13.6588 2.125 14.9306 2.65178 15.8683 3.58947C16.806 4.52715 17.3328 5.79892 17.3328 7.125C17.3328 8.45108 16.806 9.72285 15.8683 10.6605C14.9306 11.5982 13.6588 12.125 12.3328 12.125C11.0067 12.125 9.73491 11.5982 8.79723 10.6605C7.85955 9.72285 7.33276 8.45108 7.33276 7.125C7.33276 5.79892 7.85955 4.52715 8.79723 3.58947ZM6.67591 15.4681C8.1762 13.9679 10.211 13.125 12.3328 13.125C14.4545 13.125 16.4893 13.9679 17.9896 15.4681C19.4899 16.9684 20.3328 19.0033 20.3328 21.125C20.3328 21.6773 19.885 22.125 19.3328 22.125H5.33276C5.06755 22.125 4.81319 22.0196 4.62566 21.8321C4.43812 21.6446 4.33276 21.3902 4.33276 21.125C4.33276 19.0033 5.17562 16.9684 6.67591 15.4681ZM12.3328 15.125C10.7415 15.125 9.21534 15.7571 8.09012 16.8824C7.20343 17.7691 6.62293 18.9047 6.41666 20.125H18.2489C18.0426 18.9047 17.4621 17.7691 16.5754 16.8824C15.4502 15.7571 13.9241 15.125 12.3328 15.125Z" fill="#1C1C31"/>
</svg>
