<svg width="25" height="24" viewBox="0 0 25 24" fill="none" xmlns="http://www.w3.org/2000/svg">
    <path fill-rule="evenodd" clip-rule="evenodd" d="M12.0884 4C9.96665 4 7.93182 4.84285 6.43152 6.34315C4.93123 7.84344 4.08838 9.87827 4.08838 12C4.08838 13.0506 4.2953 14.0909 4.69734 15.0615C5.09938 16.0321 5.68866 16.914 6.43152 17.6569C7.17439 18.3997 8.05631 18.989 9.02691 19.391C9.99752 19.7931 11.0378 20 12.0884 20C13.139 20 14.1792 19.7931 15.1498 19.391C16.1205 18.989 17.0024 18.3997 17.7452 17.6569C18.4881 16.914 19.0774 16.0321 19.4794 15.0615C19.8815 14.0909 20.0884 13.0506 20.0884 12C20.0884 9.87827 19.2455 7.84344 17.7452 6.34315C16.2449 4.84285 14.2101 4 12.0884 4ZM5.01731 4.92893C6.89267 3.05357 9.43621 2 12.0884 2C14.7405 2 17.2841 3.05357 19.1594 4.92893C21.0348 6.8043 22.0884 9.34784 22.0884 12C22.0884 13.3132 21.8297 14.6136 21.3272 15.8268C20.8246 17.0401 20.088 18.1425 19.1594 19.0711C18.2309 19.9997 17.1285 20.7362 15.9152 21.2388C14.702 21.7413 13.4016 22 12.0884 22C10.7752 22 9.4748 21.7413 8.26154 21.2388C7.04829 20.7362 5.9459 19.9997 5.01731 19.0711C4.08873 18.1425 3.35213 17.0401 2.84958 15.8268C2.34704 14.6136 2.08838 13.3132 2.08838 12C2.08838 9.34784 3.14195 6.8043 5.01731 4.92893ZM12.0884 7C12.6407 7 13.0884 7.44772 13.0884 8V12C13.0884 12.5523 12.6407 13 12.0884 13C11.5361 13 11.0884 12.5523 11.0884 12V8C11.0884 7.44772 11.5361 7 12.0884 7ZM11.0884 16C11.0884 15.4477 11.5361 15 12.0884 15H12.0984C12.6507 15 13.0984 15.4477 13.0984 16C13.0984 16.5523 12.6507 17 12.0984 17H12.0884C11.5361 17 11.0884 16.5523 11.0884 16Z" fill="#1C1C31"/>
</svg>
