<svg width="25" height="25" viewBox="0 0 25 25" fill="none" xmlns="http://www.w3.org/2000/svg">
    <path d="M3.93286 22.8586C3.63286 22.8586 3.43286 22.7586 3.23286 22.5586C3.03286 22.3586 2.93286 22.1586 2.93286 21.8586C2.93286 21.5586 3.03286 21.3586 3.23286 21.1586L5.03286 19.3586C3.63286 17.6586 3.53286 15.2586 4.93286 13.4586C5.13286 13.1586 5.33286 12.9586 5.63286 12.7586L5.83286 12.5586C6.23286 12.2586 6.73286 12.2586 7.03286 12.5586C7.13286 11.7586 7.43286 11.0586 7.93286 10.3586C8.13286 10.0586 8.33286 9.85864 8.63286 9.65864L8.93286 9.35864C9.33286 9.05864 9.83286 9.05864 10.1329 9.35864C10.3329 8.55864 10.6329 7.85864 11.0329 7.25864C11.2329 6.95864 11.4329 6.75864 11.7329 6.55864L11.9329 6.35864C12.3329 6.05864 12.8329 6.05864 13.1329 6.35864C13.2329 5.65864 13.5329 4.95864 14.0329 4.25864C14.2329 3.95864 14.4329 3.75864 14.7329 3.55864L14.9329 3.35864C15.3329 3.05864 15.8329 3.05864 16.1329 3.35864C16.6329 3.75864 17.1329 4.25864 17.4329 4.85864C18.2329 3.85864 19.3329 3.25864 20.5329 3.05864C21.1329 2.85864 21.5329 2.85864 22.0329 2.85864C22.4329 2.95864 22.8329 3.25864 22.8329 3.65864C23.0329 5.45864 22.3329 7.05864 21.0329 8.15864C21.2329 8.25864 21.3329 8.35864 21.5329 8.45864C21.8329 8.65864 22.0329 8.85864 22.2329 9.15864L22.4329 9.35864C22.7329 9.75864 22.7329 10.2586 22.4329 10.5586C21.6329 11.5586 20.5329 12.2586 19.4329 12.4586C19.7329 12.8586 19.7329 13.2586 19.4329 13.6586C18.6329 14.6586 17.5329 15.3586 16.4329 15.5586C16.7329 15.9586 16.7329 16.3586 16.4329 16.7586C15.6329 17.7586 14.5329 18.4586 13.2329 18.6586C13.5329 19.0586 13.5329 19.5586 13.2329 19.8586C11.6329 21.9586 8.63286 22.4586 6.53286 20.8586C6.43286 20.8586 6.43286 20.7586 6.33286 20.7586L4.53286 22.5586C4.43286 22.7586 4.23286 22.8586 3.93286 22.8586ZM7.93286 19.3586C8.93286 20.0586 10.2329 20.0586 11.2329 19.3586C10.6329 18.9586 9.93286 18.7586 9.23286 18.8586C8.73286 18.8586 8.33286 19.0586 7.93286 19.3586ZM6.43286 14.6586C5.73286 15.6586 5.73286 16.9586 6.43286 17.9586C6.93286 17.2586 7.03286 16.5586 6.93286 15.8586C6.93286 15.4586 6.73286 14.9586 6.43286 14.6586ZM11.0329 16.1586C11.6329 16.5586 12.3329 16.7586 13.0329 16.6586C13.5329 16.5586 13.9329 16.4586 14.2329 16.1586C13.6329 15.7586 12.9329 15.5586 12.2329 15.6586C11.8329 15.7586 11.4329 15.9586 11.0329 16.1586ZM9.63286 11.5586C9.23286 12.1586 9.03286 12.8586 9.13286 13.5586C9.23286 13.9586 9.33286 14.4586 9.63286 14.7586C10.0329 14.1586 10.2329 13.4586 10.1329 12.7586C10.0329 12.2586 9.83286 11.8586 9.63286 11.5586ZM14.0329 13.1586C15.0329 13.8586 16.3329 13.8586 17.3329 13.1586C16.7329 12.7586 16.0329 12.5586 15.3329 12.6586C14.8329 12.7586 14.4329 12.8586 14.0329 13.1586ZM12.6329 8.45864C11.9329 9.45864 11.9329 10.7586 12.6329 11.7586C13.0329 11.1586 13.2329 10.4586 13.1329 9.75864C13.0329 9.25864 12.9329 8.85864 12.6329 8.45864ZM17.1329 10.1586C18.1329 10.8586 19.4329 10.8586 20.4329 10.1586C19.4329 9.35864 18.1329 9.45864 17.1329 10.1586C17.1329 10.0586 17.1329 10.0586 17.1329 10.1586ZM15.7329 5.45864C15.0329 6.45864 15.0329 7.75864 15.7329 8.75864C16.4329 7.65864 16.3329 6.35864 15.7329 5.45864ZM20.9329 4.85864C20.2329 4.95864 19.5329 5.35864 19.1329 5.95864C18.8329 6.35864 18.6329 6.75864 18.6329 7.15864C19.3329 7.05864 20.0329 6.65864 20.4329 6.05864C20.6329 5.75864 20.8329 5.35864 20.9329 4.85864Z" fill="#1C1C31"/>
</svg>
